<svg width="69" height="18" viewBox="0 0 69 18" fill="none" xmlns="http://www.w3.org/2000/svg">
<path d="M5.54174 17.5858C3.11847 17.5858 1.90683 17.5858 1.34578 17.1066C0.858958 16.6908 0.600608 16.0671 0.650839 15.4289C0.708729 14.6933 1.56548 13.8365 3.27899 12.123L13.496 1.90603C13.8419 1.56012 14.0149 1.38717 14.2167 1.26349C14.3956 1.15383 14.5907 1.07302 14.7948 1.02403C15.025 0.968769 15.2696 0.968768 15.7587 0.968768L53.4129 0.96877C53.902 0.96877 54.1466 0.968767 54.3768 1.02403C54.5809 1.07302 54.776 1.15383 54.9549 1.26349C55.1567 1.38717 55.3297 1.56012 55.6756 1.90603L65.8926 12.123C67.6061 13.8365 68.4629 14.6933 68.5208 15.4289C68.571 16.0671 68.3126 16.6908 67.8258 17.1066C67.2648 17.5858 66.0531 17.5858 63.6299 17.5858L5.54174 17.5858Z" fill="url(#paint0_linear_2008_150)"/>
<defs>
<linearGradient id="paint0_linear_2008_150" x1="-0.0624328" y1="15.4645" x2="69.234" y2="15.4645" gradientUnits="userSpaceOnUse">
<stop stop-color="#6BD0FE"/>
<stop offset="1" stop-color="#35A8FB"/>
</linearGradient>
</defs>
</svg>
