<svg width="80" height="80" viewBox="0 0 80 80" fill="none" xmlns="http://www.w3.org/2000/svg">
<g clip-path="url(#clip0_78_12020)">
<mask id="mask0_78_12020" style="mask-type:luminance" maskUnits="userSpaceOnUse" x="0" y="0" width="80" height="80">
<path d="M80 0H0V80H80V0Z" fill="white"/>
</mask>
<g mask="url(#mask0_78_12020)">
<path d="M37.8745 66.6458C43.4995 64.9914 46.3176 61.8186 50.9995 59.3662C53.3158 58.153 57.9481 59.4767 59.0511 60.9105C60.7362 63.1012 60.8872 61.1489 59.7128 60.2486C56.404 57.7119 49.7864 55.8369 45.2644 57.8222C42.6445 58.9723 39.7495 65.4325 37.8745 66.6458Z" fill="url(#paint0_linear_78_12020)"/>
<path d="M37.8745 66.6458C43.4995 64.9914 46.3176 61.8186 50.9995 59.3662C53.3158 58.153 57.9481 59.4767 59.0511 60.9105C60.7362 63.1012 60.8872 61.1489 59.7128 60.2486C56.404 57.7119 49.7864 55.8369 45.2644 57.8222C42.6445 58.9723 39.7495 65.4325 37.8745 66.6458Z" fill="url(#paint1_linear_78_12020)"/>
<path d="M37.8745 66.6458C43.4995 64.9914 46.3176 61.8186 50.9995 59.3662C53.3158 58.153 57.9481 59.4767 59.0511 60.9105C60.7362 63.1012 60.8872 61.1489 59.7128 60.2486C56.404 57.7119 49.7864 55.8369 45.2644 57.8222C42.6445 58.9723 39.7495 65.4325 37.8745 66.6458Z" stroke="#116D1D" stroke-width="1.01845" stroke-linecap="round" stroke-linejoin="round"/>
<path d="M37.8745 66.6458C43.4995 64.9914 46.3176 61.8186 50.9995 59.3662C53.3158 58.1529 57.9481 59.4767 59.0511 60.9104C59.402 61.3665 59.6864 61.6431 59.9061 61.787" stroke="#29821C" stroke-width="1.01845" stroke-linecap="round" stroke-linejoin="round"/>
<path d="M37.8745 66.6458C40.6364 65.8334 42.7217 64.655 44.6831 63.3756" stroke="#4CAF25" stroke-width="1.01845" stroke-linecap="round" stroke-linejoin="round"/>
<path d="M14.1613 68.1899C16.6429 68.5208 24.8598 63.6677 32.5804 60.2487C39.9988 56.9633 46.3673 55.506 55.5768 59.256C57.857 60.1844 57.5318 58.4871 55.8524 57.7119C51.551 55.7266 40.1907 52.9693 32.5804 54.9546C23.1029 57.4269 18.5731 62.8958 14.1613 68.1899Z" fill="url(#paint2_linear_78_12020)"/>
<path d="M33.279 54.7109C33.0418 55.1852 31.5878 56.6089 32.4701 56.8295C32.904 56.938 34.235 55.3589 34.8967 54.4766C34.382 54.6236 33.4996 54.6373 33.279 54.7109Z" fill="#1E7C16"/>
<path d="M31.3304 55.4323C29.8231 56.5353 26.1467 61.9029 25.2643 63.6676C24.0511 64.6603 16.6982 68.0793 14.4923 68.3C14.7129 66.8662 20.8893 61.1309 21.9923 60.1383C20.8893 61.6089 18.3157 64.5133 17.9114 66.0942C19.4053 64.8029 22.5895 59.9608 23.904 59.1089C23.0131 59.8729 21.3672 63.6309 21.3304 64.9912C23.8672 60.6898 25.1909 58.9251 25.7423 58.7045C26.1836 58.3736 23.5364 62.0133 23.0951 64.1089C24.0142 64.3295 25.5217 60.0647 30.2276 55.5059C30.7989 54.9525 31.9598 54.9718 31.3304 55.4323Z" fill="url(#paint3_linear_78_12020)"/>
<path d="M14.1613 68.1899C16.6429 68.5208 24.8598 63.6677 32.5804 60.2487C39.9988 56.9633 46.3673 55.506 55.5768 59.256C57.857 60.1844 57.5318 58.4871 55.8524 57.7119C51.551 55.7266 40.1907 52.9693 32.5804 54.9546C23.1029 57.4269 18.5731 62.8958 14.1613 68.1899Z" stroke="#005401" stroke-width="1.01845" stroke-linejoin="round"/>
<path d="M32.3568 55.0134C23.0314 57.5131 18.5383 62.9375 14.1614 68.1897C15.875 68.4181 20.3229 66.175 25.454 63.6389" stroke="#06650A" stroke-width="1.01845" stroke-linecap="round" stroke-linejoin="round"/>
<path d="M25.5215 67.3076C27.0656 67.3076 31.3756 67.5946 37.2862 64.4399C43.2789 61.2413 50.1171 57.1606 57.3965 60.6899C60.8629 62.3707 58.7585 59.5162 57.176 58.7046C52.8746 56.4987 44.7128 56.0576 38.7937 57.4179C35.6323 58.1445 30.8156 61.462 25.5215 67.3076Z" fill="url(#paint4_linear_78_12020)"/>
<g opacity="0.8">
<path d="M25.4114 67.4178C29.1918 63.0813 35.4803 58.4918 35.6687 58.8148C35.2276 60.1384 34.4556 61.8663 35.1173 61.9767C35.779 62.087 37.7643 57.8223 39.3084 57.4913C39.9125 57.362 43.4764 56.4804 42.8379 57.1973C42.1439 57.9767 38.4612 61.9723 40.7423 57.4913C38.6467 57.6017 36.0879 62.5745 35.1173 65.4324C34.235 65.9838 35.7792 62.8957 35.3379 62.7854C34.8967 62.6751 33.0218 64.7707 32.5806 66.0943C31.8039 66.5312 30.982 66.7338 29.8233 66.9767C29.3245 67.0812 33.0218 63.4473 31.6983 63.337C31.294 63.3032 27.4587 67.5557 27.0659 67.557C26.4842 67.5588 25.9236 67.5153 25.4114 67.4178Z" fill="url(#paint5_linear_78_12020)"/>
</g>
<g opacity="0.3">
<path d="M38.7937 63.4471C39.8847 62.1137 45.8526 58.1162 50.2644 58.2265C55.8475 58.366 56.6245 59.6971 57.9481 60.4691C54.9701 59.9177 48.4997 57.4912 38.7937 63.4471Z" fill="#89C7A2"/>
</g>
<path d="M25.5217 67.3076C27.0658 67.3076 31.3758 67.5946 37.2864 64.4399C43.279 61.2413 50.1173 57.1606 57.3967 60.6899C60.8631 62.3707 58.7586 59.5162 57.1761 58.7046C52.8747 56.4987 44.7128 56.0576 38.7937 57.4179C35.6323 58.1445 30.8158 61.462 25.5217 67.3076Z" stroke="#126535" stroke-width="1.01845" stroke-linecap="round" stroke-linejoin="round"/>
<path d="M57.1761 58.7046C52.8747 56.4987 44.7128 56.0576 38.7937 57.4179C35.6323 58.1445 30.8158 61.462 25.5217 67.3076C27.0658 67.3076 31.3758 67.5946 37.2864 64.4399C39.5912 63.2098 42.0211 61.849 44.5529 60.841" stroke="#247C50" stroke-width="1.01845" stroke-linecap="round" stroke-linejoin="round"/>
<path d="M38.9798 57.3759C38.9176 57.3896 38.8554 57.4037 38.7937 57.4179C35.6323 58.1444 30.8158 61.4619 25.5217 67.3076C26.9922 67.3076 30.9712 67.5679 36.4523 64.8679" stroke="#1F9B57" stroke-width="1.01845" stroke-linecap="round" stroke-linejoin="round"/>
<path d="M43.0033 20.2119C40.8525 22.1972 37.5437 24.0169 37.8747 30.6346C38.1478 36.0974 39.0956 42.8196 48.2975 51.4802C51.11 54.1272 51.9983 52.3685 49.9518 50.3221C44.9886 45.3588 44.4923 40.2302 45.6504 30.6346C46.3454 24.8764 43.8304 22.5282 43.0033 20.2119Z" fill="url(#paint6_linear_78_12020)"/>
<path d="M42.842 20.0471C41.1901 21.3766 37.8249 23.2412 37.8935 30.796C37.9582 37.9301 40.2213 43.4438 48.2973 51.4802C40.2638 43.0145 39.7345 35.369 39.5631 30.7206C39.4516 27.6995 40.3215 24.3426 42.4095 22.8427C43.9934 24.354 44.3863 26.7196 45.5526 30.7038C46.1726 27.0171 44.466 23.1056 42.842 20.0471Z" fill="url(#paint7_linear_78_12020)"/>
<path d="M41.8064 35.11C41.1023 38.7126 44.0215 39.7123 46.4972 45.322C45.8895 43.6755 44.9808 39.9964 45.2548 36.6686C44.2197 27.0111 42.3312 31.3803 43.6628 35.4166C44.7528 38.7206 43.5453 38.852 41.8064 35.11Z" fill="url(#paint8_linear_78_12020)"/>
<path d="M43.0033 20.2119C40.8525 22.1972 37.5437 24.0169 37.8747 30.6346C38.1478 36.0974 39.0956 42.8196 48.2975 51.4802C51.11 54.1272 51.9983 52.3685 49.9518 50.3221C44.9886 45.3588 44.4923 40.2302 45.6504 30.6346C46.3454 24.8764 43.8304 22.5282 43.0033 20.2119Z" stroke="#7EAE1B" stroke-width="1.01845" stroke-linecap="round" stroke-linejoin="round"/>
<path d="M6.95538 38.5944C8.16866 39.0356 18.904 41.3886 21.8819 41.0576C24.8599 40.7267 30.2641 39.9547 32.5804 40.6164C34.8966 41.2781 46.698 50.5429 48.4627 52.087C50.2274 53.6311 50.6687 51.2047 49.3451 49.8811C48.0215 48.5575 33.3526 37.3075 31.4776 36.7561C29.6026 36.2047 16.6613 33.1531 12.6173 34.2561C10.1862 34.919 8.20538 37.1973 6.95538 38.5944Z" fill="#1E8C07"/>
<path d="M33.7937 39.6236C32.2127 39.2927 30.5584 38.8885 30.3504 40.3596C31.2293 40.375 32.0013 40.4508 32.5804 40.6163C34.8967 41.278 46.6981 50.5429 48.4627 52.0869C50.2274 53.631 50.6687 51.2046 49.3451 49.881C48.0215 48.5574 33.3526 37.3074 31.4776 36.756C32.1762 38.5943 32.7643 38.8883 33.7937 39.6236Z" fill="#2C6C11"/>
<path d="M6.95538 38.5944C8.16866 39.0356 18.9038 41.3886 21.8818 41.0576C24.8598 40.7267 25.0804 34.7709 22.8744 34.6606C18.0466 37.1876 14.8437 35.5472 10.4113 37.7489C12.176 36.9769 13.3891 34.7709 12.6171 34.2562C10.186 34.9192 8.20538 37.1973 6.95538 38.5944Z" fill="url(#paint9_linear_78_12020)"/>
<path d="M6.95538 38.5944C8.16866 39.0356 18.904 41.3886 21.8819 41.0576C24.8599 40.7267 30.2641 39.9547 32.5804 40.6164C34.8966 41.2781 46.698 50.5429 48.4627 52.087C50.2274 53.6311 50.6687 51.2047 49.3451 49.8811C48.0215 48.5575 33.3526 37.3075 31.4776 36.7561C29.6026 36.2047 16.6613 33.1531 12.6173 34.2561C10.1862 34.919 8.20538 37.1973 6.95538 38.5944Z" stroke="#215E0B" stroke-width="1.01845" stroke-linecap="round" stroke-linejoin="round"/>
<path d="M30.6165 40.3663C31.3851 40.3916 32.0606 40.4679 32.5804 40.6165C34.8967 41.2782 46.6981 50.543 48.4628 52.0871C50.2275 53.6312 50.6687 51.2048 49.3451 49.8812C48.0768 48.6129 34.5551 38.2304 31.7778 36.8798" stroke="#19400C" stroke-width="1.01845" stroke-linecap="round" stroke-linejoin="round"/>
<path d="M29.1614 33.006C35.3378 36.3147 50.9995 52.8588 56.6245 57.7118C58.1643 59.0402 59.0862 58.6661 57.2864 57.05C51.882 52.1971 36.2203 38.5207 32.029 31.5721C28.7679 26.1657 26.357 31.5036 29.1614 33.006Z" fill="#144F07"/>
<path d="M29.1614 33.006C35.3378 36.3147 50.9995 52.8588 56.6245 57.7118C58.1643 59.0402 59.0862 58.6661 57.2864 57.05C51.882 52.1971 36.2203 38.5207 32.029 31.5721C28.7679 26.1657 26.357 31.5036 29.1614 33.006Z" stroke="#153419" stroke-width="1.01845" stroke-linecap="round" stroke-linejoin="round"/>
<path d="M63.9042 18.2266C64.5659 20.4325 65.3381 24.7341 65.0071 27.2708C64.6762 29.8075 52.6542 50.1016 58.9409 57.6016C65.2276 65.1016 58.4529 60.328 56.9557 57.9325C48.6837 44.6972 53.9778 39.4031 56.4042 32.1238C59.4153 23.0906 62.5806 20.5428 63.9042 18.2266Z" fill="url(#paint10_linear_78_12020)"/>
<g opacity="0.8">
<path d="M63.9039 18.2266C64.5656 20.4326 65.3378 24.734 65.0069 27.2707C64.8967 28.1157 63.4892 30.9308 61.8934 34.5872C58.2789 33.5574 55.5217 44.3663 55.1908 42.8222C54.65 40.2988 57.5772 35.6696 59.4922 33.1163C60.8158 31.3516 62.6908 28.484 61.5878 29.256C59.1633 30.9532 56.0731 37.9693 56.1834 35.8737C56.3906 31.9377 62.5805 28.8149 63.4628 24.6237C63.8292 22.8833 60.4849 28.9251 56.4039 32.1237C59.415 23.0905 62.5803 20.5429 63.9039 18.2266Z" fill="url(#paint11_linear_78_12020)"/>
</g>
<path d="M62.3493 33.553C59.0982 40.8635 54.5459 52.3588 58.9407 57.6017C65.2275 65.1017 58.4526 60.328 56.9554 57.9325C48.6834 44.6972 53.9775 39.4032 56.4039 32.1238C54.8598 40.6164 59.2715 40.5061 62.3493 33.553Z" fill="url(#paint12_linear_78_12020)"/>
<path d="M63.9042 18.2266C64.5659 20.4325 65.3381 24.7341 65.0071 27.2708C64.6762 29.8075 52.6542 50.1016 58.9409 57.6016C65.2276 65.1016 58.4529 60.328 56.9557 57.9325C48.6837 44.6972 53.9778 39.4031 56.4042 32.1238C59.4153 23.0906 62.5806 20.5428 63.9042 18.2266Z" stroke="#35560A" stroke-width="1.01845" stroke-linecap="round" stroke-linejoin="round"/>
<path d="M55.5347 34.4343C55.8442 33.679 56.1409 32.913 56.4041 32.1238C59.4152 23.0907 62.5805 20.5429 63.9041 18.2266C64.5658 20.4326 65.338 24.7341 65.007 27.2708C64.8511 28.4662 62.0991 33.6047 59.8902 39.4894" stroke="#4A8703" stroke-width="1.01845" stroke-linecap="round" stroke-linejoin="round"/>
<path d="M68.3157 27.9325C67.3231 30.5795 66.551 33.1164 65.3378 36.0944C64.0742 39.1959 56.0023 50.3075 58.4996 57.0502C59.6026 60.0281 58.1909 60.0623 57.0657 57.9325C53.9774 52.0869 56.0731 42.1606 58.0584 37.9694C60.0437 33.7781 65.8893 28.9252 68.3157 27.9325Z" fill="url(#paint13_linear_78_12020)"/>
<path d="M68.3157 27.9325C67.3231 30.5795 66.8309 32.835 65.779 35.8737C64.7864 38.7414 59.9334 42.6016 57.2864 49.2192C57.0795 49.7366 56.237 49.0564 57.7274 46.5722C59.051 44.3662 61.2462 40.7611 60.5951 40.9472C59.3584 41.3005 58.0584 45.5797 57.9481 44.2561C57.6345 40.4933 64.2348 37.3075 64.676 33.8884C64.8595 32.4664 63.1318 32.0134 61.6981 33.4472C63.6834 31.2412 65.3378 28.8148 68.3157 27.9325Z" fill="url(#paint14_linear_78_12020)"/>
<path d="M63.7937 31.5721C60.8157 35.5428 57.3966 41.1678 56.1833 44.5868C56.404 41.6089 58.0583 34.9912 63.7937 31.5721Z" fill="#84E72D"/>
<path d="M68.3157 27.9325C67.3231 30.5795 66.551 33.1162 65.3378 36.0942C64.0742 39.1958 56.0023 50.3075 58.4996 57.0502C59.6026 60.0281 58.1909 60.0623 57.0657 57.9325C53.9774 52.0869 56.0731 42.1605 58.0584 37.9692C60.0437 33.778 65.8893 28.9252 68.3157 27.9325Z" stroke="#2B7201" stroke-width="1.01845" stroke-linecap="round" stroke-linejoin="round"/>
<path d="M61.6721 33.0719C64.0532 30.6022 66.8276 28.5412 68.3157 27.9325C67.3231 30.5795 66.551 33.1162 65.3377 36.0942C64.7832 37.4552 62.9179 40.3586 61.2098 43.7583" stroke="#56A008" stroke-width="1.01845" stroke-linecap="round" stroke-linejoin="round"/>
<path d="M46.5878 32.2339C50.1172 39.1825 50.9995 42.4913 53.0951 47.5649C54.5736 51.1444 56.6012 55.2794 59.5473 58.8149C63.9591 64.109 69.8047 66.4804 71.018 67.2524C71.6797 67.1421 72.0658 66.9768 72.562 66.5907C67.4884 64.3847 62.6064 61.1819 60.3194 58.1532C56.2384 52.7488 51.6614 41.8296 50.3378 31.2413C49.7215 26.3114 44.6923 28.5024 46.5878 32.2339Z" fill="url(#paint15_linear_78_12020)"/>
<path d="M46.5878 32.2339C50.1172 39.1825 50.9995 42.4913 53.0951 47.5649C54.5736 51.1444 56.6012 55.2794 59.5473 58.8149C63.9591 64.109 69.8047 66.4804 71.018 67.2524C71.6797 67.1421 72.0658 66.9768 72.562 66.5907C67.4884 64.3847 62.6064 61.1819 60.3194 58.1532C56.2384 52.7488 51.6614 41.8296 50.3378 31.2413C49.7215 26.3114 44.6923 28.5024 46.5878 32.2339Z" stroke="#4F9920" stroke-width="1.01845" stroke-linecap="round" stroke-linejoin="round"/>
<path d="M46.5878 32.2342C49.3481 37.6686 50.4892 40.8767 51.858 44.4437C50.1172 38.4107 49.5656 35.1018 50.9875 35.1043C50.7185 33.8203 50.4988 32.5292 50.3378 31.2415C49.7216 26.3117 44.6923 28.5026 46.5878 32.2342Z" fill="#0F6802"/>
<path d="M48.6342 36.4817C50.5823 40.7823 51.4772 43.6476 53.0952 47.5648C54.5736 51.1444 56.6013 55.2794 59.5474 58.8148C59.6936 58.9903 59.8414 59.1627 59.9905 59.3317" stroke="#157005" stroke-width="1.01845" stroke-linecap="round" stroke-linejoin="round"/>
<path d="M72.5621 66.5907C67.4885 64.3848 62.6064 61.182 60.3194 58.1532" stroke="#91CE25" stroke-width="1.01845" stroke-linecap="round" stroke-linejoin="round"/>
<path d="M50.9834 35.2364C50.7217 33.9072 50.504 32.5716 50.3378 31.2413C49.7215 26.3114 44.6923 28.5024 46.5878 32.2339C48.4722 35.9439 49.602 38.6163 50.5648 41.0736" stroke="#123D01" stroke-width="1.01845" stroke-linecap="round" stroke-linejoin="round"/>
<path d="M65.1724 73.098C65.5308 72.8039 65.9995 72.3811 66.165 72.1605C65.5033 70.5428 61.5673 63.5761 58.7753 60.9656C51.9922 54.6237 44.4267 52.7167 42.5574 52.1926C38.3593 51.0156 33.279 49.881 31.8084 48.1163C30.3377 46.3516 27.8746 52.4178 30.3746 52.4178C32.8746 52.4178 38.9062 52.6564 42.3368 53.6265C46.5848 54.8278 52.4701 56.1493 58.0584 61.4803C61.5956 64.8545 63.9959 69.7892 65.1724 73.098Z" stroke="#3F9921" stroke-width="1.01845" stroke-linecap="round" stroke-linejoin="round"/>
<path d="M66.165 72.1605C65.5033 70.5428 61.5674 63.5761 58.7753 60.9656C51.9922 54.6237 44.4267 52.7167 42.5575 52.1926C42.134 52.0739 41.7017 51.9556 41.265 51.8372" stroke="#C2E14B" stroke-width="1.01845" stroke-linecap="round" stroke-linejoin="round"/>
<path d="M58.4657 60.6798C51.7637 54.566 44.3982 52.7086 42.5574 52.1926C39.4291 51.3155 35.8108 50.4619 33.5615 49.3536" stroke="#ABCB00" stroke-width="1.01845" stroke-linecap="round" stroke-linejoin="round"/>
<path d="M42.4249 52.1489C40.6602 51.3402 33.4979 49.4816 32.0272 47.7169C30.5566 45.9522 27.8027 52.5771 30.3027 52.5771C32.8027 52.5771 39.9219 52.8907 44.101 54.2135C48.3098 55.5457 44.1896 52.9577 42.4249 52.1489Z" fill="url(#paint16_linear_78_12020)"/>
<path d="M42.4249 52.1489C40.6602 51.3402 33.4979 49.4816 32.0272 47.7169C30.5566 45.9522 27.8027 52.5771 30.3027 52.5771C32.8027 52.5771 39.9219 52.8907 44.101 54.2135C48.3098 55.5457 44.1896 52.9577 42.4249 52.1489Z" stroke="#1B470B" stroke-width="1.01845" stroke-linecap="round" stroke-linejoin="round"/>
<path d="M70.3009 69.9544C68.4259 68.8515 61.4774 62.1235 59.9334 60.2485C58.3893 58.3735 55.5215 55.0646 52.8745 50.6529C50.5582 46.7926 46.9099 52.8457 50.0068 54.5132C52.8745 56.0573 57.7816 59.4204 59.3818 61.0205C61.8082 63.4469 67.5437 69.4029 68.9774 71.7191C69.3084 71.2779 69.8596 70.6162 70.3009 69.9544Z" fill="#9EBF00"/>
<path d="M55.4633 54.7723C54.6271 53.501 53.751 52.1132 52.8747 50.6529C50.5585 46.7926 46.9102 52.8457 50.0071 54.5132C51.6719 55.4096 54.0244 56.9193 56.0179 58.341C54.1983 56.0574 54.419 54.8441 55.4633 54.7723Z" fill="url(#paint17_linear_78_12020)"/>
<path d="M70.3009 69.9544C68.4259 68.8515 61.4774 62.1235 59.9334 60.2485C58.3893 58.3735 55.5215 55.0646 52.8745 50.6529C50.5582 46.7926 46.9099 52.8457 50.0068 54.5132C52.8745 56.0573 57.7816 59.4204 59.3818 61.0205C61.8082 63.4469 67.5437 69.4029 68.9774 71.7191C69.3084 71.2779 69.8596 70.6162 70.3009 69.9544Z" stroke="#4A9636" stroke-width="1.01845" stroke-linecap="round" stroke-linejoin="round"/>
<path d="M51.2426 49.3926C49.282 49.2382 47.5898 53.2116 50.007 54.5132C52.8746 56.0572 57.7818 59.4204 59.382 61.0205C60.7735 62.4121 63.2537 64.9647 65.3865 67.3258" stroke="#157005" stroke-width="1.01845" stroke-linecap="round" stroke-linejoin="round"/>
<path d="M55.1538 54.1457C54.3999 53.076 53.6282 51.9091 52.8745 50.6529C50.5582 46.7926 46.9099 52.8457 50.0068 54.5132C51.3366 55.2293 53.1052 56.3366 54.7791 57.4779" stroke="#0D5900" stroke-width="1.01845" stroke-linecap="round" stroke-linejoin="round"/>
<path d="M70.3009 69.9544C68.4259 68.8515 61.4775 62.1235 59.9334 60.2485C59.191 59.3471 58.1428 58.1143 56.9603 56.5868" stroke="#D5F201" stroke-width="1.01845" stroke-linecap="round" stroke-linejoin="round"/>
<path d="M57.4978 61.1677C58.0492 61.6365 58.2698 61.8018 58.6007 62.1879C59.2625 61.4985 60.8892 59.7707 61.4775 59.256C61.2017 58.9251 60.7331 58.4656 60.5125 58.0979C59.9611 58.677 58.0125 60.7265 57.4978 61.1677Z" fill="#EDD75C"/>
<path d="M57.4978 61.1677C58.0492 61.6365 58.2698 61.8018 58.6007 62.1879C59.2625 61.4985 60.8892 59.7707 61.4775 59.256C61.2017 58.9251 60.7331 58.4656 60.5125 58.0979C59.9611 58.677 58.0125 60.7265 57.4978 61.1677Z" stroke="#EDD75C" stroke-width="1.01845" stroke-linecap="round" stroke-linejoin="round"/>
<path d="M59.0756 61.7788L59.5151 61.3021L58.5403 60.2157L58.1111 60.6684L59.0756 61.7788Z" fill="#EDEB5B"/>
<path d="M59.0756 61.7788L59.5151 61.3021L58.5403 60.2157L58.1111 60.6684L59.0756 61.7788Z" stroke="#EDEC5C" stroke-width="1.01845" stroke-linecap="round" stroke-linejoin="round"/>
<path d="M9.52876 24.2928C12.0309 23.2812 27.3825 21.3672 25.4984 31.2826C22.9294 39.0625 20.2731 29.4531 10.3008 26.3884C8.6422 26.1209 7.78142 24.9992 9.52876 24.2928Z" fill="url(#paint18_linear_78_12020)"/>
<path d="M9.52893 24.2927C11.2936 24.403 12.7275 25.8368 12.6878 27.2402C11.8161 26.8069 10.9842 26.5918 10.301 26.3883C9.11456 26.0351 7.44643 25.2729 9.52893 24.2927Z" fill="#F955AF"/>
<path d="M9.52876 24.2928C12.0309 23.2812 27.3825 21.3672 25.4984 31.2826C22.9294 39.0625 20.2731 29.4531 10.3008 26.3884C8.6422 26.1209 7.78142 24.9992 9.52876 24.2928Z" stroke="#8C0036" stroke-width="1.01845" stroke-linecap="round" stroke-linejoin="round"/>
<path d="M10.1116 26.3536C8.57938 26.0345 7.84923 24.9719 9.52876 24.2928C9.66485 24.2378 9.83891 24.1801 10.0463 24.1217" stroke="#C1006A" stroke-width="1.01845" stroke-linecap="round" stroke-linejoin="round"/>
<path d="M21.3306 14.8076C23.5366 18.7782 27.9219 18.5905 31.3673 21.3149C36.11 25.0649 33.2225 33.1338 30.485 32.7853C24.4187 32.0133 15.2644 17.3443 21.3306 14.8076Z" fill="#A00837"/>
<path d="M21.3306 14.8076C23.5366 18.7782 27.9219 18.5905 31.3673 21.3149C36.11 25.0649 33.2225 33.1338 30.485 32.7853C24.4187 32.0133 15.2644 17.3443 21.3306 14.8076Z" stroke="#6D0000" stroke-width="1.01845" stroke-linecap="round" stroke-linejoin="round"/>
<path d="M18.4159 21.4096C16.848 17.8257 17.0959 12.2862 20.5115 12.4759C22.4969 12.5862 22.4272 15.4402 22.6072 18.3213C22.9381 23.6154 27.46 29.0199 24.8129 28.689C22.1659 28.358 19.188 23.1743 18.4159 21.4096Z" fill="url(#paint19_linear_78_12020)"/>
<path d="M18.4159 21.4096C16.848 17.8257 17.0959 12.2862 20.5115 12.4759C22.4969 12.5862 22.4272 15.4402 22.6072 18.3213C22.9381 23.6154 27.46 29.0199 24.8129 28.689C22.1659 28.358 19.188 23.1743 18.4159 21.4096Z" stroke="#A8045A" stroke-width="1.01845" stroke-linecap="round" stroke-linejoin="round"/>
<path d="M22.8746 22.3077C21.6613 20.1018 22.1026 17.4548 20.2276 16.6827C19.0873 16.2132 17.029 16.3518 15.154 16.3518C13.279 16.3518 10.7423 18.668 12.3966 20.7637C14.051 22.8593 16.9187 24.5135 18.132 26.7194C19.3452 28.9254 22.8124 36.094 27.6126 32.9372C30.6441 30.9437 23.6412 23.7015 22.8746 22.3077Z" fill="url(#paint20_linear_78_12020)"/>
<path d="M22.8746 22.3077C21.6613 20.1018 22.1026 17.4548 20.2276 16.6827C19.0873 16.2132 17.029 16.3518 15.154 16.3518C13.279 16.3518 10.7423 18.668 12.3966 20.7637C14.051 22.8593 16.9187 24.5135 18.132 26.7194C19.3452 28.9254 22.8124 36.094 27.6126 32.9372C30.6441 30.9437 23.6412 23.7015 22.8746 22.3077Z" stroke="#560027" stroke-width="1.01845" stroke-linecap="round" stroke-linejoin="round"/>
<g opacity="0.5">
<path d="M16.8082 16.3348C13.9407 16.0207 11.0546 17.8905 12.631 20.2555C13.3717 21.3666 14.469 21.8616 15.7281 23.0338C13.3295 18.5921 14.2717 17.3441 16.8082 16.3348Z" fill="#FF7DCA"/>
</g>
<path d="M22.8746 22.3076C21.0155 19.2579 23.3202 15.3516 15.6521 16.4851C22.8905 16.5626 19.3374 24.0088 22.8746 22.3076Z" fill="url(#paint21_linear_78_12020)"/>
<path d="M24.5271 24.4819C23.7365 23.4785 23.0805 22.6821 22.8746 22.3077C21.6613 20.1018 22.1026 17.4548 20.2276 16.6827C19.0873 16.2132 17.029 16.3518 15.154 16.3518C13.279 16.3518 10.7423 18.668 12.3966 20.7637C12.5115 20.909 12.6321 21.0523 12.7576 21.1938" stroke="#C1006A" stroke-width="1.01845" stroke-linecap="round" stroke-linejoin="round"/>
<path d="M17.029 21.8664C18.2335 22.2278 21.3853 23.2889 25.0804 22.5281C28.8304 21.7561 26.797 31.25 20.3379 25.3958C19.1121 24.2847 16.9187 24.4031 16.3673 23.7414C15.8159 23.0797 15.926 21.5355 17.029 21.8664Z" fill="url(#paint22_linear_78_12020)"/>
<path d="M17.029 21.8664C18.2335 22.2278 21.3853 23.2889 25.0804 22.5281C28.8304 21.7561 26.797 31.25 20.3379 25.3958C19.1121 24.2847 16.9187 24.4031 16.3673 23.7414C15.8159 23.0797 15.926 21.5355 17.029 21.8664Z" stroke="#AD0067" stroke-width="1.01845" stroke-linecap="round" stroke-linejoin="round"/>
<path d="M23.791 22.726C24.2117 22.6829 24.6421 22.6182 25.0804 22.528C28.8304 21.756 26.797 31.2499 20.3379 25.3957C19.1121 24.2846 16.9187 24.403 16.3673 23.7413C16.1481 23.4782 16.0334 23.0757 16.0442 22.707" stroke="#8C005A" stroke-width="1.01845" stroke-linecap="round" stroke-linejoin="round"/>
<path d="M26.2938 18.5942C25.5046 19.9753 21.6615 21.1496 20.7791 24.5686C19.8968 27.9877 20.3379 33.4472 23.8672 35.2119C27.3966 36.9766 30.5469 33.5938 31.4086 31.7147C33.858 26.3736 27.7644 16.0207 26.2938 18.5942Z" fill="url(#paint23_linear_78_12020)"/>
<path d="M20.7792 24.5685C19.9288 28.3839 20.3379 33.4471 23.8673 35.2117C27.3966 36.9764 29.7152 34.4719 31.3696 31.7146C35.9424 24.4904 21.1618 30.8324 20.7792 24.5685Z" fill="url(#paint24_linear_78_12020)"/>
<path d="M26.2938 18.5942C25.5046 19.9753 21.6615 21.1496 20.7791 24.5686C19.8968 27.9877 20.3379 33.4472 23.8672 35.2119C27.3966 36.9766 30.5469 33.5938 31.4086 31.7147C33.858 26.3736 27.7644 16.0207 26.2938 18.5942Z" stroke="#7C163B" stroke-width="1.01845" stroke-linecap="round" stroke-linejoin="round"/>
<path d="M23.6466 36.7559C26.6245 37.4177 28.4259 36.0941 29.6759 34.697C28.6097 34.7706 27.4333 34.8074 23.3156 33.2264C19.7119 31.8428 18.3524 28.0427 10.301 26.3883C18.573 29.256 17.556 35.4025 23.6466 36.7559Z" fill="url(#paint25_linear_78_12020)"/>
<path d="M23.6466 36.7559C26.6245 37.4177 28.4259 36.0941 29.6759 34.697C28.6097 34.7706 27.4333 34.8074 23.3156 33.2264C19.7119 31.8428 18.3524 28.0427 10.301 26.3883C18.573 29.256 17.556 35.4025 23.6466 36.7559Z" stroke="#8C0036" stroke-width="1.01845" stroke-linecap="round" stroke-linejoin="round"/>
<path d="M23.6466 36.7561C26.6246 37.4178 28.426 36.0943 29.676 34.6972C28.6097 34.7708 27.4333 34.8075 23.3157 33.2266C22.6296 32.9632 22.0249 32.6122 21.4399 32.2052" stroke="#750332" stroke-width="1.01845" stroke-linecap="round" stroke-linejoin="round"/>
<path d="M22.6653 34.6742C25.6639 35.8203 27.7342 35.4688 28.3088 34.8535C27.4217 34.6094 25.9764 34.3752 23.3157 33.2267C19.7714 31.6971 17.5435 29.5686 15.2641 28.5392C17.2263 30.4299 20.6019 33.8856 22.6653 34.6742Z" fill="#F06AAF"/>
<path d="M27.7608 34.6044C26.8116 34.4358 25.4639 34.0513 23.3156 33.2264C19.7119 31.8428 18.3524 28.0427 10.301 26.3883" stroke="#C1006A" stroke-width="1.01845" stroke-linecap="round" stroke-linejoin="round"/>
<path d="M26.7349 16.3518C29.3819 19.4401 35.1171 19.4401 35.448 25.8371C35.6224 29.2069 33.0449 33.313 29.9333 34.6605C28.0583 34.5502 23.6099 32.0135 25.2643 24.4032C26.178 20.1999 27.7275 18.9988 26.7349 16.3518Z" fill="url(#paint26_linear_78_12020)"/>
<path d="M31.9829 20.6348C33.9405 21.8454 35.2719 22.4321 35.448 25.8369C35.6224 29.2068 33.0449 33.3129 29.9333 34.6604C29.3196 34.6243 28.5901 34.251 27.7344 33.761C30.641 31.046 27.5712 28.2449 27.9021 25.4876C28.1583 23.3521 31.1768 25.1032 31.8726 24.1641C32.5683 23.2251 29.6472 20.7766 31.9829 20.6348Z" fill="url(#paint27_linear_78_12020)"/>
<g opacity="0.5">
<path d="M26.7348 16.3518C29.3818 19.4401 35.1171 19.4401 35.448 25.8371C35.6224 29.2069 33.0449 33.2027 29.9334 34.5502C32.4701 31.7929 35.2227 28.3094 33.2446 24.541C30.2579 18.851 25.0804 22.5282 26.7348 16.3518Z" fill="url(#paint28_linear_78_12020)"/>
</g>
<path d="M26.7349 16.3518C29.3819 19.4401 35.1172 19.4401 35.4482 25.8371C35.6225 29.2069 33.0449 33.313 29.9333 34.6605C28.0583 34.5502 23.6099 32.0135 25.2643 24.4032C26.178 20.1999 27.7275 18.9988 26.7349 16.3518Z" stroke="#C1006A" stroke-width="1.01845" stroke-linecap="round" stroke-linejoin="round"/>
<path d="M34.7735 22.9052C35.1452 23.7065 35.3875 24.6643 35.4482 25.8371C35.6225 29.2069 33.0449 33.313 29.9333 34.6605C28.0583 34.5502 23.6099 32.0135 25.2643 24.4032C26.178 20.1999 27.7275 18.9988 26.7349 16.3518" stroke="#8C0036" stroke-width="1.01845" stroke-linecap="round" stroke-linejoin="round"/>
<path d="M24.3083 15.2486C25.301 14.256 28.2421 14.4951 28.573 16.9766C28.904 19.4582 26.1099 21.3885 25.1173 24.6972C26.1183 18.4408 25.8191 15.8369 24.3083 15.2486Z" fill="#E7256D"/>
<path d="M24.3083 15.2486C25.301 14.256 28.2421 14.4951 28.573 16.9766C28.904 19.4582 26.1099 21.3885 25.1173 24.6972C26.1183 18.4408 25.8191 15.8369 24.3083 15.2486Z" stroke="#C30055" stroke-width="1.01845" stroke-linecap="round" stroke-linejoin="round"/>
<path d="M25.4421 23.796C25.3206 24.0852 25.2109 24.3851 25.1173 24.6971C26.1045 18.5279 25.8273 15.9101 24.3709 15.2743" stroke="#8C0036" stroke-width="1.01845" stroke-linecap="round" stroke-linejoin="round"/>
<path d="M13.4996 38.6309C9.85997 38.4103 7.83155 43.5339 9.97029 46.7926C11.8417 49.644 14.7128 51.4249 18.7937 51.6455C22.8746 51.8662 26.6607 44.7195 24.3085 41.9397C21.8821 39.072 18.7334 38.9481 13.4996 38.6309Z" fill="#D4B72C"/>
<g opacity="0.5">
<path d="M10.2895 40.1658C8.93561 41.8923 8.60983 44.7197 9.97029 46.7925C14.922 53.5934 18.9931 45.8453 15.9354 45.3243C13.0171 44.8272 10.5106 42.9711 10.2895 40.1658Z" fill="#B57206"/>
</g>
<path d="M13.4996 38.6309C9.85997 38.4103 7.83155 43.5339 9.97029 46.7926C11.8417 49.644 14.7128 51.4249 18.7937 51.6455C22.8746 51.8662 26.6607 44.7195 24.3085 41.9397C21.8821 39.072 18.7334 38.9481 13.4996 38.6309Z" stroke="#A36100" stroke-width="1.01845" stroke-linecap="round" stroke-linejoin="round"/>
<path d="M16.8084 33.4473C17.3599 34.6605 19.5425 40.8735 26.3198 39.9369C27.944 39.7125 18.6834 46.2414 16.9188 44.0355C15.1541 41.8296 14.7128 37.0869 16.8084 33.4473Z" fill="url(#paint29_linear_78_12020)"/>
<path d="M16.8084 33.4473C17.3599 34.6605 19.5425 40.8735 26.3198 39.9369C27.944 39.7125 18.6834 46.2414 16.9188 44.0355C15.1541 41.8296 14.7128 37.0869 16.8084 33.4473Z" stroke="#70330A" stroke-width="1.01845" stroke-linecap="round" stroke-linejoin="round"/>
<path d="M16.9188 41.7191C14.9852 41.2178 10.7424 42.05 10.8527 45.5793C10.963 49.1087 17.0291 48.9984 18.5731 47.5646C20.1172 46.1309 19.8967 42.4911 16.9188 41.7191Z" fill="url(#paint30_linear_78_12020)"/>
<path d="M16.9188 41.7191C14.9852 41.2178 10.7424 42.05 10.8527 45.5793C10.963 49.1087 17.0291 48.9984 18.5731 47.5646C20.1172 46.1309 19.8967 42.4911 16.9188 41.7191Z" stroke="#A36100" stroke-width="1.01845" stroke-linecap="round" stroke-linejoin="round"/>
<path d="M13.9409 34.8811C14.8232 36.8664 18.5732 42.1604 25.3011 40.6164C32.0291 39.0723 31.2569 48.3368 25.7422 48.7781C20.2276 49.2193 10.9629 45.1384 13.9409 34.8811Z" fill="url(#paint31_linear_78_12020)"/>
<path d="M13.9409 34.8811C14.8232 36.8664 18.5732 42.1604 25.3011 40.6164C32.0291 39.0723 31.2569 48.3368 25.7422 48.7781C20.2276 49.2193 10.9629 45.1384 13.9409 34.8811Z" stroke="#823C0C" stroke-width="1.01845" stroke-linecap="round" stroke-linejoin="round"/>
<path d="M25.4627 48.7963C19.946 49.0799 11.0917 45.0034 13.9026 35.0151" stroke="#A36100" stroke-width="1.01845" stroke-linecap="round" stroke-linejoin="round"/>
<path d="M32.6173 48.5205C33.5704 44.8441 33.7202 39.6236 28.8673 38.5942C24.8557 37.7433 22.2683 39.4982 19.197 37.4622C21.2203 40.9596 31.0732 40.3589 32.6173 48.5205Z" fill="#824606"/>
<path d="M32.6173 48.5205C33.5704 44.8441 33.7202 39.6236 28.8673 38.5942C24.8557 37.7433 22.2683 39.4982 19.197 37.4622C21.2203 40.9596 31.0732 40.3589 32.6173 48.5205Z" stroke="#5B2104" stroke-width="1.01845" stroke-linecap="round" stroke-linejoin="round"/>
<path d="M32.6173 48.5205C33.5704 44.8441 33.7202 39.6236 28.8673 38.5942C24.8557 37.7433 22.2683 39.4982 19.197 37.4622C19.2197 37.5014 19.2433 37.54 19.268 37.5781" stroke="#662F0A" stroke-width="1.01845" stroke-linecap="round" stroke-linejoin="round"/>
<path d="M32.36 50.1015C30.8236 62.0087 20.4483 58.8148 16.2571 55.0648C14.2504 53.2693 12.066 54.5132 9.74978 54.8442C5.59496 55.4378 5.90121 50.7756 8.31588 48.4472C11.4041 45.4692 24.2794 40.4527 27.6173 40.9472C30.5953 41.3885 33.2423 43.2633 32.36 50.1015Z" fill="url(#paint32_linear_78_12020)"/>
<path d="M32.36 50.1015C30.8236 62.0087 20.4483 58.8148 16.2571 55.0648C14.2504 53.2693 12.066 54.5132 9.74978 54.8442C5.59496 55.4378 5.90121 50.7756 8.31588 48.4472C11.4041 45.4692 24.2794 40.4527 27.6173 40.9472C30.5953 41.3885 33.2423 43.2633 32.36 50.1015Z" fill="url(#paint33_linear_78_12020)"/>
<path d="M32.36 50.1015C30.8236 62.0087 20.4483 58.8148 16.2571 55.0648C14.2504 53.2693 12.066 54.5132 9.74978 54.8442C5.59496 55.4378 5.90121 50.7756 8.31588 48.4472C11.4041 45.4692 24.2794 40.4527 27.6173 40.9472C30.5953 41.3885 33.2423 43.2633 32.36 50.1015Z" fill="url(#paint34_radial_78_12020)"/>
<path d="M24.5292 53.0491C22.1121 53.8178 17.5121 49.1428 13.1684 50.1022C8.06525 51.2272 6.44026 54.0725 9.74962 54.8444C5.59495 55.4381 5.9012 50.7756 8.31525 48.4475C10.5512 46.2928 17.7152 44.4055 22.8745 42.9915C27.187 43.3633 31.3667 50.8741 24.5292 53.0491Z" fill="url(#paint35_linear_78_12020)"/>
<path d="M22.1245 41.8451C17.0508 43.3788 10.4296 46.328 8.31931 48.5021C8.51555 49.7265 15.7986 50.5343 18.3574 48.5033C21.97 45.6359 19.1246 44.0352 22.1245 41.8451Z" fill="url(#paint36_linear_78_12020)"/>
<g opacity="0.7">
<path d="M32.3598 50.1015C30.8234 62.0086 20.4481 58.8147 16.2569 55.0648C14.2502 53.2693 12.0658 54.5132 9.7496 54.8441C5.59478 55.4377 5.90118 50.7756 8.31586 48.4471C7.2129 51.3148 7.64258 54.1316 9.85991 53.3001C11.939 52.5204 14.6197 51.2988 17.6908 54.1824C21.1064 57.3896 29.6025 59.3661 32.3598 50.1015Z" fill="url(#paint37_linear_78_12020)"/>
</g>
<path d="M32.36 50.1015C30.8236 62.0087 20.4483 58.8148 16.2571 55.0648C14.2504 53.2693 12.066 54.5132 9.74978 54.8442C5.59496 55.4378 5.90121 50.7756 8.31588 48.4472C11.4041 45.4692 24.2794 40.4527 27.6173 40.9472C30.5953 41.3885 33.2423 43.2633 32.36 50.1015Z" stroke="#70340B" stroke-width="1.01845" stroke-linecap="round" stroke-linejoin="round"/>
<path d="M21.8508 58.0631C19.6741 57.4664 17.6326 56.2955 16.2571 55.0649C14.2504 53.2694 12.066 54.5133 9.74981 54.8443C5.59499 55.4378 5.90124 50.7757 8.31591 48.4473C11.0075 45.8518 21.1332 41.7079 25.8999 41.0135" stroke="#AD6B00" stroke-width="1.01845" stroke-linecap="round" stroke-linejoin="round"/>
<path d="M27.6173 40.9474C24.1039 40.1661 11.6248 45.5245 9.09775 47.7958C13.8404 45.5898 14.8355 47.2303 18.463 46.1311C22.1027 45.0281 23.9777 41.3886 27.6173 40.9474Z" fill="#FFD503"/>
<path d="M27.6173 40.9474C24.1039 40.1661 11.6248 45.5245 9.09775 47.7958C13.8404 45.5898 14.8355 47.2303 18.463 46.1311C22.1027 45.0281 23.9777 41.3886 27.6173 40.9474Z" stroke="#D18205" stroke-width="1.01845" stroke-linecap="round" stroke-linejoin="round"/>
<path d="M9.31618 47.6113C9.23681 47.6747 9.16384 47.7363 9.09775 47.7957C13.8404 45.5897 14.8355 47.2302 18.463 46.131C22.1027 45.028 23.9777 41.3885 27.6173 40.9473" stroke="#AD6B00" stroke-width="1.01845" stroke-linecap="round" stroke-linejoin="round"/>
<path d="M36.11 41.7193C34.8372 38.8776 33.374 31.3013 38.4261 30.5796C41.5144 30.1384 41.9555 33.2267 43.8305 34.7707C45.7055 36.3148 53.3944 39.759 53.9777 44.3663C55.0806 53.0796 40.8527 52.3075 36.11 41.7193Z" fill="url(#paint38_radial_78_12020)"/>
<g opacity="0.7">
<path d="M40.8938 31.2148C42.0071 32.1337 42.62 33.774 43.8305 34.7709C45.7055 36.3149 53.3942 39.7591 53.9775 44.3665C41.8757 46.886 35.6686 33.2268 40.8938 31.2148Z" fill="url(#paint39_linear_78_12020)"/>
</g>
<path d="M36.1097 41.7193C35.1052 39.4768 33.9822 34.2855 36.0365 31.8416C35.7788 37.087 37.1026 40.7267 39.4215 46.459C38.109 45.1917 36.9577 43.6125 36.1097 41.7193Z" fill="#C3529C"/>
<path d="M36.11 41.7193C34.8372 38.8776 33.374 31.3013 38.4261 30.5796C41.5144 30.1384 41.9555 33.2267 43.8305 34.7707C45.7055 36.3148 53.3944 39.759 53.9777 44.3663C55.0806 53.0796 40.8527 52.3076 36.11 41.7193Z" stroke="#720F3C" stroke-width="1.01845" stroke-linecap="round" stroke-linejoin="round"/>
<path d="M37.6539 41.1678C35.1886 41.0974 31.3017 43.3911 30.9261 46.0206C30.7055 47.5647 32.6908 45.6897 35.2275 46.0206C37.7642 46.3516 39.3085 51.2044 42.0658 50.653C44.8231 50.1016 45.3745 41.3885 37.6539 41.1678Z" fill="#AA0B48"/>
<path d="M37.6539 41.1678C35.1886 41.0974 31.3017 43.3911 30.9261 46.0206C30.7055 47.5647 32.6908 45.6897 35.2275 46.0206C37.7642 46.3516 39.3085 51.2044 42.0658 50.653C44.8231 50.1016 45.3745 41.3885 37.6539 41.1678Z" stroke="#770C30" stroke-width="1.01845" stroke-linecap="round" stroke-linejoin="round"/>
<path d="M37.6171 39.927C35.7054 37.7946 32.6906 39.6971 33.1318 41.7559C33.4587 43.281 34.3818 42.9324 35.8525 42.7854C37.8157 42.5891 38.2504 40.6334 37.6171 39.927Z" fill="#C93683"/>
<path d="M37.6171 39.927C35.7054 37.7946 32.6906 39.6971 33.1318 41.7559C33.4587 43.281 34.3818 42.9324 35.8525 42.7854C37.8157 42.5891 38.2504 40.6334 37.6171 39.927Z" stroke="#8E1440" stroke-width="1.01845" stroke-linecap="round" stroke-linejoin="round"/>
<path d="M48.1319 37.8957C45.7422 37.3443 41.9221 38.9607 39.8232 37.6383C38.7013 36.9316 38.4425 34.7339 38.711 33.631" stroke="#891939" stroke-width="1.01845" stroke-linecap="round" stroke-linejoin="round"/>
<path d="M38.4261 36.7559C39.6356 36.9011 39.6392 38.0793 41.4039 38.0793C43.1686 38.0793 47.1392 37.0867 50.2275 38.4103C53.3157 39.7339 56.0731 43.4839 55.0804 47.7853C54.382 50.8117 51.1098 53.9617 47.3598 53.1896C41.1184 51.9046 39.0273 44.5787 37.7642 43.7043C36.3305 42.7117 35.1172 43.1529 34.2348 42.822C35.6686 41.8293 35.6687 36.425 38.4261 36.7559Z" fill="url(#paint40_linear_78_12020)"/>
<g opacity="0.6">
<path d="M53.4912 50.8349C52.0331 52.5363 49.7973 53.6916 47.3598 53.1897C41.1184 51.9047 39.2186 44.6874 37.7251 43.5505C36.5028 42.6201 33.7498 43.8671 35.085 41.3493C39.0556 36.386 45.2642 51.2044 53.4912 50.8349Z" fill="url(#paint41_linear_78_12020)"/>
</g>
<path d="M38.4422 36.726C39.3233 36.8921 39.6394 38.0794 41.404 38.0794C43.1687 38.0794 47.1392 37.0866 50.2275 38.4102C53.3157 39.7338 56.0731 43.4838 55.0804 47.7852C54.4187 43.4838 52.8193 40.6713 49.4003 39.6786C45.1108 38.4333 41.4592 39.8991 40.0804 39.2374C38.4572 38.4581 38.4261 36.5352 35.7791 39.7889C36.11 38.2449 36.9531 36.4452 38.4422 36.726Z" fill="#FF7DB2"/>
<path d="M38.4261 36.7558C39.6356 36.9009 39.6393 38.0794 41.404 38.0794C43.1687 38.0794 47.1392 37.0866 50.2275 38.4102C53.3157 39.7337 56.0731 43.4837 55.0804 47.7851C54.382 50.8115 51.1099 53.9617 47.36 53.1897C41.1186 51.9047 39.0275 44.5787 37.7644 43.7044C36.3306 42.7117 35.1173 43.153 34.235 42.822C35.6687 41.8294 35.6687 36.4248 38.4261 36.7558Z" stroke="#C30055" stroke-width="1.01845" stroke-linecap="round" stroke-linejoin="round"/>
<path d="M41.6104 49.5003C39.5648 47.0402 38.5175 44.2256 37.7644 43.7044C36.3306 42.7117 35.1173 43.153 34.235 42.822C34.2509 42.8109 34.2667 42.7994 34.2823 42.7874" stroke="#9B0453" stroke-width="1.01845" stroke-linecap="round" stroke-linejoin="round"/>
<path d="M50.5247 42.6697C46.8569 41.5743 40.5982 40.4638 31.6645 49.2874C33.3188 48.5153 35.4912 48.1902 36.2968 49.6183C38.7232 53.9197 46.6644 61.0889 53.2821 52.486C54.1735 51.3271 54.275 49.9425 54.1822 48.8542C53.9894 46.5955 53.1696 43.4596 50.5247 42.6697Z" fill="url(#paint42_linear_78_12020)"/>
<path d="M50.5247 42.6697C46.8569 41.5743 40.5982 40.4638 31.6645 49.2874C33.3188 48.5153 35.4912 48.1902 36.2968 49.6183C38.7232 53.9197 46.6644 61.0889 53.2821 52.486C54.1735 51.3271 54.275 49.9425 54.1822 48.8542C53.9894 46.5955 53.1696 43.4596 50.5247 42.6697Z" fill="url(#paint43_linear_78_12020)"/>
<path d="M31.5879 49.3295C33.2423 48.5575 35.4146 48.2323 36.2203 49.6605C38.6467 53.9619 46.5877 61.1311 53.2054 52.5281C44.6024 56.3884 46.6982 43.4839 39.5298 43.4855C37.1617 44.6069 34.5106 46.443 31.5879 49.3295Z" fill="url(#paint44_linear_78_12020)"/>
<path d="M31.5879 49.3295C33.2423 48.5575 35.4146 48.2323 36.2203 49.6605C38.6467 53.9619 46.5877 61.1311 53.2054 52.5281C44.6024 56.3884 46.6982 43.4839 39.5298 43.4855C37.1617 44.6069 34.5106 46.443 31.5879 49.3295Z" fill="url(#paint45_linear_78_12020)"/>
<path d="M31.5879 49.3295C33.2423 48.5575 35.4146 48.2323 36.2203 49.6605C38.6467 53.9619 46.5877 61.1311 53.2054 52.5281C44.6024 56.3884 46.6982 43.4839 39.5298 43.4855C37.1617 44.6069 34.5106 46.443 31.5879 49.3295Z" fill="url(#paint46_linear_78_12020)"/>
<g opacity="0.6">
<path d="M31.5877 49.3295C32.9687 48.6719 35.5413 49.1645 37.2224 48.7344C42.5629 47.3677 45.2961 44.13 39.5296 43.4855C37.1615 44.6069 34.5104 46.443 31.5877 49.3295Z" fill="url(#paint47_linear_78_12020)"/>
</g>
<g opacity="0.4">
<path d="M31.5879 49.3294C33.2423 48.5574 35.4146 48.2321 36.2203 49.6602C38.6467 53.9616 47.0565 61.4717 53.2054 52.5278C48.1318 57.4911 42.7932 54.5761 40.5032 52.2613C37.1209 48.8422 36.3213 45.3536 31.5879 49.3294Z" fill="#FF4DAF"/>
</g>
<path d="M32.5381 48.4187C32.2248 48.71 31.9081 49.0134 31.5879 49.3296C33.2423 48.5576 35.4146 48.2323 36.2203 49.6604C38.6467 53.9618 46.5879 61.131 53.2055 52.5281C54.0302 51.456 54.2274 50.4987 54.4233 49.5135" stroke="#8C024D" stroke-width="1.01845" stroke-linecap="round" stroke-linejoin="round"/>
<path d="M50.448 42.712C47.4285 41.7615 42.6146 40.8745 35.9865 45.5862" stroke="#ED3A90" stroke-width="1.01845" stroke-linecap="round" stroke-linejoin="round"/>
<path d="M40.3229 43.1351C37.7698 44.1962 34.864 46.0972 31.604 49.3139" stroke="#9B0453" stroke-width="1.01845" stroke-linecap="round" stroke-linejoin="round"/>
<path d="M46.0364 17.2339C47.2484 12.4274 51.6614 9.95456 53.3157 9.40315C54.9701 8.85175 57.8377 9.62362 56.0731 12.381C54.3084 15.1383 53.2812 17.3438 54.4876 20.143C55.579 22.6752 42.8378 29.9176 46.0364 17.2339Z" fill="url(#paint48_linear_78_12020)"/>
<path d="M46.0364 17.2339C47.2484 12.4274 51.6614 9.95456 53.3157 9.40315C54.9701 8.85175 57.8377 9.62362 56.0731 12.381C54.3084 15.1383 53.2812 17.3438 54.4876 20.143C55.579 22.6752 42.8378 29.9176 46.0364 17.2339Z" stroke="#DA8D01" stroke-width="1.01845" stroke-linecap="round" stroke-linejoin="round"/>
<path d="M53.5363 8.30011C52.5436 9.84417 50.2275 13.5942 50.1172 17.5648C46.0938 15.3124 48.7499 9.45308 53.5363 8.30011Z" fill="#C96700"/>
<path d="M53.5363 8.30011C52.5436 9.84417 50.2275 13.5942 50.1172 17.5648C46.0938 15.3124 48.7499 9.45308 53.5363 8.30011Z" stroke="#C96700" stroke-width="1.01845" stroke-linecap="round" stroke-linejoin="round"/>
<path d="M42.5437 19.4032C40.5584 10.4326 44.3819 6.16789 48.4995 6.82961C50.4609 7.14492 49.9358 8.89601 50.3378 11.0208C50.8525 13.7415 51.6612 16.2415 53.1318 18.6679C54.5979 21.0869 43.1109 21.9657 42.5437 19.4032Z" fill="url(#paint49_linear_78_12020)"/>
<path d="M42.5437 19.4031C42.4701 13.9619 45.1504 8.78235 48.1211 7.96344C50.0362 7.43548 49.9357 8.89594 50.3378 11.0208C50.8525 13.7414 51.6614 16.2414 53.132 18.6678C54.5981 21.0869 43.1109 21.9656 42.5437 19.4031Z" fill="url(#paint50_linear_78_12020)"/>
<path d="M42.5437 19.4032C40.5584 10.4326 44.3819 6.16789 48.4995 6.82961C50.4609 7.14492 49.9358 8.89601 50.3378 11.0208C50.8525 13.7415 51.6612 16.2415 53.1318 18.6679C54.5979 21.0869 43.1109 21.9657 42.5437 19.4032Z" stroke="#CE8002" stroke-width="1.01845" stroke-linecap="round" stroke-linejoin="round"/>
<path d="M44.6577 12.7673C43.6098 9.51358 38.5363 8.3003 37.9849 11.3886C37.6156 13.4558 39.915 13.9806 41.7349 16.4622C43.5547 18.9437 46.8803 19.6693 44.6577 12.7673Z" fill="url(#paint51_linear_78_12020)"/>
<path d="M44.6577 12.7673C43.6098 9.51358 38.5363 8.3003 37.9849 11.3886C37.6156 13.4558 39.915 13.9806 41.7349 16.4622C43.5547 18.9437 46.8803 19.6693 44.6577 12.7673Z" stroke="#DB8C02" stroke-width="1.01845" stroke-linecap="round" stroke-linejoin="round"/>
<path d="M49.6761 14.8075C49.1506 13.0766 46.7533 11.4436 44.7128 12.3811C42.6528 13.3276 41.8451 16.1309 43.0584 18.3369C45.579 22.92 51.5511 20.9839 49.6761 14.8075Z" fill="url(#paint52_linear_78_12020)"/>
<path d="M49.6761 14.8074C49.1506 13.0765 46.7533 11.4434 44.7128 12.3809C42.6528 13.3274 41.8451 16.1309 43.0584 18.3368C42.948 15.5198 43.8619 14.0784 45.1429 13.7426C47.1044 13.2287 48.534 14.8074 49.6761 14.8074Z" fill="#F7DF00"/>
<path d="M49.6761 14.8075C49.1506 13.0766 46.7533 11.4436 44.7128 12.3811C42.6528 13.3276 41.8451 16.1309 43.0584 18.3369C45.579 22.92 51.5511 20.9839 49.6761 14.8075Z" stroke="#CE8002" stroke-width="1.01845" stroke-linecap="round" stroke-linejoin="round"/>
<path d="M53.6466 8.4104C51.8819 9.62368 46.8085 13.8148 45.7055 18.6677C44.6025 23.5207 48.6695 32.7629 55.0805 27.7118C58.7202 24.8441 53.0078 18.711 52.5438 14.4766C52.2889 12.1509 52.323 10.3957 53.6466 8.4104Z" fill="url(#paint53_linear_78_12020)"/>
<path d="M52.9298 9.45844C45.5861 15.1173 44.0236 19.1019 46.9666 25.9515C45.3195 16.7378 51.6063 11.4437 52.9298 9.45844Z" fill="#FFFA40"/>
<g opacity="0.9">
<path d="M51.5517 29.1766C52.6202 29.1568 53.8039 28.7179 55.0806 27.7119C58.2631 25.2044 53.1102 18.0765 52.0791 14.4165C51.931 13.8907 49.6338 20.5127 51.5517 29.1766Z" fill="url(#paint54_linear_78_12020)"/>
</g>
<path d="M53.6466 8.4104C51.8819 9.62368 46.8085 13.8148 45.7055 18.6677C44.6025 23.5207 48.6695 32.7629 55.0805 27.7118C58.7202 24.8441 53.0078 18.711 52.5438 14.4766C52.2889 12.1509 52.323 10.3957 53.6466 8.4104Z" stroke="#DA8D01" stroke-width="1.01845" stroke-linecap="round" stroke-linejoin="round"/>
<path d="M54.9822 27.7883C55.0149 27.7633 55.0477 27.7378 55.0805 27.7119C58.6888 24.8689 53.1057 18.8167 52.5569 14.5867" stroke="#993710" stroke-width="1.01845" stroke-linecap="round" stroke-linejoin="round"/>
<path d="M55.2696 26.1076C54.3928 22.0094 52.8798 15.9947 56.0732 12.3811C54.3085 15.1384 53.5365 17.2339 55.1909 19.4398C56.8453 21.6458 59.9198 25.837 55.5081 29.2561" fill="#FFEE17"/>
<path d="M55.2696 26.1076C54.3928 22.0094 52.8798 15.9947 56.0732 12.3811C54.3085 15.1384 53.5365 17.2339 55.1909 19.4398C56.8453 21.6458 59.9198 25.837 55.5081 29.2561" stroke="#DB8C02" stroke-width="1.01845" stroke-linecap="round" stroke-linejoin="round"/>
<path d="M57.522 26.6738C57.2053 27.5537 56.5758 28.4275 55.5064 29.2559M55.2685 26.1075C54.3924 22.009 52.8805 15.9941 56.0745 12.3811" stroke="#C96700" stroke-width="1.01845" stroke-linecap="round" stroke-linejoin="round"/>
<path d="M37.9849 18.6677C38.0755 19.7558 36.1341 28.7711 40.7422 31.3515C46.2569 34.4398 52.3486 32.3393 55.4369 28.6997C55.5978 28.1178 55.5941 26.8584 55.28 26.2478C53.5936 22.9686 45.4778 16.835 40.301 14.9177C37.2258 13.7788 35.1172 14.1456 34.7863 15.3589C34.4553 16.5722 37.8746 17.3441 37.9849 18.6677Z" fill="url(#paint55_linear_78_12020)"/>
<path d="M37.9849 18.6677C38.0755 19.7558 36.1341 28.7711 40.7422 31.3515C46.2569 34.4398 52.3486 32.3393 55.4369 28.6997C55.5978 28.1178 55.5941 26.8584 55.28 26.2478C53.5936 22.9686 45.4778 16.835 40.301 14.9177C37.2258 13.7788 35.1172 14.1456 34.7863 15.3589C34.4553 16.5722 37.8746 17.3441 37.9849 18.6677Z" fill="url(#paint56_linear_78_12020)"/>
<path d="M55.4369 28.817C50.4728 30.8014 43.3886 30.0289 42.948 22.8586C45.4855 26.3883 50.7526 24.893 55.1245 26.3883C55.9375 26.4454 56.0547 27.3048 55.4369 28.817Z" fill="url(#paint57_linear_78_12020)"/>
<path d="M39.86 24.8444C39.7692 19.761 41.0731 18.1165 38.6467 16.4621C37.3775 15.5966 37.5438 15.0284 40.3011 14.918C35.3378 13.5944 34.9378 14.6804 34.8255 15.3776C34.6094 16.719 38.0861 17.5783 37.985 18.6588C37.2058 26.993 37.6211 29.1857 40.6221 31.318C45.8594 35.0392 53.6117 31.4949 55.6711 29.0679C48.2814 34.2516 39.9703 31.0208 39.86 24.8444Z" fill="#FFBC00"/>
<path d="M40.3013 14.9178C37.2261 13.7789 35.1175 14.1457 34.7866 15.3589C34.4557 16.5722 37.8749 17.3442 37.9852 18.6678C38.0758 19.756 36.1344 28.7711 40.7425 31.3516C46.2572 34.4398 52.5439 32.7855 55.6322 29.1458" stroke="#C96700" stroke-width="1.01845" stroke-linecap="round" stroke-linejoin="round"/>
<path d="M55.2695 26.1075C52.3217 21.9291 44.9676 16.6463 40.3011 14.9178C44.4923 16.4619 44.4922 20.5427 46.8084 22.528C48.4083 23.8992 52.0443 22.4088 55.2695 26.1075Z" fill="#FFF801"/>
<path d="M55.2695 26.1075C52.3217 21.9291 44.9676 16.6463 40.3011 14.9178C44.4923 16.4619 44.4922 20.5427 46.8084 22.528C48.4083 23.8992 52.0443 22.4088 55.2695 26.1075Z" stroke="#DB8C02" stroke-width="1.01845" stroke-linecap="round" stroke-linejoin="round"/>
<path d="M40.6489 15.0513C40.5314 15.0047 40.4155 14.9602 40.3011 14.9178C44.4923 16.4619 44.4922 20.5427 46.8084 22.528C48.4083 23.8992 52.0443 22.4088 55.2695 26.1075" stroke="#C96700" stroke-width="1.01845" stroke-linecap="round" stroke-linejoin="round"/>
</g>
</g>
<defs>
<linearGradient id="paint0_linear_78_12020" x1="41.8636" y1="62.1787" x2="46.7326" y2="61.1137" gradientUnits="userSpaceOnUse">
<stop offset="0.16" stop-color="#73BD3F"/>
<stop offset="0.4" stop-color="#4D9C2A"/>
<stop offset="0.63" stop-color="#277B14"/>
<stop offset="0.81" stop-color="#138F0A"/>
<stop offset="1" stop-color="#00A201"/>
</linearGradient>
<linearGradient id="paint1_linear_78_12020" x1="48.2698" y1="60.46" x2="47.6081" y2="57.3719" gradientUnits="userSpaceOnUse">
<stop stop-color="#126916" stop-opacity="0"/>
<stop offset="0.5" stop-color="#156C1D" stop-opacity="0.5"/>
<stop offset="1" stop-color="#186E23"/>
</linearGradient>
<linearGradient id="paint2_linear_78_12020" x1="35.926" y1="62.8038" x2="38.2421" y2="54.3112" gradientUnits="userSpaceOnUse">
<stop stop-color="#219013"/>
<stop offset="0.5" stop-color="#11750E"/>
<stop offset="1" stop-color="#005A08"/>
</linearGradient>
<linearGradient id="paint3_linear_78_12020" x1="14.3636" y1="61.71" x2="31.3837" y2="61.71" gradientUnits="userSpaceOnUse">
<stop offset="0.01" stop-color="#79BC43"/>
<stop offset="0.5" stop-color="#53A12C"/>
<stop offset="1" stop-color="#2C8614"/>
</linearGradient>
<linearGradient id="paint4_linear_78_12020" x1="33.5823" y1="66.2415" x2="50.4573" y2="58.8518" gradientUnits="userSpaceOnUse">
<stop offset="0.02" stop-color="#71BF73"/>
<stop offset="0.27" stop-color="#60A875"/>
<stop offset="0.51" stop-color="#509176"/>
<stop offset="0.59" stop-color="#2C864B"/>
<stop offset="0.67" stop-color="#087A21"/>
<stop offset="0.72" stop-color="#066B1D"/>
<stop offset="0.76" stop-color="#045C18"/>
<stop offset="0.84" stop-color="#166630"/>
<stop offset="0.91" stop-color="#287049"/>
</linearGradient>
<linearGradient id="paint5_linear_78_12020" x1="31.8636" y1="63.5851" x2="39.1431" y2="60.7174" gradientUnits="userSpaceOnUse">
<stop stop-color="#89C7A2"/>
<stop offset="0.5" stop-color="#89C7A2" stop-opacity="0.75"/>
<stop offset="1" stop-color="#89C7A2" stop-opacity="0.5"/>
</linearGradient>
<linearGradient id="paint6_linear_78_12020" x1="38.1136" y1="32.4913" x2="47.0475" y2="36.9582" gradientUnits="userSpaceOnUse">
<stop offset="0.01" stop-color="#E4FF4A"/>
<stop offset="0.5" stop-color="#9CF734"/>
<stop offset="1" stop-color="#54EF1D"/>
</linearGradient>
<linearGradient id="paint7_linear_78_12020" x1="40.6231" y1="15.7813" x2="46.3738" y2="53.4238" gradientUnits="userSpaceOnUse">
<stop stop-color="white" stop-opacity="0.98"/>
<stop offset="0.5" stop-color="#DFFF80" stop-opacity="0.64"/>
<stop offset="1" stop-color="#C0FF00" stop-opacity="0.3"/>
</linearGradient>
<linearGradient id="paint8_linear_78_12020" x1="40.6233" y1="15.7814" x2="46.374" y2="53.4239" gradientUnits="userSpaceOnUse">
<stop stop-color="white" stop-opacity="0.98"/>
<stop offset="0.5" stop-color="#DFFF80" stop-opacity="0.64"/>
<stop offset="1" stop-color="#C0FF00" stop-opacity="0.3"/>
</linearGradient>
<linearGradient id="paint9_linear_78_12020" x1="15.4573" y1="37.804" x2="22.7366" y2="37.804" gradientUnits="userSpaceOnUse">
<stop stop-color="#739929"/>
<stop offset="0.5" stop-color="#489318" stop-opacity="0.5"/>
<stop offset="1" stop-color="#1E8C07" stop-opacity="0"/>
</linearGradient>
<linearGradient id="paint10_linear_78_12020" x1="63.7387" y1="27.1788" x2="58.1137" y2="48.0244" gradientUnits="userSpaceOnUse">
<stop stop-color="#5AC013"/>
<stop offset="0.5" stop-color="#49A90F"/>
<stop offset="1" stop-color="#39920A"/>
</linearGradient>
<linearGradient id="paint11_linear_78_12020" x1="62.3324" y1="23.2726" x2="58.8806" y2="36.0641" gradientUnits="userSpaceOnUse">
<stop stop-color="#8EBD1E"/>
<stop offset="0.23" stop-color="#9BD028"/>
<stop offset="0.46" stop-color="#A8E232"/>
<stop offset="0.73" stop-color="#9ED130"/>
<stop offset="1" stop-color="#94BF2F"/>
</linearGradient>
<linearGradient id="paint12_linear_78_12020" x1="60.6136" y1="38.8977" x2="56.9959" y2="52.3038" gradientUnits="userSpaceOnUse">
<stop stop-color="#6D6700" stop-opacity="0.3"/>
<stop offset="0.5" stop-color="#536406" stop-opacity="0.65"/>
<stop offset="1" stop-color="#38610C"/>
</linearGradient>
<linearGradient id="paint13_linear_78_12020" x1="66.2385" y1="32.6477" x2="55.8709" y2="53.383" gradientUnits="userSpaceOnUse">
<stop stop-color="#6DDE1A"/>
<stop offset="0.5" stop-color="#37B00E"/>
<stop offset="0.99" stop-color="#008302"/>
</linearGradient>
<linearGradient id="paint14_linear_78_12020" x1="60.4573" y1="42.1789" x2="65.7548" y2="29.9944" gradientUnits="userSpaceOnUse">
<stop stop-color="#8EDB2E" stop-opacity="0.5"/>
<stop offset="0.5" stop-color="#AFE032" stop-opacity="0.75"/>
<stop offset="0.99" stop-color="#D1E536"/>
</linearGradient>
<linearGradient id="paint15_linear_78_12020" x1="54.2847" y1="37.6974" x2="64.8656" y2="57.2852" gradientUnits="userSpaceOnUse">
<stop stop-color="#1E9F14"/>
<stop offset="0.5" stop-color="#78C225"/>
<stop offset="0.99" stop-color="#D1E536"/>
</linearGradient>
<linearGradient id="paint16_linear_78_12020" x1="34.8322" y1="49.8352" x2="34.2808" y2="52.7027" gradientUnits="userSpaceOnUse">
<stop stop-color="#475D00"/>
<stop offset="0.5" stop-color="#4A6C13"/>
<stop offset="1" stop-color="#4E7B26"/>
</linearGradient>
<linearGradient id="paint17_linear_78_12020" x1="49.2074" y1="50.6162" x2="56.455" y2="57.9088" gradientUnits="userSpaceOnUse">
<stop stop-color="#23803B"/>
<stop offset="0.5" stop-color="#34951F" stop-opacity="0.75"/>
<stop offset="1" stop-color="#45AA02" stop-opacity="0.5"/>
</linearGradient>
<linearGradient id="paint18_linear_78_12020" x1="12.9572" y1="24.835" x2="17.0302" y2="26.7148" gradientUnits="userSpaceOnUse">
<stop stop-color="#AA114F"/>
<stop offset="0.5" stop-color="#8E0939"/>
<stop offset="1" stop-color="#710124"/>
</linearGradient>
<linearGradient id="paint19_linear_78_12020" x1="18.5355" y1="15.9134" x2="21.6237" y2="19.9941" gradientUnits="userSpaceOnUse">
<stop stop-color="#F546A1"/>
<stop offset="0.5" stop-color="#D22367"/>
<stop offset="1" stop-color="#AE002C"/>
</linearGradient>
<linearGradient id="paint20_linear_78_12020" x1="20.1448" y1="23.429" x2="15.4021" y2="17.804" gradientUnits="userSpaceOnUse">
<stop offset="0.12" stop-color="#56041C"/>
<stop offset="0.59" stop-color="#9B205B"/>
<stop offset="1" stop-color="#E03B9A"/>
</linearGradient>
<linearGradient id="paint21_linear_78_12020" x1="18.426" y1="17.3352" x2="21.1158" y2="23.1633" gradientUnits="userSpaceOnUse">
<stop stop-color="#FD68BB"/>
<stop offset="0.5" stop-color="#FD68BB" stop-opacity="0.5"/>
<stop offset="1" stop-color="#FD68BB" stop-opacity="0"/>
</linearGradient>
<linearGradient id="paint22_linear_78_12020" x1="16.8635" y1="24.5227" x2="22.2679" y2="25.5152" gradientUnits="userSpaceOnUse">
<stop stop-color="#CF50A0"/>
<stop offset="0.5" stop-color="#B73B7F"/>
<stop offset="1" stop-color="#9E275E"/>
</linearGradient>
<linearGradient id="paint23_linear_78_12020" x1="31.3949" y1="20.8858" x2="26.3805" y2="27.9372" gradientUnits="userSpaceOnUse">
<stop stop-color="#AA1649"/>
<stop offset="0.5" stop-color="#B93677"/>
<stop offset="1" stop-color="#C855A4"/>
</linearGradient>
<linearGradient id="paint24_linear_78_12020" x1="26.7074" y1="28.4288" x2="25.1993" y2="32.8644" gradientUnits="userSpaceOnUse">
<stop stop-color="#AA1649" stop-opacity="0"/>
<stop offset="0.3" stop-color="#8E103B" stop-opacity="0.5"/>
<stop offset="1" stop-color="#720A2D"/>
</linearGradient>
<linearGradient id="paint25_linear_78_12020" x1="20.4572" y1="32.1788" x2="21.5741" y2="35.0825" gradientUnits="userSpaceOnUse">
<stop stop-color="#CE65AD"/>
<stop offset="0.5" stop-color="#C3509C"/>
<stop offset="1" stop-color="#B73B8B"/>
</linearGradient>
<linearGradient id="paint26_linear_78_12020" x1="29.8322" y1="21.0852" x2="30.3008" y2="33.384" gradientUnits="userSpaceOnUse">
<stop stop-color="#FF6BB0"/>
<stop offset="0.23" stop-color="#FF5498"/>
<stop offset="0.46" stop-color="#FF3E81"/>
<stop offset="0.73" stop-color="#DD367C"/>
<stop offset="1" stop-color="#BA2D78"/>
</linearGradient>
<linearGradient id="paint27_linear_78_12020" x1="34.5197" y1="29.3663" x2="27.001" y2="26.2335" gradientUnits="userSpaceOnUse">
<stop offset="0.11" stop-color="#8E002C"/>
<stop offset="0.58" stop-color="#9F1340" stop-opacity="0.6"/>
<stop offset="1" stop-color="#AF2754" stop-opacity="0.2"/>
</linearGradient>
<linearGradient id="paint28_linear_78_12020" x1="33.426" y1="31.554" x2="28.4073" y2="18.5812" gradientUnits="userSpaceOnUse">
<stop stop-color="#FF0063" stop-opacity="0"/>
<stop offset="0.44" stop-color="#FF378E" stop-opacity="0.4"/>
<stop offset="0.84" stop-color="#FF6DB8" stop-opacity="0.8"/>
</linearGradient>
<linearGradient id="paint29_linear_78_12020" x1="19.8323" y1="40.46" x2="16.292" y2="37.2491" gradientUnits="userSpaceOnUse">
<stop offset="0.01" stop-color="#904A00"/>
<stop offset="0.64" stop-color="#9C6100"/>
<stop offset="1" stop-color="#A87800"/>
</linearGradient>
<linearGradient id="paint30_linear_78_12020" x1="11.9019" y1="45.2" x2="19.0894" y2="45.3562" gradientUnits="userSpaceOnUse">
<stop stop-color="#C47F05"/>
<stop offset="0.5" stop-color="#B97203"/>
<stop offset="1" stop-color="#AD6600"/>
</linearGradient>
<linearGradient id="paint31_linear_78_12020" x1="20.9262" y1="41.7101" x2="17.2865" y2="45.846" gradientUnits="userSpaceOnUse">
<stop stop-color="#AA6100"/>
<stop offset="0.5" stop-color="#B97C13"/>
<stop offset="1" stop-color="#C99727"/>
</linearGradient>
<linearGradient id="paint32_linear_78_12020" x1="6.37011" y1="49.7092" x2="32.4011" y2="49.7092" gradientUnits="userSpaceOnUse">
<stop offset="0.46" stop-color="#EBBA00"/>
<stop offset="0.66" stop-color="#C38C05"/>
<stop offset="0.86" stop-color="#9B5E09"/>
</linearGradient>
<linearGradient id="paint33_linear_78_12020" x1="16.8388" y1="46.8967" x2="28.9303" y2="55.5981" gradientUnits="userSpaceOnUse">
<stop stop-color="#E5CB00"/>
<stop offset="0.44" stop-color="#C09405" stop-opacity="0.5"/>
<stop offset="0.64" stop-color="#9B5E09" stop-opacity="0"/>
</linearGradient>
<radialGradient id="paint34_radial_78_12020" cx="0" cy="0" r="1" gradientUnits="userSpaceOnUse" gradientTransform="translate(31.6825 49.0433) scale(11.099)">
<stop stop-color="#70340B"/>
<stop offset="0.61" stop-color="#86490A" stop-opacity="0.5"/>
<stop offset="1" stop-color="#9B5E09" stop-opacity="0"/>
</radialGradient>
<linearGradient id="paint35_linear_78_12020" x1="13.5824" y1="48.585" x2="27.9886" y2="51.5113" gradientUnits="userSpaceOnUse">
<stop stop-color="#FED204"/>
<stop offset="0.62" stop-color="#FED61B" stop-opacity="0.5"/>
<stop offset="1" stop-color="#FFDB32" stop-opacity="0"/>
</linearGradient>
<linearGradient id="paint36_linear_78_12020" x1="15.9261" y1="49.8349" x2="15.4169" y2="47.0349" gradientUnits="userSpaceOnUse">
<stop stop-color="#D8B732" stop-opacity="0"/>
<stop offset="0.32" stop-color="#C6A01E" stop-opacity="0.5"/>
<stop offset="0.91" stop-color="#B48A09"/>
</linearGradient>
<linearGradient id="paint37_linear_78_12020" x1="7.64493" y1="49.5225" x2="21.0042" y2="52.7387" gradientUnits="userSpaceOnUse">
<stop stop-color="#FFFF29"/>
<stop offset="0.5" stop-color="#FFF720" stop-opacity="0.5"/>
<stop offset="1" stop-color="#FFEE17" stop-opacity="0"/>
</linearGradient>
<radialGradient id="paint38_radial_78_12020" cx="0" cy="0" r="1" gradientUnits="userSpaceOnUse" gradientTransform="translate(38.8949 33.5851) scale(6.67744)">
<stop stop-color="#C84475"/>
<stop offset="0.5" stop-color="#B23A6F"/>
<stop offset="1" stop-color="#9C3069"/>
</radialGradient>
<linearGradient id="paint39_linear_78_12020" x1="43.5822" y1="38.429" x2="40.0508" y2="39.0048" gradientUnits="userSpaceOnUse">
<stop offset="0.16" stop-color="#75032A"/>
<stop offset="0.54" stop-color="#6D0222" stop-opacity="0.5"/>
<stop offset="1" stop-color="#66001A" stop-opacity="0"/>
</linearGradient>
<linearGradient id="paint40_linear_78_12020" x1="40.3011" y1="43.1162" x2="49.2348" y2="45.9839" gradientUnits="userSpaceOnUse">
<stop stop-color="#FB65AD"/>
<stop offset="0.5" stop-color="#F96AB2"/>
<stop offset="1" stop-color="#F86EB7"/>
</linearGradient>
<linearGradient id="paint41_linear_78_12020" x1="41.0823" y1="41.7099" x2="39.189" y2="38.6335" gradientUnits="userSpaceOnUse">
<stop stop-color="#8C024D"/>
<stop offset="0.65" stop-color="#8C024D" stop-opacity="0.5"/>
<stop offset="1" stop-color="#8C024D" stop-opacity="0"/>
</linearGradient>
<linearGradient id="paint42_linear_78_12020" x1="49.051" y1="54.9911" x2="41.1562" y2="45.7618" gradientUnits="userSpaceOnUse">
<stop stop-color="#F2508D"/>
<stop offset="0.5" stop-color="#F95B9D"/>
<stop offset="1" stop-color="#FF65AD"/>
</linearGradient>
<linearGradient id="paint43_linear_78_12020" x1="42.6447" y1="51.8661" x2="43.1963" y2="47.3441" gradientUnits="userSpaceOnUse">
<stop stop-color="#D14B89"/>
<stop offset="0.5" stop-color="#E8589B" stop-opacity="0.5"/>
<stop offset="1" stop-color="#FF65AD" stop-opacity="0"/>
</linearGradient>
<linearGradient id="paint44_linear_78_12020" x1="47.0198" y1="56.5537" x2="39.189" y2="47.3994" gradientUnits="userSpaceOnUse">
<stop stop-color="#A94087"/>
<stop offset="0.5" stop-color="#C14DA0" stop-opacity="0.75"/>
<stop offset="1" stop-color="#D859BA" stop-opacity="0.5"/>
</linearGradient>
<linearGradient id="paint45_linear_78_12020" x1="39.676" y1="53.7412" x2="43.0952" y2="50.4325" gradientUnits="userSpaceOnUse">
<stop stop-color="#CA3299"/>
<stop offset="0.5" stop-color="#CA3299" stop-opacity="0.5"/>
<stop offset="1" stop-color="#CA3299" stop-opacity="0"/>
</linearGradient>
<linearGradient id="paint46_linear_78_12020" x1="44.2073" y1="54.5225" x2="41.7732" y2="49.8976" gradientUnits="userSpaceOnUse">
<stop stop-color="#9D346F"/>
<stop offset="0.5" stop-color="#B43384" stop-opacity="0.5"/>
<stop offset="1" stop-color="#CA3299" stop-opacity="0"/>
</linearGradient>
<linearGradient id="paint47_linear_78_12020" x1="34.3635" y1="46.71" x2="42.0613" y2="45.9453" gradientUnits="userSpaceOnUse">
<stop stop-color="#8C024D"/>
<stop offset="0.65" stop-color="#8C024D" stop-opacity="0.5"/>
<stop offset="1" stop-color="#8C024D" stop-opacity="0"/>
</linearGradient>
<linearGradient id="paint48_linear_78_12020" x1="57.6448" y1="12.8038" x2="55.1081" y2="16.6641" gradientUnits="userSpaceOnUse">
<stop stop-color="#FBDE00"/>
<stop offset="0.5" stop-color="#EBC007"/>
<stop offset="1" stop-color="#DBA10E"/>
</linearGradient>
<linearGradient id="paint49_linear_78_12020" x1="48.1136" y1="14.3663" x2="50.5951" y2="8.41054" gradientUnits="userSpaceOnUse">
<stop stop-color="#E5BD00"/>
<stop offset="0.5" stop-color="#F1D201"/>
<stop offset="1" stop-color="#FDE602"/>
</linearGradient>
<linearGradient id="paint50_linear_78_12020" x1="49.2073" y1="12.1789" x2="49.9696" y2="8.96594" gradientUnits="userSpaceOnUse">
<stop offset="0.01" stop-color="#C87400"/>
<stop offset="0.5" stop-color="#E19B00"/>
<stop offset="1" stop-color="#FBC200"/>
</linearGradient>
<linearGradient id="paint51_linear_78_12020" x1="42.0199" y1="13.429" x2="39.9742" y2="11.4234" gradientUnits="userSpaceOnUse">
<stop offset="0.01" stop-color="#EAC400"/>
<stop offset="0.45" stop-color="#F5DF20"/>
<stop offset="1" stop-color="#FFFB41"/>
</linearGradient>
<linearGradient id="paint52_linear_78_12020" x1="46.0823" y1="17.1787" x2="46.9386" y2="13.7003" gradientUnits="userSpaceOnUse">
<stop offset="0.01" stop-color="#C87400"/>
<stop offset="0.5" stop-color="#E19B00"/>
<stop offset="1" stop-color="#FBC200"/>
</linearGradient>
<linearGradient id="paint53_linear_78_12020" x1="57.3323" y1="10.9288" x2="49.722" y2="24.0538" gradientUnits="userSpaceOnUse">
<stop stop-color="#EFA40F"/>
<stop offset="0.18" stop-color="#F5C807"/>
<stop offset="0.35" stop-color="#FAEC00"/>
<stop offset="0.68" stop-color="#F3D900"/>
<stop offset="1" stop-color="#ECC600"/>
</linearGradient>
<linearGradient id="paint54_linear_78_12020" x1="54.5199" y1="21.8665" x2="49.5885" y2="21.7988" gradientUnits="userSpaceOnUse">
<stop stop-color="#A12800"/>
<stop offset="0.77" stop-color="#A23A00" stop-opacity="0.5"/>
<stop offset="1" stop-color="#A34D00" stop-opacity="0"/>
</linearGradient>
<linearGradient id="paint55_linear_78_12020" x1="34.676" y1="23.585" x2="55.4491" y2="23.585" gradientUnits="userSpaceOnUse">
<stop stop-color="#D8B732"/>
<stop offset="0.35" stop-color="#E5AD1E"/>
<stop offset="1" stop-color="#F2A409"/>
</linearGradient>
<linearGradient id="paint56_linear_78_12020" x1="43.2697" y1="24.21" x2="46.472" y2="20.1842" gradientUnits="userSpaceOnUse">
<stop stop-color="#D8B732" stop-opacity="0"/>
<stop offset="0.32" stop-color="#D29E1E" stop-opacity="0.5"/>
<stop offset="0.91" stop-color="#CB8509"/>
</linearGradient>
<linearGradient id="paint57_linear_78_12020" x1="51.7073" y1="28.1164" x2="45.2033" y2="22.2628" gradientUnits="userSpaceOnUse">
<stop offset="0.05" stop-color="#FED204"/>
<stop offset="0.31" stop-color="#FEE102" stop-opacity="0.66"/>
<stop offset="0.51" stop-color="#FFF000" stop-opacity="0.32"/>
<stop offset="0.77" stop-color="#FFE519" stop-opacity="0.16"/>
<stop offset="1" stop-color="#FFDB32" stop-opacity="0"/>
</linearGradient>
<clipPath id="clip0_78_12020">
<rect width="80" height="80" fill="white"/>
</clipPath>
</defs>
</svg>
