<svg width="80" height="80" viewBox="0 0 80 80" fill="none" xmlns="http://www.w3.org/2000/svg">
<g clip-path="url(#clip0_78_11926)">
<mask id="mask0_78_11926" style="mask-type:luminance" maskUnits="userSpaceOnUse" x="0" y="0" width="80" height="80">
<path d="M80 0H0V80H80V0Z" fill="white"/>
</mask>
<g mask="url(#mask0_78_11926)">
<path d="M39.222 22.051L10.2681 31.9984L40.2878 43.9965L70.2483 31.8799L39.222 22.051Z" fill="#FFED69"/>
<path d="M39.222 22.051L10.2681 31.9984L40.2878 43.9965L70.2483 31.8799L39.222 22.051Z" stroke="#EA8206" stroke-width="1.14576" stroke-linecap="round" stroke-linejoin="round"/>
<path d="M39.8733 50.472L39.222 22.051L39.8733 50.472Z" fill="#FFED69"/>
<path d="M39.8733 50.472L39.222 22.051" stroke="#EA8206" stroke-width="1.14576" stroke-linecap="round" stroke-linejoin="round"/>
<path d="M14.2081 64.1704L10.2178 32.0762L39.9325 43.964V74.8934L14.2081 64.1704Z" fill="url(#paint0_linear_78_11926)"/>
<path d="M14.2081 64.1704L10.2178 32.0762L39.9325 43.964V74.8934L14.2081 64.1704Z" stroke="#EA8206" stroke-width="1.14576" stroke-linecap="round" stroke-linejoin="round"/>
<path d="M65.6568 63.8578L70.0797 31.7209L39.9325 43.9639V74.8932L65.6568 63.8578Z" fill="#F99F00"/>
<path d="M65.6568 63.8578L70.0797 31.7209L39.9325 43.9639V74.8932L65.6568 63.8578Z" stroke="#EA8206" stroke-width="1.14576" stroke-linecap="round" stroke-linejoin="round"/>
<g opacity="0.54">
<path d="M11.6701 43.197L10.635 35.4041L40 47.5686V55.5409L11.6701 43.197Z" fill="#EA8206"/>
<path d="M68.4945 43.6911L69.5603 35.4821L40 47.5685V55.5408L68.4945 43.6911Z" fill="#EA8206"/>
</g>
<path d="M49.8256 70.8833L50.5905 39.2811L58.2286 36.6167L56.6941 67.8044L49.8256 70.8833Z" fill="#BC0404"/>
<path d="M29.9309 70.8834L28.7417 39.1036L21.6366 36.4392L23.4572 68.0414L29.9309 70.8834Z" fill="#DD0505"/>
<g opacity="0.54">
<path d="M21.9089 40.0742L28.9714 42.9998L29.2103 50.8395L22.218 47.7928L21.9089 40.0742Z" fill="#990000"/>
<path d="M57.9644 40.2233L50.6994 43.1937L50.3133 51.2519C50.3133 51.2519 57.6966 48.4014 57.735 48.1655C57.7734 47.9295 57.9644 40.2233 57.9644 40.2233Z" fill="#990000"/>
</g>
<path d="M49.8256 70.8833L50.5905 39.2811L58.2286 36.6167L56.6941 67.8044L49.8256 70.8833Z" stroke="#990000" stroke-width="1.14576" stroke-linecap="round" stroke-linejoin="round"/>
<path d="M29.9309 70.8834L28.7417 39.1036L21.6366 36.4392L23.4572 68.0414L29.9309 70.8834Z" stroke="#990000" stroke-width="1.14576" stroke-linecap="round" stroke-linejoin="round"/>
<path d="M40 21.3644L9.07248 31.0682L40 43.5843L70.9275 31.0682L40 21.3644Z" fill="#FFED69"/>
<path d="M40 21.3644L9.07248 31.0682L40 43.5843L70.9275 31.0682L40 21.3644Z" stroke="#EA8206" stroke-width="1.14576" stroke-linecap="round" stroke-linejoin="round"/>
<path d="M10.1076 38.8611L9.07247 31.0682L40 43.5843V51.5566L10.1076 38.8611Z" fill="#FFD917"/>
<path d="M10.1076 38.8611L9.07247 31.0682L40 43.5843V51.5566L10.1076 38.8611Z" stroke="#EA8206" stroke-width="1.14576" stroke-linecap="round" stroke-linejoin="round"/>
<path d="M69.8617 39.2772L70.9275 31.0682L40 43.5843V51.5566L69.8617 39.2772Z" fill="#FFB522"/>
<path d="M69.8617 39.2772L70.9275 31.0682L40 43.5843V51.5566L69.8617 39.2772Z" stroke="#EA8206" stroke-width="1.14576" stroke-linecap="round" stroke-linejoin="round"/>
<path d="M20.7062 35.7231L51.022 24.8282L58.3642 27.0782L28.2851 38.9204L20.7062 35.7231Z" fill="#AF0808"/>
<path d="M20.7062 35.7231L51.022 24.8282L58.3642 27.0782L28.2851 38.9204L20.7062 35.7231Z" stroke="#990000" stroke-width="1.14576" stroke-linecap="round" stroke-linejoin="round"/>
<path d="M29.2747 47.4524L28.8142 39.004L20.7062 35.723L21.2812 43.8997L29.2747 47.4524Z" fill="#C90000"/>
<path d="M29.2747 47.4524L28.8142 39.004L20.7062 35.723L21.2812 43.8997L29.2747 47.4524Z" stroke="#990000" stroke-width="1.14576" stroke-linecap="round" stroke-linejoin="round"/>
<path d="M59.5484 35.7232L29.2326 24.8283L21.8904 27.0783L50.5904 38.9263L59.5484 35.7232Z" fill="#AF0808"/>
<path d="M59.5484 35.7232L29.2326 24.8283L21.8904 27.0783L50.5904 38.9263L59.5484 35.7232Z" stroke="#990000" stroke-width="1.14576" stroke-linecap="round" stroke-linejoin="round"/>
<path d="M50.5141 47.8727L50.7681 39.2814L59.5484 35.7231L58.9391 44.4328L50.5141 47.8727Z" fill="#BC0404"/>
<path d="M50.5141 47.8727L50.7681 39.2814L59.5484 35.7231L58.9391 44.4328L50.5141 47.8727Z" stroke="#990000" stroke-width="1.14576" stroke-linecap="round" stroke-linejoin="round"/>
<path d="M42.5913 32.095C42.5913 32.095 54.473 30.1 60.9695 26.5061C70.5489 21.2067 65.4533 16.5189 65.4533 16.5189C65.4533 16.5189 56.3322 10.9325 54.9199 6.53174C54.9199 6.53174 57.4927 13.5581 52.4299 20.9649C47.367 28.3716 40.1617 30.7355 40.1617 30.7355L42.5913 32.095Z" fill="#AF0000"/>
<path d="M42.5913 32.095C42.5913 32.095 54.473 30.1 60.9695 26.5061C70.5489 21.2067 65.4533 16.5189 65.4533 16.5189C65.4533 16.5189 56.3322 10.9325 54.9199 6.53174C54.9199 6.53174 57.4927 13.5581 52.4299 20.9649C47.367 28.3716 40.1617 30.7355 40.1617 30.7355L42.5913 32.095Z" stroke="#990000" stroke-width="1.14576" stroke-linecap="round" stroke-linejoin="round"/>
<path d="M40.1617 30.7354C40.1617 30.7354 37.9967 18.475 42.3144 10.6201C46.6321 2.76527 55.577 5.60762 55.577 5.60762C55.577 5.60762 60.4741 12.5728 65.63 16.4851C65.63 16.4851 53.4975 12.2717 47.7775 20.6023C42.0575 28.9329 41.6219 32.0193 41.6219 32.0193L40.1617 30.7354Z" fill="#FF0B0B"/>
<path d="M40.1617 30.7354C40.1617 30.7354 37.9967 18.475 42.3144 10.6201C46.6321 2.76527 55.577 5.60762 55.577 5.60762C55.577 5.60762 60.4741 12.5728 65.63 16.4851C65.63 16.4851 53.4975 12.2717 47.7775 20.6023C42.0575 28.9329 41.6219 32.0193 41.6219 32.0193L40.1617 30.7354Z" stroke="#990000" stroke-width="1.14576" stroke-linecap="round" stroke-linejoin="round"/>
<path d="M41.1536 18.1572C41.1536 18.1572 41.7064 11.0517 46.0485 8.20965C50.3905 5.36762 52.9958 6.31497 52.9958 6.31497C52.9958 6.31497 55.1274 10.9729 59.5485 13.9729C59.5485 13.9729 51.8907 14.0518 48.7327 17.1307C45.5747 20.2097 45.18 21.7097 45.18 21.7097C45.18 21.7097 43.9168 17.8414 41.1536 18.1572Z" fill="url(#paint1_linear_78_11926)"/>
<path d="M35.5119 27.8376L39.253 29.8845C39.253 29.8845 38.2459 22.7848 37.4781 15.1189C36.7103 7.45293 27.5742 2.06027 22.2595 7.69199C22.2595 7.69199 19.6261 16.4581 16.7283 21.1081C16.7283 21.1081 20.6556 15.7582 26.0684 16.3751C31.4813 16.992 35.5119 27.8376 35.5119 27.8376Z" fill="#AF0000"/>
<path d="M35.5119 27.8376L39.253 29.8845C39.253 29.8845 38.2459 22.7848 37.4781 15.1189C36.7103 7.45293 27.5742 2.06027 22.2595 7.69199C22.2595 7.69199 19.6261 16.4581 16.7283 21.1081C16.7283 21.1081 20.6556 15.7582 26.0684 16.3751C31.4813 16.992 35.5119 27.8376 35.5119 27.8376Z" stroke="#990000" stroke-width="1.14576" stroke-linecap="round" stroke-linejoin="round"/>
<path d="M39.253 29.8846C39.253 29.8846 38.0923 27.2589 32.7878 22.7498C27.4833 18.2407 19.2838 15.8465 22.2595 7.69214C22.2595 7.69214 17.1186 18.6032 13.0728 22.9687C13.0728 22.9687 14.2158 28.3235 21.343 29.464C28.4702 30.6045 31.4409 27.5206 39.253 29.8846Z" fill="#FF0B0B"/>
<path d="M39.253 29.8846C39.253 29.8846 38.0923 27.2589 32.7878 22.7498C27.4833 18.2407 19.2838 15.8465 22.2595 7.69214C22.2595 7.69214 17.1186 18.6032 13.0728 22.9687C13.0728 22.9687 14.2158 28.3235 21.343 29.464C28.4702 30.6045 31.4409 27.5206 39.253 29.8846Z" stroke="#990000" stroke-width="1.14576" stroke-linecap="round" stroke-linejoin="round"/>
<path d="M15.2589 24.3151C15.2589 24.3151 19.8378 21.7888 21.6536 15.6309C21.6536 15.6309 24.3378 19.6573 29.7851 22.1046C29.7851 22.1046 24.3378 23.9993 23.4694 28.4204C23.4694 28.4204 17.3116 28.1835 15.2589 24.3151Z" fill="url(#paint2_linear_78_11926)"/>
<path d="M40.8631 31.5196C40.8631 31.5196 45.6413 32.8486 48.2813 36.2616C50.9213 39.6746 57.7781 41.2829 57.7781 41.2829C57.7781 41.2829 59.1158 35.7055 62.4788 34.2399C62.4788 34.2399 58.1544 34.5391 54.7208 32.5868C51.2872 30.6344 42.1002 29.3911 39.2889 30.5941L40.8631 31.5196Z" fill="#FF0B0B"/>
<path d="M40.8631 31.5196C40.8631 31.5196 45.6413 32.8486 48.2813 36.2616C50.9213 39.6746 57.7781 41.2829 57.7781 41.2829C57.7781 41.2829 59.1158 35.7055 62.4788 34.2399C62.4788 34.2399 58.1544 34.5391 54.7208 32.5868C51.2872 30.6344 42.1002 29.3911 39.2889 30.5941L40.8631 31.5196Z" stroke="#990000" stroke-width="1.14576" stroke-linecap="round" stroke-linejoin="round"/>
<path d="M40.1153 30.3499C40.1153 30.3499 35.0525 30.6281 32.4355 35.5512C29.8184 40.4743 29.1836 41.6043 29.1836 41.6043C29.1836 41.6043 25.9064 37.5926 20.9041 37.3396C15.9017 37.0867 14.0856 37.1965 14.0856 37.1965C14.0856 37.1965 19.8702 34.4692 26.6656 31.4771C33.4611 28.4851 38.7716 29.0895 38.7716 29.0895L40.1153 30.3499Z" fill="#FF0B0B"/>
<path d="M40.1153 30.3499C40.1153 30.3499 35.0525 30.6281 32.4355 35.5512C29.8184 40.4743 29.1836 41.6043 29.1836 41.6043C29.1836 41.6043 25.9064 37.5926 20.9041 37.3396C15.9017 37.0867 14.0856 37.1965 14.0856 37.1965C14.0856 37.1965 19.8702 34.4692 26.6656 31.4771C33.4611 28.4851 38.7716 29.0895 38.7716 29.0895L40.1153 30.3499Z" stroke="#990000" stroke-width="1.14576" stroke-linecap="round" stroke-linejoin="round"/>
<path d="M39.5694 26.6586C39.5694 26.6586 38.8409 29.3324 42.5912 32.095C42.5912 32.095 41.7394 33.8489 37.8741 31.7274C37.8741 31.7274 36.8905 31.0007 37.53 27.8C37.53 27.8 37.6006 26.8952 39.5694 26.6586Z" fill="#FF0B0B"/>
<path d="M39.5694 26.6586C39.5694 26.6586 38.8409 29.3324 42.5912 32.095C42.5912 32.095 41.7394 33.8489 37.8741 31.7274C37.8741 31.7274 36.8905 31.0007 37.53 27.8C37.53 27.8 37.6006 26.8952 39.5694 26.6586Z" stroke="#990000" stroke-width="1.14576" stroke-linecap="round" stroke-linejoin="round"/>
</g>
</g>
<defs>
<linearGradient id="paint0_linear_78_11926" x1="26.5625" y1="66.0938" x2="24.6678" y2="32.4623" gradientUnits="userSpaceOnUse">
<stop stop-color="#F9D021"/>
<stop offset="0.5" stop-color="#F9B811"/>
<stop offset="1" stop-color="white"/>
</linearGradient>
<linearGradient id="paint1_linear_78_11926" x1="52.1875" y1="19.8437" x2="44.6875" y2="4.68575" gradientUnits="userSpaceOnUse">
<stop offset="0.27" stop-color="white" stop-opacity="0"/>
<stop offset="0.74" stop-color="white" stop-opacity="0.5"/>
<stop offset="1" stop-color="white"/>
</linearGradient>
<linearGradient id="paint2_linear_78_11926" x1="25.3125" y1="29.0626" x2="17.5375" y2="13.3488" gradientUnits="userSpaceOnUse">
<stop offset="0.27" stop-color="white" stop-opacity="0"/>
<stop offset="0.74" stop-color="white" stop-opacity="0.5"/>
<stop offset="1" stop-color="white"/>
</linearGradient>
<clipPath id="clip0_78_11926">
<rect width="80" height="80" fill="white"/>
</clipPath>
</defs>
</svg>
