<svg width="80" height="80" viewBox="0 0 80 80" fill="none" xmlns="http://www.w3.org/2000/svg">
<g clip-path="url(#clip0_78_12370)">
<mask id="mask0_78_12370" style="mask-type:luminance" maskUnits="userSpaceOnUse" x="0" y="0" width="80" height="80">
<path d="M80 0H0V80H80V0Z" fill="white"/>
</mask>
<g mask="url(#mask0_78_12370)">
<path d="M37.7794 71.5974C38.1951 71.6834 38.6021 70.6572 38.089 70.5721C37.5071 70.4755 36.2302 70.3164 36.1544 70.5124C36.0831 70.6968 37.3635 71.5115 37.7794 71.5974Z" fill="#60AA3A"/>
<path d="M43.0322 60.5052C43.1584 58.3604 36.7209 57.7971 37.1307 60.7139C37.1307 60.7139 38.0145 61.9235 38.0145 65.6534C38.0145 68.2392 38.0145 72.6766 38.0145 72.6766C38.0145 72.6766 40.1449 73.4045 42.056 72.6766C42.056 72.6766 42.045 68.2389 42.056 65.8782C42.0721 62.424 42.6756 61.4182 43.0322 60.5052Z" fill="url(#paint0_linear_78_12370)"/>
<g opacity="0.4">
<path d="M40.3967 62.9044C40.1658 66.7766 40.2327 72.7477 40.2475 72.9917C39.223 72.9384 38.0152 72.6769 38.0152 72.6769C38.0152 72.6769 38.0152 68.2387 38.0152 65.6531C38.0152 61.9232 37.4049 61.3377 37.131 60.7137C37.3244 56.6303 45.0494 60.01 41.8057 61.0147C41.2946 60.9864 40.4992 61.185 40.3967 62.9044Z" fill="#297A00"/>
</g>
<path d="M43.0322 60.5052C43.1584 58.3604 36.7209 57.7971 37.1307 60.7139C37.1307 60.7139 38.0145 61.9235 38.0145 65.6534C38.0145 68.2392 38.0145 72.6766 38.0145 72.6766C38.0145 72.6766 40.1449 73.4045 42.056 72.6766C42.056 72.6766 42.045 68.2389 42.056 65.8782C42.0721 62.424 42.6756 61.4182 43.0322 60.5052Z" stroke="#3F7A21" stroke-width="1.049" stroke-linecap="round" stroke-linejoin="round"/>
<path d="M38.0145 72.6765C38.0145 72.6765 40.1448 73.4044 42.056 72.6765C42.056 72.6765 42.045 68.2388 42.056 65.8782C42.0721 62.424 42.6756 61.4181 43.0322 60.5051" stroke="#78CC00" stroke-width="1.049" stroke-linecap="round" stroke-linejoin="round"/>
<path d="M40.4531 71.4177C40.2015 71.0757 39.4921 71.33 39.6281 71.8321C39.7382 72.2383 40.21 72.7087 40.3444 72.6299C40.4788 72.551 40.6739 71.7178 40.4531 71.4177Z" fill="#C6FF48"/>
<path d="M42.2103 66.0786C41.7872 66.0437 41.5423 66.7846 41.9433 67.1158C42.3444 67.447 44.2961 67.1794 44.3247 67.0263C44.3534 66.8733 42.5816 66.1092 42.2103 66.0786Z" fill="#9CE00A"/>
<path d="M39.8059 66.4807C40.1957 66.2103 39.781 65.4435 39.2722 65.5521C38.9153 65.6284 38.2315 66.7147 38.3179 66.8443C38.4043 66.9738 39.4997 66.693 39.8059 66.4807Z" fill="#C6FF48"/>
<path d="M38.3388 64.5711C38.8023 64.5639 38.8992 63.7241 38.3654 63.4582C37.9065 63.2297 36.1382 63.6531 36.1515 63.8517C36.1642 64.0416 37.9321 64.5776 38.3388 64.5711Z" fill="#60AA3A"/>
<path d="M11.0388 47.7623C11.0388 47.7623 17.4319 46.7344 23.8713 52.7105C26.4904 55.1411 26.7428 55.9867 26.6094 56.4011C25.9778 56.7331 23.2506 55.3523 21.7865 54.1002C18.2657 51.089 16.876 47.6949 11.0388 47.7623Z" fill="#538D1B"/>
<path d="M11.0388 47.7623C11.0388 47.7623 17.4319 46.7344 23.8713 52.7105C26.4904 55.1411 26.7428 55.9867 26.6094 56.4011C25.9778 56.7331 23.2506 55.3523 21.7865 54.1002C18.2657 51.089 16.876 47.6949 11.0388 47.7623Z" stroke="#297A00" stroke-width="1.049" stroke-linecap="round" stroke-linejoin="round"/>
<path d="M26.5522 56.4248C25.8282 56.657 23.2102 55.3177 21.7865 54.1002C18.2657 51.0891 16.876 47.6949 11.0388 47.7623" stroke="#236000" stroke-width="1.049" stroke-linecap="round" stroke-linejoin="round"/>
<path d="M39.1325 17.9267C38.2921 12.0964 32.9406 7.35504 29.4016 7.35504C26.1309 7.35504 26.1902 9.66643 27.4549 11.6218C28.825 13.7402 30.9299 16.07 30.0254 21.5893C29.0765 27.38 40.1007 24.6441 39.1325 17.9267Z" fill="#AC010B"/>
<g opacity="0.4">
<path d="M30.186 19.0137C30.5249 17.2409 29.1569 13.5394 27.4548 11.6218C31.7319 15.873 32.5366 8.71124 35.8519 10.7593C38.1694 13.3784 39.0546 17.1605 30.186 19.0137Z" fill="#7B0018"/>
</g>
<g opacity="0.55">
<path d="M37.5965 14.0191C37.0511 13.1878 33.6506 9.0902 29.9222 9.13446C27.7889 9.16101 27.2271 10.1781 27.2064 11.2027C26.1981 9.35172 26.3608 7.35449 29.4019 7.35449C32.941 7.35449 36.8806 10.9159 37.5965 14.0191Z" fill="#FF2638"/>
</g>
<path d="M39.1325 17.9267C38.2921 12.0964 32.9406 7.35504 29.4016 7.35504C26.1309 7.35504 26.1902 9.66643 27.4549 11.6218C28.825 13.7402 30.9299 16.07 30.0254 21.5893C29.0765 27.38 40.1007 24.6441 39.1325 17.9267Z" stroke="#68001E" stroke-width="1.049" stroke-linecap="round" stroke-linejoin="round"/>
<path d="M52.2661 11.2926C52.9301 9.15067 52.3223 6.8388 48.159 6.93568C43.9957 7.03257 40.2362 8.72692 38.1221 11.6315C36.008 14.5361 37.026 23.07 45.5775 20.6921C51.0443 19.1721 51.8436 12.6554 52.2661 11.2926Z" fill="#AC010B"/>
<g opacity="0.54">
<path d="M51.4889 13.7693C51.987 11.6507 51.7418 8.66303 47.7795 8.68958C40.8746 8.73577 37.2804 13.8692 37.2556 14.1841C37.2841 9.7574 43.9963 7.03225 48.1595 6.93617C52.3226 6.83864 53.6997 9.27459 51.4889 13.7693Z" fill="#FF2638"/>
</g>
<path d="M52.2661 11.2926C52.9301 9.15067 52.3223 6.8388 48.159 6.93568C43.9957 7.03257 40.2362 8.72692 38.1221 11.6315C36.008 14.5361 37.026 23.07 45.5775 20.6921C51.0443 19.1721 51.8436 12.6554 52.2661 11.2926Z" stroke="#7F001E" stroke-width="1.049" stroke-linecap="round" stroke-linejoin="round"/>
<path d="M45.8523 7.20857C47.1818 7.20229 48.2361 6.79544 50.1337 7.46108C51.346 7.88628 51.7685 8.67085 52.1917 9.40601C52.0736 8.89487 51.4783 7.51499 50.3474 7.20761C48.948 6.82731 47.5237 6.90054 45.8523 7.20857Z" fill="#FF7A84"/>
<path d="M43.9883 7.62561C45.2907 7.18239 48.2279 6.59899 50.4354 7.21989C51.912 7.6351 52.2915 8.73141 52.4364 9.29791" stroke="#7F001E" stroke-width="1.049" stroke-linecap="round" stroke-linejoin="round"/>
<path d="M46.9886 43.9418C36.8015 37.6798 45.2164 21.9663 54.058 16.8665C60.8244 12.9636 65.8048 14.9311 65.1186 15.7546C54.9069 18.2868 48.6629 35.1463 46.9886 43.9418Z" fill="#F30017"/>
<path d="M46.9886 43.9418C36.8015 37.6798 45.2164 21.9663 54.058 16.8665C60.8244 12.9636 65.8048 14.9311 65.1186 15.7546C54.9069 18.2868 48.6629 35.1463 46.9886 43.9418Z" stroke="#7F001E" stroke-width="1.049" stroke-linecap="round" stroke-linejoin="round"/>
<path d="M46.741 14.5341C44.8907 11.4311 41.4383 10.0517 38.1223 10.445C35.2353 10.7875 32.4316 13.7575 31.6118 17.7687C30.7714 21.8808 30.9273 34.1394 40.7731 33.7465C52.7948 33.2668 48.3263 17.1925 46.741 14.5341Z" fill="#CD020E"/>
<g opacity="0.4">
<path d="M40.6123 26.745C33.0844 27.3688 30.036 21.2631 32.0375 17.0142C37.0036 21.3767 38.1284 14.0721 45.2409 12.8392C49.197 15.8859 48.1387 26.1226 40.6123 26.745Z" fill="#7B0018"/>
</g>
<g opacity="0.56">
<path d="M47.259 16.5516C46.0161 15.3936 42.7204 11.1658 38.1226 12.3559C33.5957 13.5253 31.5127 19.3174 31.4492 19.4978C31.2855 15.0527 34.4664 10.8495 38.1226 10.4443C41.4414 10.0764 46.4704 11.7205 47.259 16.5516Z" fill="#FF4555"/>
</g>
<path d="M46.7139 14.5239C44.859 11.4236 41.4045 10.0494 38.0891 10.4476C35.2026 10.7944 32.4033 13.7685 31.5894 17.7809C30.7551 21.8942 30.9292 34.1526 40.7745 33.7451C52.7955 33.2476 48.303 17.1799 46.7139 14.5239Z" stroke="#7F001E" stroke-width="1.049" stroke-linecap="round" stroke-linejoin="round"/>
<path d="M36.573 10.9818C37.0628 10.9038 38.1489 10.423 39.9769 10.6778C42.8969 11.0849 44.0233 11.9299 45.0043 12.7731C43.4398 11.1252 41.4482 10.7227 39.996 10.5558C38.7019 10.407 37.3846 10.6423 36.573 10.9818Z" fill="#FF7A84"/>
<path d="M36.0972 11.1228C37.2639 10.6422 38.1811 10.2485 40.0371 10.4363C42.0719 10.6422 44.0636 11.3263 45.4638 12.9555" stroke="#7F001E" stroke-width="1.049" stroke-linecap="round" stroke-linejoin="round"/>
<path d="M55.328 21.053C55.6484 17.3651 57.7179 14.6335 59.9107 12.2632C61.7316 10.2949 61.1171 9.09515 57.0402 9.55157C53.7539 9.91947 42.286 12.2928 36.3411 23.7852C30.1844 35.6868 34.9506 56.6705 45.3658 54.1432C55.0182 51.801 54.7631 27.5547 55.328 21.053Z" fill="url(#paint1_radial_78_12370)"/>
<g opacity="0.4">
<path d="M57.1067 15.8464C56.1768 17.3661 55.4326 19.0674 55.3282 21.0532C54.7459 32.1276 52.6561 43.4991 47.1152 45.0721C36.6488 45.2144 34.1824 33.3808 34.4097 32.4152C39.9194 33.4376 44.2365 31.1655 46.4333 27.0586C50.8417 18.817 56.0336 17.3935 57.1067 15.8464Z" fill="url(#paint2_linear_78_12370)"/>
</g>
<g opacity="0.4">
<path d="M59.9112 12.2627C57.7173 14.634 55.483 18.1958 54.8713 23.5916C53.9216 16.3269 58.3358 11.5729 57.2728 11.4756C50.3745 10.8441 42.2858 16.1597 42.2858 16.1597C48.0308 11.1273 54.6672 9.8176 57.0401 9.55141C61.1174 9.09451 61.7311 10.2949 59.9112 12.2627Z" fill="url(#paint3_linear_78_12370)"/>
</g>
<path d="M55.328 21.053C55.6484 17.3651 57.7179 14.6335 59.9107 12.2632C61.7316 10.2949 61.1171 9.09515 57.0402 9.55157C53.7539 9.91947 42.286 12.2928 36.3411 23.7852C30.1844 35.6868 34.9506 56.6705 45.3658 54.1432C55.0182 51.801 54.7631 27.5547 55.328 21.053Z" stroke="#B20022" stroke-width="1.049" stroke-linecap="round" stroke-linejoin="round"/>
<path d="M60.6488 9.9577C60.1853 9.49902 59.0217 9.32972 57.0402 9.55149C53.7539 9.91939 42.286 12.2927 36.3411 23.7851C30.1844 35.6868 34.9506 56.6705 45.3658 54.1431C55.0182 51.801 54.7631 27.5546 55.328 21.0529" stroke="#7F001E" stroke-width="1.049" stroke-linecap="round" stroke-linejoin="round"/>
<path d="M46.9299 40.0214C47.1718 34.929 47.4272 30.781 51.8724 24.7805C55.5666 19.7936 60.907 16.8971 65.1186 15.7548C65.1186 15.7548 55.8305 18.3409 56.4197 25.8048C56.9085 31.9977 60.8959 38.4074 59.2334 45.6748C57.5709 52.9423 51.0821 57.4139 43.7853 58.924C36.4886 60.4341 46.5971 47.0309 46.9299 40.0214Z" fill="url(#paint4_linear_78_12370)"/>
<g opacity="0.4">
<mask id="mask1_78_12370" style="mask-type:luminance" maskUnits="userSpaceOnUse" x="47" y="15" width="19" height="43">
<path d="M56.4192 25.8046C56.9087 31.9975 60.8957 38.4078 59.234 45.6741C57.9655 51.2181 53.8898 55.1343 48.7879 57.3504C62.6103 45.5281 56.0372 37.0865 54.8063 29.1798C54.4349 26.7937 54.6414 25.2535 53.9517 25.2378C52.6734 25.2086 47.4817 34.1748 47.3359 35.1126C50.5413 20.8844 62.0815 16.5912 65.0428 15.7767C64.1616 16.0428 55.8619 18.7364 56.4192 25.8046Z" fill="url(#paint5_linear_78_12370)"/>
</mask>
<g mask="url(#mask1_78_12370)">
<path d="M56.4192 25.8046C56.9087 31.9975 60.8957 38.4078 59.234 45.6741C57.9655 51.2181 53.8898 55.1343 48.7879 57.3504C62.6103 45.5281 56.0372 37.0865 54.8063 29.1798C54.4349 26.7937 54.6414 25.2535 53.9517 25.2378C52.6734 25.2086 47.4817 34.1748 47.3359 35.1126C50.5413 20.8844 62.0815 16.5912 65.0428 15.7767C64.1616 16.0428 55.8619 18.7364 56.4192 25.8046Z" fill="url(#paint6_linear_78_12370)"/>
</g>
</g>
<g opacity="0.4">
<path d="M59.6864 42.2418C58.7776 53.5452 51.0822 57.414 43.785 58.9234C37.2017 60.2866 45.729 47.6016 46.5761 42.2384C48.9522 44.3588 56.0335 55.8658 59.6864 42.2418Z" fill="url(#paint7_radial_78_12370)"/>
</g>
<path d="M46.9299 40.0214C47.1718 34.929 47.4272 30.781 51.8724 24.7805C55.5666 19.7936 60.907 16.8971 65.1186 15.7548C65.1186 15.7548 55.8305 18.3409 56.4197 25.8048C56.9085 31.9977 60.8959 38.4074 59.2334 45.6748C57.5709 52.9423 51.0821 57.4139 43.7853 58.924C36.4886 60.4341 46.5971 47.0309 46.9299 40.0214Z" stroke="#B20022" stroke-width="1.049" stroke-linecap="round" stroke-linejoin="round"/>
<path d="M43.9168 49.3616C45.3414 46.0929 46.8066 42.6183 46.9299 40.0214C47.1718 34.929 47.4272 30.781 51.8724 24.7805C55.5666 19.7936 60.907 16.8971 65.1186 15.7548C65.1186 15.7548 64.8513 15.8291 64.4103 15.9892" stroke="#7F001E" stroke-width="1.049" stroke-linecap="round" stroke-linejoin="round"/>
<path d="M42.9083 15.7516C43.9229 14.9878 47.8256 12.5336 50.7252 11.5113C53.24 10.6248 56.7174 9.55604 59.6786 9.88689C57.7232 9.11346 53.3779 10.2803 50.6603 11.3512C47.6676 12.5305 43.9632 14.505 42.9083 15.7516Z" fill="#FF7A84"/>
<path d="M41.7169 16.6941C43.9229 14.5856 47.0208 12.6141 50.601 11.23C55.5298 9.32432 58.4073 9.39531 59.8938 9.64569" stroke="#7F001E" stroke-width="1.049" stroke-linecap="round" stroke-linejoin="round"/>
<path d="M22.1691 21.612C22.3032 22.6538 22.4725 25.597 20.9165 32.8162C19.2706 40.4533 17.869 47.1027 22.3688 53.3227C26.8686 59.5426 39.1972 63.8954 45.3283 57.5468C47.2623 55.5442 50.9236 43.5142 40.3525 31.9786C38.9174 30.4126 35.2327 29.61 33.7688 27.1191C32.4561 24.8857 33.1803 17.9653 28.3858 13.9092C23.5015 9.777 18.684 9.07725 16.0351 10.478C15.0032 11.0238 13.7073 12.8511 15.9572 14.7812C18.334 16.8201 21.8734 19.3153 22.1691 21.612Z" fill="url(#paint8_radial_78_12370)"/>
<g opacity="0.4">
<path d="M47.2584 50.0497C47.7451 43.3933 42.8327 36.4191 39.5384 33.7787C34.8001 29.9809 31.9056 31.8301 29.9316 25.053C27.7634 17.6094 20.8611 12.5068 21.824 20.5527C20.8232 18.5673 17.9728 16.5094 15.9577 14.7812C13.7076 12.8504 15.0027 11.0232 16.0346 10.4776C18.6838 9.07758 23.3674 9.94101 28.3866 13.9089C33.4043 17.8768 46.2941 33.3685 47.6347 41.4329C48.3084 45.4855 47.906 47.8191 47.2584 50.0497Z" fill="#7B0018"/>
</g>
<g opacity="0.4">
<path d="M43.5577 59.0749C33.9045 65.9244 21.8342 50.9572 29.851 50.2203C36.1576 57.5557 42.9175 53.7883 44.1202 52.7855C46.2162 51.0377 47.4385 47.1081 47.2232 45.3291C48.2279 47.658 48.7365 55.4002 43.5577 59.0749Z" fill="#7B0018"/>
<path d="M43.5577 59.0749C33.9045 65.9244 21.8342 50.9572 29.851 50.2203C36.1576 57.5557 42.9175 53.7883 44.1202 52.7855C46.2162 51.0377 47.4385 47.1081 47.2232 45.3291C48.2279 47.658 48.7365 55.4002 43.5577 59.0749Z" fill="url(#paint9_linear_78_12370)"/>
</g>
<path d="M28.932 58.5102C26.2783 57.2359 23.91 55.4528 22.3695 53.3225C17.8693 47.1029 19.2709 40.4531 20.9164 32.8158C22.4731 25.5968 22.2732 19.824 22.117 17.166C22.9857 18.3506 23.3866 21.4372 23.5206 23.2903C24.3065 34.1542 15.3315 46.7884 28.932 58.5102Z" fill="#E42929"/>
<g opacity="0.63">
<path d="M18.7894 17.2491C12.882 13.3108 14.9269 11.1903 16.0346 10.4775C17.5212 9.52104 21.414 8.8517 26.8419 12.7781C26.8419 12.7781 18.0522 9.9987 16.3567 12.6841C15.5219 14.0062 17.2747 15.1286 18.7894 17.2491Z" fill="#FF192C"/>
</g>
<path d="M40.3586 32.1008C38.493 30.3138 34.9601 28.7664 33.7943 27.1712C31.9956 24.7103 33.3806 18.0201 28.3858 13.9089C28.3858 13.9089 36.8904 22.3279 42.0589 30.0978C47.1144 37.6978 49.0835 42.6205 47.8718 50.2697C47.6445 44.9683 46.015 37.5189 40.3586 32.1008Z" fill="#ED1121"/>
<path d="M46.5426 38.0745C41.6152 29.0445 32.458 20.9431 32.3086 20.8114C31.8548 18.8111 31.095 16.7088 29.4539 14.92C33.9553 18.6692 44.1795 32.1879 46.5426 38.0745Z" fill="#FF3C3C"/>
<path d="M45.4101 57.5077C51.2053 49.6699 48.3889 39.209 42.6194 30.9566C40.244 27.5587 37.9056 24.4426 35.7569 21.7857C32.8143 18.1471 30.2271 15.3696 28.3866 13.9089" stroke="#B20022" stroke-width="1.049" stroke-linecap="round" stroke-linejoin="round"/>
<path d="M22.1691 21.612C22.3032 22.6538 22.4725 25.597 20.9165 32.8162C19.2706 40.4533 17.869 47.1028 22.3688 53.3227C26.8686 59.5426 39.1972 63.8954 45.3283 57.5468C47.2623 55.5442 51.1993 43.2554 40.3525 31.9786C38.29 29.8345 34.7896 28.8689 33.7687 27.1191C32.4631 24.8815 33.1801 17.9653 28.3858 13.9092C23.5015 9.777 18.684 9.07725 16.0351 10.478C15.0032 11.0238 13.7073 12.8511 15.9572 14.7812C18.334 16.8201 21.8734 19.3153 22.1691 21.612Z" stroke="#7F001E" stroke-width="1.049" stroke-linecap="round" stroke-linejoin="round"/>
<path d="M15.6477 10.7364C14.7372 11.4765 13.9853 13.0891 15.9572 14.7809C18.334 16.8198 21.8735 19.315 22.1691 21.6117C22.3032 22.6535 22.4725 25.5967 20.9165 32.8159C19.2706 40.453 17.869 47.1025 22.3688 53.3224C26.6527 59.2439 38.0321 63.4732 44.4045 58.3874" stroke="#68001E" stroke-width="1.049" stroke-linecap="round" stroke-linejoin="round"/>
<path d="M38.3691 60.6056C47.4232 59.7686 47.7853 52.6471 47.5158 47.0618" stroke="#68001E" stroke-width="1.049" stroke-linecap="round" stroke-linejoin="round"/>
<path d="M22.1691 21.6117C22.1691 21.6117 22.0416 18.8738 21.7255 17.166" stroke="#68001E" stroke-width="1.049" stroke-linecap="round" stroke-linejoin="round"/>
<g opacity="0.4">
<path d="M22.2202 53.1111C21.9881 49.866 22.891 46.288 22.7362 42.39C22.6438 40.0626 23.2114 35.894 24.1442 36.3978C24.4811 36.5796 24.6653 44.453 29.9314 49.7376C33.5407 53.3596 35.8181 58.5783 33.8936 59.4456C31.6928 60.4375 25.2943 58.119 22.2202 53.1111Z" fill="#7B0018"/>
</g>
<path d="M20.6334 34.9674C20.6334 34.9674 21.8201 36.996 20.4855 44.3599C19.759 48.3677 20.4523 53.1715 24.2524 56.5572C27.6401 59.5756 33.3688 61.5805 39.4437 60.6482C39.4437 60.6482 37.1805 60.1142 35.194 56.538C32.2405 51.221 28.594 48.9077 26.3819 46.9906C22.7085 43.8071 24.1345 38.297 20.6334 34.9674Z" fill="url(#paint10_linear_78_12370)"/>
<g opacity="0.2">
<path d="M39.4437 60.6483C26.8681 58.3374 23.1041 50.9932 22.3383 45.4104C21.5726 39.8277 22.1026 39.5248 20.8909 35.473" stroke="#236000" stroke-width="1.049" stroke-linecap="round" stroke-linejoin="round"/>
</g>
<g opacity="0.4">
<path d="M37.3203 59.4334C33.5608 57.2572 34.1885 54.0134 26.6801 49.1595C24.5718 47.7965 23.2756 46.5389 22.4289 42.8174C21.4646 38.5788 20.7719 35.6576 20.7394 35.5867C24.2232 37.6694 22.708 43.8069 26.3817 46.9913C28.5933 48.9073 31.9374 50.5704 35.1943 56.5386C35.9763 57.9697 36.6439 58.7995 37.3203 59.4334Z" fill="#CAFF55"/>
</g>
<path d="M20.6334 34.9674C20.6334 34.9674 21.8201 36.996 20.4855 44.3599C19.759 48.3677 20.4523 53.1715 24.2524 56.5572C27.6401 59.5756 33.3688 61.5805 39.4437 60.6482C39.4437 60.6482 37.1805 60.1142 35.194 56.538C32.2405 51.221 28.594 48.9077 26.3819 46.9906C22.7085 43.8071 24.1345 38.297 20.6334 34.9674Z" stroke="#539035" stroke-width="1.049" stroke-linecap="round" stroke-linejoin="round"/>
<path d="M20.6334 34.9674C20.6334 34.9674 21.8201 36.996 20.4855 44.3599C19.759 48.3677 20.4523 53.1715 24.2524 56.5572C27.5807 59.5226 33.1685 61.5099 39.1243 60.6946" stroke="#356A17" stroke-width="1.049" stroke-linecap="round" stroke-linejoin="round"/>
<path d="M39.7656 60.4873C39.7656 60.4873 42.6885 60.3508 46.5493 56.8762C50.41 53.4015 57.3453 48.4442 69.6993 53.4876C69.6993 53.4876 65.0526 51.2986 58.8735 53.0291C52.6945 54.7597 51.0132 62.8669 39.7656 60.4873Z" fill="url(#paint11_linear_78_12370)"/>
<g opacity="0.4">
<path d="M58.8732 53.0291C52.9877 54.679 51.1827 62.1123 41.3011 60.7565C41.3011 60.7565 45.7747 61.1439 50.3873 57.1951C54.9999 53.2464 58.34 49.5865 68.4281 53.0143C66.0765 52.4943 63.3186 51.7843 58.8732 53.0291Z" fill="#CAFF55"/>
</g>
<path d="M39.7656 60.4873C39.7656 60.4873 42.6885 60.3508 46.5493 56.8762C50.41 53.4015 57.3453 48.4442 69.6993 53.4876C69.6993 53.4876 65.0526 51.2986 58.8735 53.0291C52.6945 54.7597 51.0132 62.8669 39.7656 60.4873Z" stroke="#448921" stroke-width="1.049" stroke-linecap="round" stroke-linejoin="round"/>
<path d="M69.5905 53.4434C69.6267 53.458 69.6629 53.4728 69.6993 53.4876C69.6993 53.4876 65.0526 51.2985 58.8735 53.0291C52.6945 54.7597 51.0132 62.8669 39.7656 60.4873" stroke="#78CC00" stroke-width="1.049" stroke-linecap="round" stroke-linejoin="round"/>
<path d="M42.796 60.8999C41.8681 60.8517 40.8624 60.7194 39.7656 60.4873" stroke="#366A18" stroke-width="1.049" stroke-linecap="round" stroke-linejoin="round"/>
</g>
</g>
<defs>
<linearGradient id="paint0_linear_78_12370" x1="40.1302" y1="68.3893" x2="40.1302" y2="61.3712" gradientUnits="userSpaceOnUse">
<stop stop-color="#AFFF15"/>
<stop offset="0.58" stop-color="#75C618"/>
<stop offset="0.99" stop-color="#3B8D1C"/>
</linearGradient>
<radialGradient id="paint1_radial_78_12370" cx="0" cy="0" r="1" gradientUnits="userSpaceOnUse" gradientTransform="translate(56.9884 11.9003) scale(30.8595 30.8594)">
<stop stop-color="#FF0019"/>
<stop offset="0.5" stop-color="#DA0013"/>
<stop offset="1" stop-color="#B4000C"/>
</radialGradient>
<linearGradient id="paint2_linear_78_12370" x1="45.5121" y1="25.5895" x2="49.3746" y2="28.8083" gradientUnits="userSpaceOnUse">
<stop stop-color="#B30008"/>
<stop offset="0.5" stop-color="#950010"/>
<stop offset="1" stop-color="#770017"/>
</linearGradient>
<linearGradient id="paint3_linear_78_12370" x1="58.709" y1="10.6223" x2="51.3059" y2="18.0254" gradientUnits="userSpaceOnUse">
<stop stop-color="white"/>
<stop offset="0.5" stop-color="white" stop-opacity="0.5"/>
<stop offset="1" stop-color="white" stop-opacity="0"/>
</linearGradient>
<linearGradient id="paint4_linear_78_12370" x1="57.2606" y1="31.5442" x2="47.4434" y2="51.3395" gradientUnits="userSpaceOnUse">
<stop stop-color="#FF4952"/>
<stop offset="0.37" stop-color="#F9313D"/>
<stop offset="0.75" stop-color="#F31A2A"/>
</linearGradient>
<linearGradient id="paint5_linear_78_12370" x1="63.3762" y1="10.6222" x2="60.2924" y2="48.5713" gradientUnits="userSpaceOnUse">
<stop offset="0.25" stop-color="white"/>
<stop offset="0.63" stop-color="white" stop-opacity="0.5"/>
<stop offset="1" stop-color="white" stop-opacity="0"/>
</linearGradient>
<linearGradient id="paint6_linear_78_12370" x1="63.3762" y1="10.6222" x2="60.2924" y2="48.5713" gradientUnits="userSpaceOnUse">
<stop stop-color="white"/>
<stop offset="0.5" stop-color="white"/>
<stop offset="1" stop-color="white"/>
</linearGradient>
<radialGradient id="paint7_radial_78_12370" cx="0" cy="0" r="1" gradientUnits="userSpaceOnUse" gradientTransform="translate(53.3011 45.7108) scale(9.73905)">
<stop offset="0.31" stop-color="#BB0217"/>
<stop offset="0.5" stop-color="#9B0118"/>
<stop offset="0.69" stop-color="#7B0018"/>
</radialGradient>
<radialGradient id="paint8_radial_78_12370" cx="0" cy="0" r="1" gradientUnits="userSpaceOnUse" gradientTransform="translate(43.6306 38.7771) scale(28.9862 28.9862)">
<stop stop-color="#F03446"/>
<stop offset="0.25" stop-color="#EC2A35"/>
<stop offset="0.48" stop-color="#E82024"/>
<stop offset="0.76" stop-color="#CE1C1A"/>
<stop offset="1" stop-color="#B31710"/>
</radialGradient>
<linearGradient id="paint9_linear_78_12370" x1="39.9997" y1="51.8862" x2="42.8042" y2="59.0823" gradientUnits="userSpaceOnUse">
<stop stop-color="#B71818"/>
<stop offset="0.5" stop-color="#930C17"/>
<stop offset="1" stop-color="#700016"/>
</linearGradient>
<linearGradient id="paint10_linear_78_12370" x1="30.1118" y1="37.3284" x2="29.872" y2="53.7519" gradientUnits="userSpaceOnUse">
<stop stop-color="#ADD34A"/>
<stop offset="0.62" stop-color="#78B53B"/>
<stop offset="0.99" stop-color="#44962D"/>
</linearGradient>
<linearGradient id="paint11_linear_78_12370" x1="55.218" y1="57.2846" x2="50.7211" y2="52.7877" gradientUnits="userSpaceOnUse">
<stop stop-color="#CBF360"/>
<stop offset="0.62" stop-color="#87C547"/>
<stop offset="0.99" stop-color="#44962D"/>
</linearGradient>
<clipPath id="clip0_78_12370">
<rect width="80" height="80" fill="white"/>
</clipPath>
</defs>
</svg>
