<svg width="80" height="80" viewBox="0 0 80 80" fill="none" xmlns="http://www.w3.org/2000/svg">
<g clip-path="url(#clip0_78_12520)">
<mask id="mask0_78_12520" style="mask-type:luminance" maskUnits="userSpaceOnUse" x="0" y="0" width="80" height="80">
<path d="M80 0H0V80H80V0Z" fill="white"/>
</mask>
<g mask="url(#mask0_78_12520)">
<path d="M40.8919 76.9284C39.8627 76.9284 38.8917 76.5301 38.1581 75.8072C33.7427 71.4548 22.6366 60.2433 14.892 50.1608C10.1785 44.024 7.01955 38.5759 5.23533 33.5053C3.75205 29.2903 3.10346 25.2817 3.46736 20.9092C4.53111 8.12498 15.0124 2.61311 22.4841 3.17983C29.9999 3.74998 36.5624 7.65608 40.252 14.0639L40.8919 14.977L41.5317 14.0639C45.8594 7.18733 52.4292 3.73092 59.2214 3.41436C67.1094 3.04686 77.5781 8.20311 78.3164 20.9092C78.5709 25.289 78.0316 29.2901 76.5483 33.5051C74.7638 38.5764 71.605 44.0247 66.8917 50.1608C59.1455 60.2453 48.0405 71.4553 43.6255 75.8072C42.8919 76.5301 41.9211 76.9284 40.8919 76.9284Z" fill="url(#paint0_linear_78_12520)"/>
<path d="M40.8919 76.9284C39.8627 76.9284 38.8917 76.5301 38.1581 75.8072C33.7427 71.4548 22.6366 60.2433 14.892 50.1608C10.1785 44.024 7.01955 38.5759 5.23533 33.5053C3.75205 29.2903 3.10346 25.2817 3.46736 20.9092C4.53111 8.12498 15.0124 2.61311 22.4841 3.17983C29.9999 3.74998 36.5624 7.65608 40.252 14.0639L40.8919 14.977L41.5317 14.0639C45.8594 7.18733 52.4292 3.73092 59.2214 3.41436C67.1094 3.04686 77.5781 8.20311 78.3164 20.9092C78.5709 25.289 78.0316 29.2901 76.5483 33.5051C74.7638 38.5764 71.605 44.0247 66.8917 50.1608C59.1455 60.2453 48.0405 71.4553 43.6255 75.8072C42.8919 76.5301 41.9211 76.9284 40.8919 76.9284Z" stroke="#A52272" stroke-width="1.01845" stroke-miterlimit="10"/>
<path d="M75.398 22.678C75.8004 14.3095 70.0273 5.79038 59.2011 5.7487C47.4221 5.70346 41.2788 19.8368 40.9417 20.7162C40.9304 20.7456 40.9248 20.7607 40.9248 20.7607C40.9248 20.7607 35.0711 5.82629 22.2128 5.86281C11.3866 5.89356 6.1173 14.5575 6.3209 22.43C6.48143 28.6367 8.73449 35.8612 17.2066 47.184C20.1883 51.1693 22.5043 54.0071 25.9853 57.7629C37.2539 69.9216 43.8024 70.5169 55.4677 57.9614C58.4234 54.7802 61.3639 51.4669 64.4448 47.5809C73.2306 36.4998 75.0997 28.8796 75.398 22.678Z" fill="url(#paint1_linear_78_12520)"/>
<mask id="mask1_78_12520" style="mask-type:luminance" maskUnits="userSpaceOnUse" x="6" y="5" width="70" height="63">
<path d="M75.398 22.678C75.8004 14.3095 70.0273 5.79038 59.2011 5.7487C47.4221 5.70346 41.2788 19.8368 40.9417 20.7162C40.9304 20.7456 40.9248 20.7607 40.9248 20.7607C40.9248 20.7607 35.0711 5.82629 22.2128 5.86281C11.3866 5.89356 6.1173 14.5575 6.3209 22.43C6.48143 28.6367 8.73449 35.8612 17.2066 47.184C20.1883 51.1693 22.5043 54.0071 25.9853 57.7629C37.2539 69.9216 43.8024 70.5169 55.4677 57.9614C58.4234 54.7802 61.3639 51.4669 64.4448 47.5809C73.2306 36.4998 75.0997 28.8796 75.398 22.678Z" fill="url(#paint2_radial_78_12520)"/>
</mask>
<g mask="url(#mask1_78_12520)">
<path d="M75.398 22.678C75.8004 14.3095 70.0273 5.79038 59.2011 5.7487C47.4221 5.70346 41.2788 19.8368 40.9417 20.7162C40.9304 20.7456 40.9248 20.7607 40.9248 20.7607C40.9248 20.7607 35.0711 5.82629 22.2128 5.86281C11.3866 5.89356 6.1173 14.5575 6.3209 22.43C6.48143 28.6367 8.73449 35.8612 17.2066 47.184C20.1883 51.1693 22.5043 54.0071 25.9853 57.7629C37.2539 69.9216 43.8024 70.5169 55.4677 57.9614C58.4234 54.7802 61.3639 51.4669 64.4448 47.5809C73.2306 36.4998 75.0997 28.8796 75.398 22.678Z" fill="url(#paint3_radial_78_12520)"/>
</g>
<path d="M14.2698 7.86207C-0.0176606 15.6011 8.94536 35.6056 13.5934 41.9933C8.43399 33.2621 12.087 24.9773 17.4472 20.9155C24.4487 15.6099 34.5105 17.0894 40.8605 20.8597C37.3828 11.4258 26.209 1.39499 14.2698 7.86207Z" fill="white" fill-opacity="0.02"/>
<path d="M14.2698 7.86202C-0.0176554 15.6011 8.73046 34.9805 12.1547 39.7714C7.83868 32.6276 11.2111 24.2311 16.9015 20.0225C24.4894 14.4105 34.8081 15.8987 40.5628 20.1155C36.7578 11.2305 26.209 1.39495 14.2698 7.86202Z" fill="white" fill-opacity="0.02"/>
<path d="M14.2698 7.86203C-0.0176644 15.6011 8.43399 35.2871 12.1547 39.7519C6.69766 32.1617 10.6638 23.5511 16.3062 19.2783C24.2413 13.2694 36.3956 15.0554 40.5628 20.1155C37.0312 11.4454 26.209 1.39495 14.2698 7.86203Z" fill="white" fill-opacity="0.03"/>
<path d="M14.2698 7.86208C-0.017662 15.6011 8.89833 34.5535 10.8827 37.5797C6.6163 30.3367 10.267 22.7574 15.9093 18.4846C23.8444 12.4757 35.8995 14.4105 39.9675 18.7761C35.7813 10.8204 26.209 1.395 14.2698 7.86208Z" fill="white" fill-opacity="0.03"/>
<path d="M14.2699 7.86208C0.676887 15.2539 8.36694 32.7465 10.0288 36.0456C6.48178 29.1995 9.95384 21.7527 15.7605 17.4925C23.2817 11.9743 35.329 13.2943 39.397 17.6599C36.0547 11.0547 26.0682 1.4462 14.2699 7.86208Z" fill="white" fill-opacity="0.03"/>
<path d="M14.2698 7.86207C1.52024 14.8074 7.61742 30.4998 9.32895 34.4438C6.03508 27.8322 9.957 20.4232 15.7109 16.3018C23.1995 10.9379 35.0066 12.9222 38.6529 16.4197C35.2147 10.7227 26.0634 1.43766 14.2698 7.86207Z" fill="white" fill-opacity="0.04"/>
<path d="M14.2698 7.86207C2.26438 14.1129 7.01318 29.1445 8.74951 33.2621C5.54971 26.5648 10.1027 18.925 15.5125 15.3096C23.2698 10.1254 34.5105 12.1781 37.9087 15.3035C34.5311 10.5469 26.1818 1.65991 14.2698 7.86207Z" fill="white" fill-opacity="0.08"/>
<path d="M14.2698 7.86212C2.56202 14.0633 6.95463 27.9291 8.14526 31.6994C5.44155 24.0844 10.8702 16.8478 15.4876 13.9702C23.2987 9.10236 34.3368 11.6076 36.8917 14.0137C33.828 9.84392 25.253 2.04473 14.2698 7.86212Z" fill="white" fill-opacity="0.09"/>
<path d="M14.2698 7.86208C2.9093 13.7656 7.01854 27.2788 7.51463 29.6104C6.05116 22.5907 10.1027 15.7996 15.3636 12.6555C23.371 7.87021 33.6121 11.1821 35.6213 12.596C31.8163 8.08592 24.3919 2.60209 14.2698 7.86208Z" fill="white" fill-opacity="0.1"/>
<path d="M14.2698 7.86218C4.22056 13.1021 6.44425 24.0402 6.79152 26.6199C6.56828 21.1629 9.40812 14.7083 15.19 11.3658C23.266 6.69716 32.9589 10.4133 34.3727 11.1822C31.9139 8.59382 24.1173 2.72761 14.2698 7.86218Z" fill="white" fill-opacity="0.11"/>
<path d="M14.2698 7.86205C5.34016 12.6246 6.32024 21.7279 6.49387 24.6052C6.51867 20.0412 8.99478 13.4999 14.8427 10.2743C22.6786 5.95209 31.5625 9.3166 33.1611 10.0623C31.172 8.24226 23.492 2.94358 14.2698 7.86205Z" fill="white" fill-opacity="0.12"/>
<path d="M14.2698 7.86213C7.28781 11.3116 6.16247 18.7762 6.3113 21.852C6.73298 17.7592 8.72192 12.3837 14.5699 9.15813C22.4058 4.83596 30.6348 8.4253 31.2549 8.67334C29.1602 7.01183 22.6042 3.74455 14.2698 7.86213Z" fill="white" fill-opacity="0.13"/>
<path d="M67.4989 7.86207C81.7864 15.6011 72.8234 35.6056 68.1754 41.9933C73.3348 33.2621 69.6818 24.9773 64.3216 20.9155C57.3201 15.6099 47.2583 17.0894 40.9083 20.8597C44.3859 11.4258 55.5598 1.39499 67.4989 7.86207Z" fill="white" fill-opacity="0.02"/>
<path d="M67.4989 7.86202C81.7864 15.6011 73.0383 34.9805 69.6141 39.7714C73.9301 32.6276 70.5577 24.2311 64.8673 20.0225C57.2794 14.4105 46.9607 15.8987 41.206 20.1155C45.011 11.2305 55.5597 1.39495 67.4989 7.86202Z" fill="white" fill-opacity="0.02"/>
<path d="M67.4989 7.86203C81.7864 15.6011 73.3348 35.2871 69.6141 39.7519C75.0711 32.1617 71.105 23.5511 65.4626 19.2783C57.5275 13.2694 45.3732 15.0554 41.206 20.1155C44.7376 11.4454 55.5598 1.39495 67.4989 7.86203Z" fill="white" fill-opacity="0.03"/>
<path d="M67.4989 7.86208C81.7864 15.6011 72.8704 34.5535 70.8861 37.5797C75.1525 30.3367 71.5018 22.7574 65.8594 18.4846C57.9243 12.4757 45.8692 14.4105 41.8013 18.7761C45.9875 10.8204 55.5597 1.395 67.4989 7.86208Z" fill="white" fill-opacity="0.03"/>
<path d="M67.4989 7.86208C81.0919 15.2539 73.4019 32.7465 71.74 36.0456C75.287 29.1995 71.815 21.7527 66.0083 17.4925C58.4871 11.9743 46.4398 13.2943 42.3718 17.6599C45.7141 11.0547 55.7006 1.4462 67.4989 7.86208Z" fill="white" fill-opacity="0.03"/>
<path d="M67.499 7.86207C80.2486 14.8074 74.1514 30.4998 72.4399 34.4438C75.7337 27.8322 71.8118 20.4232 66.0579 16.3018C58.5693 10.9379 46.7622 12.9222 43.1159 16.4197C46.5541 10.7227 55.7054 1.43766 67.499 7.86207Z" fill="white" fill-opacity="0.04"/>
<path d="M67.4989 7.86207C79.5044 14.1129 74.7556 29.1445 73.0193 33.2621C76.2191 26.5648 71.6661 18.925 66.2563 15.3096C58.499 10.1254 47.2583 12.1781 43.8601 15.3035C47.2377 10.5469 55.5869 1.65991 67.4989 7.86207Z" fill="white" fill-opacity="0.08"/>
<path d="M67.499 7.86212C79.2068 14.0633 74.8142 27.9291 73.6235 31.6994C76.3272 24.0844 70.8986 16.8478 66.2811 13.9702C58.47 9.10236 47.432 11.6076 44.8771 14.0137C47.9408 9.84392 56.5158 2.04473 67.499 7.86212Z" fill="white" fill-opacity="0.09"/>
<path d="M67.499 7.86208C78.8595 13.7656 74.7503 27.2788 74.2542 29.6104C75.7176 22.5907 71.6661 15.7996 66.4052 12.6555C58.3978 7.87021 48.1567 11.1821 46.1475 12.596C49.9525 8.08592 57.3769 2.60209 67.499 7.86208Z" fill="white" fill-opacity="0.1"/>
<path d="M67.4989 7.86218C77.5482 13.1021 75.3245 24.0402 74.9773 26.6199C75.2005 21.1629 72.3607 14.7083 66.5788 11.3658C58.5028 6.69716 48.8099 10.4133 47.396 11.1822C49.8549 8.59382 57.6515 2.72761 67.4989 7.86218Z" fill="white" fill-opacity="0.11"/>
<path d="M67.499 7.86205C76.4287 12.6246 75.4486 21.7279 75.2749 24.6052C75.2501 20.0412 72.774 13.4999 66.9261 10.2743C59.0902 5.95209 50.2063 9.3166 48.6077 10.0623C50.5969 8.24226 58.2768 2.94358 67.499 7.86205Z" fill="white" fill-opacity="0.12"/>
<path d="M67.4989 7.86213C74.481 11.3116 75.6063 18.7762 75.4575 21.852C75.0358 17.7592 73.0468 12.3837 67.1989 9.15813C59.363 4.83596 51.134 8.4253 50.5139 8.67334C52.6086 7.01183 59.1646 3.74455 67.4989 7.86213Z" fill="white" fill-opacity="0.13"/>
<mask id="mask2_78_12520" style="mask-type:luminance" maskUnits="userSpaceOnUse" x="6" y="5" width="35" height="38">
<path d="M14.3608 7.853C0.107434 15.5835 8.16142 34.7566 13.7171 42.0265C18.2811 31.3109 36.5858 21.9421 40.9514 20.8507C36.6015 10.6641 26.2964 1.37957 14.3608 7.853Z" fill="url(#paint4_linear_78_12520)"/>
</mask>
<g mask="url(#mask2_78_12520)">
<path d="M14.3608 7.853C0.107434 15.5835 8.16142 34.7566 13.7171 42.0265C18.2811 31.3109 36.5858 21.9421 40.9514 20.8507C36.6015 10.6641 26.2964 1.37957 14.3608 7.853Z" fill="url(#paint5_linear_78_12520)" fill-opacity="0.85"/>
</g>
<mask id="mask3_78_12520" style="mask-type:luminance" maskUnits="userSpaceOnUse" x="41" y="5" width="35" height="40">
<path d="M67.2038 7.87884C81.0156 14.5313 75 34.8437 66.5662 44.4273C62.0021 33.7116 45.3756 21.8836 41.01 20.7922C44.0624 12.4219 54.0343 1.53579 67.2038 7.87884Z" fill="url(#paint6_linear_78_12520)"/>
</mask>
<g mask="url(#mask3_78_12520)">
<path d="M67.2038 7.87884C81.0156 14.5313 75 34.8437 66.5662 44.4273C62.0021 33.7116 45.3756 21.8836 41.01 20.7922C44.0624 12.4219 54.0343 1.53579 67.2038 7.87884Z" fill="url(#paint7_linear_78_12520)" fill-opacity="0.85"/>
</g>
<path d="M26.5155 45.9263C33.0659 43.3101 45.814 51.9591 52.4781 58.8996C53.4425 59.9038 53.2693 60.379 51.8134 60.7437C49.0046 61.4474 44.4905 62.3927 43.1067 63.5503C41.6702 64.7521 40.2053 68.2138 37.9772 72.489C37.0132 74.3386 36.1241 74.2213 36.0189 72.226C35.4924 62.2378 32.7676 57.2571 29.5764 54.1937C29.1912 53.8238 28.494 54.1387 28.5129 54.6768C28.6266 57.9077 30.0812 65.537 30.9369 67.4974C28.6253 65.425 24.1423 61.1564 21.9967 58.5685C21.6982 52.4873 22.9407 47.354 26.5155 45.9263Z" fill="#C4006C"/>
<path d="M40.6799 51.2242C46.9601 52.7339 54.7729 55.0341 55.1995 50.372C55.8878 45.5277 55.3158 41.1329 54.2232 36.8728C53.1306 32.6127 44.7737 34.9529 38.0097 38.2827C31.7904 41.3444 31.4433 44.3088 31.8852 45.7895C32.5243 47.9306 35.2796 49.926 40.6799 51.2242Z" fill="#C4006C"/>
<path d="M66.3825 50.809C59.9701 51.0185 25.2366 50.8265 19.0497 51.8622C18.0655 50.7455 15.5741 47.3547 14.8761 46.3365C18.0656 46.2323 66.5258 44.6248 70.4955 44.4951L66.3825 50.809Z" fill="#C4006C"/>
<path d="M5.25424 34.6167C6.99784 39.3515 10.6442 44.9531 13.7264 48.9676C21.4696 48.9676 60.3739 48.9676 68.0355 48.9676C71.1177 44.9531 74.6469 39.3515 76.3905 34.6167C69.5081 34.6167 11.8817 34.6167 5.25424 34.6167Z" fill="url(#paint8_linear_78_12520)"/>
<path d="M5.25424 34.6167C6.99783 39.3515 10.6442 44.9531 13.7264 48.9676C21.4696 48.9676 60.3739 48.9676 68.0355 48.9676C71.1177 44.9531 74.6469 39.3515 76.3905 34.6167C69.5081 34.6167 11.8817 34.6167 5.25424 34.6167Z" stroke="#C48427" stroke-width="1.01845" stroke-linecap="round" stroke-linejoin="round"/>
<g opacity="0.66">
<path d="M70.4982 33.9271C68.7546 39.0806 65.4 45.1376 62.3178 49.5071L67.6507 49.6776C67.9727 49.6879 68.2778 49.5374 68.4661 49.276C71.3046 45.3331 74.9347 39.6559 76.7328 34.8221C76.8667 34.4623 76.6036 34.0784 76.2197 34.0688L70.4982 33.9271Z" fill="url(#paint9_linear_78_12520)"/>
</g>
<path d="M30.828 68.1185C29.8918 67.6925 28.8756 67.1874 27.8806 66.6926C25.4246 65.4718 23.3037 64.4176 22.1925 64.3999C20.6138 64.3748 17.0385 65.9356 14.22 67.6011C15.6367 63.572 17.3911 56.5725 17.1406 51.335L23.8643 49.4292C24.7302 55.6543 27.9559 62.4094 30.828 68.1185Z" stroke="#C48427" stroke-width="2.06745" stroke-linecap="round" stroke-linejoin="round"/>
<path d="M30.828 68.1185C29.8918 67.6925 28.8756 67.1874 27.8806 66.6926C25.4246 65.4718 23.3037 64.4176 22.1925 64.3999C20.6138 64.3748 17.0385 65.9356 14.22 67.6011C15.6367 63.572 17.3911 56.5725 17.1406 51.335L23.8643 49.4292C24.7302 55.6543 27.9559 62.4094 30.828 68.1185Z" fill="url(#paint10_linear_78_12520)"/>
<path d="M30.828 68.1185C29.8918 67.6925 28.8756 67.1874 27.8806 66.6926C25.4246 65.4718 23.3037 64.4176 22.1925 64.3999C20.6138 64.3748 17.0385 65.9356 14.22 67.6011C15.6367 63.572 17.3911 56.5725 17.1406 51.335L23.8643 49.4292C24.7302 55.6543 27.9559 62.4094 30.828 68.1185Z" fill="url(#paint11_linear_78_12520)"/>
<path d="M30.828 68.1185C29.8918 67.6925 28.8756 67.1874 27.8806 66.6926C25.4246 65.4718 23.3037 64.4176 22.1925 64.3999C20.6138 64.3748 17.0385 65.9356 14.22 67.6011C15.6367 63.572 17.3911 56.5725 17.1406 51.335L23.8643 49.4292C24.7302 55.6543 27.9559 62.4094 30.828 68.1185Z" fill="url(#paint12_linear_78_12520)"/>
<path d="M35.3874 66.8279C34.7279 57.8263 30.276 51.1757 28.1077 48.0477L29.8564 45.3466C34.9583 46.497 44.1918 51.683 49.5988 57.206C48.9733 57.3174 48.1975 57.4304 47.3951 57.5472C44.2298 58.0079 41.9078 58.3875 40.8552 59.0785C39.8961 59.7077 39.0977 61.019 37.9923 62.8337C37.282 64.0002 36.4392 65.384 35.3874 66.8279Z" stroke="#C48427" stroke-width="2.06745" stroke-linecap="round" stroke-linejoin="round"/>
<path d="M35.3874 66.8279C34.7279 57.8263 30.276 51.1757 28.1077 48.0477L29.8564 45.3466C34.9583 46.497 44.1918 51.683 49.5988 57.206C48.9733 57.3174 48.1975 57.4304 47.3951 57.5472C44.2298 58.0079 41.9078 58.3875 40.8552 59.0785C39.8961 59.7077 39.0977 61.019 37.9923 62.8337C37.282 64.0002 36.4392 65.384 35.3874 66.8279Z" fill="url(#paint13_linear_78_12520)"/>
<path d="M35.3874 66.8279C34.7279 57.8263 30.276 51.1757 28.1077 48.0477L29.8564 45.3466C34.9583 46.497 44.1918 51.683 49.5988 57.206C48.9733 57.3174 48.1975 57.4304 47.3951 57.5472C44.2298 58.0079 41.9078 58.3875 40.8552 59.0785C39.8961 59.7077 39.0977 61.019 37.9923 62.8337C37.282 64.0002 36.4392 65.384 35.3874 66.8279Z" fill="url(#paint14_linear_78_12520)"/>
<path d="M35.3874 66.8279C34.7279 57.8263 30.276 51.1757 28.1077 48.0477L29.8564 45.3466C34.9583 46.497 44.1918 51.683 49.5988 57.206C48.9733 57.3174 48.1975 57.4304 47.3951 57.5472C44.2298 58.0079 41.9078 58.3875 40.8552 59.0785C39.8961 59.7077 39.0977 61.019 37.9923 62.8337C37.282 64.0002 36.4392 65.384 35.3874 66.8279Z" fill="url(#paint15_linear_78_12520)"/>
<g opacity="0.8">
<path d="M42.7811 50.0449C35.228 44.9484 29.9443 43.9908 29.1408 44.0926C28.7097 44.6945 27.2219 47.6573 26.7186 47.9712C27.433 49.0827 29.0298 51.4007 29.8046 52.9346C29.8963 51.8423 32.1408 50.5005 32.9028 50.226C35.1425 49.4195 39.9212 52.159 47.8269 53.9043C46.0639 52.5144 44.7035 51.2107 42.7811 50.0449Z" fill="#995605"/>
</g>
<g opacity="0.15">
<path d="M29.3089 50.1524C32.5292 50.9609 33.8637 53.9489 35.7263 58.4528C36.5005 60.3247 37.9228 59.7 37.9887 57.1916C38.069 54.1343 36.6267 52.2398 36.448 51.9134C35.244 49.7136 31.7162 48.2479 31.2042 48.6566C30.0799 49.554 29.3089 50.1524 29.3089 50.1524Z" fill="#CE7500"/>
</g>
<g opacity="0.28">
<path d="M38.4252 56.2923C37.2296 52.5031 34.7229 49.7731 35.3745 49.3004C36.0261 48.8277 41.4767 50.169 41.8397 52.8771C42.3575 56.7405 38.7636 57.3649 38.4252 56.2923Z" fill="url(#paint16_linear_78_12520)"/>
</g>
<mask id="mask4_78_12520" style="mask-type:luminance" maskUnits="userSpaceOnUse" x="30" y="51" width="7" height="16">
<path d="M30.62 51.8379C32.0548 54.2824 34.655 59.5258 35.3637 66.7056C36.0227 66.2681 36.3543 65.7578 36.3256 65.4442C35.7437 59.0833 31.8698 52.3829 30.9874 51.521C30.8514 51.5812 30.814 51.7184 30.62 51.8379Z" fill="url(#paint17_linear_78_12520)"/>
</mask>
<g mask="url(#mask4_78_12520)">
<path d="M30.62 51.8379C32.0548 54.2824 34.655 59.5258 35.3637 66.7056C36.0227 66.2681 36.3543 65.7578 36.3256 65.4442C35.7437 59.0833 31.8698 52.3829 30.9874 51.521C30.8514 51.5812 30.814 51.7184 30.62 51.8379Z" fill="url(#paint18_linear_78_12520)"/>
</g>
<g opacity="0.8">
<path d="M25.964 53.4381C25.4971 51.9397 25.0244 49.644 24.766 48.1745C23.9678 48.2221 22.0627 48.6069 22.0627 48.6069C18.673 49.4561 17.0108 49.7053 15.9944 50.7971C15.8472 52.1276 15.1897 59.0291 14.9261 60.3566C19.2131 55.213 22.5921 50.1732 25.964 53.4381Z" fill="#995605"/>
</g>
<g opacity="0.15">
<path d="M22.1711 51.126C21.0657 53.2774 20.5353 58.0493 21.6446 61.0513C22.184 62.5109 25.1014 61.9898 25.1364 60.7746C25.2207 57.8386 23.4529 53.6401 23.672 51.0629C22.9012 50.5749 22.1711 51.126 22.1711 51.126Z" fill="url(#paint19_linear_78_12520)"/>
</g>
<g opacity="0.33">
<path d="M17.6124 59.1821C17.7702 57.3792 19.728 54.1641 20.697 53.9877C21.666 53.8112 20.4308 55.7849 21.2287 61.5871C19.1433 62.6363 17.3765 61.8755 17.6124 59.1821Z" fill="#FFFEE2"/>
</g>
<path d="M25.2123 56.6787C26.153 60.0753 28.3078 64.6389 30.1695 67.5349" stroke="#FFFC00" stroke-width="0.775295" stroke-linecap="round" stroke-linejoin="round"/>
<path d="M11.4063 35.7387L69.5432 35.6459" stroke="#FFFC92" stroke-width="0.763838" stroke-linecap="round" stroke-linejoin="round"/>
<g opacity="0.66">
<path d="M11.1238 35.6316L35.3821 34.8392" stroke="#FFFC00" stroke-width="0.974726" stroke-linecap="round" stroke-linejoin="round"/>
</g>
<g opacity="0.44">
<path d="M35.1481 34.9036C32.8393 34.9181 9.04863 35.6344 9.04863 35.6344C17.2474 52.609 32.1065 45.5725 35.1481 34.9036Z" fill="#995605"/>
</g>
<path d="M52.6614 49.4521C52.7585 45.199 52.1539 37.528 50.5656 34.072C48.6179 34.0681 47.3775 34.0411 47.3775 34.0411C48.2738 37.992 50.272 46.7643 49.6002 49.6871C50.8972 49.6447 52.6614 49.4521 52.6614 49.4521Z" fill="url(#paint20_linear_78_12520)"/>
<path d="M24.4465 36.586C29.8209 35.0806 31.682 31.337 33.1967 28.2265C35.2308 24.0494 39.5859 22.1924 41.7345 23.9257C43.8247 25.6119 47.2623 29.7525 49.2306 37.63C51.0729 45.0029 51.3123 51.6329 48.1293 51.727C44.9463 51.8211 38.386 46.7607 28.1732 48.277C17.1841 49.9087 11.9887 62.4869 8.9924 61.4701C5.67994 60.3461 1.92827 49.5857 1.4182 43.3787C0.934058 37.4867 2.15213 33.2186 4.11693 32.7927C10.9341 31.3149 15.8159 39.0036 24.4465 36.586Z" fill="url(#paint21_radial_78_12520)"/>
<path d="M24.4465 36.586C29.8209 35.0806 31.682 31.337 33.1967 28.2265C35.2309 24.0494 39.5859 22.1924 41.7345 23.9257C43.8247 25.6119 47.2623 29.7525 49.2306 37.63C51.0729 45.0029 51.3123 51.6329 48.1293 51.727C44.9463 51.8211 38.386 46.7607 28.1732 48.277C17.1841 49.9087 11.9887 62.4869 8.9924 61.4701C5.67994 60.3461 1.92827 49.5857 1.4182 43.3787C0.934058 37.4867 2.15213 33.2186 4.11693 32.7927C10.9341 31.3149 15.8159 39.0036 24.4465 36.586Z" stroke="#C48427" stroke-width="1.03373" stroke-linecap="round" stroke-linejoin="round"/>
<path d="M24.4465 36.586C29.8209 35.0806 31.682 31.337 33.1967 28.2265C35.2308 24.0494 39.5859 22.1924 41.7345 23.9257C43.8247 25.6119 47.2623 29.7525 49.2306 37.63C51.0729 45.0029 51.3123 51.6329 48.1293 51.727C44.9463 51.8211 38.386 46.7607 28.1732 48.277C17.1841 49.9087 11.9887 62.4869 8.9924 61.4701C5.67994 60.3461 1.92827 49.5857 1.4182 43.3787C0.934058 37.4867 2.15213 33.2186 4.11693 32.7927C10.9341 31.3149 15.8159 39.0036 24.4465 36.586Z" fill="url(#paint22_linear_78_12520)"/>
<g opacity="0.2">
<path d="M42.4616 50.0992C39.3327 48.9323 36.4419 47.9557 32.0951 47.8396" stroke="#FFFB00" stroke-width="1.03373" stroke-linecap="round" stroke-linejoin="round"/>
</g>
<g opacity="0.2">
<path d="M22.3018 50.377C19.6841 52.0181 16.9497 53.7369 13.8672 57.7732" stroke="#FFFB00" stroke-width="1.03373" stroke-linecap="round" stroke-linejoin="round"/>
</g>
<g opacity="0.33">
<path d="M41.6574 41.8982C41.7067 38.7899 41.6231 35.4629 37.9716 30.0603C35.3872 26.2367 33.1999 34.7522 29.3892 36.1709C28.903 38.1116 29.8514 43.7956 32.2362 41.1907C34.8404 38.3462 37.7312 37.643 39.6446 42.2911C40.3413 43.9836 41.6161 44.4954 41.6574 41.8982Z" fill="url(#paint23_radial_78_12520)"/>
<path d="M41.6574 41.8982C41.7067 38.7899 41.6231 35.4629 37.9716 30.0603C35.3872 26.2367 33.1999 34.7522 29.3892 36.1709C28.903 38.1116 29.8514 43.7956 32.2362 41.1907C34.8404 38.3462 37.7312 37.643 39.6446 42.2911C40.3413 43.9836 41.6161 44.4954 41.6574 41.8982Z" fill="url(#paint24_linear_78_12520)"/>
</g>
<g opacity="0.33">
<path d="M20.1792 39.4209C14.3716 38.7759 9.17635 34.6743 8.76753 37.4967C8.29722 40.7444 8.78859 46.5684 10.5896 46.7869C12.3905 47.0054 13.9993 45.4541 15.3159 44.6543C17.3404 43.4245 19.1763 44.5182 20.4222 44.5605C24.5188 44.6997 20.1792 39.4209 20.1792 39.4209Z" fill="url(#paint25_linear_78_12520)"/>
<path d="M20.1792 39.4209C14.3716 38.7759 9.17635 34.6743 8.76753 37.4967C8.29722 40.7444 8.78859 46.5684 10.5896 46.7869C12.3905 47.0054 13.9993 45.4541 15.3159 44.6543C17.3404 43.4245 19.1763 44.5182 20.4222 44.5605C24.5188 44.6997 20.1792 39.4209 20.1792 39.4209Z" fill="url(#paint26_linear_78_12520)"/>
</g>
<g opacity="0.66">
<path d="M2.06508 36.1771C1.77602 38.6138 1.79865 42.9455 2.33348 46.5842C3.23072 52.6881 5.3024 59.6364 8.18244 61.5592C7.3037 60.0281 8.20459 58.171 9.01978 57.5795C2.64032 45.9275 3.69463 34.9157 5.23635 33.2293C2.07311 33.3958 2.13799 35.5624 2.06508 36.1771Z" fill="url(#paint27_linear_78_12520)"/>
</g>
<g opacity="0.67">
<path d="M37.593 25.8751C39.4882 27.4083 44.9185 34.9087 43.826 45.4594" stroke="#FFFDC7" stroke-width="1.36736" stroke-linecap="round" stroke-linejoin="round"/>
</g>
<path d="M14.0006 45.5922C12.6374 46.6332 9.83093 47.5982 10.7779 49.5179C12.2233 52.4476 15.6217 52.4477 19.7623 48.8539C23.903 45.2601 20.6374 44.8787 20.1919 44.7133C17.4575 43.6977 16.149 43.9515 14.0006 45.5922Z" fill="url(#paint28_linear_78_12520)"/>
<path d="M34.1724 39.674C32.8093 40.715 30.2704 41.7999 31.2232 43.7169C32.2233 45.729 31.9497 44.2056 37.6685 45.2014C40.0523 45.6165 40.2702 43.8541 39.6217 42.3108C38.4421 39.5038 36.3208 38.0334 34.1724 39.674Z" fill="url(#paint29_linear_78_12520)"/>
<path d="M30.5936 46.832C33.5391 46.4662 48.7368 49.157 48.7221 50.0852C48.6869 52.3047 41.0937 46.4451 30.5625 46.8767L30.5936 46.832Z" fill="#FCDF39"/>
<path d="M30.5936 46.832C33.5391 46.4662 48.7368 49.157 48.7221 50.0852C48.6869 52.3047 41.0937 46.4451 30.5625 46.8767L30.5936 46.832Z" stroke="#995605" stroke-width="1.03373" stroke-linecap="round" stroke-linejoin="round"/>
<path d="M22.7595 48.9768C19.0119 51.135 8.49619 59.5911 9.30641 60.5323C10.1166 61.4734 13.164 54.8828 22.9109 48.906L22.7595 48.9768Z" fill="#FCDF39"/>
<path d="M22.7595 48.9768C19.0119 51.135 8.49619 59.5911 9.30641 60.5323C10.1166 61.4734 13.164 54.8828 22.9109 48.906L22.7595 48.9768Z" stroke="#995605" stroke-width="1.03373" stroke-linecap="round" stroke-linejoin="round"/>
<path d="M8.34602 59.7317C8.44314 58.4936 12.6158 54.4701 20.0984 49.2425" stroke="#FFFC00" stroke-width="0.775295" stroke-linecap="round" stroke-linejoin="round"/>
<path d="M33.937 45.6981C38.2303 45.8385 47.8879 47.8768 49.0452 48.8108" stroke="#FFFC00" stroke-width="0.775295" stroke-linecap="round" stroke-linejoin="round"/>
<mask id="mask5_78_12520" style="mask-type:luminance" maskUnits="userSpaceOnUse" x="16" y="33" width="19" height="17">
<path d="M17.1377 44.4932C18.1606 48.2683 19.4499 49.2838 20.8852 49.5347C23.7857 47.2915 30.1138 46.0806 34.3023 46.4788C34.9577 46.0416 35.3144 44.6173 33.9054 39.5573C32.9264 36.0416 31.5983 34.5181 30.4625 33.9965C26.9888 35.9635 19.5671 37.2134 17.4185 37.2564C16.5201 37.8775 16.0863 40.6129 17.1377 44.4932Z" fill="url(#paint30_radial_78_12520)"/>
</mask>
<g mask="url(#mask5_78_12520)">
<path d="M17.1377 44.4932C18.1606 48.2683 19.4499 49.2838 20.8852 49.5347C23.7857 47.2915 30.1138 46.0806 34.3023 46.4788C34.9577 46.0416 35.3144 44.6173 33.9054 39.5573C32.9264 36.0416 31.5983 34.5181 30.4625 33.9965C26.9888 35.9635 19.5671 37.2134 17.4185 37.2564C16.5201 37.8775 16.0863 40.6129 17.1377 44.4932Z" fill="url(#paint31_radial_78_12520)" fill-opacity="0.7"/>
</g>
<path d="M19.6221 44.0063C20.8163 48.0009 22.5782 50.7812 25.4893 50.6625C27.9247 50.5632 29.7547 49.7815 30.6046 48.9414C31.4466 48.1089 33.102 45.1616 31.7553 41.074C30.3969 36.9505 28.5295 33.856 26.4903 34.2619C24.414 34.6752 21.6475 35.5339 20.409 36.4341C19.1547 37.3457 18.3889 39.8815 19.6221 44.0063Z" fill="url(#paint32_radial_78_12520)"/>
<path d="M19.6726 43.9676C20.8651 47.9627 22.3337 51.3246 25.818 50.6616C29.2319 50.0119 29.2999 49.9335 30.604 48.9571C31.896 47.9897 33.0197 45.1472 31.6235 41.0745C30.2151 36.966 28.9778 33.6981 26.0479 34.3713C23.0647 35.0567 22.5637 35.2201 20.7033 36.3069C18.8193 37.4074 18.4413 39.8423 19.6726 43.9676Z" stroke="#CB9343" stroke-width="1.03373" stroke-linecap="round" stroke-linejoin="round"/>
<g opacity="0.66">
<path d="M18.7062 42.8641C20.151 45.6098 22.7175 47.2474 26.6797 46.2884C30.5489 45.3519 32.0068 41.7535 31.9434 40.1578C33.2967 44.1086 33.1081 46.2947 32.0882 48.1016C31.3346 49.4366 30.0902 50.4704 27.7019 51.0969C21.5093 52.7211 20.3825 48.7479 18.7062 42.8641Z" fill="url(#paint33_linear_78_12520)"/>
</g>
<path d="M20.9229 41.0409C21.1761 42.9012 21.7155 44.3228 23.8846 43.9217C26.4313 43.4509 27.5679 43.0322 28.5963 42.4835C29.6176 41.9384 29.4498 40.768 28.7505 38.8405C27.9968 36.7633 27.3796 35.6508 25.6595 36.0619C23.4301 36.5947 23.4459 36.599 22.013 37.2462C20.5667 37.8993 20.6998 39.4007 20.9229 41.0409Z" fill="url(#paint34_linear_78_12520)"/>
</g>
</g>
<defs>
<linearGradient id="paint0_linear_78_12520" x1="40.8742" y1="41.9811" x2="40.9047" y2="80.7506" gradientUnits="userSpaceOnUse">
<stop stop-color="#E82C97"/>
<stop offset="0.5" stop-color="#D52C8C"/>
<stop offset="1" stop-color="#C22C81"/>
</linearGradient>
<linearGradient id="paint1_linear_78_12520" x1="41.7477" y1="81.0216" x2="40.8732" y2="39.7883" gradientUnits="userSpaceOnUse">
<stop stop-color="#C22C81"/>
<stop offset="0.5" stop-color="#DF3394"/>
<stop offset="1" stop-color="#FC3BA8"/>
</linearGradient>
<radialGradient id="paint2_radial_78_12520" cx="0" cy="0" r="1" gradientUnits="userSpaceOnUse" gradientTransform="translate(41.0611 42.1614) scale(22.8495)">
<stop stop-color="white"/>
<stop offset="0.5" stop-color="white" stop-opacity="0.5"/>
<stop offset="1" stop-color="white" stop-opacity="0"/>
</radialGradient>
<radialGradient id="paint3_radial_78_12520" cx="0" cy="0" r="1" gradientUnits="userSpaceOnUse" gradientTransform="translate(41.0611 42.1614) scale(22.8495)">
<stop stop-color="#FE45B3"/>
<stop offset="0.88" stop-color="#F44DB1"/>
<stop offset="1" stop-color="#EA55B0"/>
</radialGradient>
<linearGradient id="paint4_linear_78_12520" x1="23.6586" y1="17.0117" x2="23.4258" y2="6.92669" gradientUnits="userSpaceOnUse">
<stop stop-color="white" stop-opacity="0"/>
<stop offset="0.69" stop-color="white" stop-opacity="0.5"/>
<stop offset="1" stop-color="white"/>
</linearGradient>
<linearGradient id="paint5_linear_78_12520" x1="23.6586" y1="17.0117" x2="23.4258" y2="6.92669" gradientUnits="userSpaceOnUse">
<stop stop-color="white"/>
<stop offset="0.5" stop-color="#FFFFFD"/>
<stop offset="1" stop-color="#FFFFFB"/>
</linearGradient>
<linearGradient id="paint6_linear_78_12520" x1="57.906" y1="17.0375" x2="58.1387" y2="6.95254" gradientUnits="userSpaceOnUse">
<stop stop-color="white" stop-opacity="0"/>
<stop offset="0.69" stop-color="white" stop-opacity="0.5"/>
<stop offset="1" stop-color="white"/>
</linearGradient>
<linearGradient id="paint7_linear_78_12520" x1="57.906" y1="17.0375" x2="58.1387" y2="6.95254" gradientUnits="userSpaceOnUse">
<stop stop-color="white"/>
<stop offset="0.5" stop-color="#FFFFFD"/>
<stop offset="1" stop-color="#FFFFFB"/>
</linearGradient>
<linearGradient id="paint8_linear_78_12520" x1="58.9514" y1="41.869" x2="26.9799" y2="41.8373" gradientUnits="userSpaceOnUse">
<stop stop-color="#FFF23E"/>
<stop offset="0.2" stop-color="#FEF251"/>
<stop offset="0.39" stop-color="#FDF263"/>
<stop offset="0.52" stop-color="#FDF263"/>
<stop offset="0.65" stop-color="#FDF263"/>
<stop offset="0.83" stop-color="#FCE94E"/>
<stop offset="1" stop-color="#FCDF39"/>
</linearGradient>
<linearGradient id="paint9_linear_78_12520" x1="67.6563" y1="40.7812" x2="72.3502" y2="43.4321" gradientUnits="userSpaceOnUse">
<stop stop-color="#995605" stop-opacity="0"/>
<stop offset="0.5" stop-color="#B56703" stop-opacity="0.5"/>
<stop offset="1" stop-color="#D07900"/>
</linearGradient>
<linearGradient id="paint10_linear_78_12520" x1="21.9629" y1="52.8309" x2="26.9914" y2="66.1207" gradientUnits="userSpaceOnUse">
<stop stop-color="#D0A618"/>
<stop offset="0.23" stop-color="#E8BA0C"/>
<stop offset="0.46" stop-color="#FFCE00"/>
<stop offset="0.52" stop-color="#FBCF23"/>
<stop offset="0.58" stop-color="#F7D046"/>
<stop offset="0.79" stop-color="#E9BB41"/>
<stop offset="1" stop-color="#DBA53C"/>
</linearGradient>
<linearGradient id="paint11_linear_78_12520" x1="26.8697" y1="61.5699" x2="20.1971" y2="61.3964" gradientUnits="userSpaceOnUse">
<stop stop-color="#FFFD1D"/>
<stop offset="0.5" stop-color="#FFFC0F" stop-opacity="0.5"/>
<stop offset="1" stop-color="#FFFC00" stop-opacity="0"/>
</linearGradient>
<linearGradient id="paint12_linear_78_12520" x1="20.9295" y1="60.7795" x2="20.5929" y2="67.0956" gradientUnits="userSpaceOnUse">
<stop stop-color="#C29B18" stop-opacity="0"/>
<stop offset="0.5" stop-color="#C29B18" stop-opacity="0.5"/>
<stop offset="1" stop-color="#C29B18"/>
</linearGradient>
<linearGradient id="paint13_linear_78_12520" x1="35.025" y1="49.5502" x2="41.8693" y2="61.7459" gradientUnits="userSpaceOnUse">
<stop stop-color="#D0A618"/>
<stop offset="0.23" stop-color="#E8BA0C"/>
<stop offset="0.46" stop-color="#FFCE00"/>
<stop offset="0.52" stop-color="#FBCF23"/>
<stop offset="0.58" stop-color="#F7D046"/>
<stop offset="0.79" stop-color="#E9BB41"/>
<stop offset="1" stop-color="#DBA53C"/>
</linearGradient>
<linearGradient id="paint14_linear_78_12520" x1="32.6224" y1="58.412" x2="37.8956" y2="55.5184" gradientUnits="userSpaceOnUse">
<stop stop-color="#FFFD1D"/>
<stop offset="0.5" stop-color="#FFFC0F" stop-opacity="0.5"/>
<stop offset="1" stop-color="#FFFC00" stop-opacity="0"/>
</linearGradient>
<linearGradient id="paint15_linear_78_12520" x1="40.9296" y1="55.0485" x2="46.3101" y2="60.4683" gradientUnits="userSpaceOnUse">
<stop stop-color="#C29B18" stop-opacity="0"/>
<stop offset="0.5" stop-color="#C29B18" stop-opacity="0.5"/>
<stop offset="1" stop-color="#C29B18"/>
</linearGradient>
<linearGradient id="paint16_linear_78_12520" x1="37.7078" y1="49.8061" x2="37.6956" y2="53.4563" gradientUnits="userSpaceOnUse">
<stop stop-color="#FFFED5" stop-opacity="0"/>
<stop offset="0.5" stop-color="#FFFED5" stop-opacity="0.5"/>
<stop offset="1" stop-color="#FFFED4"/>
</linearGradient>
<linearGradient id="paint17_linear_78_12520" x1="31.4247" y1="52.6822" x2="35.837" y2="65.1201" gradientUnits="userSpaceOnUse">
<stop stop-color="white" stop-opacity="0.33"/>
<stop offset="0.15" stop-color="white" stop-opacity="0.665"/>
<stop offset="0.31" stop-color="white"/>
<stop offset="0.48" stop-color="white"/>
<stop offset="0.65" stop-color="white"/>
<stop offset="0.82" stop-color="white" stop-opacity="0.665"/>
<stop offset="1" stop-color="white" stop-opacity="0.33"/>
</linearGradient>
<linearGradient id="paint18_linear_78_12520" x1="31.4247" y1="52.6822" x2="35.837" y2="65.1201" gradientUnits="userSpaceOnUse">
<stop stop-color="#FFFD3C"/>
<stop offset="0.5" stop-color="#FFFD51"/>
<stop offset="1" stop-color="#FFFD65"/>
</linearGradient>
<linearGradient id="paint19_linear_78_12520" x1="22.8996" y1="55.6327" x2="24.1093" y2="62.4309" gradientUnits="userSpaceOnUse">
<stop stop-color="#CE7500"/>
<stop offset="0.5" stop-color="#CE7500" stop-opacity="0.61"/>
<stop offset="1" stop-color="#CE7500" stop-opacity="0.22"/>
</linearGradient>
<linearGradient id="paint20_linear_78_12520" x1="52.1114" y1="41.3297" x2="49.3178" y2="41.7862" gradientUnits="userSpaceOnUse">
<stop stop-color="#DF8F00" stop-opacity="0"/>
<stop offset="0.5" stop-color="#DF8F00" stop-opacity="0.5"/>
<stop offset="1" stop-color="#DF8F00"/>
</linearGradient>
<radialGradient id="paint21_radial_78_12520" cx="0" cy="0" r="1" gradientUnits="userSpaceOnUse" gradientTransform="translate(26.3182 41.6274) rotate(-16.7) scale(23.8286)">
<stop offset="0.82" stop-color="#FFFC00"/>
<stop offset="0.91" stop-color="#FAE204"/>
<stop offset="1" stop-color="#F6C807"/>
</radialGradient>
<linearGradient id="paint22_linear_78_12520" x1="16.1085" y1="44.8879" x2="34.7224" y2="38.8421" gradientUnits="userSpaceOnUse">
<stop stop-color="#C48427" stop-opacity="0"/>
<stop offset="0.18" stop-color="#C08631" stop-opacity="0.5"/>
<stop offset="0.36" stop-color="#BB873C"/>
<stop offset="0.48" stop-color="#B78843"/>
<stop offset="0.6" stop-color="#B38949"/>
<stop offset="0.8" stop-color="#B38949" stop-opacity="0.5"/>
<stop offset="1" stop-color="#B38949" stop-opacity="0"/>
</linearGradient>
<radialGradient id="paint23_radial_78_12520" cx="0" cy="0" r="1" gradientUnits="userSpaceOnUse" gradientTransform="translate(35.4955 39.8569) rotate(-16.7) scale(13.5957)">
<stop stop-color="#F7A626"/>
<stop offset="0.5" stop-color="#F7A626" stop-opacity="0.5"/>
<stop offset="1" stop-color="#F7A626" stop-opacity="0"/>
</radialGradient>
<linearGradient id="paint24_linear_78_12520" x1="38.8728" y1="35.6962" x2="31.5882" y2="38.5506" gradientUnits="userSpaceOnUse">
<stop stop-color="#F7A626" stop-opacity="0"/>
<stop offset="0.5" stop-color="#F7A626" stop-opacity="0.5"/>
<stop offset="1" stop-color="#F7A626"/>
</linearGradient>
<linearGradient id="paint25_linear_78_12520" x1="8.70306" y1="39.4497" x2="16.8284" y2="42.8834" gradientUnits="userSpaceOnUse">
<stop stop-color="#F7A626" stop-opacity="0"/>
<stop offset="0.5" stop-color="#F7A626" stop-opacity="0.5"/>
<stop offset="1" stop-color="#F7A626"/>
</linearGradient>
<linearGradient id="paint26_linear_78_12520" x1="11.9717" y1="42.101" x2="19.8023" y2="41.9501" gradientUnits="userSpaceOnUse">
<stop stop-color="#F7A626" stop-opacity="0"/>
<stop offset="0.5" stop-color="#F7A626" stop-opacity="0.5"/>
<stop offset="1" stop-color="#F7A626"/>
</linearGradient>
<linearGradient id="paint27_linear_78_12520" x1="4.27048" y1="54.0351" x2="-0.323592" y2="55.1754" gradientUnits="userSpaceOnUse">
<stop stop-color="#995605" stop-opacity="0"/>
<stop offset="0.5" stop-color="#995605" stop-opacity="0.5"/>
<stop offset="1" stop-color="#995605"/>
</linearGradient>
<linearGradient id="paint28_linear_78_12520" x1="7.04819" y1="50.8945" x2="20.329" y2="46.9324" gradientUnits="userSpaceOnUse">
<stop stop-color="#FFFFA5" stop-opacity="0"/>
<stop offset="0.5" stop-color="#FFFF9F" stop-opacity="0.5"/>
<stop offset="1" stop-color="#FFFF98"/>
</linearGradient>
<linearGradient id="paint29_linear_78_12520" x1="33.9231" y1="46.0193" x2="36.1034" y2="40.4871" gradientUnits="userSpaceOnUse">
<stop stop-color="#FFFFA5" stop-opacity="0"/>
<stop offset="0.5" stop-color="#FFFF9F" stop-opacity="0.5"/>
<stop offset="1" stop-color="#FFFF98"/>
</linearGradient>
<radialGradient id="paint30_radial_78_12520" cx="0" cy="0" r="1" gradientUnits="userSpaceOnUse" gradientTransform="translate(25.4699 41.9565) rotate(-16.7) scale(9.29597)">
<stop offset="0.5" stop-color="white"/>
<stop offset="0.88" stop-color="white" stop-opacity="0.5"/>
<stop offset="1" stop-color="white" stop-opacity="0"/>
</radialGradient>
<radialGradient id="paint31_radial_78_12520" cx="0" cy="0" r="1" gradientUnits="userSpaceOnUse" gradientTransform="translate(25.4699 41.9565) rotate(-16.7) scale(9.29597)">
<stop offset="0.5" stop-color="#F7A626"/>
<stop offset="0.75" stop-color="#F7A626"/>
<stop offset="1" stop-color="#F7A626"/>
</radialGradient>
<radialGradient id="paint32_radial_78_12520" cx="0" cy="0" r="1" gradientUnits="userSpaceOnUse" gradientTransform="translate(25.733 42.1866) rotate(-16.7) scale(6.84995 9.92746)">
<stop offset="0.55" stop-color="#FFFC00"/>
<stop offset="0.78" stop-color="#FAE204"/>
<stop offset="1" stop-color="#F6C807"/>
</radialGradient>
<linearGradient id="paint33_linear_78_12520" x1="26.4017" y1="46.2559" x2="27.3647" y2="50.1756" gradientUnits="userSpaceOnUse">
<stop stop-color="#DF8F00" stop-opacity="0"/>
<stop offset="0.5" stop-color="#DF8F00" stop-opacity="0.5"/>
<stop offset="1" stop-color="#DF8F00"/>
</linearGradient>
<linearGradient id="paint34_linear_78_12520" x1="26.2192" y1="43.8533" x2="25.2627" y2="40.4653" gradientUnits="userSpaceOnUse">
<stop stop-color="#FFFF5E" stop-opacity="0"/>
<stop offset="0.5" stop-color="#FFFF5E" stop-opacity="0.5"/>
<stop offset="1" stop-color="#FFFF5E"/>
</linearGradient>
<clipPath id="clip0_78_12520">
<rect width="80" height="80" fill="white"/>
</clipPath>
</defs>
</svg>
