<svg width="83" height="80" viewBox="0 0 83 80" fill="none" xmlns="http://www.w3.org/2000/svg">
<g clip-path="url(#clip0_78_11498)">
<mask id="mask0_78_11498" style="mask-type:luminance" maskUnits="userSpaceOnUse" x="-1" y="0" width="84" height="83">
<path d="M82.4812 0H-0.518753V83H82.4812V0Z" fill="white"/>
</mask>
<g mask="url(#mask0_78_11498)">
<path d="M41.0305 23.8216C17.7999 23.7229 10.4886 32.4548 10.4886 40.4038C10.4886 40.6849 12.3368 54.0479 13.1722 62.1096C13.9874 69.9871 26.644 75.8394 40.7874 75.8394C54.9308 75.8394 68.2355 69.825 69.0508 61.9475C69.8861 53.8858 70.7619 40.5229 70.7619 40.2417C70.7619 32.2927 62.0555 23.9111 41.0305 23.8216Z" fill="url(#paint0_linear_78_11498)"/>
<mask id="mask1_78_11498" style="mask-type:luminance" maskUnits="userSpaceOnUse" x="10" y="23" width="62" height="33">
<path d="M40.9511 23.5148C57.5674 23.5148 71.0374 30.646 71.0374 39.4429C71.0374 48.2397 57.5674 55.3709 40.9511 55.3709C24.3348 55.3709 10.8648 48.2397 10.8648 39.4429C10.8648 30.646 24.3348 23.5148 40.9511 23.5148Z" fill="url(#paint1_radial_78_11498)"/>
</mask>
<g mask="url(#mask1_78_11498)">
<path d="M40.9511 23.5148C57.5674 23.5148 71.0374 30.646 71.0374 39.4429C71.0374 48.2397 57.5674 55.3709 40.9511 55.3709C24.3348 55.3709 10.8648 48.2397 10.8648 39.4429C10.8648 30.646 24.3348 23.5148 40.9511 23.5148Z" fill="url(#paint2_radial_78_11498)"/>
</g>
<path d="M40.5567 23.8945C55.7426 23.8945 68.0723 29.3414 68.0723 36.05C68.0723 42.7586 55.7426 48.2055 40.5567 48.2055C25.3708 48.2055 13.041 42.7586 13.041 36.05C13.041 29.3414 25.3708 23.8945 40.5567 23.8945Z" fill="url(#paint3_radial_78_11498)"/>
<path d="M40.5442 23.4974C21.1234 23.6296 10.3426 30.3954 10.4144 40.5659C10.4164 40.847 11.7696 54.3721 12.713 62.4338C13.6336 70.3113 24.8147 75.8394 40.7874 75.8394C56.76 75.8394 67.9412 70.3113 68.8618 62.4338C69.8051 54.3721 71.1602 40.847 71.1602 40.5659C71.1602 32.6168 63.1092 23.3437 40.5442 23.4974Z" stroke="#908D88" stroke-width="1.25" stroke-miterlimit="10"/>
<mask id="mask2_78_11498" style="mask-type:luminance" maskUnits="userSpaceOnUse" x="5" y="-1" width="84" height="84">
<path d="M5.80348 -0.884155H88.8039V82.1157H5.80348V-0.884155Z" fill="white"/>
</mask>
<g mask="url(#mask2_78_11498)">
<g opacity="0.3">
<path d="M51.4341 29.2873C51.4332 30.2951 49.7083 31.1106 47.5816 31.1085C45.4548 31.1065 43.7315 30.2879 43.7325 29.2801C43.7334 28.2723 45.4583 27.4568 47.585 27.4589C49.7118 27.4609 51.4351 28.2795 51.4341 29.2873Z" fill="#929EB0"/>
</g>
<path d="M47.5193 21.8C46.496 21.8 44.4293 24.6793 44.4285 27.022C44.428 28.456 45.2863 29.9087 47.3841 29.9937C49.5752 30.0826 50.5386 28.7012 50.6199 27.2776C50.7555 24.9051 48.6812 21.8 47.5193 21.8Z" fill="#B1002F"/>
<g opacity="0.3">
<path d="M46.7642 25.6053C46.7642 25.858 46.6182 26.0621 46.4384 26.0621C46.2587 26.0621 46.1128 25.858 46.1128 25.6053C46.1128 25.3539 46.2587 25.1486 46.4384 25.1486C46.6182 25.1486 46.7642 25.3539 46.7642 25.6053ZM47.5833 26.4257C47.5833 26.6771 47.4373 26.8827 47.2575 26.8827C47.0778 26.8827 46.9319 26.6771 46.9319 26.4257C46.9319 26.173 47.0778 25.9689 47.2575 25.9689C47.4373 25.9689 47.5833 26.173 47.5833 26.4257ZM45.9425 24.7836C45.9425 25.035 45.7953 25.2404 45.6168 25.2404C45.4371 25.2404 45.291 25.035 45.291 24.7836C45.291 24.5321 45.4371 24.3268 45.6168 24.3268C45.7953 24.3268 45.9425 24.5321 45.9425 24.7836ZM46.5128 27.1272C46.5128 27.3786 46.3656 27.584 46.1871 27.584C46.0074 27.584 45.8613 27.3786 45.8613 27.1272C45.8613 26.8745 46.0074 26.6704 46.1871 26.6704C46.3656 26.6704 46.5128 26.8745 46.5128 27.1272ZM45.6898 26.3054C45.6898 26.5568 45.5437 26.7609 45.364 26.7609C45.1855 26.7609 45.0383 26.5568 45.0383 26.3054C45.0383 26.0527 45.1855 25.8486 45.364 25.8486C45.5437 25.8486 45.6898 26.0527 45.6898 26.3054ZM48.4145 27.2556C48.4145 27.5083 48.2685 27.7124 48.0887 27.7124C47.909 27.7124 47.7631 27.5083 47.7631 27.2556C47.7631 27.0042 47.909 26.7988 48.0887 26.7988C48.2685 26.7988 48.4145 27.0042 48.4145 27.2556ZM49.2335 28.076C49.2335 28.3274 49.0876 28.5328 48.9078 28.5328C48.7294 28.5328 48.582 28.3274 48.582 28.076C48.582 27.8246 48.7294 27.6192 48.9078 27.6192C49.0876 27.6192 49.2335 27.8246 49.2335 28.076ZM47.3427 27.9571C47.3427 28.2098 47.1967 28.4139 47.0169 28.4139C46.8372 28.4139 46.6913 28.2098 46.6913 27.9571C46.6913 27.7057 46.8372 27.5002 47.0169 27.5002C47.1967 27.5002 47.3427 27.7057 47.3427 27.9571ZM48.182 28.7963C48.182 29.0478 48.0348 29.2531 47.8563 29.2531C47.6766 29.2531 47.5305 29.0478 47.5305 28.7963C47.5305 28.5436 47.6766 28.3395 47.8563 28.3395C48.0348 28.3395 48.182 28.5436 48.182 28.7963ZM45.4207 27.8016C45.4207 28.0543 45.2748 28.2584 45.0951 28.2584C44.9153 28.2584 44.7694 28.0543 44.7694 27.8016C44.7694 27.5502 44.9153 27.3448 45.0951 27.3448C45.2748 27.3448 45.4207 27.5502 45.4207 27.8016ZM44.5991 26.9798C44.5991 27.2313 44.453 27.4366 44.2733 27.4366C44.0936 27.4366 43.9476 27.2313 43.9476 26.9798C43.9476 26.7284 44.0936 26.523 44.2733 26.523C44.453 26.523 44.5991 26.7284 44.5991 26.9798ZM46.2521 28.6328C46.2521 28.8842 46.106 29.0896 45.9263 29.0896C45.7465 29.0896 45.6006 28.8842 45.6006 28.6328C45.6006 28.3814 45.7465 28.176 45.9263 28.176C46.106 28.176 46.2521 28.3814 46.2521 28.6328ZM47.0899 29.4708C47.0899 29.7235 46.944 29.9276 46.7642 29.9276C46.5845 29.9276 46.4384 29.7235 46.4384 29.4708C46.4384 29.2193 46.5845 29.014 46.7642 29.014C46.944 29.014 47.0899 29.2193 47.0899 29.4708ZM47.0048 24.0485C47.0048 24.2999 46.8587 24.5053 46.679 24.5053C46.4993 24.5053 46.3534 24.2999 46.3534 24.0485C46.3534 23.797 46.4993 23.5915 46.679 23.5915C46.8587 23.5915 47.0048 23.797 47.0048 24.0485ZM47.8346 24.8795C47.8346 25.1309 47.6887 25.3365 47.509 25.3365C47.3305 25.3365 47.1831 25.1309 47.1831 24.8795C47.1831 24.6268 47.3305 24.4227 47.509 24.4227C47.6887 24.4227 47.8346 24.6268 47.8346 24.8795ZM48.6551 25.6986C48.6551 25.95 48.509 26.1554 48.3293 26.1554C48.1496 26.1554 48.0037 25.95 48.0037 25.6986C48.0037 25.4472 48.1496 25.2418 48.3293 25.2418C48.509 25.2418 48.6551 25.4472 48.6551 25.6986ZM49.4863 26.5298C49.4863 26.7812 49.339 26.9866 49.1605 26.9866C48.9808 26.9866 48.8349 26.7812 48.8349 26.5298C48.8349 26.2784 48.9808 26.073 49.1605 26.073C49.339 26.073 49.4863 26.2784 49.4863 26.5298ZM50.308 27.3516C50.308 27.603 50.162 27.8084 49.9823 27.8084C49.8026 27.8084 49.6566 27.603 49.6566 27.3516C49.6566 27.1001 49.8026 26.8948 49.9823 26.8948C50.162 26.8948 50.308 27.1001 50.308 27.3516ZM47.986 23.297C47.986 23.5484 47.8401 23.7538 47.6616 23.7538C47.4819 23.7538 47.336 23.5484 47.336 23.297C47.336 23.0455 47.4819 22.84 47.6616 22.84C47.8401 22.84 47.986 23.0455 47.986 23.297ZM48.8173 24.1282C48.8173 24.3796 48.6713 24.585 48.4916 24.585C48.3119 24.585 48.1658 24.3796 48.1658 24.1282C48.1658 23.8755 48.3119 23.6712 48.4916 23.6712C48.6713 23.6712 48.8173 23.8755 48.8173 24.1282ZM49.6376 24.9471C49.6376 25.1998 49.4917 25.4039 49.312 25.4039C49.1322 25.4039 48.9863 25.1998 48.9863 24.9471C48.9863 24.6957 49.1322 24.4903 49.312 24.4903C49.4917 24.4903 49.6376 24.6957 49.6376 24.9471ZM50.4716 25.7824C50.4716 26.0338 50.3256 26.2392 50.1458 26.2392C49.9661 26.2392 49.8202 26.0338 49.8202 25.7824C49.8202 25.5297 49.9661 25.3256 50.1458 25.3256C50.3256 25.3256 50.4716 25.5297 50.4716 25.7824Z" fill="#DF0045"/>
</g>
<g opacity="0.4">
<path d="M50.6199 27.2775C50.5388 28.7007 49.575 30.0832 47.3843 29.9942C45.2866 29.909 44.4285 28.456 44.4285 27.0221C44.4285 26.5815 45.0847 25.5542 45.0847 25.5542C44.7642 26.3801 45.2954 28.0964 47.5251 28.0923C49.8015 28.0882 50.2781 26.4887 50.0559 25.6886C50.5083 25.964 50.6479 26.7854 50.6199 27.2775Z" fill="#690027"/>
</g>
<g opacity="0.24">
<path d="M50.6199 27.2772C50.6185 27.2907 50.6185 27.3042 50.6172 27.3178C50.4646 25.4283 48.5995 23.0753 47.5195 23.0753C46.5395 23.0753 44.6002 25.4 44.4393 27.2895C44.4312 27.2003 44.4285 27.111 44.4285 27.0218C44.4299 24.6796 46.4963 21.7994 47.5195 21.7994C48.6819 21.7994 50.755 24.9051 50.6199 27.2772Z" fill="#F1F1F1"/>
</g>
<path d="M47.5193 21.8C46.496 21.8 44.294 24.6793 44.2933 27.022C44.2928 28.456 45.2863 29.9087 47.3841 29.9937C49.5752 30.0826 50.6739 28.7012 50.7552 27.2776C50.8907 24.9051 48.6812 21.8 47.5193 21.8Z" stroke="#720027" stroke-width="1.2125" stroke-miterlimit="10"/>
</g>
<mask id="mask3_78_11498" style="mask-type:luminance" maskUnits="userSpaceOnUse" x="-8" y="-1" width="84" height="84">
<path d="M-7.81378 -0.972717H75.1867V82.0271H-7.81378V-0.972717Z" fill="white"/>
</mask>
<g mask="url(#mask3_78_11498)">
<g opacity="0.3">
<path d="M37.7772 29.1695C37.7762 30.1669 36.0692 30.974 33.9643 30.972C31.8595 30.97 30.154 30.1598 30.1549 29.1624C30.1559 28.165 31.8629 27.3579 33.9678 27.3599C36.0726 27.362 37.7781 28.1721 37.7772 29.1695Z" fill="#929EB0"/>
</g>
<path d="M33.9027 21.7595C32.8899 21.7595 30.8445 24.6092 30.8438 26.9277C30.8433 28.347 31.6927 29.7846 33.7689 29.8688C35.9374 29.9567 36.8909 28.5896 36.9714 27.1807C37.1055 24.8326 35.0526 21.7595 33.9027 21.7595Z" fill="#B1002F"/>
<g opacity="0.3">
<path d="M33.1554 25.5255C33.1554 25.7756 33.0108 25.9776 32.833 25.9776C32.6551 25.9776 32.5107 25.7756 32.5107 25.5255C32.5107 25.2767 32.6551 25.0734 32.833 25.0734C33.0108 25.0734 33.1554 25.2767 33.1554 25.5255ZM33.9661 26.3374C33.9661 26.5862 33.8215 26.7896 33.6436 26.7896C33.4657 26.7896 33.3213 26.5862 33.3213 26.3374C33.3213 26.0873 33.4657 25.8853 33.6436 25.8853C33.8215 25.8853 33.9661 26.0873 33.9661 26.3374ZM32.3421 24.7122C32.3421 24.9611 32.1965 25.1643 32.0198 25.1643C31.8419 25.1643 31.6974 24.9611 31.6974 24.7122C31.6974 24.4634 31.8419 24.2601 32.0198 24.2601C32.1965 24.2601 32.3421 24.4634 32.3421 24.7122ZM32.9066 27.0316C32.9066 27.2805 32.7609 27.4837 32.5843 27.4837C32.4064 27.4837 32.2618 27.2805 32.2618 27.0316C32.2618 26.7816 32.4064 26.5796 32.5843 26.5796C32.7609 26.5796 32.9066 26.7816 32.9066 27.0316ZM32.092 26.2184C32.092 26.4672 31.9475 26.6692 31.7696 26.6692C31.5929 26.6692 31.4473 26.4672 31.4473 26.2184C31.4473 25.9683 31.5929 25.7663 31.7696 25.7663C31.9475 25.7663 32.092 25.9683 32.092 26.2184ZM34.7887 27.1588C34.7887 27.4089 34.6441 27.6109 34.4663 27.6109C34.2884 27.6109 34.144 27.4089 34.144 27.1588C34.144 26.9099 34.2884 26.7067 34.4663 26.7067C34.6441 26.7067 34.7887 26.9099 34.7887 27.1588ZM35.5992 27.9707C35.5992 28.2195 35.4548 28.4228 35.2769 28.4228C35.1003 28.4228 34.9545 28.2195 34.9545 27.9707C34.9545 27.7218 35.1003 27.5186 35.2769 27.5186C35.4548 27.5186 35.5992 27.7218 35.5992 27.9707ZM33.728 27.853C33.728 28.1031 33.5834 28.3051 33.4055 28.3051C33.2276 28.3051 33.0832 28.1031 33.0832 27.853C33.0832 27.6042 33.2276 27.4008 33.4055 27.4008C33.5834 27.4008 33.728 27.6042 33.728 27.853ZM34.5585 28.6836C34.5585 28.9324 34.4129 29.1357 34.2362 29.1357C34.0584 29.1357 33.9138 28.9324 33.9138 28.6836C33.9138 28.4335 34.0584 28.2315 34.2362 28.2315C34.4129 28.2315 34.5585 28.4335 34.5585 28.6836ZM31.8258 27.6991C31.8258 27.9492 31.6813 28.1512 31.5035 28.1512C31.3256 28.1512 31.1812 27.9492 31.1812 27.6991C31.1812 27.4503 31.3256 27.247 31.5035 27.247C31.6813 27.247 31.8258 27.4503 31.8258 27.6991ZM31.0126 26.8858C31.0126 27.1347 30.868 27.3379 30.6902 27.3379C30.5123 27.3379 30.3679 27.1347 30.3679 26.8858C30.3679 26.637 30.5123 26.4337 30.6902 26.4337C30.868 26.4337 31.0126 26.637 31.0126 26.8858ZM32.6486 28.5218C32.6486 28.7706 32.504 28.9738 32.3261 28.9738C32.1482 28.9738 32.0038 28.7706 32.0038 28.5218C32.0038 28.2729 32.1482 28.0697 32.3261 28.0697C32.504 28.0697 32.6486 28.2729 32.6486 28.5218ZM33.4777 29.3511C33.4777 29.6012 33.3333 29.8032 33.1554 29.8032C32.9775 29.8032 32.833 29.6012 32.833 29.3511C32.833 29.1022 32.9775 28.899 33.1554 28.899C33.3333 28.899 33.4777 29.1022 33.4777 29.3511ZM33.3935 23.9847C33.3935 24.2335 33.249 24.4368 33.0711 24.4368C32.8932 24.4368 32.7488 24.2335 32.7488 23.9847C32.7488 23.7358 32.8932 23.5324 33.0711 23.5324C33.249 23.5324 33.3935 23.7358 33.3935 23.9847ZM34.2148 24.8071C34.2148 25.056 34.0704 25.2594 33.8925 25.2594C33.7158 25.2594 33.57 25.056 33.57 24.8071C33.57 24.5571 33.7158 24.3551 33.8925 24.3551C34.0704 24.3551 34.2148 24.5571 34.2148 24.8071ZM35.0268 25.6178C35.0268 25.8666 34.8823 26.0699 34.7044 26.0699C34.5265 26.0699 34.3821 25.8666 34.3821 25.6178C34.3821 25.369 34.5265 25.1657 34.7044 25.1657C34.8823 25.1657 35.0268 25.369 35.0268 25.6178ZM35.8495 26.4404C35.8495 26.6893 35.7036 26.8925 35.527 26.8925C35.3491 26.8925 35.2047 26.6893 35.2047 26.4404C35.2047 26.1916 35.3491 25.9883 35.527 25.9883C35.7036 25.9883 35.8495 26.1916 35.8495 26.4404ZM36.6626 27.2537C36.6626 27.5026 36.5182 27.7058 36.3403 27.7058C36.1624 27.7058 36.018 27.5026 36.018 27.2537C36.018 27.0049 36.1624 26.8016 36.3403 26.8016C36.5182 26.8016 36.6626 27.0049 36.6626 27.2537ZM34.3646 23.2409C34.3646 23.4898 34.2202 23.693 34.0436 23.693C33.8657 23.693 33.7213 23.4898 33.7213 23.2409C33.7213 22.9921 33.8657 22.7887 34.0436 22.7887C34.2202 22.7887 34.3646 22.9921 34.3646 23.2409ZM35.1873 24.0636C35.1873 24.3124 35.0429 24.5157 34.865 24.5157C34.6871 24.5157 34.5425 24.3124 34.5425 24.0636C34.5425 23.8135 34.6871 23.6113 34.865 23.6113C35.0429 23.6113 35.1873 23.8135 35.1873 24.0636ZM35.9992 24.8741C35.9992 25.1242 35.8548 25.3262 35.6769 25.3262C35.499 25.3262 35.3546 25.1242 35.3546 24.8741C35.3546 24.6252 35.499 24.422 35.6769 24.422C35.8548 24.422 35.9992 24.6252 35.9992 24.8741ZM36.8246 25.7007C36.8246 25.9496 36.68 26.1528 36.5022 26.1528C36.3243 26.1528 36.1799 25.9496 36.1799 25.7007C36.1799 25.4507 36.3243 25.2487 36.5022 25.2487C36.68 25.2487 36.8246 25.4507 36.8246 25.7007Z" fill="#DF0045"/>
</g>
<g opacity="0.4">
<path d="M36.9714 27.1805C36.8911 28.589 35.9372 29.9573 33.769 29.8692C31.693 29.7848 30.8438 28.3469 30.8438 26.9277C30.8438 26.4917 31.4932 25.475 31.4932 25.475C31.176 26.2923 31.7017 27.991 33.9085 27.9869C36.1613 27.9829 36.633 26.3999 36.4131 25.608C36.8609 25.8805 36.9991 26.6935 36.9714 27.1805Z" fill="#690027"/>
</g>
<g opacity="0.24">
<path d="M36.9714 27.1801C36.97 27.1935 36.97 27.2068 36.9687 27.2202C36.8176 25.3502 34.9717 23.0215 33.9029 23.0215C32.933 23.0215 31.0137 25.3222 30.8545 27.1922C30.8464 27.104 30.8438 27.0156 30.8438 26.9273C30.8451 24.6093 32.8902 21.7587 33.9029 21.7587C35.0533 21.7587 37.105 24.8325 36.9714 27.1801Z" fill="#F1F1F1"/>
</g>
<path d="M33.9027 21.7595C32.8899 21.7595 30.7107 24.6092 30.7099 26.9277C30.7094 28.347 31.6927 29.7846 33.7689 29.8688C35.9374 29.9567 37.0247 28.5896 37.1052 27.1807C37.2393 24.8326 35.0526 21.7595 33.9027 21.7595Z" stroke="#720027" stroke-width="1.2" stroke-miterlimit="10"/>
</g>
<mask id="mask4_78_11498" style="mask-type:luminance" maskUnits="userSpaceOnUse" x="-1" y="-2" width="84" height="84">
<path d="M-0.680893 -1.93793H82.3195V81.0619H-0.680893V-1.93793Z" fill="white"/>
</mask>
<g mask="url(#mask4_78_11498)">
<g opacity="0.3">
<path d="M25.9891 32.8173C25.9881 33.8044 24.299 34.6029 22.216 34.601C20.133 34.599 18.4452 33.7974 18.4462 32.8104C18.4472 31.8233 20.1363 31.0246 22.2193 31.0266C24.3023 31.0285 25.9901 31.8303 25.9891 32.8173Z" fill="#929EB0"/>
</g>
<path d="M22.155 25.4844C21.1528 25.4844 19.1285 28.3044 19.1278 30.5989C19.1274 32.0034 19.9679 33.4261 22.0226 33.5093C24.1686 33.5963 25.1122 32.2434 25.1918 30.8493C25.3245 28.5257 23.2931 25.4844 22.155 25.4844Z" fill="#B1002F"/>
<g opacity="0.3">
<path d="M21.4154 29.2112C21.4154 29.4587 21.2725 29.6588 21.0964 29.6588C20.9204 29.6588 20.7775 29.4587 20.7775 29.2112C20.7775 28.965 20.9204 28.7639 21.0964 28.7639C21.2725 28.7639 21.4154 28.965 21.4154 29.2112ZM22.2176 30.0148C22.2176 30.261 22.0747 30.4622 21.8986 30.4622C21.7226 30.4622 21.5795 30.261 21.5795 30.0148C21.5795 29.7672 21.7226 29.5673 21.8986 29.5673C22.0747 29.5673 22.2176 29.7672 22.2176 30.0148ZM20.6106 28.4064C20.6106 28.6526 20.4663 28.8539 20.2916 28.8539C20.1155 28.8539 19.9726 28.6526 19.9726 28.4064C19.9726 28.1602 20.1155 27.959 20.2916 27.959C20.4663 27.959 20.6106 28.1602 20.6106 28.4064ZM21.1692 30.7017C21.1692 30.9479 21.0249 31.1492 20.8502 31.1492C20.6742 31.1492 20.5313 30.9479 20.5313 30.7017C20.5313 30.4541 20.6742 30.2543 20.8502 30.2543C21.0249 30.2543 21.1692 30.4541 21.1692 30.7017ZM20.3631 29.897C20.3631 30.1432 20.2202 30.343 20.0441 30.343C19.8695 30.343 19.725 30.1432 19.725 29.897C19.725 29.6496 19.8695 29.4495 20.0441 29.4495C20.2202 29.4495 20.3631 29.6496 20.3631 29.897ZM23.0317 30.8276C23.0317 31.0752 22.8888 31.275 22.7127 31.275C22.5366 31.275 22.3937 31.0752 22.3937 30.8276C22.3937 30.5814 22.5366 30.3801 22.7127 30.3801C22.8888 30.3801 23.0317 30.5814 23.0317 30.8276ZM23.8339 31.631C23.8339 31.8773 23.691 32.0784 23.5149 32.0784C23.3402 32.0784 23.1959 31.8773 23.1959 31.631C23.1959 31.3848 23.3402 31.1837 23.5149 31.1837C23.691 31.1837 23.8339 31.3848 23.8339 31.631ZM21.982 31.5145C21.982 31.762 21.8391 31.9619 21.663 31.9619C21.487 31.9619 21.3439 31.762 21.3439 31.5145C21.3439 31.2683 21.487 31.0671 21.663 31.0671C21.8391 31.0671 21.982 31.2683 21.982 31.5145ZM22.804 32.3366C22.804 32.5828 22.6597 32.784 22.485 32.784C22.3089 32.784 22.166 32.5828 22.166 32.3366C22.166 32.089 22.3089 31.8891 22.485 31.8891C22.6597 31.8891 22.804 32.089 22.804 32.3366ZM20.0996 31.3623C20.0996 31.6099 19.9567 31.8098 19.7807 31.8098C19.6046 31.8098 19.4617 31.6099 19.4617 31.3623C19.4617 31.1161 19.6046 30.9149 19.7807 30.9149C19.9567 30.9149 20.0996 31.1161 20.0996 31.3623ZM19.2949 30.5576C19.2949 30.8038 19.1519 31.0049 18.9758 31.0049C18.7997 31.0049 18.6568 30.8038 18.6568 30.5576C18.6568 30.3114 18.7997 30.11 18.9758 30.11C19.1519 30.11 19.2949 30.3114 19.2949 30.5576ZM20.9138 32.1764C20.9138 32.4226 20.7708 32.6238 20.5947 32.6238C20.4186 32.6238 20.2757 32.4226 20.2757 32.1764C20.2757 31.9302 20.4186 31.7289 20.5947 31.7289C20.7708 31.7289 20.9138 31.9302 20.9138 32.1764ZM21.7344 32.997C21.7344 33.2446 21.5915 33.4445 21.4154 33.4445C21.2393 33.4445 21.0964 33.2446 21.0964 32.997C21.0964 32.7508 21.2393 32.5496 21.4154 32.5496C21.5915 32.5496 21.7344 32.7508 21.7344 32.997ZM21.651 27.6863C21.651 27.9325 21.5081 28.1339 21.3321 28.1339C21.156 28.1339 21.0131 27.9325 21.0131 27.6863C21.0131 27.4401 21.156 27.239 21.3321 27.239C21.5081 27.239 21.651 27.4401 21.651 27.6863ZM22.4638 28.5005C22.4638 28.7467 22.3209 28.9479 22.1448 28.9479C21.9702 28.9479 21.8257 28.7467 21.8257 28.5005C21.8257 28.2529 21.9702 28.053 22.1448 28.053C22.3209 28.053 22.4638 28.2529 22.4638 28.5005ZM23.2673 29.3026C23.2673 29.5488 23.1244 29.7501 22.9483 29.7501C22.7722 29.7501 22.6293 29.5488 22.6293 29.3026C22.6293 29.0564 22.7722 28.8552 22.9483 28.8552C23.1244 28.8552 23.2673 29.0564 23.2673 29.3026ZM24.0815 30.1167C24.0815 30.3629 23.937 30.5641 23.7623 30.5641C23.5863 30.5641 23.4434 30.3629 23.4434 30.1167C23.4434 29.8705 23.5863 29.6694 23.7623 29.6694C23.937 29.6694 24.0815 29.8705 24.0815 30.1167ZM24.8862 30.9216C24.8862 31.1678 24.7433 31.3689 24.5672 31.3689C24.3911 31.3689 24.2482 31.1678 24.2482 30.9216C24.2482 30.6754 24.3911 30.4741 24.5672 30.4741C24.7433 30.4741 24.8862 30.6754 24.8862 30.9216ZM22.612 26.9504C22.612 27.1966 22.4691 27.3977 22.2944 27.3977C22.1184 27.3977 21.9753 27.1966 21.9753 26.9504C21.9753 26.7042 22.1184 26.503 22.2944 26.503C22.4691 26.503 22.612 26.7042 22.612 26.9504ZM23.4262 27.7645C23.4262 28.0108 23.2832 28.2119 23.1071 28.2119C22.931 28.2119 22.7881 28.0108 22.7881 27.7645C22.7881 27.5169 22.931 27.317 23.1071 27.317C23.2832 27.317 23.4262 27.5169 23.4262 27.7645ZM24.2297 28.5666C24.2297 28.8142 24.0868 29.0141 23.9107 29.0141C23.7346 29.0141 23.5917 28.8142 23.5917 28.5666C23.5917 28.3204 23.7346 28.1192 23.9107 28.1192C24.0868 28.1192 24.2297 28.3204 24.2297 28.5666ZM25.0463 29.3847C25.0463 29.6309 24.9034 29.8321 24.7274 29.8321C24.5513 29.8321 24.4084 29.6309 24.4084 29.3847C24.4084 29.1371 24.5513 28.9373 24.7274 28.9373C24.9034 28.9373 25.0463 29.1371 25.0463 29.3847Z" fill="#DF0045"/>
</g>
<g opacity="0.4">
<path d="M25.1918 30.849C25.1123 32.2428 24.1685 33.5967 22.0227 33.5095C19.9683 33.4262 19.1278 32.0032 19.1278 30.5987C19.1278 30.1672 19.7705 29.1611 19.7705 29.1611C19.4567 29.9698 19.977 31.6507 22.1607 31.6468C24.3901 31.6428 24.8569 30.0765 24.6393 29.2928C25.0823 29.5624 25.2192 30.3671 25.1918 30.849Z" fill="#690027"/>
</g>
<g opacity="0.24">
<path d="M25.1918 30.8487C25.1904 30.8619 25.1904 30.8752 25.1891 30.8884C25.0395 29.0378 23.2128 26.7333 22.1552 26.7333C21.1954 26.7333 19.2959 29.0101 19.1384 30.8607C19.1304 30.7733 19.1278 30.686 19.1278 30.5986C19.1292 28.3047 21.1531 25.4838 22.1552 25.4838C23.2936 25.4838 25.3241 28.5256 25.1918 30.8487Z" fill="#F1F1F1"/>
</g>
<path d="M22.155 25.4844C21.1528 25.4844 18.996 28.3044 18.9953 30.5989C18.9949 32.0034 19.9679 33.4261 22.0226 33.5093C24.1686 33.5963 25.2445 32.2434 25.3241 30.8493C25.4568 28.5257 23.2931 25.4844 22.155 25.4844Z" stroke="#720027" stroke-width="1.075" stroke-miterlimit="10"/>
</g>
<mask id="mask5_78_11498" style="mask-type:luminance" maskUnits="userSpaceOnUse" x="0" y="-2" width="84" height="84">
<path d="M0.372787 -1.77588H83.3732V81.2239H0.372787V-1.77588Z" fill="white"/>
</mask>
<g mask="url(#mask5_78_11498)">
<g opacity="0.3">
<path d="M64.12 33.3518C64.1191 34.3492 62.412 35.1563 60.3072 35.1542C58.2023 35.1522 56.4968 34.342 56.4977 33.3446C56.4987 32.3472 58.2057 31.5402 60.3106 31.5422C62.4154 31.5442 64.1209 32.3544 64.12 33.3518Z" fill="#929EB0"/>
</g>
<path d="M60.2455 25.9418C59.2327 25.9418 57.1873 28.7915 57.1865 31.11C57.1861 32.5293 58.0355 33.9669 60.1117 34.0511C62.2802 34.139 63.2337 32.7719 63.3141 31.363C63.4483 29.015 61.3954 25.9418 60.2455 25.9418Z" fill="#B1002F"/>
<g opacity="0.3">
<path d="M59.4982 29.7079C59.4982 29.958 59.3536 30.16 59.1757 30.16C58.9978 30.16 58.8534 29.958 58.8534 29.7079C58.8534 29.4591 58.9978 29.2559 59.1757 29.2559C59.3536 29.2559 59.4982 29.4591 59.4982 29.7079ZM60.3088 30.5198C60.3088 30.7687 60.1643 30.9721 59.9864 30.9721C59.8085 30.9721 59.6641 30.7687 59.6641 30.5198C59.6641 30.2697 59.8085 30.0677 59.9864 30.0677C60.1643 30.0677 60.3088 30.2697 60.3088 30.5198ZM58.6849 28.8947C58.6849 29.1435 58.5392 29.3467 58.3626 29.3467C58.1847 29.3467 58.0401 29.1435 58.0401 28.8947C58.0401 28.6458 58.1847 28.4426 58.3626 28.4426C58.5392 28.4426 58.6849 28.6458 58.6849 28.8947ZM59.2493 31.2141C59.2493 31.4629 59.1037 31.6662 58.927 31.6662C58.7492 31.6662 58.6046 31.4629 58.6046 31.2141C58.6046 30.964 58.7492 30.762 58.927 30.762C59.1037 30.762 59.2493 30.964 59.2493 31.2141ZM58.4348 30.4008C58.4348 30.6496 58.2902 30.8516 58.1123 30.8516C57.9357 30.8516 57.79 30.6496 57.79 30.4008C57.79 30.1507 57.9357 29.9487 58.1123 29.9487C58.2902 29.9487 58.4348 30.1507 58.4348 30.4008ZM61.1315 31.3412C61.1315 31.5913 60.9869 31.7933 60.809 31.7933C60.6311 31.7933 60.4867 31.5913 60.4867 31.3412C60.4867 31.0924 60.6311 30.8891 60.809 30.8891C60.9869 30.8891 61.1315 31.0924 61.1315 31.3412ZM61.942 32.1531C61.942 32.402 61.7976 32.6052 61.6197 32.6052C61.443 32.6052 61.2972 32.402 61.2972 32.1531C61.2972 31.9043 61.443 31.701 61.6197 31.701C61.7976 31.701 61.942 31.9043 61.942 32.1531ZM60.0707 32.0355C60.0707 32.2856 59.9262 32.4876 59.7483 32.4876C59.5704 32.4876 59.426 32.2856 59.426 32.0355C59.426 31.7866 59.5704 31.5832 59.7483 31.5832C59.9262 31.5832 60.0707 31.7866 60.0707 32.0355ZM60.9013 32.866C60.9013 33.1149 60.7556 33.3181 60.579 33.3181C60.4011 33.3181 60.2565 33.1149 60.2565 32.866C60.2565 32.6159 60.4011 32.4139 60.579 32.4139C60.7556 32.4139 60.9013 32.6159 60.9013 32.866ZM58.1685 31.8816C58.1685 32.1316 58.0241 32.3336 57.8462 32.3336C57.6683 32.3336 57.5239 32.1316 57.5239 31.8816C57.5239 31.6327 57.6683 31.4295 57.8462 31.4295C58.0241 31.4295 58.1685 31.6327 58.1685 31.8816ZM57.3554 31.0683C57.3554 31.3171 57.2108 31.5203 57.0329 31.5203C56.855 31.5203 56.7106 31.3171 56.7106 31.0683C56.7106 30.8194 56.855 30.6162 57.0329 30.6162C57.2108 30.6162 57.3554 30.8194 57.3554 31.0683ZM58.9913 32.7042C58.9913 32.953 58.8467 33.1563 58.6689 33.1563C58.491 33.1563 58.3466 32.953 58.3466 32.7042C58.3466 32.4553 58.491 32.2521 58.6689 32.2521C58.8467 32.2521 58.9913 32.4553 58.9913 32.7042ZM59.8205 33.5335C59.8205 33.7836 59.6761 33.9856 59.4982 33.9856C59.3203 33.9856 59.1757 33.7836 59.1757 33.5335C59.1757 33.2847 59.3203 33.0814 59.4982 33.0814C59.6761 33.0814 59.8205 33.2847 59.8205 33.5335ZM59.7363 28.1671C59.7363 28.4159 59.5917 28.6192 59.4138 28.6192C59.236 28.6192 59.0915 28.4159 59.0915 28.1671C59.0915 27.9183 59.236 27.7149 59.4138 27.7149C59.5917 27.7149 59.7363 27.9183 59.7363 28.1671ZM60.5575 28.9896C60.5575 29.2384 60.4131 29.4418 60.2352 29.4418C60.0586 29.4418 59.9128 29.2384 59.9128 28.9896C59.9128 28.7395 60.0586 28.5375 60.2352 28.5375C60.4131 28.5375 60.5575 28.7395 60.5575 28.9896ZM61.3696 29.8002C61.3696 30.0491 61.225 30.2523 61.0471 30.2523C60.8692 30.2523 60.7248 30.0491 60.7248 29.8002C60.7248 29.5514 60.8692 29.3481 61.0471 29.3481C61.225 29.3481 61.3696 29.5514 61.3696 29.8002ZM62.1922 30.6229C62.1922 30.8717 62.0464 31.075 61.8698 31.075C61.6919 31.075 61.5475 30.8717 61.5475 30.6229C61.5475 30.374 61.6919 30.1708 61.8698 30.1708C62.0464 30.1708 62.1922 30.374 62.1922 30.6229ZM63.0054 31.4362C63.0054 31.685 62.8609 31.8882 62.6831 31.8882C62.5052 31.8882 62.3608 31.685 62.3608 31.4362C62.3608 31.1873 62.5052 30.9841 62.6831 30.9841C62.8609 30.9841 63.0054 31.1873 63.0054 31.4362ZM60.7074 27.4234C60.7074 27.6722 60.563 27.8755 60.3863 27.8755C60.2085 27.8755 60.064 27.6722 60.064 27.4234C60.064 27.1745 60.2085 26.9711 60.3863 26.9711C60.563 26.9711 60.7074 27.1745 60.7074 27.4234ZM61.53 28.246C61.53 28.4949 61.3856 28.6981 61.2077 28.6981C61.0299 28.6981 60.8853 28.4949 60.8853 28.246C60.8853 27.9959 61.0299 27.7938 61.2077 27.7938C61.3856 27.7938 61.53 27.9959 61.53 28.246ZM62.3419 29.0565C62.3419 29.3066 62.1975 29.5086 62.0196 29.5086C61.8418 29.5086 61.6973 29.3066 61.6973 29.0565C61.6973 28.8077 61.8418 28.6044 62.0196 28.6044C62.1975 28.6044 62.3419 28.8077 62.3419 29.0565ZM63.1674 29.8832C63.1674 30.132 63.0228 30.3353 62.8449 30.3353C62.667 30.3353 62.5226 30.132 62.5226 29.8832C62.5226 29.6331 62.667 29.4311 62.8449 29.4311C63.0228 29.4311 63.1674 29.6331 63.1674 29.8832Z" fill="#DF0045"/>
</g>
<g opacity="0.4">
<path d="M63.3141 31.3628C63.2338 32.7713 62.28 34.1396 60.1118 34.0515C58.0358 33.9672 57.1865 32.5292 57.1865 31.11C57.1865 30.674 57.8359 29.6573 57.8359 29.6573C57.5188 30.4746 58.0445 32.1733 60.2513 32.1692C62.5041 32.1652 62.9758 30.5822 62.7559 29.7903C63.2036 30.0628 63.3418 30.8758 63.3141 31.3628Z" fill="#690027"/>
</g>
<g opacity="0.24">
<path d="M63.3141 31.3626C63.3127 31.3759 63.3127 31.3893 63.3115 31.4027C63.1604 29.5327 61.3145 27.204 60.2457 27.204C59.2758 27.204 57.3565 29.5047 57.1973 31.3747C57.1892 31.2865 57.1865 31.1981 57.1865 31.1098C57.1879 28.7918 59.233 25.9412 60.2457 25.9412C61.396 25.9412 63.4478 29.015 63.3141 31.3626Z" fill="#F1F1F1"/>
</g>
<path d="M60.2455 25.9418C59.2327 25.9418 57.0535 28.7915 57.0527 31.11C57.0522 32.5293 58.0355 33.9669 60.1117 34.0511C62.2802 34.139 63.3675 32.7719 63.448 31.363C63.5821 29.015 61.3954 25.9418 60.2455 25.9418Z" stroke="#720027" stroke-width="1.2" stroke-miterlimit="10"/>
</g>
<path d="M41.0193 19.1272C38.331 19.1272 36.1518 20.3784 36.1518 21.9217V36.5633C36.1518 38.1066 38.331 39.3578 41.0193 39.3578C43.7076 39.3578 45.8868 38.1066 45.8868 36.5633V21.9217C45.8868 20.3784 43.7076 19.1272 41.0193 19.1272Z" fill="#E4DECE"/>
<path d="M45.8868 21.9217C45.8868 23.465 43.7076 24.7161 41.0193 24.7161C38.331 24.7161 36.1518 23.465 36.1518 21.9217C36.1518 20.3784 38.331 19.1272 41.0193 19.1272C43.7076 19.1272 45.8868 20.3784 45.8868 21.9217Z" fill="#FFFBEB"/>
<path d="M41.0193 19.1272C38.331 19.1272 36.1518 20.3784 36.1518 21.9217V36.5633C36.1518 38.1066 38.331 39.0998 41.0193 39.0998C43.7076 39.0998 45.8868 38.1066 45.8868 36.5633V21.9217C45.8868 20.3784 43.7076 19.1272 41.0193 19.1272Z" stroke="#ADA195" stroke-width="1.3125" stroke-miterlimit="10"/>
<path d="M45.8505 21.5471C45.5366 20.1756 43.4927 19.1169 41.018 19.1169C38.5385 19.1169 36.4914 20.1797 36.1836 21.5553" stroke="#CEC6BE" stroke-width="1.3125" stroke-miterlimit="10"/>
<path d="M46.4848 21.2558C46.4848 21.2558 46.9489 22.4114 45.1435 23.4727L45.1437 22.071C45.1437 22.071 45.1546 21.7937 45.1167 21.6611L46.4848 21.2558Z" fill="#CEC6BE"/>
<path d="M35.5441 21.3161C35.5441 21.3161 35.0541 22.5534 36.7739 23.4926L36.7737 22.1113C36.7737 22.1113 36.7866 21.7428 36.8613 21.6L35.5441 21.3161Z" fill="#CEC6BE"/>
<path d="M41.0029 20.5836C41.0029 20.5836 40.8504 21.3815 41.0029 22.0869" stroke="#666666" stroke-width="0.875" stroke-linecap="round" stroke-linejoin="round"/>
<path d="M40.923 11.4808C40.923 11.4808 40.2815 12.6048 39.3577 14.6169C37.9121 17.7657 38.6903 20.4794 40.78 20.4794C43.3528 20.4794 43.2781 17.5568 42.3144 15.3835C41.8756 14.3937 40.923 12.2974 40.923 11.4808Z" fill="#FFF176"/>
<path d="M40.923 11.4808C40.923 11.4808 40.2815 12.6048 39.3577 14.6169C37.9121 17.7657 38.6903 20.4794 40.78 20.4794C43.3528 20.4794 43.2781 17.5568 42.3144 15.3835C41.8756 14.3937 40.923 12.2974 40.923 11.4808Z" stroke="#E5A600" stroke-width="1.3125" stroke-linecap="round" stroke-linejoin="round"/>
<path d="M51.5797 14.188C50.7078 20.1484 45.1692 24.2736 39.2088 23.4017C33.2484 22.5299 29.1231 16.9911 29.9949 11.0307C30.8667 5.07027 36.4055 0.945117 42.3659 1.81696C48.3264 2.6888 52.4515 8.22759 51.5797 14.188Z" fill="url(#paint4_radial_78_11498)"/>
<mask id="mask6_78_11498" style="mask-type:luminance" maskUnits="userSpaceOnUse" x="4" y="-3" width="84" height="84">
<path d="M4.99286 -2.5863H87.9933V80.4135H4.99286V-2.5863Z" fill="white"/>
</mask>
<g mask="url(#mask6_78_11498)">
<path d="M25.0734 19.1564C22.3901 19.1564 20.215 20.4053 20.215 21.9456L20.2612 36.4429C20.2612 37.9835 22.4366 39.2321 25.1199 39.2321C27.8032 39.2321 29.9783 37.9835 29.9783 36.4429L29.932 21.9456C29.932 20.4053 27.7566 19.1564 25.0734 19.1564Z" fill="#E5DFCF"/>
<path d="M29.932 21.9456C29.932 23.4862 27.7566 24.7349 25.0734 24.7349C22.3901 24.7349 20.215 23.4859 20.215 21.9456C20.215 20.4053 22.3901 19.1564 25.0734 19.1564C27.7566 19.1564 29.932 20.4051 29.932 21.9456Z" fill="#FFFBEB"/>
<path d="M25.0734 19.1564C22.3901 19.1564 20.215 20.4053 20.215 21.9456L20.2612 36.4429C20.2612 37.9835 22.4366 38.9977 25.1199 38.9977C27.8032 38.9977 29.9783 37.9835 29.9783 36.4429L29.932 21.9456C29.932 20.4053 27.7566 19.1564 25.0734 19.1564Z" stroke="#ADA195" stroke-width="1.3125" stroke-miterlimit="10"/>
<path d="M29.8909 21.5786C29.5779 20.2116 27.5406 19.1563 25.074 19.1563C22.6025 19.1563 20.562 20.2157 20.2553 21.5867" stroke="#CEC6BE" stroke-width="1.3125" stroke-miterlimit="10"/>
<path d="M19.6079 21.3375C19.6079 21.3375 19.1776 22.1984 20.885 23.392L20.8848 22.1158C20.8848 22.1158 20.9061 21.658 20.9382 21.5459L19.6079 21.3375Z" fill="#CEC6BE"/>
<path d="M30.5401 21.2458C30.5401 21.2458 30.8496 22.3175 29.2551 23.3125L29.2555 21.9558C29.2555 21.9558 29.2646 21.7211 29.2326 21.609L30.5401 21.2458Z" fill="#CEC6BE"/>
<path d="M24.9824 21.1016C24.9824 21.1016 24.853 21.92 24.9824 22.5184" stroke="#666666" stroke-width="0.875" stroke-linecap="round" stroke-linejoin="round"/>
<path d="M25.1096 12.5751C25.1096 12.5751 24.5168 13.6136 23.6631 15.473C22.3271 18.3828 23.0464 20.8906 24.9775 20.8906C27.3551 20.8906 27.286 18.1898 26.3954 16.1814C25.9898 15.2667 25.1096 13.3296 25.1096 12.5751Z" fill="#FFF176"/>
<path d="M25.1096 12.5751C25.1096 12.5751 24.5168 13.6136 23.6631 15.473C22.3271 18.3828 23.0464 20.8906 24.9775 20.8906C27.3551 20.8906 27.286 18.1898 26.3954 16.1814C25.9898 15.2667 25.1096 13.3296 25.1096 12.5751Z" stroke="#E5A600" stroke-width="1.3125" stroke-linecap="round" stroke-linejoin="round"/>
<path d="M34.8004 15.3267C33.9947 20.8348 28.8764 24.6468 23.3682 23.8411C17.86 23.0355 14.048 17.9172 14.8536 12.409C15.6593 6.90088 20.7777 3.08893 26.2858 3.89455C31.794 4.70018 35.606 9.81852 34.8004 15.3267Z" fill="url(#paint5_radial_78_11498)"/>
</g>
<mask id="mask7_78_11498" style="mask-type:luminance" maskUnits="userSpaceOnUse" x="-6" y="-3" width="84" height="84">
<path d="M-5.94954 -2.66736H77.0509V80.3324H-5.94954V-2.66736Z" fill="white"/>
</mask>
<g mask="url(#mask7_78_11498)">
<path d="M56.814 19.0997C54.1307 19.0997 51.9556 20.3487 51.9556 21.889L52.0018 36.3863C52.0018 37.9268 54.1772 39.1755 56.8605 39.1755C59.5438 39.1755 61.7189 37.9268 61.7189 36.3863L61.6726 21.889C61.6726 20.3487 59.4972 19.0997 56.814 19.0997Z" fill="#E5DFCF"/>
<path d="M61.6726 21.889C61.6726 23.4295 59.4972 24.6782 56.814 24.6782C54.1307 24.6782 51.9556 23.4293 51.9556 21.889C51.9556 20.3487 54.1307 19.0997 56.814 19.0997C59.4972 19.0997 61.6726 20.3484 61.6726 21.889Z" fill="#FFFBEB"/>
<path d="M56.814 19.0997C54.1307 19.0997 51.9556 20.3487 51.9556 21.889L52.0018 36.3863C52.0018 37.9268 54.1772 38.9411 56.8605 38.9411C59.5438 38.9411 61.7189 37.9268 61.7189 36.3863L61.6726 21.889C61.6726 20.3487 59.4972 19.0997 56.814 19.0997Z" stroke="#ADA195" stroke-width="1.3125" stroke-miterlimit="10"/>
<path d="M61.6315 21.5221C61.3185 20.1551 59.2812 19.0998 56.8146 19.0998C54.3431 19.0998 52.3026 20.1592 51.9959 21.5302" stroke="#CEC6BE" stroke-width="1.3125" stroke-miterlimit="10"/>
<path d="M51.3278 21.2615C51.3278 21.2615 50.9279 22.1526 52.6346 23.3456V21.9889C52.6346 21.9889 52.6253 21.7545 52.6573 21.6424L51.3278 21.2615Z" fill="#CEC6BE"/>
<path d="M62.2198 21.1371C62.2198 21.1371 62.7125 22.1323 61.0058 23.3254L61.006 21.9687C61.006 21.9687 61.0151 21.734 60.9831 21.6219L62.2198 21.1371Z" fill="#CEC6BE"/>
<path d="M56.7229 21.0447C56.7229 21.0447 56.5936 21.8631 56.7229 22.4615" stroke="#666666" stroke-width="0.875" stroke-linecap="round" stroke-linejoin="round"/>
<path d="M56.8502 12.5184C56.8502 12.5184 56.2573 13.5568 55.4037 15.4163C54.0677 18.3261 54.787 20.8339 56.7181 20.8339C59.0957 20.8339 59.0266 18.1331 58.136 16.1247C57.7304 15.21 56.8502 13.2729 56.8502 12.5184Z" fill="#FFF176"/>
<path d="M56.8502 12.5184C56.8502 12.5184 56.2573 13.5568 55.4037 15.4163C54.0677 18.3261 54.787 20.8339 56.7181 20.8339C59.0957 20.8339 59.0266 18.1331 58.136 16.1247C57.7304 15.21 56.8502 13.2729 56.8502 12.5184Z" stroke="#E5A600" stroke-width="1.3125" stroke-linecap="round" stroke-linejoin="round"/>
<path d="M66.5409 15.2699C65.7353 20.778 60.6169 24.59 55.1087 23.7844C49.6005 22.9787 45.7885 17.8604 46.5942 12.3523C47.3998 6.84412 52.5182 3.03216 58.0264 3.83779C63.5345 4.64341 67.3465 9.76176 66.5409 15.2699Z" fill="url(#paint6_radial_78_11498)"/>
</g>
<mask id="mask8_78_11498" style="mask-type:luminance" maskUnits="userSpaceOnUse" x="1" y="-3" width="84" height="84">
<path d="M1.26447 -2.42432H84.2649V80.5755H1.26447V-2.42432Z" fill="white"/>
</mask>
<g mask="url(#mask8_78_11498)">
<g opacity="0.3">
<path d="M65.2603 42.9731C65.2593 44.0121 63.4811 44.8528 61.2886 44.8507C59.096 44.8486 57.3195 44.0046 57.3204 42.9657C57.3214 41.9267 59.0996 41.086 61.2921 41.0881C63.4847 41.0902 65.2612 41.9342 65.2603 42.9731Z" fill="#929EB0"/>
</g>
<path d="M61.2244 35.2544C60.1693 35.2544 58.0387 38.2228 58.0379 40.6379C58.0374 42.1163 58.9222 43.6139 61.0849 43.7016C63.3438 43.7932 64.337 42.369 64.4208 40.9015C64.5606 38.4556 62.4222 35.2544 61.2244 35.2544Z" fill="#BF113A"/>
<g opacity="0.6">
<path d="M60.4459 39.1775C60.4459 39.438 60.2953 39.6484 60.11 39.6484C59.9247 39.6484 59.7743 39.438 59.7743 39.1775C59.7743 38.9183 59.9247 38.7066 60.11 38.7066C60.2953 38.7066 60.4459 38.9183 60.4459 39.1775ZM61.2903 40.0232C61.2903 40.2824 61.1397 40.4943 60.9544 40.4943C60.7692 40.4943 60.6187 40.2824 60.6187 40.0232C60.6187 39.7627 60.7692 39.5523 60.9544 39.5523C61.1397 39.5523 61.2903 39.7627 61.2903 40.0232ZM59.5987 38.3303C59.5987 38.5895 59.447 38.8013 59.263 38.8013C59.0777 38.8013 58.9271 38.5895 58.9271 38.3303C58.9271 38.0711 59.0777 37.8594 59.263 37.8594C59.447 37.8594 59.5987 38.0711 59.5987 38.3303ZM60.1867 40.7464C60.1867 41.0056 60.035 41.2173 59.851 41.2173C59.6657 41.2173 59.5151 41.0056 59.5151 40.7464C59.5151 40.4859 59.6657 40.2755 59.851 40.2755C60.035 40.2755 60.1867 40.4859 60.1867 40.7464ZM59.3382 39.8992C59.3382 40.1584 59.1876 40.3688 59.0023 40.3688C58.8183 40.3688 58.6666 40.1584 58.6666 39.8992C58.6666 39.6387 58.8183 39.4283 59.0023 39.4283C59.1876 39.4283 59.3382 39.6387 59.3382 39.8992ZM62.1473 40.8788C62.1473 41.1394 61.9967 41.3498 61.8114 41.3498C61.6261 41.3498 61.4756 41.1394 61.4756 40.8788C61.4756 40.6196 61.6261 40.4079 61.8114 40.4079C61.9967 40.4079 62.1473 40.6196 62.1473 40.8788ZM62.9915 41.7246C62.9915 41.9838 62.8411 42.1955 62.6558 42.1955C62.4718 42.1955 62.3199 41.9838 62.3199 41.7246C62.3199 41.4654 62.4718 41.2536 62.6558 41.2536C62.8411 41.2536 62.9915 41.4654 62.9915 41.7246ZM61.0423 41.602C61.0423 41.8625 60.8917 42.0729 60.7064 42.0729C60.5211 42.0729 60.3707 41.8625 60.3707 41.602C60.3707 41.3428 60.5211 41.1309 60.7064 41.1309C60.8917 41.1309 61.0423 41.3428 61.0423 41.602ZM61.9075 42.4672C61.9075 42.7264 61.7558 42.9381 61.5718 42.9381C61.3865 42.9381 61.2359 42.7264 61.2359 42.4672C61.2359 42.2067 61.3865 41.9963 61.5718 41.9963C61.7558 41.9963 61.9075 42.2067 61.9075 42.4672ZM59.0608 41.4417C59.0608 41.7022 58.9104 41.9126 58.7251 41.9126C58.5398 41.9126 58.3894 41.7022 58.3894 41.4417C58.3894 41.1825 58.5398 40.9708 58.7251 40.9708C58.9104 40.9708 59.0608 41.1825 59.0608 41.4417ZM58.2138 40.5945C58.2138 40.8537 58.0632 41.0654 57.8779 41.0654C57.6926 41.0654 57.5422 40.8537 57.5422 40.5945C57.5422 40.3353 57.6926 40.1236 57.8779 40.1236C58.0632 40.1236 58.2138 40.3353 58.2138 40.5945ZM59.9179 42.2986C59.9179 42.5578 59.7673 42.7695 59.582 42.7695C59.3967 42.7695 59.2463 42.5578 59.2463 42.2986C59.2463 42.0394 59.3967 41.8277 59.582 41.8277C59.7673 41.8277 59.9179 42.0394 59.9179 42.2986ZM60.7816 43.1625C60.7816 43.423 60.6312 43.6334 60.4459 43.6334C60.2606 43.6334 60.11 43.423 60.11 43.1625C60.11 42.9033 60.2606 42.6915 60.4459 42.6915C60.6312 42.6915 60.7816 42.9033 60.7816 43.1625ZM60.6939 37.5725C60.6939 37.8317 60.5433 38.0434 60.358 38.0434C60.1728 38.0434 60.0223 37.8317 60.0223 37.5725C60.0223 37.3133 60.1728 37.1014 60.358 37.1014C60.5433 37.1014 60.6939 37.3133 60.6939 37.5725ZM61.5494 38.4292C61.5494 38.6884 61.399 38.9003 61.2137 38.9003C61.0297 38.9003 60.8778 38.6884 60.8778 38.4292C60.8778 38.1687 61.0297 37.9583 61.2137 37.9583C61.399 37.9583 61.5494 38.1687 61.5494 38.4292ZM62.3953 39.2736C62.3953 39.5329 62.2447 39.7446 62.0594 39.7446C61.8741 39.7446 61.7237 39.5329 61.7237 39.2736C61.7237 39.0144 61.8741 38.8027 62.0594 38.8027C62.2447 38.8027 62.3953 39.0144 62.3953 39.2736ZM63.2522 40.1305C63.2522 40.3898 63.1003 40.6015 62.9163 40.6015C62.731 40.6015 62.5806 40.3898 62.5806 40.1305C62.5806 39.8713 62.731 39.6596 62.9163 39.6596C63.1003 39.6596 63.2522 39.8713 63.2522 40.1305ZM64.0992 40.9777C64.0992 41.2369 63.9488 41.4487 63.7635 41.4487C63.5782 41.4487 63.4278 41.2369 63.4278 40.9777C63.4278 40.7185 63.5782 40.5068 63.7635 40.5068C63.9488 40.5068 64.0992 40.7185 64.0992 40.9777ZM61.7055 36.7977C61.7055 37.057 61.5551 37.2687 61.3711 37.2687C61.1858 37.2687 61.0353 37.057 61.0353 36.7977C61.0353 36.5385 61.1858 36.3267 61.3711 36.3267C61.5551 36.3267 61.7055 36.5385 61.7055 36.7977ZM62.5624 37.6547C62.5624 37.9139 62.412 38.1256 62.2267 38.1256C62.0414 38.1256 61.8908 37.9139 61.8908 37.6547C61.8908 37.3941 62.0414 37.1836 62.2267 37.1836C62.412 37.1836 62.5624 37.3941 62.5624 37.6547ZM63.4081 38.4989C63.4081 38.7594 63.2577 38.9698 63.0724 38.9698C62.8871 38.9698 62.7367 38.7594 62.7367 38.4989C62.7367 38.2397 62.8871 38.028 63.0724 38.028C63.2577 38.028 63.4081 38.2397 63.4081 38.4989ZM64.268 39.36C64.268 39.6193 64.1174 39.831 63.9321 39.831C63.7468 39.831 63.5964 39.6193 63.5964 39.36C63.5964 39.0995 63.7468 38.8891 63.9321 38.8891C64.1174 38.8891 64.268 39.0995 64.268 39.36Z" fill="#FF0057"/>
</g>
<g opacity="0.4">
<path d="M64.4208 40.9013C64.3372 42.3686 63.3436 43.7938 61.0851 43.7021C58.9226 43.6142 58.0379 42.1163 58.0379 40.638C58.0379 40.1838 58.7144 39.1248 58.7144 39.1248C58.384 39.9762 58.9316 41.7456 61.2304 41.7414C63.5771 41.7371 64.0684 40.0882 63.8394 39.2634C64.3057 39.5472 64.4497 40.3941 64.4208 40.9013Z" fill="#90002F"/>
</g>
<g opacity="0.4">
<path d="M64.4208 40.901C64.4194 40.915 64.4194 40.9289 64.4181 40.9428C64.2607 38.9949 62.3379 36.5691 61.2245 36.5691C60.2142 36.5691 58.2149 38.9658 58.0491 40.9137C58.0407 40.8217 58.0379 40.7297 58.0379 40.6377C58.0394 38.2231 60.1697 35.2538 61.2245 35.2538C62.4228 35.2538 64.5601 38.4556 64.4208 40.901Z" fill="#F1F1F1"/>
</g>
<path d="M61.2244 35.2544C60.1694 35.2544 57.8993 38.2228 57.8985 40.6379C57.898 42.1163 58.9222 43.6139 61.085 43.7016C63.3438 43.7932 64.4765 42.369 64.5603 40.9015C64.7 38.4556 62.4222 35.2544 61.2244 35.2544Z" stroke="#9A0039" stroke-width="1.25" stroke-miterlimit="10"/>
</g>
<mask id="mask9_78_11498" style="mask-type:luminance" maskUnits="userSpaceOnUse" x="10" y="1" width="84" height="84">
<path d="M10.991 1.14203H93.9914V84.1418H10.991V1.14203Z" fill="white"/>
</mask>
<g mask="url(#mask9_78_11498)">
<g opacity="0.3">
<path d="M38.274 46.4644C38.2728 47.6121 36.3087 48.5407 33.8866 48.5384C31.4645 48.5361 29.502 47.604 29.5032 46.4563C29.5043 45.3085 31.4684 44.3798 33.8905 44.3821C36.3126 44.3844 38.2751 45.3166 38.274 46.4644Z" fill="#929EB0"/>
</g>
<path d="M33.8158 37.9376C32.6504 37.9376 30.2965 41.2168 30.2957 43.8848C30.2952 45.5178 31.2726 47.1722 33.6618 47.2689C36.1571 47.3701 37.2543 45.797 37.3468 44.1759C37.5012 41.474 35.1391 37.9376 33.8158 37.9376Z" fill="#BF113A"/>
<g opacity="0.6">
<path d="M32.9558 42.2712C32.9558 42.5589 32.7896 42.7916 32.5849 42.7916C32.3801 42.7916 32.214 42.5589 32.214 42.2712C32.214 41.9849 32.3801 41.751 32.5849 41.751C32.7896 41.751 32.9558 41.9849 32.9558 42.2712ZM33.8885 43.2056C33.8885 43.4919 33.7224 43.7258 33.5176 43.7258C33.3129 43.7258 33.1466 43.4919 33.1466 43.2056C33.1466 42.9177 33.3129 42.6852 33.5176 42.6852C33.7224 42.6852 33.8885 42.9177 33.8885 43.2056ZM32.0199 41.3353C32.0199 41.6216 31.8521 41.8557 31.649 41.8557C31.4443 41.8557 31.2781 41.6216 31.2781 41.3353C31.2781 41.0491 31.4443 40.8151 31.649 40.8151C31.8521 40.8151 32.0199 41.0491 32.0199 41.3353ZM32.6695 44.0043C32.6695 44.2906 32.5017 44.5247 32.2986 44.5247C32.0938 44.5247 31.9277 44.2906 31.9277 44.0043C31.9277 43.7164 32.0938 43.4841 32.2986 43.4841C32.5017 43.4841 32.6695 43.7164 32.6695 44.0043ZM31.7322 43.0686C31.7322 43.3549 31.566 43.5872 31.3613 43.5872C31.1581 43.5872 30.9902 43.3549 30.9902 43.0686C30.9902 42.7809 31.1581 42.5482 31.3613 42.5482C31.566 42.5482 31.7322 42.7809 31.7322 43.0686ZM34.8351 44.1507C34.8351 44.4386 34.6689 44.6709 34.4642 44.6709C34.2595 44.6709 34.0933 44.4386 34.0933 44.1507C34.0933 43.8644 34.2595 43.6303 34.4642 43.6303C34.6689 43.6303 34.8351 43.8644 34.8351 44.1507ZM35.7679 45.0849C35.7679 45.3712 35.6017 45.6051 35.397 45.6051C35.1939 45.6051 35.0261 45.3712 35.0261 45.0849C35.0261 44.7986 35.1939 44.5647 35.397 44.5647C35.6017 44.5647 35.7679 44.7986 35.7679 45.0849ZM33.6146 44.9494C33.6146 45.2371 33.4484 45.4696 33.2437 45.4696C33.0389 45.4696 32.8726 45.2371 32.8726 44.9494C32.8726 44.6631 33.0389 44.4292 33.2437 44.4292C33.4484 44.4292 33.6146 44.6631 33.6146 44.9494ZM34.5704 45.9054C34.5704 46.1916 34.4026 46.4256 34.1995 46.4256C33.9947 46.4256 33.8286 46.1916 33.8286 45.9054C33.8286 45.6175 33.9947 45.385 34.1995 45.385C34.4026 45.385 34.5704 45.6175 34.5704 45.9054ZM31.4258 44.7724C31.4258 45.0603 31.2596 45.2927 31.0549 45.2927C30.8501 45.2927 30.684 45.0603 30.684 44.7724C30.684 44.4861 30.8501 44.2522 31.0549 44.2522C31.2596 44.2522 31.4258 44.4861 31.4258 44.7724ZM30.4901 43.8367C30.4901 44.123 30.3237 44.3569 30.119 44.3569C29.9143 44.3569 29.7481 44.123 29.7481 43.8367C29.7481 43.5504 29.9143 43.3163 30.119 43.3163C30.3237 43.3163 30.4901 43.5504 30.4901 43.8367ZM32.3725 45.7191C32.3725 46.0054 32.2062 46.2393 32.0014 46.2393C31.7967 46.2393 31.6305 46.0054 31.6305 45.7191C31.6305 45.4328 31.7967 45.1987 32.0014 45.1987C32.2062 45.1987 32.3725 45.4328 32.3725 45.7191ZM33.3267 46.6733C33.3267 46.9612 33.1605 47.1936 32.9558 47.1936C32.751 47.1936 32.5849 46.9612 32.5849 46.6733C32.5849 46.387 32.751 46.1531 32.9558 46.1531C33.1605 46.1531 33.3267 46.387 33.3267 46.6733ZM33.2297 40.4981C33.2297 40.7843 33.0636 41.0184 32.8588 41.0184C32.6541 41.0184 32.4879 40.7843 32.4879 40.4981C32.4879 40.2118 32.6541 39.9778 32.8588 39.9778C33.0636 39.9778 33.2297 40.2118 33.2297 40.4981ZM34.1748 41.4448C34.1748 41.7311 34.0087 41.965 33.8039 41.965C33.6008 41.965 33.4329 41.7311 33.4329 41.4448C33.4329 41.1569 33.6008 40.9244 33.8039 40.9244C34.0087 40.9244 34.1748 41.1569 34.1748 41.4448ZM35.1091 42.3774C35.1091 42.6637 34.9429 42.8978 34.7382 42.8978C34.5334 42.8978 34.3673 42.6637 34.3673 42.3774C34.3673 42.0911 34.5334 41.8572 34.7382 41.8572C34.9429 41.8572 35.1091 42.0911 35.1091 42.3774ZM36.0558 43.3241C36.0558 43.6104 35.8879 43.8443 35.6847 43.8443C35.48 43.8443 35.3138 43.6104 35.3138 43.3241C35.3138 43.0378 35.48 42.8039 35.6847 42.8039C35.8879 42.8039 36.0558 43.0378 36.0558 43.3241ZM36.9915 44.26C36.9915 44.5462 36.8253 44.7802 36.6206 44.7802C36.4158 44.7802 36.2497 44.5462 36.2497 44.26C36.2497 43.9737 36.4158 43.7396 36.6206 43.7396C36.8253 43.7396 36.9915 43.9737 36.9915 44.26ZM34.3472 39.6423C34.3472 39.9286 34.181 40.1625 33.9779 40.1625C33.7731 40.1625 33.6068 39.9286 33.6068 39.6423C33.6068 39.356 33.7731 39.1221 33.9779 39.1221C34.181 39.1221 34.3472 39.356 34.3472 39.6423ZM35.2939 40.589C35.2939 40.8753 35.1276 41.1092 34.9228 41.1092C34.7181 41.1092 34.5519 40.8753 34.5519 40.589C34.5519 40.3011 34.7181 40.0686 34.9228 40.0686C35.1276 40.0686 35.2939 40.3011 35.2939 40.589ZM36.2281 41.5216C36.2281 41.8095 36.062 42.042 35.8572 42.042C35.6525 42.042 35.4863 41.8095 35.4863 41.5216C35.4863 41.2353 35.6525 41.0014 35.8572 41.0014C36.062 41.0014 36.2281 41.2353 36.2281 41.5216ZM37.1778 42.4729C37.1778 42.7591 37.0116 42.9931 36.8069 42.9931C36.6021 42.9931 36.4359 42.7591 36.4359 42.4729C36.4359 42.185 36.6021 41.9527 36.8069 41.9527C37.0116 41.9527 37.1778 42.185 37.1778 42.4729Z" fill="#FF0057"/>
</g>
<g opacity="0.4">
<path d="M37.3468 44.1758C37.2544 45.7966 36.157 47.3708 33.6619 47.2695C31.2731 47.1725 30.2957 45.5179 30.2957 43.8848C30.2957 43.3831 31.043 42.2131 31.043 42.2131C30.6781 43.1535 31.2831 45.1081 33.8224 45.1035C36.4147 45.0988 36.9575 43.2775 36.7044 42.3663C37.2196 42.6798 37.3788 43.6155 37.3468 44.1758Z" fill="#90002F"/>
</g>
<g opacity="0.4">
<path d="M37.3468 44.1753C37.3452 44.1907 37.3452 44.2061 37.3438 44.2215C37.1698 42.0697 35.0457 39.39 33.8159 39.39C32.7 39.39 30.4912 42.0374 30.308 44.1892C30.2988 44.0876 30.2957 43.9861 30.2957 43.8845C30.2973 41.2171 32.6507 37.937 33.8159 37.937C35.1397 37.937 37.5007 41.4741 37.3468 44.1753Z" fill="#F1F1F1"/>
</g>
<path d="M33.8158 37.9376C32.6503 37.9376 30.1425 41.2168 30.1417 43.8848C30.1412 45.5178 31.2726 47.1722 33.6618 47.2689C36.1571 47.3701 37.4081 45.797 37.5007 44.1759C37.655 41.474 35.1391 37.9376 33.8158 37.9376Z" stroke="#9A0039" stroke-width="1.25" stroke-miterlimit="10"/>
</g>
<mask id="mask10_78_11498" style="mask-type:luminance" maskUnits="userSpaceOnUse" x="6" y="-4" width="84" height="84">
<path d="M6.61404 -3.39703H89.6145V79.6028H6.61404V-3.39703Z" fill="white"/>
</mask>
<g mask="url(#mask10_78_11498)">
<g opacity="0.3">
<path d="M52.439 46.9164C52.4379 48.0641 50.4737 48.9927 48.0517 48.9904C45.6296 48.9882 43.6671 48.056 43.6682 46.9083C43.6693 45.7606 45.6335 44.8318 48.0555 44.8341C50.4776 44.8364 52.4401 45.7687 52.439 46.9164Z" fill="#929EB0"/>
</g>
<path d="M47.9808 38.3898C46.8154 38.3898 44.4616 41.6689 44.4608 44.3369C44.4603 45.97 45.4377 47.6243 47.8268 47.7211C50.3222 47.8222 51.4194 46.2491 51.5119 44.628C51.6663 41.9262 49.3042 38.3898 47.9808 38.3898Z" fill="#BF113A"/>
<g opacity="0.6">
<path d="M47.1209 42.7232C47.1209 43.011 46.9547 43.2436 46.7499 43.2436C46.5452 43.2436 46.379 43.011 46.379 42.7232C46.379 42.4369 46.5452 42.203 46.7499 42.203C46.9547 42.203 47.1209 42.4369 47.1209 42.7232ZM48.0536 43.6576C48.0536 43.9439 47.8875 44.1778 47.6827 44.1778C47.478 44.1778 47.3117 43.9439 47.3117 43.6576C47.3117 43.3697 47.478 43.1373 47.6827 43.1373C47.8875 43.1373 48.0536 43.3697 48.0536 43.6576ZM46.185 41.7874C46.185 42.0737 46.0172 42.3077 45.8141 42.3077C45.6093 42.3077 45.4432 42.0737 45.4432 41.7874C45.4432 41.5011 45.6093 41.2672 45.8141 41.2672C46.0172 41.2672 46.185 41.5011 46.185 41.7874ZM46.8346 44.4563C46.8346 44.7426 46.6668 44.9767 46.4637 44.9767C46.2589 44.9767 46.0928 44.7426 46.0928 44.4563C46.0928 44.1684 46.2589 43.9361 46.4637 43.9361C46.6668 43.9361 46.8346 44.1684 46.8346 44.4563ZM45.8972 43.5206C45.8972 43.8069 45.7311 44.0392 45.5263 44.0392C45.3232 44.0392 45.1553 43.8069 45.1553 43.5206C45.1553 43.2329 45.3232 43.0003 45.5263 43.0003C45.7311 43.0003 45.8972 43.2329 45.8972 43.5206ZM49.0002 44.6027C49.0002 44.8906 48.834 45.1229 48.6293 45.1229C48.4245 45.1229 48.2584 44.8906 48.2584 44.6027C48.2584 44.3164 48.4245 44.0823 48.6293 44.0823C48.834 44.0823 49.0002 44.3164 49.0002 44.6027ZM49.933 45.537C49.933 45.8232 49.7668 46.0572 49.5621 46.0572C49.3589 46.0572 49.1912 45.8232 49.1912 45.537C49.1912 45.2507 49.3589 45.0167 49.5621 45.0167C49.7668 45.0167 49.933 45.2507 49.933 45.537ZM47.7797 45.4014C47.7797 45.6892 47.6135 45.9216 47.4088 45.9216C47.204 45.9216 47.0377 45.6892 47.0377 45.4014C47.0377 45.1151 47.204 44.8812 47.4088 44.8812C47.6135 44.8812 47.7797 45.1151 47.7797 45.4014ZM48.7355 46.3574C48.7355 46.6437 48.5677 46.8776 48.3646 46.8776C48.1598 46.8776 47.9937 46.6437 47.9937 46.3574C47.9937 46.0695 48.1598 45.837 48.3646 45.837C48.5677 45.837 48.7355 46.0695 48.7355 46.3574ZM45.5909 45.2244C45.5909 45.5123 45.4247 45.7448 45.2199 45.7448C45.0152 45.7448 44.849 45.5123 44.849 45.2244C44.849 44.9381 45.0152 44.7042 45.2199 44.7042C45.4247 44.7042 45.5909 44.9381 45.5909 45.2244ZM44.6552 44.2887C44.6552 44.575 44.4888 44.8089 44.2841 44.8089C44.0793 44.8089 43.9132 44.575 43.9132 44.2887C43.9132 44.0024 44.0793 43.7683 44.2841 43.7683C44.4888 43.7683 44.6552 44.0024 44.6552 44.2887ZM46.5376 46.1711C46.5376 46.4574 46.3713 46.6913 46.1665 46.6913C45.9618 46.6913 45.7956 46.4574 45.7956 46.1711C45.7956 45.8848 45.9618 45.6508 46.1665 45.6508C46.3713 45.6508 46.5376 45.8848 46.5376 46.1711ZM47.4918 47.1253C47.4918 47.4132 47.3256 47.6457 47.1209 47.6457C46.9161 47.6457 46.7499 47.4132 46.7499 47.1253C46.7499 46.839 46.9161 46.6051 47.1209 46.6051C47.3256 46.6051 47.4918 46.839 47.4918 47.1253ZM47.3948 40.9501C47.3948 41.2364 47.2287 41.4704 47.0239 41.4704C46.8192 41.4704 46.653 41.2364 46.653 40.9501C46.653 40.6638 46.8192 40.4299 47.0239 40.4299C47.2287 40.4299 47.3948 40.6638 47.3948 40.9501ZM48.3399 41.8968C48.3399 42.1831 48.1738 42.417 47.969 42.417C47.7659 42.417 47.5979 42.1831 47.5979 41.8968C47.5979 41.6089 47.7659 41.3764 47.969 41.3764C48.1738 41.3764 48.3399 41.6089 48.3399 41.8968ZM49.2742 42.8294C49.2742 43.1157 49.108 43.3498 48.9033 43.3498C48.6985 43.3498 48.5323 43.1157 48.5323 42.8294C48.5323 42.5431 48.6985 42.3092 48.9033 42.3092C49.108 42.3092 49.2742 42.5431 49.2742 42.8294ZM50.2209 43.7761C50.2209 44.0624 50.0529 44.2963 49.8498 44.2963C49.6451 44.2963 49.4789 44.0624 49.4789 43.7761C49.4789 43.4898 49.6451 43.2559 49.8498 43.2559C50.0529 43.2559 50.2209 43.4898 50.2209 43.7761ZM51.1566 44.712C51.1566 44.9983 50.9904 45.2322 50.7857 45.2322C50.5809 45.2322 50.4148 44.9983 50.4148 44.712C50.4148 44.4257 50.5809 44.1916 50.7857 44.1916C50.9904 44.1916 51.1566 44.4257 51.1566 44.712ZM48.5122 40.0943C48.5122 40.3806 48.3461 40.6145 48.143 40.6145C47.9382 40.6145 47.7719 40.3806 47.7719 40.0943C47.7719 39.808 47.9382 39.5741 48.143 39.5741C48.3461 39.5741 48.5122 39.808 48.5122 40.0943ZM49.459 41.041C49.459 41.3273 49.2926 41.5612 49.0879 41.5612C48.8832 41.5612 48.717 41.3273 48.717 41.041C48.717 40.7531 48.8832 40.5207 49.0879 40.5207C49.2926 40.5207 49.459 40.7531 49.459 41.041ZM50.3932 41.9736C50.3932 42.2615 50.227 42.494 50.0223 42.494C49.8176 42.494 49.6514 42.2615 49.6514 41.9736C49.6514 41.6873 49.8176 41.4534 50.0223 41.4534C50.227 41.4534 50.3932 41.6873 50.3932 41.9736ZM51.3429 42.9249C51.3429 43.2112 51.1767 43.4451 50.9719 43.4451C50.7672 43.4451 50.601 43.2112 50.601 42.9249C50.601 42.637 50.7672 42.4047 50.9719 42.4047C51.1767 42.4047 51.3429 42.637 51.3429 42.9249Z" fill="#FF0057"/>
</g>
<g opacity="0.4">
<path d="M51.5119 44.6277C51.4195 46.2485 50.322 47.8227 47.827 47.7214C45.4381 47.6244 44.4608 45.9698 44.4608 44.3367C44.4608 43.835 45.2081 42.665 45.2081 42.665C44.8432 43.6054 45.4482 45.56 47.9875 45.5554C50.5798 45.5507 51.1225 43.7294 50.8695 42.8182C51.3847 43.1318 51.5439 44.0674 51.5119 44.6277Z" fill="#90002F"/>
</g>
<g opacity="0.4">
<path d="M51.5119 44.6274C51.5103 44.6428 51.5103 44.6582 51.5089 44.6736C51.3349 42.5218 49.2108 39.8421 47.981 39.8421C46.865 39.8421 44.6563 42.4895 44.4731 44.6414C44.4639 44.5397 44.4608 44.4383 44.4608 44.3366C44.4624 41.6693 46.8158 38.3892 47.981 38.3892C49.3048 38.3892 51.6658 41.9262 51.5119 44.6274Z" fill="#F1F1F1"/>
</g>
<path d="M47.9808 38.3898C46.8154 38.3898 44.3076 41.6689 44.3068 44.3369C44.3063 45.97 45.4376 47.6243 47.8268 47.7211C50.3222 47.8222 51.5732 46.2491 51.6658 44.628C51.8201 41.9262 49.3041 38.3898 47.9808 38.3898Z" stroke="#9A0039" stroke-width="1.25" stroke-miterlimit="10"/>
</g>
<mask id="mask11_78_11498" style="mask-type:luminance" maskUnits="userSpaceOnUse" x="-1" y="0" width="84" height="83">
<path d="M-0.518738 6.10352e-05H82.4817V82.9999H-0.518738V6.10352e-05Z" fill="white"/>
</mask>
<g mask="url(#mask11_78_11498)">
<g opacity="0.3">
<path d="M25.9403 42.4475C25.9392 43.5904 23.9832 44.5152 21.5714 44.5128C19.1596 44.5105 17.2054 43.5822 17.2064 42.4393C17.2075 41.2965 19.1635 40.3717 21.5753 40.374C23.9871 40.3763 25.9413 41.3047 25.9403 42.4475Z" fill="#929EB0"/>
</g>
<path d="M21.5008 33.9567C20.3403 33.9567 17.9966 37.2219 17.9957 39.8785C17.9952 41.5048 18.9684 43.1521 21.3474 43.2486C23.8322 43.3493 24.9247 41.7828 25.0169 40.1684C25.1706 37.4779 22.8184 33.9567 21.5008 33.9567Z" fill="#BE103A"/>
<g opacity="0.6">
<path d="M20.6445 38.2722C20.6445 38.5587 20.4788 38.7902 20.275 38.7902C20.0711 38.7902 19.9057 38.5587 19.9057 38.2722C19.9057 37.987 20.0711 37.7541 20.275 37.7541C20.4788 37.7541 20.6445 37.987 20.6445 38.2722ZM21.5733 39.2025C21.5733 39.4876 21.4077 39.7207 21.2038 39.7207C21 39.7207 20.8345 39.4876 20.8345 39.2025C20.8345 38.9159 21 38.6844 21.2038 38.6844C21.4077 38.6844 21.5733 38.9159 21.5733 39.2025ZM19.7125 37.3403C19.7125 37.6254 19.5456 37.8583 19.3432 37.8583C19.1394 37.8583 18.9738 37.6254 18.9738 37.3403C18.9738 37.0551 19.1394 36.8222 19.3432 36.8222C19.5456 36.8222 19.7125 37.0551 19.7125 37.3403ZM20.3593 39.9979C20.3593 40.2831 20.1924 40.516 19.99 40.516C19.7862 40.516 19.6205 40.2831 19.6205 39.9979C19.6205 39.7114 19.7862 39.4799 19.99 39.4799C20.1924 39.4799 20.3593 39.7114 20.3593 39.9979ZM19.426 39.066C19.426 39.3512 19.2603 39.5826 19.0565 39.5826C18.8541 39.5826 18.6872 39.3512 18.6872 39.066C18.6872 38.7795 18.8541 38.548 19.0565 38.548C19.2603 38.548 19.426 38.7795 19.426 39.066ZM22.5159 40.1436C22.5159 40.4302 22.3503 40.6616 22.1465 40.6616C21.9426 40.6616 21.7771 40.4302 21.7771 40.1436C21.7771 39.8585 21.9426 39.6256 22.1465 39.6256C22.3503 39.6256 22.5159 39.8585 22.5159 40.1436ZM23.4446 41.0739C23.4446 41.3591 23.2791 41.5919 23.0753 41.5919C22.8729 41.5919 22.7058 41.3591 22.7058 41.0739C22.7058 40.7888 22.8729 40.5559 23.0753 40.5559C23.2791 40.5559 23.4446 40.7888 23.4446 41.0739ZM21.3005 40.9391C21.3005 41.2257 21.1348 41.4571 20.931 41.4571C20.7272 41.4571 20.5617 41.2257 20.5617 40.9391C20.5617 40.654 20.7272 40.4209 20.931 40.4209C21.1348 40.4209 21.3005 40.654 21.3005 40.9391ZM22.2522 41.8908C22.2522 42.1759 22.0853 42.4088 21.8829 42.4088C21.6791 42.4088 21.5134 42.1759 21.5134 41.8908C21.5134 41.6042 21.6791 41.3728 21.8829 41.3728C22.0853 41.3728 22.2522 41.6042 22.2522 41.8908ZM19.1209 40.7628C19.1209 41.0493 18.9554 41.2808 18.7516 41.2808C18.5478 41.2808 18.3823 41.0493 18.3823 40.7628C18.3823 40.4776 18.5478 40.2447 18.7516 40.2447C18.9554 40.2447 19.1209 40.4776 19.1209 40.7628ZM18.1891 39.8309C18.1891 40.116 18.0235 40.3489 17.8197 40.3489C17.6158 40.3489 17.4504 40.116 17.4504 39.8309C17.4504 39.5457 17.6158 39.3128 17.8197 39.3128C18.0235 39.3128 18.1891 39.5457 18.1891 39.8309ZM20.0637 41.7054C20.0637 41.9905 19.898 42.2234 19.6942 42.2234C19.4904 42.2234 19.3249 41.9905 19.3249 41.7054C19.3249 41.4202 19.4904 41.1873 19.6942 41.1873C19.898 41.1873 20.0637 41.4202 20.0637 41.7054ZM21.0138 42.6556C21.0138 42.9422 20.8483 43.1736 20.6445 43.1736C20.4406 43.1736 20.275 42.9422 20.275 42.6556C20.275 42.3705 20.4406 42.1376 20.6445 42.1376C20.8483 42.1376 21.0138 42.3705 21.0138 42.6556ZM20.9173 36.5066C20.9173 36.7918 20.7516 37.0246 20.5478 37.0246C20.344 37.0246 20.1785 36.7918 20.1785 36.5066C20.1785 36.2215 20.344 35.9884 20.5478 35.9884C20.7516 35.9884 20.9173 36.2215 20.9173 36.5066ZM21.8583 37.449C21.8583 37.7342 21.6928 37.9672 21.489 37.9672C21.2866 37.9672 21.1195 37.7342 21.1195 37.449C21.1195 37.1625 21.2866 36.931 21.489 36.931C21.6928 36.931 21.8583 37.1625 21.8583 37.449ZM22.7888 38.3779C22.7888 38.663 22.6231 38.8959 22.4193 38.8959C22.2155 38.8959 22.05 38.663 22.05 38.3779C22.05 38.0928 22.2155 37.8599 22.4193 37.8599C22.6231 37.8599 22.7888 38.0928 22.7888 38.3779ZM23.7314 39.3205C23.7314 39.6056 23.5643 39.8385 23.3619 39.8385C23.1581 39.8385 22.9926 39.6056 22.9926 39.3205C22.9926 39.0354 23.1581 38.8025 23.3619 38.8025C23.5643 38.8025 23.7314 39.0354 23.7314 39.3205ZM24.6631 40.2524C24.6631 40.5375 24.4976 40.7704 24.2938 40.7704C24.09 40.7704 23.9245 40.5375 23.9245 40.2524C23.9245 39.9673 24.09 39.7344 24.2938 39.7344C24.4976 39.7344 24.6631 39.9673 24.6631 40.2524ZM22.03 35.6544C22.03 35.9396 21.8645 36.1724 21.6621 36.1724C21.4583 36.1724 21.2928 35.9396 21.2928 35.6544C21.2928 35.3693 21.4583 35.1362 21.6621 35.1362C21.8645 35.1362 22.03 35.3693 22.03 35.6544ZM22.9726 36.597C22.9726 36.8822 22.8071 37.115 22.6033 37.115C22.3995 37.115 22.2338 36.8822 22.2338 36.597C22.2338 36.3105 22.3995 36.0788 22.6033 36.0788C22.8071 36.0788 22.9726 36.3105 22.9726 36.597ZM23.9029 37.5257C23.9029 37.8123 23.7374 38.0437 23.5336 38.0437C23.3298 38.0437 23.1643 37.8123 23.1643 37.5257C23.1643 37.2406 23.3298 37.0077 23.5336 37.0077C23.7374 37.0077 23.9029 37.2406 23.9029 37.5257ZM24.8487 38.473C24.8487 38.7581 24.6831 38.991 24.4793 38.991C24.2754 38.991 24.1099 38.7581 24.1099 38.473C24.1099 38.1864 24.2754 37.9549 24.4793 37.9549C24.6831 37.9549 24.8487 38.1864 24.8487 38.473Z" fill="#FF0057"/>
</g>
<g opacity="0.4">
<path d="M25.0169 40.1683C24.9249 41.7823 23.832 43.3501 21.3476 43.2492C18.9688 43.1525 17.9957 41.5048 17.9957 39.8787C17.9957 39.3791 18.7398 38.2141 18.7398 38.2141C18.3764 39.1506 18.9788 41.097 21.5074 41.0924C24.0888 41.0877 24.6292 39.2739 24.3773 38.3666C24.8903 38.6788 25.0487 39.6104 25.0169 40.1683Z" fill="#90002F"/>
</g>
<g opacity="0.4">
<path d="M25.0169 40.1679C25.0153 40.1832 25.0153 40.1986 25.0139 40.2139C24.8407 38.0712 22.7257 35.4028 21.501 35.4028C20.3897 35.4028 18.1904 38.0391 18.008 40.1818C17.9987 40.0807 17.9957 39.9794 17.9957 39.8783C17.9973 37.2222 20.3406 33.9559 21.501 33.9559C22.8191 33.9559 25.1701 37.4779 25.0169 40.1679Z" fill="#F1F1F1"/>
</g>
<path d="M21.5007 33.9567C20.3402 33.9567 17.8432 37.2219 17.8423 39.8785C17.8418 41.5048 18.9684 43.1521 21.3474 43.2486C23.8321 43.3493 25.078 41.7828 25.1702 40.1684C25.3239 37.4779 22.8184 33.9567 21.5007 33.9567Z" stroke="#9A0039" stroke-width="1.375" stroke-miterlimit="10"/>
</g>
</g>
</g>
<defs>
<linearGradient id="paint0_linear_78_11498" x1="10.8625" y1="39.2621" x2="71.2641" y2="39.4274" gradientUnits="userSpaceOnUse">
<stop stop-color="#9F9F9C"/>
<stop offset="0.08" stop-color="#C6C3BE"/>
<stop offset="0.34" stop-color="#EDE7DF"/>
<stop offset="0.5" stop-color="#ECE7E0"/>
<stop offset="0.66" stop-color="#ECE7E0"/>
<stop offset="0.92" stop-color="#C6C3BE"/>
<stop offset="1" stop-color="#9F9F9C"/>
</linearGradient>
<radialGradient id="paint1_radial_78_11498" cx="0" cy="0" r="1" gradientUnits="userSpaceOnUse" gradientTransform="translate(41.1758 39.4311) scale(30.175 15.975)">
<stop offset="0.87" stop-color="white"/>
<stop offset="0.94" stop-color="white" stop-opacity="0.5"/>
<stop offset="1" stop-color="white" stop-opacity="0"/>
</radialGradient>
<radialGradient id="paint2_radial_78_11498" cx="0" cy="0" r="1" gradientUnits="userSpaceOnUse" gradientTransform="translate(41.1758 39.4311) scale(30.175 15.975)">
<stop offset="0.87" stop-color="white"/>
<stop offset="0.97" stop-color="white"/>
<stop offset="1" stop-color="white"/>
</radialGradient>
<radialGradient id="paint3_radial_78_11498" cx="0" cy="0" r="1" gradientUnits="userSpaceOnUse" gradientTransform="translate(40.5567 36.05) scale(28.2557 12.4824)">
<stop offset="0.7" stop-color="#EEECEA"/>
<stop offset="0.85" stop-color="#EEECEA" stop-opacity="0.5"/>
<stop offset="1" stop-color="#EEECEA" stop-opacity="0"/>
</radialGradient>
<radialGradient id="paint4_radial_78_11498" cx="0" cy="0" r="1" gradientUnits="userSpaceOnUse" gradientTransform="translate(40.8633 13.4518) scale(9.92672)">
<stop stop-color="#FDEE00" stop-opacity="0.7"/>
<stop offset="0.43" stop-color="#FDEE00" stop-opacity="0.35"/>
<stop offset="1" stop-color="#FDEE00" stop-opacity="0"/>
</radialGradient>
<radialGradient id="paint5_radial_78_11498" cx="0" cy="0" r="1" gradientUnits="userSpaceOnUse" gradientTransform="translate(24.9146 14.3895) scale(9.28849 9.28842)">
<stop stop-color="#FDEE00" stop-opacity="0.7"/>
<stop offset="0.43" stop-color="#FDEE00" stop-opacity="0.35"/>
<stop offset="1" stop-color="#FDEE00" stop-opacity="0"/>
</radialGradient>
<radialGradient id="paint6_radial_78_11498" cx="0" cy="0" r="1" gradientUnits="userSpaceOnUse" gradientTransform="translate(56.6551 14.3327) scale(9.28849 9.28842)">
<stop stop-color="#FDEE00" stop-opacity="0.7"/>
<stop offset="0.43" stop-color="#FDEE00" stop-opacity="0.35"/>
<stop offset="1" stop-color="#FDEE00" stop-opacity="0"/>
</radialGradient>
<clipPath id="clip0_78_11498">
<rect width="83" height="83" fill="white" transform="translate(-0.518753)"/>
</clipPath>
</defs>
</svg>
