<svg width="80" height="80" viewBox="0 0 80 80" fill="none" xmlns="http://www.w3.org/2000/svg">
<g clip-path="url(#clip0_78_11835)">
<mask id="mask0_78_11835" style="mask-type:luminance" maskUnits="userSpaceOnUse" x="0" y="0" width="80" height="80">
<path d="M80 0H0V80H80V0Z" fill="white"/>
</mask>
<g mask="url(#mask0_78_11835)">
<path d="M40.4731 69.9337L51.418 38.1693L71.2827 32.01L40.4731 69.9337Z" stroke="#32ABFE" stroke-width="0.269889" stroke-linecap="round" stroke-linejoin="round"/>
<path d="M40.4731 69.9337L51.418 38.1693L71.2827 32.01L40.4731 69.9337Z" fill="#32ABFE"/>
<path d="M40.4732 69.9337L23.6344 37.2789L51.418 38.1693L40.4732 69.9337Z" stroke="#76D8FF" stroke-width="0.269889" stroke-linecap="round" stroke-linejoin="round"/>
<path d="M40.4732 69.9337L23.6344 37.2789L51.418 38.1693L40.4732 69.9337Z" fill="#76D8FF"/>
<path d="M40.4732 69.9337L23.6344 37.2789L8.30365 29.9811L40.4732 69.9337Z" stroke="#50B9F5" stroke-width="0.269889" stroke-linecap="round" stroke-linejoin="round"/>
<path d="M40.4732 69.9337L23.6344 37.2789L8.30365 29.9811L40.4732 69.9337Z" fill="#50B9F5"/>
<path d="M64.4031 15.9016L71.2857 32.0128L67.824 23.3176L64.4031 15.9016Z" stroke="#3E6BBE" stroke-width="0.269889" stroke-linecap="round" stroke-linejoin="round"/>
<path d="M64.4031 15.9016L71.2857 32.0128L67.824 23.3176L64.4031 15.9016Z" fill="#3E6BBE"/>
<path d="M20.4479 20.857L8.30743 29.978L23.6294 37.2747L20.4479 20.857Z" stroke="#73C9F9" stroke-width="0.269889" stroke-linecap="round" stroke-linejoin="round"/>
<path d="M20.4479 20.857L8.30743 29.978L23.6294 37.2747L20.4479 20.857Z" fill="#73C9F9"/>
<path d="M38.0605 24.1959L23.6294 37.2748L51.4208 38.1724L38.0605 24.1959Z" stroke="#61B6F5" stroke-width="0.269889" stroke-linecap="round" stroke-linejoin="round"/>
<path d="M38.0605 24.1959L23.6294 37.2748L51.4208 38.1724L38.0605 24.1959Z" fill="#61B6F5"/>
<path d="M57.6998 22.0446L51.4208 38.1723L71.2857 32.0128L57.6998 22.0446Z" stroke="#75C3FD" stroke-width="0.269889" stroke-linecap="round" stroke-linejoin="round"/>
<path d="M57.6998 22.0446L51.4208 38.1723L71.2857 32.0128L57.6998 22.0446Z" fill="#75C3FD"/>
<path d="M51.4208 38.1723L57.6998 22.0446L38.0605 24.1959L51.4208 38.1723Z" fill="#67BAF9"/>
<path d="M23.6294 37.2747L20.4479 20.857L38.0605 24.1958L23.6294 37.2747Z" fill="#B9E6FF"/>
<path d="M8.30743 29.9781L17.7883 14.478L20.4479 20.8572L8.30743 29.9781Z" fill="#5EAFEA"/>
<path d="M71.2857 32.0128L57.6998 22.0446L64.4032 15.9016L71.2857 32.0128Z" fill="#6BB8F3"/>
<path d="M17.7882 14.4779L20.4479 20.8571L38.0603 24.196L57.695 22.0416L64.3935 15.9031L52.9965 10.5529L32.3788 9.89411L17.7882 14.4779Z" fill="#C7E9FF"/>
<path d="M17.7882 14.4779L20.4479 20.8571L38.0603 24.196L57.695 22.0416L64.3935 15.9031L52.9965 10.5529L32.3788 9.89411L17.7882 14.4779Z" stroke="#C7EAFF" stroke-width="0.255678" stroke-linecap="round" stroke-linejoin="round"/>
<mask id="mask1_78_11835" style="mask-type:luminance" maskUnits="userSpaceOnUse" x="-3" y="-5" width="86" height="86">
<path d="M-2.36871 -4.75867H82.4313V80.0413H-2.36871V-4.75867Z" fill="white"/>
</mask>
<g mask="url(#mask1_78_11835)">
<g opacity="0.38">
<path d="M71.4634 31.9098L67.5782 22.8072L64.1102 15.8016L59.7276 13.7141L53.0636 10.4934L42.5635 10.1921L32.5707 9.85553L25.3269 12.2104L18.0485 14.438L13.7249 21.6118L8.48468 30.0482L13.7829 36.5594L40.5088 69.9966L67.9368 36.2038L71.4634 31.9098ZM66.8698 32.2341L63.8783 35.8769L40.5614 64.605L17.8428 36.1848L13.3378 30.6504L17.7988 23.4793L21.4679 17.3817L27.6535 15.4899L33.8127 13.4839L42.3035 13.7742L51.2343 14.0294L56.9008 16.7659L60.6228 18.5432L63.5702 24.4911L66.8698 32.2341Z" fill="#0068FF"/>
</g>
</g>
<mask id="mask2_78_11835" style="mask-type:luminance" maskUnits="userSpaceOnUse" x="-3" y="-5" width="86" height="86">
<path d="M-2.36871 -4.75867H82.4313V80.0413H-2.36871V-4.75867Z" fill="white"/>
</mask>
<g mask="url(#mask2_78_11835)">
<g opacity="0.6">
<g opacity="0.6">
<path d="M60.7157 19.3874L56.5804 22.3376L57.359 22.2463L57.3487 22.2741L60.6763 19.399L60.7172 19.3619L60.7157 19.3874Z" fill="white"/>
</g>
</g>
</g>
<mask id="mask3_78_11835" style="mask-type:luminance" maskUnits="userSpaceOnUse" x="-3" y="-5" width="86" height="86">
<path d="M-2.36871 -4.75867H82.4313V80.0413H-2.36871V-4.75867Z" fill="white"/>
</mask>
<g mask="url(#mask3_78_11835)">
<path d="M71.4527 31.9102L67.5674 22.8077L64.0994 15.8021L59.7168 13.7145L53.0529 10.4938L42.5528 10.1925L32.56 9.85596L25.3162 12.2108L18.0378 14.4385L13.7141 21.6122L8.47394 30.0486L13.7721 36.5598L40.498 69.997L67.926 36.2042L71.4527 31.9102Z" stroke="#0058AF" stroke-width="1.07956" stroke-linecap="round" stroke-linejoin="round"/>
</g>
<mask id="mask4_78_11835" style="mask-type:luminance" maskUnits="userSpaceOnUse" x="-3" y="-5" width="86" height="86">
<path d="M-2.36871 -4.75867H82.4313V80.0413H-2.36871V-4.75867Z" fill="white"/>
</mask>
<g mask="url(#mask4_78_11835)">
<g opacity="0.6">
<path d="M15.9231 34.0612L23.9656 37.7972L51.8976 38.8373L63.7759 34.5205L51.7132 37.6214L24.1451 36.9822L15.9231 34.0612Z" fill="white"/>
</g>
</g>
<mask id="mask5_78_11835" style="mask-type:luminance" maskUnits="userSpaceOnUse" x="-5" y="-16" width="85" height="86">
<path d="M-4.85309 -15.0273H79.9469V69.7727H-4.85309V-15.0273Z" fill="white"/>
</mask>
<g mask="url(#mask5_78_11835)">
<path d="M39.8269 24.4504C39.8269 24.4504 39.8451 24.5955 39.7113 24.5945C39.7113 24.5945 39.836 24.5751 39.8344 24.7121C39.8344 24.7121 39.8193 24.5878 39.9485 24.585C39.9485 24.585 39.8269 24.6119 39.8269 24.4504Z" fill="white"/>
</g>
</g>
</g>
<defs>
<clipPath id="clip0_78_11835">
<rect width="80" height="80" fill="white"/>
</clipPath>
</defs>
</svg>
