<svg id="svg-star" viewBox="0 0 18 18" fill="none" xmlns="http://www.w3.org/2000/svg">
<path fill-rule="evenodd" clip-rule="evenodd" d="M9.13129 13.3371L6.03785 15.2323C5.71618 15.4293 5.29569 15.3283 5.09863 15.0066C5.00241 14.8495 4.97372 14.6602 5.01908 14.4816L5.49793 12.5967C5.67079 11.9163 6.1364 11.3475 6.76925 11.0437L10.144 9.42329C10.3014 9.34775 10.3677 9.15895 10.2921 9.00161C10.231 8.87417 10.0926 8.80288 9.95333 8.82699L6.19676 9.47737C5.43315 9.60959 4.65006 9.39872 4.05606 8.9009L2.86933 7.90633C2.58021 7.66405 2.54224 7.23324 2.78453 6.94411C2.90238 6.80346 3.07183 6.71617 3.25474 6.70186L6.88058 6.41807C7.13674 6.39805 7.35997 6.23592 7.45831 5.99855L8.85706 2.62182C9.00146 2.27331 9.40099 2.10782 9.7495 2.25219C9.91684 2.32152 10.0498 2.45448 10.1191 2.62182L11.5179 5.99855C11.6162 6.23592 11.8394 6.39805 12.0956 6.41807L15.7414 6.70342C16.1175 6.73284 16.3984 7.06158 16.369 7.43767C16.3549 7.6186 16.2692 7.78644 16.1312 7.90418L13.3508 10.2747C13.1549 10.4416 13.0696 10.7043 13.1297 10.9543L13.9846 14.5055C14.0728 14.8723 13.8471 15.2412 13.4804 15.3295C13.3042 15.3719 13.1183 15.3425 12.9638 15.2478L9.84489 13.3371C9.62591 13.203 9.35026 13.203 9.13129 13.3371Z" fill="currentColor"/>
</svg>
