<svg width="18" height="18" viewBox="0 0 18 18" fill="none" xmlns="http://www.w3.org/2000/svg">
<g clip-path="url(#clip0_78_23416)">
<mask id="mask0_78_23416" style="mask-type:luminance" maskUnits="userSpaceOnUse" x="0" y="0" width="18" height="18">
<path d="M18 0H0V18H18V0Z" fill="white"/>
</mask>
<g mask="url(#mask0_78_23416)">
<mask id="mask1_78_23416" style="mask-type:luminance" maskUnits="userSpaceOnUse" x="0" y="0" width="18" height="18">
<path d="M0 0H18V18H0V0Z" fill="white"/>
</mask>
<g mask="url(#mask1_78_23416)">
<path d="M6.68193 6.14131L8.29873 2.92034C8.48567 2.54898 8.93787 2.39993 9.30671 2.58687C9.4507 2.66014 9.56691 2.77887 9.64017 2.92539L11.1686 6.03268C11.2923 6.28783 11.5374 6.45962 11.8178 6.49246L15.0135 6.87645C15.448 6.9295 15.7588 7.32612 15.7082 7.76317C15.6855 7.94253 15.6047 8.10926 15.4758 8.23557L12.947 10.729C12.8435 10.83 12.7955 10.9715 12.8131 11.1155L13.235 14.4805C13.2957 14.963 12.9546 15.4026 12.4746 15.4632C12.2927 15.4859 12.1108 15.4531 11.9492 15.3647L9.27892 13.9045C9.0844 13.7984 8.85198 13.7959 8.65746 13.8969L5.88869 15.3167C5.49964 15.5162 5.02471 15.3596 4.82513 14.968C4.74935 14.8215 4.72408 14.6573 4.74682 14.4956L4.9666 12.9496C5.07523 12.1942 5.54259 11.5374 6.21963 11.1913L9.29155 9.62249C9.37239 9.58207 9.40523 9.48102 9.36481 9.39765C9.33197 9.3345 9.26376 9.2966 9.19303 9.30671L5.43396 9.84732C4.8605 9.92816 4.27946 9.76648 3.82726 9.39765L2.57677 8.37705C2.22057 8.08653 2.16246 7.55601 2.45298 7.19729C2.5894 7.03055 2.78392 6.92192 2.99613 6.89413L6.20447 6.48236C6.4091 6.45457 6.58846 6.32825 6.68193 6.14131Z" fill="url(#paint0_linear_78_23416)"/>
<path d="M9.5265 3.49383C9.20061 3.42057 8.85452 3.5772 8.69789 3.89045L7.07856 7.11143C6.98509 7.29837 6.80825 7.42468 6.6011 7.45247L3.39276 7.86678C3.1856 7.89456 2.99613 7.99561 2.86224 8.15477L4.04958 9.12485C4.42347 9.43053 4.90851 9.56442 5.38597 9.49621L9.14251 8.95812C9.36482 8.9278 9.58208 9.03896 9.6806 9.23853C9.80944 9.49368 9.70839 9.80694 9.45324 9.9383L8.47305 10.4385L9.58965 10.2768C9.66039 10.2667 9.73113 10.3046 9.76144 10.3678C9.80439 10.4511 9.76902 10.5522 9.68818 10.5926L6.61626 12.1614C5.93922 12.5075 5.47186 13.1643 5.36323 13.9197L5.21924 14.9226C5.3506 15.054 5.55776 15.0893 5.72954 15.0009L8.49326 13.5812C8.79389 13.4271 9.15009 13.4321 9.44566 13.5938L12.1159 15.054C12.2119 15.107 12.3231 15.1272 12.4317 15.1146C12.7146 15.0792 12.9193 14.8165 12.8839 14.526L12.4645 11.1585C12.4342 10.9059 12.5201 10.6558 12.6995 10.4789L15.2283 7.98551C15.2712 7.94256 15.304 7.89204 15.3268 7.83646L12.2144 7.46258C11.934 7.42973 11.6915 7.25542 11.5652 7.0028L11.4439 6.7527C11.1888 6.64154 10.9791 6.4445 10.8528 6.18934L9.5265 3.49383Z" fill="url(#paint1_linear_78_23416)"/>
<path d="M9.46586 2.27112C8.92019 1.99576 8.25831 2.21554 7.98547 2.76121L6.36614 5.98471C6.32572 6.06555 6.24741 6.12113 6.15899 6.13124L2.95065 6.54554C2.6475 6.58343 2.36961 6.74006 2.17762 6.97753C1.76584 7.48783 1.84415 8.2356 2.35193 8.64991L3.60495 9.67304C4.13294 10.1025 4.8125 10.292 5.48448 10.196L8.13957 9.81451L6.05794 10.8781C5.27733 11.2772 4.74176 12.03 4.61798 12.8991L4.39567 14.4451C4.36283 14.6801 4.40072 14.9175 4.50935 15.1297C4.79481 15.6931 5.48701 15.9179 6.05036 15.6299L8.81661 14.2102C8.90755 14.1622 9.01618 14.1647 9.10713 14.2152L11.7774 15.6729C12.0022 15.7967 12.2624 15.8472 12.5176 15.8144C13.1921 15.7285 13.667 15.1095 13.5836 14.4376L13.1643 11.0701C13.1592 11.0372 13.1719 11.0019 13.1946 10.9791L15.7234 8.4857C15.9078 8.30129 16.0265 8.06129 16.0568 7.80361C16.1301 7.17458 15.6855 6.60364 15.0565 6.52786L11.8582 6.14387C11.6991 6.12618 11.5576 6.02513 11.4843 5.87861L9.95847 2.76879C9.85237 2.55406 9.67806 2.37975 9.46586 2.27112ZM8.61451 3.077C8.71303 2.87995 8.95303 2.80163 9.14755 2.90016C9.22333 2.93805 9.28649 3.00373 9.32439 3.08205L10.8528 6.18934C11.0296 6.55059 11.3757 6.79564 11.7749 6.84364L14.9731 7.22763C15.2131 7.25542 15.3849 7.4752 15.3571 7.72025C15.3444 7.8213 15.299 7.91477 15.2282 7.98551L12.6995 10.4789C12.5201 10.6558 12.4342 10.9059 12.4645 11.1585L12.8839 14.526C12.9192 14.8165 12.7146 15.0792 12.4317 15.1146C12.323 15.1272 12.2119 15.107 12.1159 15.054L9.44565 13.5938C9.15007 13.4321 8.79387 13.4296 8.49325 13.5837L5.727 15.0034C5.51227 15.1121 5.24954 15.0262 5.13838 14.8089C5.09797 14.7281 5.08281 14.6346 5.09544 14.5437L5.31522 13.0001C5.40617 12.3584 5.80532 11.8001 6.37878 11.5071L9.4507 9.9383C9.70838 9.80693 9.80943 9.49368 9.68059 9.23853C9.57954 9.03895 9.36481 8.9278 9.14249 8.95811L5.38343 9.4962C4.90597 9.56441 4.42346 9.43052 4.04957 9.12484L2.79908 8.10171C2.59192 7.93245 2.55908 7.62678 2.72834 7.41962C2.80665 7.32363 2.91781 7.26047 3.03907 7.24531L6.24741 6.83101C6.57077 6.79059 6.85118 6.59101 6.99771 6.30049L8.61451 3.077Z" fill="url(#paint2_linear_78_23416)"/>
</g>
</g>
</g>
<defs>
<linearGradient id="paint0_linear_78_23416" x1="8.99093" y1="2.50603" x2="8.99093" y2="15.4708" gradientUnits="userSpaceOnUse">
<stop stop-color="#FFF0C2"/>
<stop offset="1" stop-color="#FFEBBA"/>
</linearGradient>
<linearGradient id="paint1_linear_78_23416" x1="9.09451" y1="3.47615" x2="12.6515" y2="15.1171" gradientUnits="userSpaceOnUse">
<stop stop-color="#FFD147"/>
<stop offset="1" stop-color="#FFB526"/>
</linearGradient>
<linearGradient id="paint2_linear_78_23416" x1="8.99092" y1="2.15239" x2="12.1108" y2="15.8219" gradientUnits="userSpaceOnUse">
<stop stop-color="#E58F0D"/>
<stop offset="1" stop-color="#EB7814"/>
</linearGradient>
<clipPath id="clip0_78_23416">
<rect width="18" height="18" fill="white"/>
</clipPath>
</defs>
</svg>
