<svg width="80" height="80" viewBox="0 0 80 80" fill="none" xmlns="http://www.w3.org/2000/svg">
<g clip-path="url(#clip0_78_9143)">
<mask id="mask0_78_9143" style="mask-type:luminance" maskUnits="userSpaceOnUse" x="0" y="0" width="80" height="80">
<path d="M80 0H0V80H80V0Z" fill="white"/>
</mask>
<g mask="url(#mask0_78_9143)">
<path d="M47.1752 71.5032H40.3071H33.439L31.5504 76.1908C31.1849 77.0979 31.7135 78.1319 32.6288 78.2938C34.3204 78.593 37.0812 78.811 40.3071 78.811C43.4426 78.811 46.251 78.5858 47.9771 78.2852C48.8949 78.1254 49.4263 77.0907 49.0601 76.1815L47.1752 71.5032Z" fill="url(#paint0_linear_78_9143)"/>
<g opacity="0.5">
<path d="M45.7074 71.5032H40.3066H34.9058L33.4207 76.1908C33.1333 77.0979 33.5491 78.1319 34.2688 78.2938C35.599 78.593 37.7699 78.811 40.3066 78.811C42.7722 78.811 44.9807 78.5858 46.338 78.2852C47.0597 78.1254 47.4777 77.0907 47.1896 76.1815L45.7074 71.5032Z" stroke="white" stroke-width="1.65498" stroke-linecap="round" stroke-linejoin="round"/>
</g>
<path d="M47.1752 71.5032H40.3071H33.439L31.5504 76.1908C31.1849 77.0979 31.7135 78.1319 32.6288 78.2938C34.3204 78.593 37.0812 78.811 40.3071 78.811C43.4426 78.811 46.251 78.5858 47.9771 78.2852C48.8949 78.1254 49.4263 77.0907 49.0601 76.1815L47.1752 71.5032Z" stroke="#8F8F9B" stroke-width="1.65498" stroke-linecap="round" stroke-linejoin="round"/>
<path d="M78.2723 62.2787C78.2723 68.8515 61.4278 73.4868 40.0634 73.4868C18.699 73.4868 1.85449 68.8515 1.85449 62.2787C1.85449 56.0885 18.699 51.0706 40.0634 51.0706C61.4278 51.0706 78.2723 56.0885 78.2723 62.2787Z" fill="url(#paint1_linear_78_9143)"/>
<path d="M76.5354 63.0089C76.5354 69.0198 60.6432 73.4869 40.0633 73.4869C19.4835 73.4869 3.59131 69.0198 3.59131 63.0089C3.59131 57.3806 19.4835 52.8181 40.0633 52.8181C60.6432 52.8181 76.5354 57.3806 76.5354 63.0089Z" stroke="white" stroke-width="1.65498" stroke-linecap="round" stroke-linejoin="round"/>
<g opacity="0.3">
<path d="M17.3585 63.0599C17.3585 63.0599 26.1102 70.1749 74.0948 67.5762C74.0948 67.5762 78.8527 65.7463 78.1502 61.3715C77.4477 56.9967 66.5974 53.7229 66.5974 53.7229L17.3585 63.0599Z" fill="url(#paint2_linear_78_9143)"/>
</g>
<path d="M78.2723 62.2787C78.2723 68.8515 61.4278 73.4868 40.0634 73.4868C18.699 73.4868 1.85449 68.8515 1.85449 62.2787C1.85449 56.0885 18.699 51.0706 40.0634 51.0706C61.4278 51.0706 78.2723 56.0885 78.2723 62.2787Z" stroke="#BAB8C1" stroke-width="1.65498" stroke-linecap="round" stroke-linejoin="round"/>
<path d="M7.99854 56.151C14.9462 53.0565 26.6696 51.0706 40.0634 51.0706C53.7321 51.0706 65.8751 53.1985 72.612 56.3756" stroke="#A7A3B5" stroke-width="1.65498" stroke-linecap="round" stroke-linejoin="round"/>
<g opacity="0.3">
<path d="M63.947 61.4101C63.947 64.1151 53.2539 66.308 40.0634 66.308C26.8729 66.308 16.1798 64.1151 16.1798 61.4101C16.1798 58.7051 26.8729 56.5121 40.0634 56.5121C53.2539 56.5121 63.947 58.7051 63.947 61.4101Z" fill="#B3B3B3"/>
<path d="M63.947 61.4101C63.947 64.1151 53.2539 66.308 40.0634 66.308C26.8729 66.308 16.1798 64.1151 16.1798 61.4101C16.1798 58.7051 26.8729 56.5121 40.0634 56.5121C53.2539 56.5121 63.947 58.7051 63.947 61.4101Z" stroke="#B3B3B3" stroke-width="1.65498" stroke-linecap="round" stroke-linejoin="round"/>
</g>
<path d="M13.1371 35.8898V59.3062C13.1371 62.8406 25.1924 65.7057 40.0635 65.7057C54.9346 65.7057 66.9899 62.8406 66.9899 59.3062V35.8898H13.1371Z" fill="url(#paint3_linear_78_9143)"/>
<path d="M66.9891 47.1006V59.3068C66.9891 62.8412 54.9347 65.7053 40.0628 65.7053C25.1928 65.7053 13.1366 62.8412 13.1366 59.3068V47.1006C13.1366 50.635 25.1928 53.499 40.0628 53.499C54.9347 53.499 66.9891 50.635 66.9891 47.1006Z" fill="url(#paint4_linear_78_9143)"/>
<path d="M66.9891 52.26V59.3069C66.9891 62.8413 54.9347 65.7053 40.0628 65.7053C25.1928 65.7053 13.1366 62.8413 13.1366 59.3069V52.26C13.1366 55.7944 25.1928 58.66 40.0628 58.66C54.9347 58.66 66.9891 55.7944 66.9891 52.26Z" fill="url(#paint5_linear_78_9143)"/>
<g opacity="0.4">
<path d="M14.9792 35.8898V59.3062C14.9792 62.8406 26.2099 65.7057 40.0635 65.7057C53.9171 65.7057 65.1477 62.8406 65.1477 59.3062V35.8898H14.9792Z" stroke="white" stroke-width="1.65498" stroke-linecap="round" stroke-linejoin="round"/>
</g>
<path d="M13.1371 35.8898V59.3062C13.1371 62.8406 25.1924 65.7057 40.0635 65.7057C54.9346 65.7057 66.9899 62.8406 66.9899 59.3062V35.8898H13.1371Z" stroke="#C9883A" stroke-width="1.65498" stroke-linecap="round" stroke-linejoin="round"/>
<path d="M67.162 35.5774C65.587 31.6741 54.9345 29.4902 40.0634 29.4902C26.2398 29.4902 15.1128 31.6682 13.143 34.9976C11.9414 37.0284 10.7781 45.3277 13.7581 47.3513C16.0416 48.902 19.2859 45.763 21.1286 46.181C22.9712 46.599 23.3397 49.3576 27.3012 49.1904C31.2628 49.0232 35.0401 45.6795 36.6986 46.0138C38.3569 46.3482 42.595 51.0679 47.1094 50.7979C51.6237 50.5279 54.5744 45.5959 56.8303 45.2615C59.0862 44.9271 61.2214 48.241 64.7778 47.333C68.2416 46.4487 68.2406 38.2507 67.162 35.5774Z" fill="url(#paint6_linear_78_9143)"/>
<g opacity="0.3">
<path d="M25.5153 41.2758C22.6452 40.8371 20.1486 40.2722 18.1641 39.6143" stroke="white" stroke-width="1.27306" stroke-linecap="round" stroke-linejoin="round"/>
</g>
<g opacity="0.3">
<path d="M61.4569 39.7765C56.5361 41.3041 48.7838 42.2893 40.0635 42.2893" stroke="white" stroke-width="1.27306" stroke-linecap="round" stroke-linejoin="round"/>
</g>
<g opacity="0.4">
<path d="M63.6343 47.4902C66.9418 46.6747 66.9597 39.111 65.9297 36.646C64.4258 33.0466 54.2538 31.0328 40.0533 31.0328C26.8532 31.0328 16.228 33.0413 14.3471 36.1114C13.1997 37.9841 12.0888 45.7935 14.9344 47.6594" stroke="white" stroke-width="1.65498" stroke-linecap="round" stroke-linejoin="round"/>
</g>
<path d="M67.162 35.5774C65.587 31.6741 54.9345 29.4902 40.0634 29.4902C26.2398 29.4902 15.1128 31.6682 13.143 34.9976C11.9414 37.0284 10.7781 45.3277 13.7581 47.3513C16.0416 48.902 19.2859 45.763 21.1286 46.181C22.9712 46.599 23.3397 49.3576 27.3012 49.1904C31.2628 49.0232 35.0401 45.6795 36.6986 46.0138C38.3569 46.3482 42.595 51.0679 47.1094 50.7979C51.6237 50.5279 54.5744 45.5959 56.8303 45.2615C59.0862 44.9271 61.2214 48.241 64.7778 47.333C68.2415 46.4487 68.2406 38.2507 67.162 35.5774Z" stroke="#E54E79" stroke-width="1.65498" stroke-linecap="round" stroke-linejoin="round"/>
<path d="M13.7583 47.3512C16.0417 48.9018 19.2861 45.7629 21.1288 46.1809C22.9714 46.5989 23.3399 49.3574 27.3014 49.1903C31.263 49.0231 35.0403 45.6793 36.6988 46.0137C38.357 46.3481 42.5952 51.0678 47.1095 50.7978C51.6239 50.5278 54.5745 45.5957 56.8305 45.2614C59.0864 44.927 61.2216 48.2409 64.778 47.3329" stroke="#D3376C" stroke-width="1.65498" stroke-linecap="round" stroke-linejoin="round"/>
<path d="M63.257 35.488C63.2434 35.8242 62.5242 36.073 61.6506 36.0439C60.777 36.0148 60.08 35.7186 60.0936 35.3823C60.1072 35.0461 60.8264 34.7973 61.7 34.8264C62.5736 34.8555 63.2706 35.1517 63.257 35.488Z" fill="white"/>
<path d="M59.9374 36.7465C59.9318 36.8862 59.6328 36.9896 59.2699 36.9776C58.9069 36.9656 58.6174 36.8424 58.623 36.7027C58.6286 36.5631 58.9275 36.4596 59.2905 36.4717C59.6535 36.4837 59.943 36.6068 59.9374 36.7465Z" fill="white"/>
<path d="M33.2568 55.0755C33.2568 55.5282 32.8821 55.8952 32.4198 55.8952C31.9575 55.8952 31.5828 55.5282 31.5828 55.0755C31.5828 54.6229 31.9575 54.2559 32.4198 54.2559C32.8821 54.2559 33.2568 54.6229 33.2568 55.0755Z" fill="#F4B76E"/>
<path d="M22.1713 55.2466C22.1713 55.6047 21.8749 55.895 21.5091 55.895C21.1433 55.895 20.8469 55.6047 20.8469 55.2466C20.8469 54.8885 21.1433 54.5981 21.5091 54.5981C21.8749 54.5981 22.1713 54.8885 22.1713 55.2466Z" fill="#F4B76E"/>
<path d="M52.4571 60.3219C52.4571 60.9735 51.9176 61.5018 51.2521 61.5018C50.5867 61.5018 50.0471 60.9735 50.0471 60.3219C50.0471 59.6704 50.5867 59.1421 51.2521 59.1421C51.9176 59.1421 52.4571 59.6704 52.4571 60.3219Z" fill="#F9E79D"/>
<path d="M62.3933 59.3183C62.3933 59.657 62.1128 59.9317 61.7669 59.9317C61.421 59.9317 61.1405 59.657 61.1405 59.3183C61.1405 58.9795 61.421 58.7048 61.7669 58.7048C62.1128 58.7048 62.3933 58.9795 62.3933 59.3183Z" fill="#F9E79D"/>
<path d="M36.9496 49.3828C36.9496 49.7216 36.6691 49.9963 36.3232 49.9963C35.9772 49.9963 35.6968 49.7216 35.6968 49.3828C35.6968 49.0441 35.9772 48.7694 36.3232 48.7694C36.6691 48.7694 36.9496 49.0441 36.9496 49.3828Z" fill="#F9E79D"/>
<path d="M36.3231 62.6792C36.3231 63.018 36.0427 63.2927 35.6967 63.2927C35.3508 63.2927 35.0703 63.018 35.0703 62.6792C35.0703 62.3405 35.3508 62.0658 35.6967 62.0658C36.0427 62.0658 36.3231 62.3405 36.3231 62.6792Z" fill="#F9E79D"/>
<path d="M23.2963 17.092V33.3564C23.2963 35.5573 30.8031 37.3414 40.0633 37.3414C49.3235 37.3414 56.8303 35.5573 56.8303 33.3564V17.092H23.2963Z" fill="url(#paint7_linear_78_9143)"/>
<path d="M56.8305 24.5006V29.0334C56.8305 31.235 49.3239 33.0194 40.0627 33.0194C30.8032 33.0194 23.2968 31.235 23.2968 29.0334V24.5006C23.2968 26.7022 30.8032 28.4865 40.0627 28.4865C49.3239 28.4865 56.8305 26.7022 56.8305 24.5006Z" fill="url(#paint8_linear_78_9143)"/>
<g opacity="0.4">
<path d="M24.8927 17.092V33.3564C24.8927 35.5573 31.6849 37.3414 40.0633 37.3414C48.4419 37.3414 55.234 35.5573 55.234 33.3564V17.092H24.8927Z" stroke="white" stroke-width="1.65498" stroke-linecap="round" stroke-linejoin="round"/>
</g>
<path d="M23.2963 17.092V33.3564C23.2963 35.5573 30.8031 37.3414 40.0633 37.3414C49.3235 37.3414 56.8303 35.5573 56.8303 33.3564V17.092H23.2963Z" stroke="#C9883A" stroke-width="1.65498" stroke-linecap="round" stroke-linejoin="round"/>
<path d="M56.3319 16.1248C54.5132 14.3914 47.9197 13.1072 40.0633 13.1072C31.5204 13.1072 24.4697 14.6258 23.429 16.5891C22.1666 17.8392 21.336 22.7341 23.1169 23.2464C24.8979 23.7587 26.9393 21.7881 28.7637 23.7981C30.588 25.8081 32.6265 27.7789 35.7974 25.8476C38.9683 23.9164 40.0635 21.0772 43.8797 23.3251C46.3582 24.7851 48.9907 25.8983 51.6549 22.8523C53.7872 20.4145 54.9691 23.2858 56.8304 23.0494C58.6916 22.813 58.1201 17.1673 56.3319 16.1248Z" fill="url(#paint9_linear_78_9143)"/>
<g opacity="0.3">
<path d="M47.0789 19.1783C45.0356 19.4901 42.605 19.671 39.9966 19.671C37.1802 19.671 34.571 19.4602 32.433 19.1013" stroke="white" stroke-width="1.27306" stroke-linecap="round" stroke-linejoin="round"/>
</g>
<g opacity="0.4">
<path d="M56.8304 23.0493C58.5653 22.8288 57.0631 17.9671 55.3965 16.9955C53.7014 15.3799 47.384 14.3393 40.0617 14.3393C32.0993 14.3393 25.3834 15.8191 24.3856 17.272C23.2968 18.3287 21.7554 22.8315 23.4153 23.309" stroke="white" stroke-width="1.65498" stroke-linecap="round" stroke-linejoin="round"/>
</g>
<path d="M56.3319 16.1248C54.5132 14.3914 47.9197 13.1072 40.0633 13.1072C31.5204 13.1072 24.4697 14.6258 23.429 16.5891C22.1666 17.8392 21.336 22.7341 23.1169 23.2464C24.8979 23.7587 26.9393 21.7881 28.7637 23.7981C30.588 25.8081 32.6265 27.7789 35.7974 25.8476C38.9683 23.9164 40.0635 21.0772 43.8797 23.3251C46.3582 24.7851 48.9907 25.8983 51.6549 22.8523C53.7872 20.4145 54.9691 23.2858 56.8304 23.0494C58.6916 22.813 58.1201 17.1673 56.3319 16.1248Z" stroke="#E54E79" stroke-width="1.65498" stroke-linecap="round" stroke-linejoin="round"/>
<path d="M47.6523 15.9393C47.6387 16.2756 46.9195 16.5243 46.0459 16.4953C45.1723 16.4662 44.4752 16.1699 44.4888 15.8337C44.5024 15.4974 45.2217 15.2487 46.0952 15.2778C46.9688 15.3068 47.6659 15.6031 47.6523 15.9393Z" fill="white"/>
<path d="M44.3325 17.1976C44.3269 17.3373 44.028 17.4407 43.665 17.4287C43.3021 17.4167 43.0125 17.2935 43.0181 17.1539C43.0238 17.0142 43.3227 16.9107 43.6856 16.9228C44.0486 16.9348 44.3381 17.0579 44.3325 17.1976Z" fill="white"/>
<path d="M51.2519 29.9398C51.2519 30.5914 50.7124 31.1196 50.0469 31.1196C49.3815 31.1196 48.8419 30.5914 48.8419 29.9398C48.8419 29.2882 49.3815 28.7599 50.0469 28.7599C50.7124 28.7599 51.2519 29.2882 51.2519 29.9398Z" fill="#F4B76E"/>
<path d="M32.5391 31.1198C32.5391 31.4779 32.2427 31.7682 31.8769 31.7682C31.5111 31.7682 31.2147 31.4779 31.2147 31.1198C31.2147 30.7616 31.5111 30.4713 31.8769 30.4713C32.2427 30.4713 32.5391 30.7616 32.5391 31.1198Z" fill="#F4B76E"/>
<path d="M41.8255 26.0626C41.8255 26.4737 41.4852 26.807 41.0653 26.807C40.6455 26.807 40.3052 26.4737 40.3052 26.0626C40.3052 25.6515 40.6455 25.3182 41.0653 25.3182C41.4852 25.3182 41.8255 25.6515 41.8255 26.0626Z" fill="#F9E79D"/>
<path d="M44.4255 34.8389C44.4255 35.1777 44.1451 35.4523 43.7991 35.4523C43.4532 35.4523 43.1727 35.1777 43.1727 34.8389C43.1727 34.5002 43.4532 34.2255 43.7991 34.2255C44.1451 34.2255 44.4255 34.5002 44.4255 34.8389Z" fill="#F9E79D"/>
<path d="M31.4958 15.8193L31.5574 8.50372" stroke="#492D1D" stroke-width="1.65498" stroke-linecap="round" stroke-linejoin="round"/>
<path d="M31.5504 9.01055C29.5202 9.08399 29.0702 6.84258 30.276 5.3593C31.639 3.68243 30.9651 2.7954 31.5121 2.86086C32.6367 2.9954 35.7785 8.85743 31.5504 9.01055Z" fill="#FFF35F"/>
<path d="M31.5504 9.01055C30.7554 9.0393 30.2029 8.71321 29.897 8.21665C29.4217 7.44508 29.5424 6.2618 30.276 5.3593C31.639 3.68243 30.9651 2.7954 31.5121 2.86086C32.3907 2.96586 34.5006 6.5668 33.3654 8.21024C33.0476 8.6704 32.4753 8.97711 31.5504 9.01055Z" stroke="#EF9300" stroke-width="1.90959" stroke-linecap="round" stroke-linejoin="round"/>
<g opacity="0.5">
<path d="M31.8262 0.304739C34.6056 0.372395 36.8034 2.59943 36.7354 5.2788C36.6674 7.95818 34.3593 10.0755 31.5799 10.0079C28.8006 9.94021 26.6028 7.71318 26.6707 5.0338C26.7387 2.35443 29.0468 0.237083 31.8262 0.304739Z" fill="url(#paint10_radial_78_9143)"/>
</g>
<path d="M40.1147 15.8193L40.1763 8.50372" stroke="#492D1D" stroke-width="1.65498" stroke-linecap="round" stroke-linejoin="round"/>
<path d="M40.1693 9.01055C38.1391 9.08399 37.6891 6.84258 38.8949 5.3593C40.2579 3.68243 39.584 2.7954 40.131 2.86086C41.2555 2.9954 44.3974 8.85743 40.1693 9.01055Z" fill="#FFF35F"/>
<path d="M40.1693 9.01055C39.3743 9.0393 38.8218 8.71321 38.5159 8.21665C38.0406 7.44508 38.1613 6.2618 38.8949 5.3593C40.2579 3.68243 39.584 2.7954 40.131 2.86086C41.0096 2.96586 43.1195 6.5668 41.9843 8.21024C41.6665 8.6704 41.0941 8.97711 40.1693 9.01055Z" stroke="#EF9300" stroke-width="1.90959" stroke-linecap="round" stroke-linejoin="round"/>
<g opacity="0.5">
<path d="M40.4462 0.265005C43.2256 0.332661 45.4234 2.55969 45.3554 5.23907C45.2874 7.91844 42.9793 10.0358 40.1999 9.96813C37.4206 9.90047 35.2228 7.67344 35.2907 4.99407C35.3587 2.31469 37.6668 0.197349 40.4462 0.265005Z" fill="url(#paint11_radial_78_9143)"/>
</g>
<path d="M48.8357 15.8193L48.8973 8.50372" stroke="#492D1D" stroke-width="1.65498" stroke-linecap="round" stroke-linejoin="round"/>
<path d="M48.8902 9.01055C46.8601 9.08399 46.4101 6.84258 47.6159 5.3593C48.9788 3.68243 48.3049 2.7954 48.852 2.86086C49.9765 2.9954 53.1184 8.85743 48.8902 9.01055Z" fill="#FFF35F"/>
<path d="M48.8903 9.01055C48.0953 9.0393 47.5428 8.71321 47.2368 8.21665C46.7615 7.44508 46.8823 6.2618 47.6159 5.3593C48.9788 3.68243 48.3049 2.7954 48.852 2.86086C49.7306 2.96586 51.8404 6.5668 50.7053 8.21024C50.3874 8.6704 49.8151 8.97711 48.8903 9.01055Z" stroke="#EF9300" stroke-width="1.90959" stroke-linecap="round" stroke-linejoin="round"/>
<g opacity="0.5">
<path d="M49.1684 0.225271C51.9477 0.292927 54.1455 2.51996 54.0776 5.19933C54.0096 7.87871 51.7015 9.99605 48.9221 9.9284C46.1427 9.86074 43.9449 7.63371 44.0129 4.95433C44.0809 2.27496 46.389 0.157615 49.1684 0.225271Z" fill="url(#paint12_radial_78_9143)"/>
</g>
</g>
</g>
<defs>
<linearGradient id="paint0_linear_78_9143" x1="40.2285" y1="75.0474" x2="40.2285" y2="84.2168" gradientUnits="userSpaceOnUse">
<stop stop-color="#D6D6D9"/>
<stop offset="0.5" stop-color="#DEDAE0"/>
<stop offset="1" stop-color="#E6DEE7"/>
</linearGradient>
<linearGradient id="paint1_linear_78_9143" x1="39.9161" y1="56.9224" x2="39.9161" y2="65.2987" gradientUnits="userSpaceOnUse">
<stop stop-color="#EBEAFF"/>
<stop offset="0.49" stop-color="#F5F5FF"/>
<stop offset="0.99" stop-color="white"/>
</linearGradient>
<linearGradient id="paint2_linear_78_9143" x1="58.666" y1="62.5473" x2="76.0068" y2="66.0901" gradientUnits="userSpaceOnUse">
<stop stop-color="#BAB8C1"/>
<stop offset="0.5" stop-color="#BAB8C1" stop-opacity="0.5"/>
<stop offset="1" stop-color="#BAB8C1" stop-opacity="0"/>
</linearGradient>
<linearGradient id="paint3_linear_78_9143" x1="13.0411" y1="50.8287" x2="66.894" y2="50.8287" gradientUnits="userSpaceOnUse">
<stop stop-color="#FCF6BF"/>
<stop offset="0.5" stop-color="#FCFACA"/>
<stop offset="1" stop-color="#FCFFD5"/>
</linearGradient>
<linearGradient id="paint4_linear_78_9143" x1="13.041" y1="56.4537" x2="66.8936" y2="56.4537" gradientUnits="userSpaceOnUse">
<stop offset="0.01" stop-color="#FFDA8F"/>
<stop offset="0.5" stop-color="#FBD187"/>
<stop offset="1" stop-color="#F7C77F"/>
</linearGradient>
<linearGradient id="paint5_linear_78_9143" x1="13.041" y1="59.11" x2="66.8936" y2="59.11" gradientUnits="userSpaceOnUse">
<stop stop-color="#FCF6BF"/>
<stop offset="0.5" stop-color="#FCFACA"/>
<stop offset="1" stop-color="#FCFFD5"/>
</linearGradient>
<linearGradient id="paint6_linear_78_9143" x1="40.2284" y1="50.2038" x2="39.4369" y2="34.5026" gradientUnits="userSpaceOnUse">
<stop offset="0.28" stop-color="#FF82A6"/>
<stop offset="0.68" stop-color="#FFA7C7"/>
<stop offset="1" stop-color="#FFCBE9"/>
</linearGradient>
<linearGradient id="paint7_linear_78_9143" x1="23.1972" y1="27.2348" x2="56.7311" y2="27.2348" gradientUnits="userSpaceOnUse">
<stop stop-color="#FCF6BF"/>
<stop offset="0.5" stop-color="#FCFACA"/>
<stop offset="1" stop-color="#FCFFD5"/>
</linearGradient>
<linearGradient id="paint8_linear_78_9143" x1="23.1972" y1="28.7975" x2="56.7311" y2="28.7975" gradientUnits="userSpaceOnUse">
<stop offset="0.01" stop-color="#FFDA8F"/>
<stop offset="0.5" stop-color="#FBD187"/>
<stop offset="1" stop-color="#F7C77F"/>
</linearGradient>
<linearGradient id="paint9_linear_78_9143" x1="39.916" y1="25.2037" x2="40.0819" y2="15.5803" gradientUnits="userSpaceOnUse">
<stop offset="0.28" stop-color="#FF82A6"/>
<stop offset="0.68" stop-color="#FFA7C7"/>
<stop offset="1" stop-color="#FFCBE9"/>
</linearGradient>
<radialGradient id="paint10_radial_78_9143" cx="0" cy="0" r="1" gradientUnits="userSpaceOnUse" gradientTransform="translate(31.9001 5.30568) scale(4.9062)">
<stop stop-color="#FFD700"/>
<stop offset="0.5" stop-color="#FFD700" stop-opacity="0.5"/>
<stop offset="1" stop-color="#FFD700" stop-opacity="0"/>
</radialGradient>
<radialGradient id="paint11_radial_78_9143" cx="0" cy="0" r="1" gradientUnits="userSpaceOnUse" gradientTransform="translate(40.2546 5.20969) scale(4.69166)">
<stop stop-color="#FFD700"/>
<stop offset="0.5" stop-color="#FFD700" stop-opacity="0.5"/>
<stop offset="1" stop-color="#FFD700" stop-opacity="0"/>
</radialGradient>
<radialGradient id="paint12_radial_78_9143" cx="0" cy="0" r="1" gradientUnits="userSpaceOnUse" gradientTransform="translate(49.109 5.23215) scale(4.94164)">
<stop stop-color="#FFD700"/>
<stop offset="0.5" stop-color="#FFD700" stop-opacity="0.5"/>
<stop offset="1" stop-color="#FFD700" stop-opacity="0"/>
</radialGradient>
<clipPath id="clip0_78_9143">
<rect width="80" height="80" fill="white"/>
</clipPath>
</defs>
</svg>
