<svg width="83" height="80" viewBox="0 0 83 80" fill="none" xmlns="http://www.w3.org/2000/svg">
<g clip-path="url(#clip0_78_8819)">
<mask id="mask0_78_8819" style="mask-type:luminance" maskUnits="userSpaceOnUse" x="1" y="0" width="80" height="80">
<path d="M81 0H1V80H81V0Z" fill="white"/>
</mask>
<g mask="url(#mask0_78_8819)">
<g opacity="0.5">
<path d="M74.9693 75.655C74.9693 77.9726 59.1471 79.8514 39.6293 79.8514C20.1115 79.8514 4.28931 77.9726 4.28931 75.655C4.28931 73.3374 20.1115 71.4586 39.6293 71.4586C59.1471 71.4586 74.9693 73.3374 74.9693 75.655Z" fill="url(#paint0_radial_78_8819)"/>
</g>
<path d="M11.1948 24.1116C15.5276 21.9227 22.8386 20.3874 25.5728 20.5532C28.307 20.719 29.8128 25.8565 29.8128 25.8565C29.8128 25.8565 35.1443 22.2496 40.2182 25.804C40.2182 25.804 47.8882 21.1076 53.7295 26.0713C53.7295 26.0713 60.9517 22.1913 65.8362 27.6273C65.8362 27.6273 73.3881 27.1802 78.0325 32.4057C82.6768 37.6312 71.07 46.9096 71.07 46.9096C71.07 46.9096 77.052 49.1848 77.364 52.0012C77.6761 54.8176 71.3615 69.1171 65.1678 70.1779C63.9731 70.3826 55.8332 68.0294 40.4698 69.5658C34.9548 70.1174 31.3315 70.3598 21.3979 72.6915C16.3693 73.8719 12.8786 70.9707 11.534 63.3485C10.2834 56.2593 10.7381 50.4823 11.9681 48.1168C11.9681 48.1168 4.66621 27.4098 11.1948 24.1116Z" fill="url(#paint1_linear_78_8819)"/>
<g opacity="0.5">
<path d="M27.3305 19.89L18.8647 24.8103L20.1043 28.1181L27.831 23.1795L27.3305 19.89Z" fill="white"/>
</g>
<g opacity="0.5">
<path d="M77.4028 50.2227L68.937 55.143L70.1765 58.4508L77.9033 53.5122L77.4028 50.2227Z" fill="white"/>
</g>
<g opacity="0.5">
<path d="M78.7376 32.8826L70.2719 37.8029L71.5114 41.1107L79.2381 36.1721L78.7376 32.8826Z" fill="white"/>
</g>
<path d="M11.1948 24.1116C15.5276 21.9227 22.8386 20.3874 25.5728 20.5532C28.307 20.719 29.8128 25.8565 29.8128 25.8565C29.8128 25.8565 35.1443 22.2496 40.2182 25.804C40.2182 25.804 47.8882 21.1076 53.7295 26.0713C53.7295 26.0713 60.9517 22.1913 65.8362 27.6273C65.8362 27.6273 73.3881 27.1802 78.0325 32.4057C82.6768 37.6312 71.07 46.9096 71.07 46.9096C71.07 46.9096 77.052 49.1848 77.364 52.0012C77.6761 54.8176 71.3615 69.1171 65.1678 70.1779C63.9731 70.3826 55.8332 68.0294 40.4698 69.5658C34.9548 70.1174 31.3315 70.3598 21.3979 72.6915C16.3693 73.8719 12.8786 70.9707 11.534 63.3485C10.2834 56.2593 10.7381 50.4823 11.9681 48.1168C11.9681 48.1168 4.66621 27.4098 11.1948 24.1116Z" stroke="url(#paint2_radial_78_8819)" stroke-width="1.90959" stroke-linecap="round" stroke-linejoin="round"/>
<path d="M11.1948 24.1116C15.5276 21.9227 22.8386 20.3874 25.5728 20.5532C28.307 20.719 29.8128 25.8565 29.8128 25.8565C29.8128 25.8565 35.1444 22.2494 40.2183 25.8038C40.2183 25.8038 47.8883 21.1074 53.7295 26.0712C53.7295 26.0712 60.9517 22.1913 65.8362 27.6273C65.8362 27.6273 73.3881 27.1802 78.0325 32.4057C78.4712 32.8993 78.7648 33.429 78.937 33.9837" stroke="#BFB897" stroke-width="1.90959" stroke-linecap="round" stroke-linejoin="round"/>
<path d="M77.3715 52.3655C77.2018 55.8728 71.1287 69.1569 65.1676 70.1778C63.9729 70.3825 55.833 68.0294 40.4696 69.5658C34.9546 70.1174 31.3315 70.3597 21.3979 72.6914C20.4423 72.9158 19.5423 72.9927 18.7018 72.9178" stroke="#99817E" stroke-width="1.90959" stroke-linecap="round" stroke-linejoin="round"/>
<path d="M5.8823 28.7991C10.2151 26.6102 17.5261 25.0749 20.2603 25.2407C22.9945 25.4065 24.5003 30.5438 24.5003 30.5438C24.5003 30.5438 29.8318 26.9369 34.9057 30.4913C34.9057 30.4913 42.5757 25.7949 48.417 30.7587C48.417 30.7587 55.6392 26.8787 60.5237 32.3146C60.5237 32.3146 68.0756 31.8677 72.72 37.0932C77.3643 42.3187 65.7575 51.5969 65.7575 51.5969C65.7575 51.5969 71.7395 53.8721 72.0515 56.6885C72.3635 59.5049 66.049 73.8044 59.8553 74.8652C58.6606 75.0699 50.5207 72.7168 35.1573 74.2532C29.6423 74.8048 26.019 75.0471 16.0854 77.3788C11.0568 78.5593 7.56605 75.6582 6.22152 68.036C4.9709 60.9468 5.42558 55.1696 6.65558 52.8041C6.65558 52.8041 -0.64629 32.0973 5.8823 28.7991Z" fill="url(#paint3_linear_78_8819)"/>
<g opacity="0.3">
<path d="M65.7574 52.8469C65.7574 52.8469 71.427 55.1221 71.739 57.9385" stroke="#80859B" stroke-width="1.90959" stroke-linecap="round" stroke-linejoin="round"/>
</g>
<g opacity="0.3">
<path d="M3.84619 31.2741C8.44447 28.1182 17.5259 26.4812 20.2601 26.647C22.9943 26.8127 24.5001 31.794 24.5001 31.794C24.5001 31.794 29.8318 28.187 34.9057 31.7413C34.9057 31.7413 42.5756 27.0449 48.4168 32.0087C48.4168 32.0087 55.639 28.1288 60.5235 33.5648C60.5235 33.5648 71.7388 34.6359 73.8149 39.9999" stroke="#80859B" stroke-width="1.90959" stroke-linecap="round" stroke-linejoin="round"/>
</g>
<path d="M5.8823 28.7991C10.2151 26.6102 17.5261 25.0749 20.2603 25.2407C22.9945 25.4065 24.5003 30.544 24.5003 30.544C24.5003 30.544 29.8318 26.9369 34.9057 30.4913C34.9057 30.4913 42.5757 25.7949 48.417 30.7587C48.417 30.7587 55.6392 26.8788 60.5237 32.3148C60.5237 32.3148 68.0756 31.8677 72.72 37.0932C77.3643 42.3187 65.7575 51.5971 65.7575 51.5971C65.7575 51.5971 71.7395 53.8721 72.0515 56.6885C72.3636 59.5049 66.0756 73.9735 59.8553 74.8654C56.8554 75.2955 49.1415 73.9544 35.1573 75.0346C29.6312 75.4615 27.3415 75.7857 16.0854 77.3788C10.9711 78.1027 7.56605 75.6582 6.22152 68.036C4.9709 60.9468 5.42558 55.1696 6.65558 52.8041C6.65558 52.8041 -0.64629 32.0973 5.8823 28.7991Z" stroke="url(#paint4_linear_78_8819)" stroke-width="1.90959" stroke-linecap="round" stroke-linejoin="round"/>
<g opacity="0.25">
<path d="M50.405 56.1522C44.8082 55.6816 42.7119 69.4228 44.7138 71.1031C46.1149 72.2791 47.1902 71.3152 48.0327 70.0852C48.3165 69.6708 48.834 69.1886 49.3732 69.1556C50.348 69.0961 50.6424 69.6713 50.919 70.1317C51.5896 71.2483 52.1318 72.2822 53.605 71.8022C54.1741 71.6167 54.6908 71.0145 54.9036 70.3086C56.0425 66.5295 54.6957 56.513 50.405 56.1522ZM49.7568 65.8839C47.3246 65.7648 48.0221 62.123 49.993 62.2653C51.5533 62.378 52.189 66.003 49.7568 65.8839Z" fill="#80859B"/>
</g>
<g opacity="0.25">
<path d="M31.7331 64.1704C31.0493 68.5524 32.5612 71.9175 36.531 72.1057C40.5009 72.2936 41.6745 70.4416 42.544 65.6943C43.334 61.3807 43.1309 57.789 42.8757 56.3608C42.4676 54.0768 39.0032 53.7421 38.3657 57.6419C38.2992 58.0493 37.9788 58.3643 37.6084 58.3738C36.102 58.4129 32.5312 59.0558 31.7331 64.1704ZM37.1302 63.3533C39.0985 62.9141 39.212 66.5488 37.4206 66.9874C35.104 67.5544 35.0576 63.8158 37.1302 63.3533Z" fill="#80859B"/>
</g>
<g opacity="0.25">
<path d="M59.6569 56.2601C58.465 55.609 55.7751 56.3842 57.0212 60.4226C58.1106 63.9531 58.9414 64.754 58.6998 65.3881C58.1459 66.8423 56.1414 70.2295 58.3925 71.732C59.6834 72.5937 60.9745 71.5287 62.8298 68.7417C63.9806 67.0129 65.4333 64.5995 66.9811 61.6395C68.4287 58.8711 66.3834 56.3903 64.5305 57.1761C63.4711 57.6253 62.347 60.1134 62.0206 60.1206C61.6047 60.1298 60.9445 56.9634 59.6569 56.2601Z" fill="#80859B"/>
</g>
<path d="M50.4767 54.5913C44.8798 54.1207 42.7836 67.8619 44.7855 69.5422C46.1865 70.7182 47.2619 69.7542 48.1044 68.5242C48.3881 68.1099 48.9056 67.6277 49.4448 67.5947C50.4197 67.5352 50.714 68.1103 50.9906 68.5708C51.6612 69.6874 52.2034 70.7213 53.6767 70.2413C54.2458 70.0558 54.7625 69.4536 54.9753 68.7477C56.1142 64.9686 54.7673 54.9521 50.4767 54.5913ZM49.8284 64.323C47.3962 64.2039 48.0937 60.5621 50.0647 60.7044C51.625 60.8171 52.2606 64.4421 49.8284 64.323Z" fill="#E25033"/>
<path d="M31.7331 62.6079C31.0493 66.9899 32.5612 70.355 36.531 70.5432C40.5009 70.7311 41.6745 68.8791 42.544 64.1318C43.334 59.8182 43.1309 56.2265 42.8757 54.7983C42.4676 52.5143 39.0032 52.1796 38.3657 56.0794C38.2992 56.4868 37.9788 56.8018 37.6084 56.8113C36.102 56.8504 32.5312 57.4933 31.7331 62.6079ZM37.1302 61.7908C39.0985 61.3516 39.212 64.9863 37.4206 65.4249C35.104 65.9919 35.0576 62.2533 37.1302 61.7908Z" fill="#FFAA00"/>
<g opacity="0.3">
<path d="M38.5958 66.1544C38.0305 65.8508 37.2566 65.9432 36.4138 66.201C35.4997 66.4807 35.5932 67.6196 37.0738 67.5508C38.5544 67.4821 39.3685 66.5692 38.5958 66.1544Z" fill="url(#paint5_linear_78_8819)"/>
</g>
<path d="M59.6569 54.6976C58.465 54.0465 55.7751 54.8217 57.0212 58.8601C58.1106 62.3906 58.9414 63.1915 58.6998 63.8256C58.1459 65.2798 56.1414 68.667 58.3925 70.1695C59.6834 71.0312 60.9745 69.9662 62.8298 67.1792C63.9806 65.4504 65.4333 63.037 66.9811 60.077C68.4287 57.3086 66.3834 54.8278 64.5305 55.6136C63.4711 56.0628 62.347 58.5509 62.0206 58.5581C61.6047 58.5673 60.9445 55.4009 59.6569 54.6976Z" fill="#4DAEF7"/>
<g opacity="0.4">
<path d="M52.0432 56.9664C51.6437 55.251 48.4751 55.3133 48.1757 57.1289C47.9923 58.2414 49.3083 58.3383 50.4173 58.3085C51.6726 58.2747 52.1896 57.5952 52.0432 56.9664Z" fill="url(#paint6_linear_78_8819)"/>
</g>
<g opacity="0.4">
<path d="M42.1354 54.7835C41.8064 53.6159 39.6282 53.7587 39.4795 55.0174C39.3884 55.7887 40.297 55.8138 41.059 55.7584C41.9217 55.6956 42.256 55.2115 42.1354 54.7835Z" fill="url(#paint7_linear_78_8819)"/>
</g>
<g opacity="0.4">
<path d="M60.0032 55.9541C59.5138 54.8883 57.4554 55.3514 57.5021 56.5756C57.5307 57.3258 58.4021 57.2136 59.1215 57.0462C59.9359 56.8569 60.1826 56.3447 60.0032 55.9541Z" fill="url(#paint8_linear_78_8819)"/>
</g>
<g opacity="0.4">
<path d="M66.6674 57.9145C67.0714 56.8136 65.2847 55.6912 64.455 56.5926C63.9466 57.145 64.6438 57.6797 65.2721 58.0679C65.9833 58.5076 66.5193 58.3179 66.6674 57.9145Z" fill="url(#paint9_linear_78_8819)"/>
</g>
<g opacity="0.3">
<path d="M51.06 65.1909C50.567 64.7802 49.7904 64.7152 48.9129 64.7988C47.9614 64.8894 47.8246 66.0242 49.2889 66.2538C50.7531 66.4833 51.7337 65.7523 51.06 65.1909Z" fill="url(#paint10_linear_78_8819)"/>
</g>
<g opacity="0.4">
<path d="M38.268 57.8565C37.3102 57.4778 36.1524 57.6029 34.8355 58.4548C33.5365 59.2951 33.8615 61.014 36.1821 60.546C38.5027 60.0781 39.5709 58.3717 38.268 57.8565Z" fill="url(#paint11_linear_78_8819)"/>
</g>
<g opacity="0.25">
<path d="M26.0262 61.4263C24.8855 61.6658 23.0208 62.3031 23.2629 64.0441C23.456 65.4323 24.1968 66.1775 26.7566 65.7481C27.9776 65.5433 27.0038 65.7777 28.3183 65.4578C31.1644 64.7653 30.5341 61.9502 28.9679 61.4166C28.0412 61.1008 27.1579 61.1886 26.0262 61.4263Z" fill="#80859B"/>
</g>
<path d="M26.0262 59.8636C24.8855 60.1032 23.0208 60.7405 23.2629 62.4814C23.456 63.8697 24.1968 64.6149 26.7566 64.1855C27.9776 63.9807 27.0038 64.215 28.3183 63.8952C31.1644 63.2027 30.5341 60.3875 28.9679 59.8539C28.0412 59.5382 27.1579 59.626 26.0262 59.8636Z" fill="#53C14D"/>
<g opacity="0.4">
<path d="M28.2591 60.7042C27.4841 60.3361 26.4982 60.3126 25.3168 60.7997C24.1513 61.28 24.2801 62.5557 26.2748 62.4453C28.2695 62.3348 29.3132 61.205 28.2591 60.7042Z" fill="url(#paint12_linear_78_8819)"/>
</g>
<g opacity="0.25">
<path d="M20.2178 63.4591C20.1257 62.6435 22.2373 60.821 20.5009 57.1647C18.7465 53.4708 11.9197 53.4064 9.51918 57.046C7.78371 59.6772 9.53934 73.0747 12.0764 74.9872C14.6134 76.8997 23.0453 75.2541 23.3309 69.9089C23.6125 64.6405 20.2943 64.1378 20.2178 63.4591ZM15.1304 58.9875C16.6672 58.8524 17.7398 61.8624 15.3515 62.1214C12.9632 62.3805 13.1893 59.1583 15.1304 58.9875ZM16.8923 70.4063C14.167 70.7019 14.4251 67.025 16.6401 66.8302C18.3937 66.676 19.6176 70.1106 16.8923 70.4063Z" fill="#80859B"/>
</g>
<path d="M20.2178 61.8966C20.1257 61.081 22.2373 59.2585 20.5009 55.6022C18.7465 51.9083 11.9197 51.8439 9.51918 55.4835C7.78371 58.1147 9.53934 71.5122 12.0764 73.4247C14.6134 75.3372 23.0453 73.6916 23.3309 68.3464C23.6125 63.078 20.2943 62.5753 20.2178 61.8966ZM15.1304 57.425C16.6672 57.2899 17.7398 60.2999 15.3515 60.5589C12.9632 60.818 13.1893 57.5958 15.1304 57.425ZM16.8923 68.8438C14.167 69.1394 14.4251 65.4625 16.6401 65.2677C18.3937 65.1135 19.6176 68.5481 16.8923 68.8438Z" fill="#2951CE"/>
<g opacity="0.3">
<path d="M16.7139 61.254C16.1485 60.9504 15.3746 61.0428 14.5318 61.3006C13.6178 61.5803 13.7112 62.7192 15.1918 62.6504C16.6725 62.5817 17.4865 61.6689 16.7139 61.254Z" fill="url(#paint13_linear_78_8819)"/>
</g>
<g opacity="0.3">
<path d="M18.2488 69.4828C17.6835 69.1792 16.9096 69.2715 16.0667 69.5293C15.1527 69.809 15.2461 70.9479 16.7267 70.8792C18.2074 70.8104 19.0214 69.8976 18.2488 69.4828Z" fill="url(#paint14_linear_78_8819)"/>
</g>
<g opacity="0.4">
<path d="M16.3282 53.8564C15.0993 53.4776 13.6135 53.6028 11.9239 54.4547C10.257 55.295 10.6742 57.0139 13.6518 56.5459C16.6295 56.078 17.9998 54.3715 16.3282 53.8564Z" fill="url(#paint15_linear_78_8819)"/>
</g>
<g opacity="0.25">
<path d="M64.1074 37.3005C63.1433 36.344 60.344 36.3411 60.4191 40.5669C60.4847 44.2611 61.0604 45.2611 60.6522 45.8032C59.716 47.0463 56.8493 49.7432 58.5944 51.8119C59.5952 52.9983 61.1313 52.334 63.6879 50.1721C65.2737 48.8311 67.3396 46.9163 69.6488 44.5029C71.8085 42.2457 70.533 39.2943 68.5347 39.5343C67.3924 39.6715 65.6213 41.7494 65.3057 41.6657C64.9037 41.5589 65.149 38.3338 64.1074 37.3005Z" fill="#80859B"/>
</g>
<path d="M64.1074 35.738C63.1433 34.7815 60.344 34.7786 60.4191 39.0044C60.4847 42.6986 61.0604 43.6986 60.6522 44.2407C59.716 45.4838 56.8493 48.1807 58.5944 50.2494C59.5952 51.4358 61.1313 50.7715 63.6879 48.6096C65.2737 47.2686 67.3396 45.3538 69.6488 42.9404C71.8085 40.6832 70.533 37.7318 68.5347 37.9718C67.3924 38.109 65.6213 40.1869 65.3057 40.1032C64.9037 39.9964 65.149 36.7713 64.1074 35.738Z" fill="#2951CE"/>
<g opacity="0.4">
<path d="M64.0186 36.7468C63.7007 35.6181 61.5952 35.7561 61.4514 36.9728C61.3633 37.7182 62.2414 37.7426 62.9782 37.689C63.8121 37.6282 64.1352 37.1606 64.0186 36.7468Z" fill="url(#paint16_linear_78_8819)"/>
</g>
<g opacity="0.4">
<path d="M70.0232 40.5234C70.5269 39.4645 68.8511 38.1823 67.9419 39.0034C67.3847 39.5065 68.0297 40.1031 68.6196 40.5476C69.2872 41.0509 69.8385 40.9115 70.0232 40.5234Z" fill="url(#paint17_linear_78_8819)"/>
</g>
<g opacity="0.25">
<path d="M58.854 43.8212C60.0512 39.5873 58.9887 35.8891 55.1489 34.83C51.309 33.7709 49.8292 35.1844 48.5487 39.7959C47.237 44.5203 47.0181 47.5758 47.0931 49.0605C47.212 51.4139 50.4595 52.6231 51.579 48.9947C51.717 48.5477 52.1233 48.2761 52.5381 48.3509C54.0658 48.6264 57.4887 48.6498 58.854 43.8212ZM53.5036 43.4545C51.5353 43.4622 51.8659 39.8011 53.6622 39.7553C55.9848 39.6962 55.5764 43.4466 53.5036 43.4545Z" fill="#80859B"/>
</g>
<path d="M58.854 42.2587C60.0512 38.0248 58.9887 34.3266 55.1489 33.2675C51.309 32.2084 49.8292 33.6219 48.5487 38.2334C47.237 42.9578 47.0181 46.0133 47.0931 47.498C47.212 49.8514 50.4595 51.0606 51.579 47.4322C51.717 46.9852 52.1233 46.7136 52.5381 46.7884C54.0658 47.0639 57.4887 47.0873 58.854 42.2587ZM53.5036 41.892C51.5353 41.8997 51.8659 38.2386 53.6622 38.1928C55.9848 38.1337 55.5764 41.8841 53.5036 41.892Z" fill="#4DAEF7"/>
<g opacity="0.3">
<path d="M54.5529 42.7662C54.0861 42.326 53.315 42.2137 52.434 42.2435C51.4787 42.2759 51.2726 43.3999 52.7201 43.7187C54.1676 44.0374 55.1911 43.3677 54.5529 42.7662Z" fill="url(#paint18_linear_78_8819)"/>
</g>
<g opacity="0.4">
<path d="M56.7464 35.2801C56.1022 34.4136 55.0075 33.8556 53.3773 33.8172C51.7692 33.7794 51.1254 35.4097 53.4376 36.3453C55.7498 37.2809 57.6226 36.4589 56.7464 35.2801Z" fill="url(#paint19_linear_78_8819)"/>
</g>
<g opacity="0.25">
<path d="M47.2296 39.7677C46.7063 35.3637 44.343 32.5309 40.4694 33.4204C36.5958 34.3099 35.9652 36.4099 36.4082 41.2159C36.8107 45.5827 37.9749 48.9865 38.6058 50.2929C39.6149 52.3821 43.041 51.7702 42.6032 47.843C42.5574 47.4327 42.7812 47.043 43.1352 46.934C44.5754 46.4902 47.8404 44.908 47.2296 39.7677ZM42.2527 42.0101C40.4758 42.9638 39.3862 39.4943 40.993 38.5888C43.0708 37.418 44.124 41.0057 42.2527 42.0101Z" fill="#80859B"/>
</g>
<path d="M47.2296 38.2051C46.7063 33.801 44.343 30.9682 40.4694 31.8578C36.5958 32.7473 35.9652 34.8473 36.4082 39.6532C36.8107 44.0201 37.9749 47.4239 38.6058 48.7303C39.6149 50.8195 43.041 50.2076 42.6032 46.2804C42.5574 45.8701 42.7812 45.4804 43.1352 45.3714C44.5754 44.9276 47.8404 43.3454 47.2296 38.2051ZM42.2527 40.4474C40.4758 41.4012 39.3862 37.9317 40.993 37.0262C43.0708 35.8554 44.124 39.4431 42.2527 40.4474Z" fill="#53C14D"/>
<g opacity="0.3">
<path d="M43.2434 41.273C42.6745 40.9763 41.9019 41.0777 41.0622 41.3458C40.1517 41.6366 40.2591 42.7744 41.7386 42.6877C43.2181 42.601 44.0211 41.6785 43.2434 41.273Z" fill="url(#paint20_linear_78_8819)"/>
</g>
<g opacity="0.4">
<path d="M42.5811 32.8027C41.5699 32.4239 40.3475 32.5491 38.9572 33.401C37.5857 34.2413 37.9289 35.9602 40.3789 35.4922C42.8289 35.0242 43.9566 33.3178 42.5811 32.8027Z" fill="url(#paint21_linear_78_8819)"/>
</g>
<g opacity="0.25">
<path d="M30.2962 34.4155C24.6836 34.2016 23.2189 48.0246 25.2956 49.6115C26.749 50.7221 27.7793 49.7099 28.5647 48.4426C28.8292 48.0157 29.3237 47.5102 29.8609 47.4526C30.832 47.3484 31.1525 47.9096 31.4498 48.3569C32.1709 49.4416 32.7598 50.4496 34.2097 49.9026C34.7697 49.6913 35.2584 49.066 35.4386 48.351C36.4032 44.5238 34.5989 34.5794 30.2962 34.4155ZM30.0943 44.1668C27.6592 44.1591 28.1893 40.4891 30.1647 40.541C31.7286 40.5821 32.5295 44.1744 30.0943 44.1668Z" fill="#80859B"/>
</g>
<path d="M30.2962 32.8528C24.6836 32.6389 23.2189 46.4619 25.2956 48.0487C26.749 49.1594 27.7793 48.1472 28.5647 46.8798C28.8292 46.453 29.3237 45.9475 29.8609 45.8898C30.832 45.7856 31.1525 46.3469 31.4498 46.7942C32.1709 47.8789 32.7598 48.8869 34.2097 48.3398C34.7697 48.1286 35.2584 47.5033 35.4386 46.7883C36.4032 42.9611 34.5989 33.0167 30.2962 32.8528ZM30.0943 42.604C27.6592 42.5964 28.1893 38.9264 30.1647 38.9783C31.7286 39.0194 32.5295 42.6117 30.0943 42.604Z" fill="#FFAA00"/>
<g opacity="0.4">
<path d="M31.9075 34.7716C31.4299 33.0763 28.2675 33.2835 28.0516 35.111C27.9192 36.2307 29.2383 36.2674 30.3447 36.1868C31.5972 36.0955 32.0825 35.393 31.9075 34.7716Z" fill="url(#paint22_linear_78_8819)"/>
</g>
<g opacity="0.3">
<path d="M31.3203 43.4418C30.8091 43.054 30.0303 43.0246 29.1577 43.1484C28.2112 43.2824 28.1264 44.4223 29.5997 44.5846C31.073 44.747 32.0191 43.9718 31.3203 43.4418Z" fill="url(#paint23_linear_78_8819)"/>
</g>
<g opacity="0.25">
<path d="M11.1378 33.8697C10.1189 31.7906 6.4614 32.6731 6.26328 35.1916C5.92843 39.4499 8.66781 51.5214 10.4198 52.8545C11.8777 53.9639 14.4372 52.9822 14.6305 51.5152C14.817 50.1002 14.5131 47.9319 14.2664 46.5369C14.1392 45.8177 14.555 45.1172 15.1937 44.9745C15.4864 44.9092 15.7462 44.8413 15.9677 44.778C16.4375 44.6436 16.9108 44.9755 17.0127 45.5092C17.3359 47.2042 18.0625 50.1689 19.1884 51.0452C20.0248 51.6961 22.752 51.2372 23.1658 49.4766C23.5606 47.7966 23.4994 45.2658 22.3533 39.0986C21.3323 33.6045 20.3317 31.0349 19.2494 30.4895C17.7272 29.7227 15.9737 30.4231 15.2792 31.5574C14.6878 32.5233 14.7794 33.3164 15.168 36.4142C15.2302 36.9095 14.9452 37.3763 14.5122 37.4881C14.198 37.5694 13.8283 37.6688 13.4864 37.7705C13.0573 37.898 12.6155 37.6317 12.4667 37.1608C12.2308 36.4134 11.8098 35.2408 11.1378 33.8697Z" fill="#80859B"/>
</g>
<path d="M11.1378 32.3071C10.1189 30.228 6.4614 31.1105 6.26328 33.629C5.92843 37.8872 8.66781 49.9588 10.4198 51.2919C11.8777 52.4013 14.4372 51.4196 14.6305 49.9525C14.817 48.5375 14.5131 46.3693 14.2664 44.9743C14.1392 44.255 14.555 43.5546 15.1937 43.4119C15.4864 43.3466 15.7462 43.2786 15.9677 43.2154C16.4375 43.081 16.9108 43.4129 17.0127 43.9466C17.3359 45.6416 18.0625 48.6063 19.1884 49.4825C20.0248 50.1335 22.752 49.6746 23.1658 47.9139C23.5606 46.2339 23.4994 43.7032 22.3533 37.536C21.3323 32.0419 20.3317 29.4722 19.2494 28.9269C17.7272 28.16 15.9737 28.8605 15.2792 29.9947C14.6878 30.9607 14.7794 31.7538 15.168 34.8516C15.2302 35.3469 14.9452 35.8136 14.5122 35.9255C14.198 36.0068 13.8283 36.1061 13.4864 36.2079C13.0573 36.3354 12.6155 36.0691 12.4667 35.5982C12.2308 34.8508 11.8098 33.6782 11.1378 32.3071Z" fill="#E25033"/>
<g opacity="0.4">
<path d="M19.7272 31.0228C19.2496 28.927 16.0872 29.1832 15.8713 31.4423C15.7389 32.8265 17.058 32.8718 18.1644 32.7721C19.4169 32.6593 19.9022 31.7909 19.7272 31.0228Z" fill="url(#paint24_linear_78_8819)"/>
</g>
<g opacity="0.4">
<path d="M10.8594 33.3648C9.9502 31.059 7.28458 31.911 7.00364 33.9407C6.78833 35.4957 7.96348 35.0524 9.05661 34.8541C10.4165 34.6076 11.1838 34.1874 10.8594 33.3648Z" fill="url(#paint25_linear_78_8819)"/>
</g>
<g opacity="0.3">
<path d="M16.0166 36.4951C15.1891 36.1926 14.1552 36.4685 13.0597 36.9832C11.8718 37.5413 12.2207 39.0715 14.2197 38.6896C16.2188 38.3077 17.1477 36.9085 16.0166 36.4951Z" fill="url(#paint26_linear_78_8819)"/>
</g>
<path d="M40.2816 26.177V22.3579" stroke="#2D1E14" stroke-width="1.27306" stroke-linecap="round" stroke-linejoin="round"/>
<path d="M40.2933 23.4178C36.1423 23.6735 35.1064 19.0119 37.4978 15.8513C40.2011 12.2783 38.7767 10.4585 39.8995 10.5677C42.2077 10.7922 48.9381 22.8857 40.2933 23.4178Z" fill="#FFF35F"/>
<g opacity="0.6">
<path d="M40.3547 22.3778C38.4839 22.4849 38.0168 20.533 39.0947 19.2097C40.3129 17.7138 39.6711 16.9516 40.1772 16.9974C41.2175 17.0914 44.2507 22.155 40.3547 22.3778Z" fill="#FFAA4D"/>
</g>
<path d="M40.2933 23.4178C38.668 23.5178 37.5202 22.8641 36.8688 21.8418C35.8566 20.253 36.0428 17.7743 37.4978 15.8513C40.2011 12.2783 38.7767 10.4585 39.8995 10.5677C41.7028 10.7432 46.2052 18.1628 43.9664 21.6543C43.3395 22.6319 42.1844 23.3014 40.2933 23.4178Z" stroke="#EF9300" stroke-width="1.90959" stroke-linecap="round" stroke-linejoin="round"/>
<path d="M43.9666 21.6542C43.3397 22.6319 42.1844 23.3016 40.2933 23.418C38.668 23.518 37.5202 22.8641 36.8688 21.8417" stroke="#ED7600" stroke-width="1.90959" stroke-linecap="round" stroke-linejoin="round"/>
<g opacity="0.5">
<path d="M50.7099 17.7821C50.7099 22.5204 46.0962 26.3615 40.4051 26.3615C34.714 26.3615 30.1002 22.5204 30.1002 17.7821C30.1002 13.0439 34.714 9.20276 40.4051 9.20276C46.0962 9.20276 50.7099 13.0439 50.7099 17.7821Z" fill="url(#paint27_radial_78_8819)"/>
</g>
</g>
</g>
<defs>
<radialGradient id="paint0_radial_78_8819" cx="0" cy="0" r="1" gradientUnits="userSpaceOnUse" gradientTransform="translate(44.1802 75.6572) scale(35.8149 4.29779)">
<stop stop-color="#7F6B7B"/>
<stop offset="0.5" stop-color="#7F6B7B" stop-opacity="0.5"/>
<stop offset="1" stop-color="#7F6B7B" stop-opacity="0"/>
</radialGradient>
<linearGradient id="paint1_linear_78_8819" x1="48.11" y1="61.419" x2="47.5153" y2="30.2957" gradientUnits="userSpaceOnUse">
<stop offset="0.29" stop-color="#E3D9DA"/>
<stop offset="0.65" stop-color="#EAE5E1"/>
<stop offset="1" stop-color="#F1F1E8"/>
</linearGradient>
<radialGradient id="paint2_radial_78_8819" cx="0" cy="0" r="1" gradientUnits="userSpaceOnUse" gradientTransform="translate(42.1725 47.3565) scale(33.4741 33.4741)">
<stop stop-color="#897F99"/>
<stop offset="0.5" stop-color="#A29094"/>
<stop offset="1" stop-color="#BBA190"/>
</radialGradient>
<linearGradient id="paint3_linear_78_8819" x1="38.4225" y1="38.7626" x2="37.6295" y2="71.8682" gradientUnits="userSpaceOnUse">
<stop offset="0.13" stop-color="white"/>
<stop offset="0.41" stop-color="#F4F4F5"/>
<stop offset="0.7" stop-color="#E9E9EB"/>
</linearGradient>
<linearGradient id="paint4_linear_78_8819" x1="17.0162" y1="81.7315" x2="51.0979" y2="22.6999" gradientUnits="userSpaceOnUse">
<stop stop-color="#4400FF"/>
<stop offset="0.34" stop-color="#3E5FFF"/>
<stop offset="0.78" stop-color="#39BDFF"/>
</linearGradient>
<linearGradient id="paint5_linear_78_8819" x1="43.4313" y1="67.1277" x2="43.596" y2="69.0267" gradientUnits="userSpaceOnUse">
<stop stop-color="white"/>
<stop offset="0.5" stop-color="white" stop-opacity="0.5"/>
<stop offset="1" stop-color="white" stop-opacity="0"/>
</linearGradient>
<linearGradient id="paint6_linear_78_8819" x1="49.2676" y1="55.5977" x2="50.1558" y2="58.9891" gradientUnits="userSpaceOnUse">
<stop stop-color="white"/>
<stop offset="0.5" stop-color="white" stop-opacity="0.5"/>
<stop offset="1" stop-color="white" stop-opacity="0"/>
</linearGradient>
<linearGradient id="paint7_linear_78_8819" x1="40.4537" y1="54.0754" x2="41.1718" y2="56.3809" gradientUnits="userSpaceOnUse">
<stop stop-color="white"/>
<stop offset="0.5" stop-color="white" stop-opacity="0.5"/>
<stop offset="1" stop-color="white" stop-opacity="0"/>
</linearGradient>
<linearGradient id="paint8_linear_78_8819" x1="58.281" y1="55.3922" x2="59.3126" y2="57.4859" gradientUnits="userSpaceOnUse">
<stop stop-color="white"/>
<stop offset="0.5" stop-color="white" stop-opacity="0.5"/>
<stop offset="1" stop-color="white" stop-opacity="0"/>
</linearGradient>
<linearGradient id="paint9_linear_78_8819" x1="64.9538" y1="57.1672" x2="64.2099" y2="59.3795" gradientUnits="userSpaceOnUse">
<stop stop-color="white"/>
<stop offset="0.5" stop-color="white" stop-opacity="0.5"/>
<stop offset="1" stop-color="white" stop-opacity="0"/>
</linearGradient>
<linearGradient id="paint10_linear_78_8819" x1="57.2251" y1="60.1963" x2="57.0056" y2="62.0898" gradientUnits="userSpaceOnUse">
<stop stop-color="white"/>
<stop offset="0.5" stop-color="white" stop-opacity="0.5"/>
<stop offset="1" stop-color="white" stop-opacity="0"/>
</linearGradient>
<linearGradient id="paint11_linear_78_8819" x1="35.9224" y1="57.3565" x2="36.6749" y2="60.5879" gradientUnits="userSpaceOnUse">
<stop stop-color="white"/>
<stop offset="0.5" stop-color="white" stop-opacity="0.5"/>
<stop offset="1" stop-color="white" stop-opacity="0"/>
</linearGradient>
<linearGradient id="paint12_linear_78_8819" x1="26.3849" y1="60.1322" x2="26.657" y2="62.5365" gradientUnits="userSpaceOnUse">
<stop stop-color="white"/>
<stop offset="0.5" stop-color="white" stop-opacity="0.5"/>
<stop offset="1" stop-color="white" stop-opacity="0"/>
</linearGradient>
<linearGradient id="paint13_linear_78_8819" x1="20.6412" y1="65.3114" x2="20.8059" y2="67.2106" gradientUnits="userSpaceOnUse">
<stop stop-color="white"/>
<stop offset="0.5" stop-color="white" stop-opacity="0.5"/>
<stop offset="1" stop-color="white" stop-opacity="0"/>
</linearGradient>
<linearGradient id="paint14_linear_78_8819" x1="23.3453" y1="73.2871" x2="23.51" y2="75.1862" gradientUnits="userSpaceOnUse">
<stop stop-color="white"/>
<stop offset="0.5" stop-color="white" stop-opacity="0.5"/>
<stop offset="1" stop-color="white" stop-opacity="0"/>
</linearGradient>
<linearGradient id="paint15_linear_78_8819" x1="13.4223" y1="53.294" x2="14.1784" y2="56.5409" gradientUnits="userSpaceOnUse">
<stop stop-color="white"/>
<stop offset="0.5" stop-color="white" stop-opacity="0.5"/>
<stop offset="1" stop-color="white" stop-opacity="0"/>
</linearGradient>
<linearGradient id="paint16_linear_78_8819" x1="62.3286" y1="35.9501" x2="63.0227" y2="38.1787" gradientUnits="userSpaceOnUse">
<stop stop-color="white"/>
<stop offset="0.5" stop-color="white" stop-opacity="0.5"/>
<stop offset="1" stop-color="white" stop-opacity="0"/>
</linearGradient>
<linearGradient id="paint17_linear_78_8819" x1="69.3511" y1="38.795" x2="68.4064" y2="40.9293" gradientUnits="userSpaceOnUse">
<stop stop-color="white"/>
<stop offset="0.5" stop-color="white" stop-opacity="0.5"/>
<stop offset="1" stop-color="white" stop-opacity="0"/>
</linearGradient>
<linearGradient id="paint18_linear_78_8819" x1="54.2031" y1="37.2826" x2="53.8683" y2="39.1591" gradientUnits="userSpaceOnUse">
<stop stop-color="white"/>
<stop offset="0.5" stop-color="white" stop-opacity="0.5"/>
<stop offset="1" stop-color="white" stop-opacity="0"/>
</linearGradient>
<linearGradient id="paint19_linear_78_8819" x1="54.8433" y1="33.3567" x2="53.7231" y2="36.4792" gradientUnits="userSpaceOnUse">
<stop stop-color="white"/>
<stop offset="0.5" stop-color="white" stop-opacity="0.5"/>
<stop offset="1" stop-color="white" stop-opacity="0"/>
</linearGradient>
<linearGradient id="paint20_linear_78_8819" x1="41.1699" y1="37.5227" x2="41.3577" y2="39.4196" gradientUnits="userSpaceOnUse">
<stop stop-color="white"/>
<stop offset="0.5" stop-color="white" stop-opacity="0.5"/>
<stop offset="1" stop-color="white" stop-opacity="0"/>
</linearGradient>
<linearGradient id="paint21_linear_78_8819" x1="40.141" y1="32.3566" x2="40.8933" y2="35.5875" gradientUnits="userSpaceOnUse">
<stop stop-color="white"/>
<stop offset="0.5" stop-color="white" stop-opacity="0.5"/>
<stop offset="1" stop-color="white" stop-opacity="0"/>
</linearGradient>
<linearGradient id="paint22_linear_78_8819" x1="29.36" y1="33.6066" x2="30.4025" y2="36.9538" gradientUnits="userSpaceOnUse">
<stop stop-color="white"/>
<stop offset="0.5" stop-color="white" stop-opacity="0.5"/>
<stop offset="1" stop-color="white" stop-opacity="0"/>
</linearGradient>
<linearGradient id="paint23_linear_78_8819" x1="29.9412" y1="42.9204" x2="29.8086" y2="44.822" gradientUnits="userSpaceOnUse">
<stop stop-color="white"/>
<stop offset="0.5" stop-color="white" stop-opacity="0.5"/>
<stop offset="1" stop-color="white" stop-opacity="0"/>
</linearGradient>
<linearGradient id="paint24_linear_78_8819" x1="17.1725" y1="29.544" x2="18.4202" y2="33.5498" gradientUnits="userSpaceOnUse">
<stop stop-color="white"/>
<stop offset="0.5" stop-color="white" stop-opacity="0.5"/>
<stop offset="1" stop-color="white" stop-opacity="0"/>
</linearGradient>
<linearGradient id="paint25_linear_78_8819" x1="8.2663" y1="32.044" x2="9.36208" y2="35.5618" gradientUnits="userSpaceOnUse">
<stop stop-color="white"/>
<stop offset="0.5" stop-color="white" stop-opacity="0.5"/>
<stop offset="1" stop-color="white" stop-opacity="0"/>
</linearGradient>
<linearGradient id="paint26_linear_78_8819" x1="14.0474" y1="36.2627" x2="14.6411" y2="38.8121" gradientUnits="userSpaceOnUse">
<stop stop-color="white"/>
<stop offset="0.5" stop-color="white" stop-opacity="0.5"/>
<stop offset="1" stop-color="white" stop-opacity="0"/>
</linearGradient>
<radialGradient id="paint27_radial_78_8819" cx="0" cy="0" r="1" gradientUnits="userSpaceOnUse" gradientTransform="translate(40.0632 17.9068) scale(10.5066)">
<stop stop-color="#FFD700"/>
<stop offset="0.5" stop-color="#FFD700" stop-opacity="0.5"/>
<stop offset="1" stop-color="#FFD700" stop-opacity="0"/>
</radialGradient>
<clipPath id="clip0_78_8819">
<rect width="80" height="80" fill="white" transform="translate(1)"/>
</clipPath>
</defs>
</svg>
