<svg width="80" height="80" viewBox="0 0 80 80" fill="none" xmlns="http://www.w3.org/2000/svg">
<g clip-path="url(#clip0_78_13822)">
<mask id="mask0_78_13822" style="mask-type:luminance" maskUnits="userSpaceOnUse" x="0" y="0" width="80" height="80">
<path d="M80 0H0V80H80V0Z" fill="white"/>
</mask>
<g mask="url(#mask0_78_13822)">
<path d="M50.4086 41.3202C52.8647 39.4811 60.0639 45.9666 63.722 50.3755C67.2703 54.6521 68.5 58.8124 65.4086 60.6746C62.7773 62.2596 58.143 59.4736 55.6994 54.8292C53.9063 50.4297 49.2327 42.2006 50.4086 41.3202Z" fill="url(#paint0_linear_78_13822)"/>
<path d="M65.4084 60.6745C66.9741 57.2354 64.2527 53.0437 59.3288 47.9401C53.9019 42.3153 50.4084 41.3198 50.4084 41.3198C52.8647 39.4807 60.0631 45.9667 63.7225 50.376C67.2709 54.6526 68.5006 58.812 65.4084 60.6745Z" fill="url(#paint1_linear_78_13822)" fill-opacity="0.3"/>
<path d="M65.4084 60.6744C62.7353 62.1886 57.8125 60.7424 53.1444 49.5369C47.8906 40.2736 50.7031 38.633 56.0297 43.6347C54.7945 43.6821 53.6719 47.8517 58.1555 53.4822C60.6223 56.58 65.2734 60.0002 67.0787 56.3166C67.217 56.0346 68.0469 59.1799 65.4084 60.6744Z" fill="url(#paint2_linear_78_13822)" fill-opacity="0.6"/>
<path d="M51.6403 41.3204C51.6403 41.3204 52.6244 44.8045 54.832 48.9629C57.0463 53.1336 60.4913 57.9826 65.4086 60.6748" stroke="#55300E" stroke-opacity="0.2" stroke-width="0.636531" stroke-linecap="round" stroke-linejoin="round"/>
<path d="M50.4086 41.3202C52.8647 39.4811 60.0639 45.9666 63.722 50.3755C67.2703 54.6521 68.5 58.8124 65.4086 60.6746C62.7773 62.2596 58.143 59.4736 55.6994 54.8292C54.2116 52.0016 53.0434 49.4408 52.2063 47.3497C51.21 44.8613 49.2327 42.2006 50.4086 41.3202Z" stroke="#855321" stroke-width="1.01845" stroke-linecap="round" stroke-linejoin="round"/>
<path d="M65.3548 60.699C62.7236 62.284 57.9995 59.5464 55.6994 54.8293C54.155 51.6623 51.6031 45.7768 50.5852 43.8342C48.9648 40.7423 51.4844 39.9611 55.5945 42.7693" stroke="#55300E" stroke-width="1.01845" stroke-linecap="round" stroke-linejoin="round"/>
<path d="M49.2272 11.0222C49.2272 11.0222 52.1186 6.13295 57.6125 7.93592C64.1408 10.0784 64.4533 18.5159 58.445 21.1861C56.6961 21.8761 49.8477 18.8715 49.8477 18.8715C49.8477 18.8715 47.9917 13.2915 49.2272 11.0222Z" fill="url(#paint3_linear_78_13822)"/>
<path d="M62.1179 11.7061C55.625 4.57033 51.1328 13.2422 48.9256 14.8795C47.3047 8.67189 57.3047 3.43751 62.1179 11.7061Z" fill="url(#paint4_linear_78_13822)"/>
<path d="M49.227 11.0219C49.227 11.0219 52.0903 6.22069 57.6123 7.93569C63.0987 9.63959 63.8772 15.3532 61.3484 18.9168C60.5331 20.0657 59.4559 20.7869 58.4448 21.1858C56.6959 21.8758 49.8475 18.8713 49.8475 18.8713C49.8475 18.8713 47.9915 13.2913 49.227 11.0219Z" stroke="#855321" stroke-width="1.01845" stroke-linecap="round" stroke-linejoin="round"/>
<path d="M52.0245 12.6008C52.0245 12.6008 53.5173 9.8736 56.7184 10.8733C59.4194 11.7167 60.1848 15.0825 58.8098 17.0202C57.6914 18.5963 55.659 18.6541 55.659 18.6541C55.659 18.6541 50.6794 15.8834 52.0245 12.6008Z" fill="url(#paint5_linear_78_13822)"/>
<path d="M52.0245 12.6008C52.0245 12.6008 53.5173 9.8736 56.7184 10.8733C59.4194 11.7167 60.1848 15.0825 58.8098 17.0202C57.6914 18.5963 55.659 18.6541 55.659 18.6541C55.659 18.6541 50.6794 15.8834 52.0245 12.6008Z" stroke="#81571E" stroke-width="1.01845" stroke-linecap="round" stroke-linejoin="round"/>
<path d="M40.3094 10.1939C40.3094 10.1939 38.8383 4.85089 32.9257 5.16214C27.1375 5.46682 25.0844 10.9339 26.6327 14.906C27.1443 16.2185 28.0139 17.1801 28.8978 17.8128C30.4266 18.9071 37.7999 17.6571 37.7999 17.6571C37.7999 17.6571 40.9563 12.6954 40.3094 10.1939Z" fill="url(#paint6_linear_78_13822)"/>
<path d="M37.7046 16.5627C40.1562 5.85947 30.3515 3.04697 26.4724 9.97181C29.5312 2.30478 38.8671 4.84384 40.3476 10.1546C40.8203 12.461 38.789 15.8595 37.7046 16.5627Z" fill="url(#paint7_linear_78_13822)"/>
<path d="M40.3092 10.1939C40.3092 10.1939 38.8395 4.8789 32.9254 5.16218C26.5234 5.4689 23.5156 13.5158 28.8976 17.8128C30.4264 18.9072 37.7997 17.6572 37.7997 17.6572C37.7997 17.6572 40.9561 12.6955 40.3092 10.1939Z" stroke="#855321" stroke-width="1.01845" stroke-linecap="round" stroke-linejoin="round"/>
<path d="M37.2118 11.0455C37.2118 11.0455 36.5003 8.03021 33.0785 8.22895C30.184 8.39708 28.6932 11.4694 29.556 13.6832C30.2579 15.484 32.2153 16.0338 32.2153 16.0338C32.2153 16.0338 37.7189 14.5568 37.2118 11.0455Z" fill="url(#paint8_linear_78_13822)"/>
<path d="M37.2118 11.0455C37.2118 11.0455 36.5003 8.03021 33.0785 8.22895C30.184 8.39708 28.6932 11.4694 29.556 13.6832C30.2579 15.484 32.2153 16.0338 32.2153 16.0338C32.2153 16.0338 37.7189 14.5568 37.2118 11.0455Z" stroke="#81571E" stroke-width="1.01845" stroke-linecap="round" stroke-linejoin="round"/>
<path d="M29.5815 37.3928C28.4375 39.5312 24.7326 46.8065 23.9945 55.4945C23.2327 64.4596 26.0394 69.0746 39.3407 69.3318C52.5011 69.5864 56.0938 64.8529 55.478 56.0443C54.8573 47.1665 51.981 41.1137 50.678 37.8615C48.2813 30.3906 32.5781 29.2968 29.5815 37.3928Z" fill="url(#paint9_radial_78_13822)"/>
<path d="M39.3053 69.3321C25.9397 69.0743 23.0053 64.4498 23.885 55.4946C24.2607 51.6701 24.4717 49.7037 26.4577 46.4198C23.6719 56.2892 30.0782 56.0548 32.888 61.1532C35.2049 65.3573 43.3742 67.2268 47.2885 62.0271C49.6456 58.8957 55.4044 58.6198 54.6803 50.2525C55.0772 52.1353 55.385 54.1009 55.5225 56.0446C56.1413 64.8525 52.5303 69.5868 39.3053 69.3321Z" fill="url(#paint10_linear_78_13822)" fill-opacity="0.6"/>
<path d="M26.4903 46.5C26.4903 46.5 23.8282 55.9766 27.2693 65.6948" stroke="#563211" stroke-opacity="0.3" stroke-width="0.636531" stroke-linecap="round" stroke-linejoin="round"/>
<path d="M41.6981 42.8165C36.4618 42.3375 31.8947 46.4262 31.3511 53.9498C30.808 61.4687 35.4001 64.7911 40.2992 65.0622C45.4836 65.349 49.4599 61.1683 49.4765 54.2387C49.4923 47.6711 46.1736 43.2259 41.6981 42.8165Z" fill="url(#paint11_radial_78_13822)"/>
<path d="M41.6981 42.8165C36.4618 42.3375 31.8947 46.4262 31.3511 53.9498C30.808 61.4687 35.4001 64.7911 40.2992 65.0622C45.4836 65.349 49.4599 61.1683 49.4765 54.2387C49.4923 47.6711 46.1736 43.2259 41.6981 42.8165Z" stroke="#96682C" stroke-width="0.97935"/>
<path d="M31.9621 58.8785C33.2357 62.9978 36.6874 64.9174 40.3093 65.1207C43.6918 65.3106 46.5525 63.5432 48.1052 60.3171" stroke="#765222" stroke-width="1.05664" stroke-linecap="round" stroke-linejoin="round"/>
<path d="M39.5252 67.9305C39.1997 68.7248 38.838 69.2263 38.4433 69.3418" stroke="#563211" stroke-opacity="0.3" stroke-width="0.636531" stroke-linecap="round" stroke-linejoin="round"/>
<path d="M40.3853 64.9474C40.2755 65.5086 40.1583 65.8754 40.0338 66.3524" stroke="#563211" stroke-opacity="0.3" stroke-width="0.636531" stroke-linecap="round" stroke-linejoin="round"/>
<path d="M40.8942 61.6775C40.8244 62.242 40.7491 62.6331 40.6683 63.1584" stroke="#563211" stroke-opacity="0.3" stroke-width="0.636531" stroke-linecap="round" stroke-linejoin="round"/>
<path d="M41.439 54.8037C41.4158 55.3642 41.388 55.7687 41.3554 56.3262" stroke="#563211" stroke-opacity="0.3" stroke-width="0.636531" stroke-linecap="round" stroke-linejoin="round"/>
<path d="M41.2233 58.3994C41.1821 58.9185 41.1364 59.2749 41.0869 59.7786" stroke="#563211" stroke-opacity="0.3" stroke-width="0.636531" stroke-linecap="round" stroke-linejoin="round"/>
<path d="M41.5155 51.8223C41.5105 52.3309 41.5011 52.6884 41.4875 53.2048" stroke="#563211" stroke-opacity="0.3" stroke-width="0.636531" stroke-linecap="round" stroke-linejoin="round"/>
<path d="M41.4908 48.7589C41.5038 49.2313 41.5124 49.5578 41.5166 50.0486" stroke="#563211" stroke-opacity="0.3" stroke-width="0.636531" stroke-linecap="round" stroke-linejoin="round"/>
<path d="M41.3641 45.8245C41.3932 46.227 41.418 46.6434 41.4388 47.0718" stroke="#563211" stroke-opacity="0.3" stroke-width="0.636531" stroke-linecap="round" stroke-linejoin="round"/>
<path d="M40.082 40.3168C40.5117 40.7308 41.1936 43.8343 41.2433 44.3011" stroke="#563211" stroke-opacity="0.3" stroke-width="0.636531" stroke-linecap="round" stroke-linejoin="round"/>
<path d="M29.5171 37.4409C29.2575 38.008 24.4524 47.0995 23.7607 55.8005C23.0472 64.7791 56.1719 64.569 55.4979 55.7722C54.8186 46.9063 50.8659 38.1303 50.5501 37.6784C46.9921 29.7656 32.5777 29.7658 29.5171 37.4409Z" fill="url(#paint12_radial_78_13822)" fill-opacity="0.6"/>
<path d="M29.4989 37.3929C28.9453 38.3595 24.6262 46.8067 23.8845 55.4946C23.1191 64.4598 25.9395 69.0748 39.3059 69.332C52.5308 69.5865 56.1412 64.8531 55.5223 56.0445C54.8986 47.1667 50.8119 38.1842 50.6989 37.8617C47.2656 29.6485 32.3828 29.8048 29.4989 37.3929Z" stroke="#55300E" stroke-width="1.01845" stroke-linecap="round" stroke-linejoin="round"/>
<path d="M26.2487 65.6308C28.5202 67.9684 32.5766 69.2023 39.3059 69.3319C46.5153 69.4706 50.8673 68.1272 53.2348 65.4492" stroke="#402108" stroke-width="1.01845" stroke-linecap="round" stroke-linejoin="round"/>
<path d="M29.3108 38.6486C26.9147 36.5812 18.2512 41.6643 12.9062 45.5965C8.25296 49.0198 6.52515 53.2109 9.47312 55.5204C11.9823 57.4862 17.4823 55.8004 22.5511 51.0384C24.9545 48.7804 31.6016 40.625 29.3108 38.6486Z" fill="url(#paint13_linear_78_13822)"/>
<path d="M28.1022 43.9326C26.8691 45.8631 18.0469 59.2187 9.47249 55.5201C9.43812 55.492 17.4008 53.0545 22.7695 47.5342C28.7258 41.4107 28.17 37.1759 23.082 39.442C27.7344 37.0703 32.4609 37.1093 28.1022 43.9326Z" fill="url(#paint14_linear_78_13822)" fill-opacity="0.6"/>
<path d="M29.6677 40.4245C28.5937 37.1875 14.9958 45.7698 11.7052 49.0448C8.46297 52.273 9.5864 55.6667 9.62547 55.7667C6.28906 52.7734 8.56391 49.2734 13.0614 45.648C18.7109 41.0937 30.0781 35.039 29.6677 40.4245Z" fill="url(#paint15_linear_78_13822)" fill-opacity="0.3"/>
<path d="M29.9036 39.6448C28.9183 41.9898 25.2176 46.2606 20.7987 49.7902C17.138 52.7143 12.9842 55.1299 9.47311 55.5204" stroke="#55300E" stroke-opacity="0.2" stroke-width="0.636531" stroke-linecap="round" stroke-linejoin="round"/>
<path d="M29.3108 38.6485C26.7969 36.5234 18.2512 41.6643 12.9062 45.5965C8.25296 49.0198 6.52515 53.2109 9.47312 55.5204C11.9823 57.4862 17.4823 55.8004 22.5511 51.0384C24.9545 48.7804 31.56 40.5498 29.3108 38.6485Z" stroke="#855321" stroke-width="1.01845" stroke-linecap="round" stroke-linejoin="round"/>
<path d="M10.2665 55.9826C13.0634 56.8775 16.6536 55.6439 20.155 52.974C23.5083 50.4172 26.7803 46.5431 29.1959 41.9601C30.8298 38.8605 28.9062 37.6564 26.5165 38.2611" stroke="#55300E" stroke-width="1.01845" stroke-linecap="round" stroke-linejoin="round"/>
<path d="M45.1533 9.52654C35.4287 8.21217 25.6425 17.5298 24.5745 27.0681C23.46 37.022 31.5748 41.5703 40.8443 42.6523C50.5054 43.78 59.0981 40.3639 60.3447 31.1103C61.5898 21.867 54.5745 10.8 45.1533 9.52654Z" fill="url(#paint16_linear_78_13822)"/>
<path d="M45.1533 9.52654C35.4287 8.21217 25.6425 17.5298 24.5745 27.0681C23.46 37.022 31.5748 41.5703 40.8443 42.6523C50.5054 43.78 59.0981 40.3639 60.3447 31.1103C61.5898 21.867 54.5745 10.8 45.1533 9.52654Z" stroke="#855321" stroke-width="1.01845" stroke-linecap="round" stroke-linejoin="round"/>
<path d="M44.9144 11.2618C36.6272 10.279 28.2877 17.2463 27.3775 24.3787C26.4277 31.8218 33.343 35.2227 41.2423 36.0318C49.4753 36.8751 56.7981 34.3206 57.8603 27.4012C58.9214 20.4895 52.9431 12.214 44.9144 11.2618Z" fill="url(#paint17_linear_78_13822)"/>
<path d="M54.8197 19.9805C54.5781 23.4771 49.2501 25.9571 42.9195 25.5197C36.5889 25.0824 31.6526 21.893 31.8942 18.3964C32.1358 14.8999 37.7337 10.761 44.0644 11.1983C50.395 11.6358 55.0612 16.4839 54.8197 19.9805Z" fill="url(#paint18_linear_78_13822)" fill-opacity="0.4"/>
<g opacity="0.3">
<path d="M49.8876 26.8086C49.8834 27.4763 49.9068 28.1691 49.9625 28.887" stroke="#855321" stroke-width="0.636531" stroke-linecap="round" stroke-linejoin="round"/>
<path d="M50.1692 23.3458C50.0817 23.8933 50.0118 24.4642 49.9636 25.0587" stroke="#855321" stroke-width="0.636531" stroke-linecap="round" stroke-linejoin="round"/>
<path d="M50.9998 19.9583C50.8173 20.5003 50.6481 21.0794 50.4993 21.6952" stroke="#855321" stroke-width="0.636531" stroke-linecap="round" stroke-linejoin="round"/>
<path d="M52.2708 17.0059C52.0551 17.4088 51.8364 17.8541 51.6234 18.3413" stroke="#855321" stroke-width="0.636531" stroke-linecap="round" stroke-linejoin="round"/>
<path d="M54.2814 14.0286C54.2814 14.0286 53.7581 14.5678 53.076 15.6231" stroke="#855321" stroke-width="0.636531" stroke-linecap="round" stroke-linejoin="round"/>
<path d="M36.5061 25.4479C36.4687 25.9863 36.4231 26.546 36.3686 27.128" stroke="#855321" stroke-width="0.636531" stroke-linecap="round" stroke-linejoin="round"/>
<path d="M36.6397 22.2111C36.6339 22.7927 36.6169 23.4072 36.5869 24.0563" stroke="#855321" stroke-width="0.636531" stroke-linecap="round" stroke-linejoin="round"/>
<path d="M36.4839 18.3415C36.5415 18.9129 36.5857 19.5354 36.6124 20.2137" stroke="#855321" stroke-width="0.636531" stroke-linecap="round" stroke-linejoin="round"/>
<path d="M35.8145 14.8257C35.9675 15.3145 36.1118 15.8887 36.2356 16.5626" stroke="#855321" stroke-width="0.636531" stroke-linecap="round" stroke-linejoin="round"/>
<path d="M34.2582 12.1606C34.2582 12.1606 34.6989 12.3975 35.2012 13.3289" stroke="#855321" stroke-width="0.636531" stroke-linecap="round" stroke-linejoin="round"/>
</g>
<path d="M24.9395 32.375C26.7292 38.6922 33.4161 41.7853 40.8444 42.6523C48.3794 43.5319 55.2645 41.6473 58.5214 36.385" stroke="#55300E" stroke-width="1.01845" stroke-linecap="round" stroke-linejoin="round"/>
<path d="M51.6765 29.9563C51.6765 31.2568 50.6221 32.3112 49.3216 32.3112C48.021 32.3112 46.9668 31.2568 46.9668 29.9563C46.9668 28.6557 48.021 27.6015 49.3216 27.6015C50.6221 27.6015 51.6765 28.6557 51.6765 29.9563Z" fill="#10141C"/>
<path d="M49.2787 30.3732C48.6948 30.3185 48.1621 29.8794 47.8606 30.2374C47.559 30.5954 48.189 31.6651 49.2813 31.6919C50.3737 31.7188 51.1046 30.7755 50.7693 30.3769C50.434 29.9783 49.8518 30.4269 49.2787 30.3732Z" fill="url(#paint19_linear_78_13822)"/>
<path d="M49.5885 28.2293C48.806 28.1753 48.5038 29.0433 49.4046 29.1901C50.4454 29.3598 50.4549 28.2892 49.5885 28.2293Z" fill="url(#paint20_linear_78_13822)"/>
<path d="M38.5384 28.4502C38.5384 29.7738 37.4652 30.847 36.1417 30.847C34.8181 30.847 33.7449 29.7738 33.7449 28.4502C33.7449 27.1267 34.8181 26.0535 36.1417 26.0535C37.4652 26.0535 38.5384 27.1267 38.5384 28.4502Z" fill="#10141C"/>
<path d="M36.1314 28.8581C35.5473 28.8045 35.0139 28.3668 34.7129 28.7254C34.412 29.084 35.0443 30.1523 36.1368 30.177C37.2293 30.2017 37.9581 29.2565 37.622 28.8587C37.2859 28.4609 36.7046 28.9106 36.1314 28.8581Z" fill="url(#paint21_linear_78_13822)"/>
<path d="M36.4367 26.7137C35.654 26.6612 35.3537 27.53 36.2548 27.675C37.2959 27.8425 37.3032 26.7718 36.4367 26.7137Z" fill="url(#paint22_linear_78_13822)"/>
<path d="M42.4613 29.3965C37.4395 28.8848 31.9388 33.2802 33.6048 37.4631C35.3543 41.8557 47.4718 42.4891 49.841 39.4006C52.3682 36.1062 48.9542 30.0581 42.4613 29.3965Z" fill="url(#paint23_linear_78_13822)"/>
<path d="M42.4613 29.3965C37.4395 28.8848 31.9388 33.2802 33.6048 37.4631C35.3543 41.8557 47.4718 42.4891 49.841 39.4006C52.3682 36.1062 48.9542 30.0581 42.4613 29.3965Z" stroke="#8D602F" stroke-width="1.01845"/>
<path d="M50.0465 34.2979C48.8837 31.9173 46.1765 29.7751 42.4614 29.3965C39.3226 29.0767 35.997 30.6737 34.3509 32.9376" stroke="#BC9452" stroke-opacity="0.5" stroke-width="1.01845" stroke-linecap="round" stroke-linejoin="round"/>
<path d="M37.0946 37.736C38.0289 39.0236 39.9645 39.4555 41.091 38.6486C41.8428 38.1104 42.0501 36.9771 42.0367 35.338" stroke="#673B16" stroke-width="0.763838" stroke-linecap="round" stroke-linejoin="round"/>
<path d="M46.5075 38.6542C45.7617 39.6289 41.3476 40.2343 42.0123 36.4237" stroke="#673B16" stroke-width="0.763838" stroke-linecap="round" stroke-linejoin="round"/>
<path d="M42.3906 30.7892C40.9042 30.6558 39.5976 30.9534 39.5937 31.9695C39.5898 32.9934 41.3881 34.8487 42.1271 34.9287C42.9687 35.0197 44.9773 33.2037 45.0964 32.3106C45.2154 31.4175 43.7803 30.9139 42.3906 30.7892Z" fill="url(#paint24_linear_78_13822)"/>
<path d="M42.3906 30.7892C40.9042 30.6558 39.5976 30.9534 39.5937 31.9695C39.5898 32.9934 41.3881 34.8487 42.1271 34.9287C42.9687 35.0197 44.9773 33.2037 45.0964 32.3106C45.2154 31.4175 43.7803 30.9139 42.3906 30.7892Z" stroke="#10141C" stroke-width="1.01845"/>
<path d="M44.189 32.7281C44.9707 32.0314 43.731 31.4942 42.4171 31.41C40.0781 31.26 40.1366 31.9533 40.4306 32.412C40.5077 32.0606 41.2231 32.0528 42.3663 32.1456C43.4863 32.2366 44.2382 32.422 44.189 32.7281Z" fill="url(#paint25_linear_78_13822)" fill-opacity="0.6"/>
<path d="M25.1236 58.7452C23.5155 59.1239 22.7442 59.3103 22.4697 59.1927C22.1952 59.075 19.5283 53.8269 15.1927 53.8039C10.372 53.7783 5.95579 58.4411 7.30329 63.5852C8.51985 68.2296 13.268 71.9367 17.7028 71.6241C23.0077 71.25 28.412 68.1274 29.9416 66.6371C32.1483 64.7461 30.4589 58.0763 25.1236 58.7452Z" fill="url(#paint26_linear_78_13822)"/>
<path d="M30.0273 66.68C28.5118 68.1565 23.047 71.25 17.8915 71.6239C13.9103 71.9126 9.67513 68.8658 8.01622 64.9225C19.6681 48.789 19.9134 64.9269 24.4192 64.3187C28.6329 63.75 29.3653 62.2948 28.5408 59.5329C30.8106 61.0448 31.5428 65.2019 30.0273 66.68Z" fill="url(#paint27_linear_78_13822)" fill-opacity="0.6"/>
<path d="M25.1239 58.7452C23.5158 59.1239 22.6388 59.4391 22.47 59.1927C21.9533 58.4375 19.5286 53.8269 15.193 53.8039C10.3724 53.7783 5.95611 58.4411 7.30361 63.5852C8.52017 68.2296 13.2683 71.9367 17.7031 71.6241C23.008 71.25 28.4124 68.1274 29.9419 66.6371C32.2658 64.4336 30.303 57.92 25.1239 58.7452Z" stroke="#845221" stroke-width="1.01845" stroke-linecap="round" stroke-linejoin="round"/>
<path d="M7.83984 65.0964C9.58031 68.9514 13.7648 71.8996 17.7031 71.624C23.047 71.25 28.2339 67.919 29.9419 66.637C32.4611 64.7461 30.3712 56.7187 23.2098 59.1748" stroke="#5C310A" stroke-opacity="0.7" stroke-width="1.01845" stroke-linecap="round" stroke-linejoin="round"/>
<path d="M7.83984 65.0964C9.58031 68.9514 13.767 71.9307 17.7031 71.6241C23.008 71.211 28.4123 68.1274 29.9419 66.6371" stroke="#55300E" stroke-width="1.01845" stroke-linecap="round" stroke-linejoin="round"/>
<path d="M22.47 59.1926C22.47 59.1926 23.0345 59.8908 23.3626 61.9979" stroke="#855321" stroke-opacity="0.6" stroke-width="1.01845" stroke-linecap="round" stroke-linejoin="round"/>
<path d="M20.6988 60.6202C17.7672 55.6263 13.3615 56.1165 10.3774 58.1563C7.54151 60.0948 7.167 64.3871 9.14621 67.2227C12.4662 71.979 17.4631 72.2692 19.9556 70.0166C22.2943 67.9028 22.2533 63.2681 20.6988 60.6202Z" fill="#9A6E3A"/>
<path d="M20.6988 60.6202C17.7672 55.6263 13.3615 56.1165 10.3774 58.1563C7.54151 60.0948 7.167 64.3871 9.14621 67.2227C12.4662 71.979 17.4631 72.2692 19.9556 70.0166C22.2943 67.9028 22.2533 63.2681 20.6988 60.6202Z" stroke="#683F1B" stroke-width="1.049" stroke-linecap="round" stroke-linejoin="round"/>
<path d="M9.67554 66.5794C11.1324 67.0992 12.6901 65.8576 11.7204 64.2695C11.0883 63.234 9.06382 62.5396 8.22035 63.9318C7.61603 64.9295 8.54914 66.1774 9.67554 66.5794Z" fill="#1B1405"/>
<path d="M9.55966 65.5139C6.80329 63.9465 9.69019 61.85 11.672 64.1971C12.3547 65.379 10.9172 66.2858 9.55966 65.5139Z" fill="url(#paint28_radial_78_13822)"/>
<path d="M13.3222 59.7127C12.1331 58.5328 10.0452 59.0231 10.2729 61.0185C10.4215 62.3197 12.0869 63.9318 13.544 62.9649C14.5882 62.2721 14.2418 60.625 13.3222 59.7127Z" fill="#1B1405"/>
<path d="M14.1718 61.4517C14.2565 63.2483 10.9703 62.8154 10.6064 60.4336C10.2834 58.3196 13.9346 58.7018 14.1718 61.4517Z" fill="url(#paint29_radial_78_13822)"/>
<path d="M18.0602 59.3796C17.4643 57.9522 15.4973 57.636 14.9754 59.4221C14.6352 60.5866 15.4843 62.5512 17.0817 62.2378C18.2265 62.0133 18.5211 60.4833 18.0602 59.3796Z" fill="#1B1405"/>
<path d="M18.2447 60.0757C18.3304 62.021 15.2627 61.9909 15.4284 59.0632C15.5066 57.6822 18.0086 57.917 18.2447 60.0757Z" fill="url(#paint30_radial_78_13822)"/>
<path d="M19.7876 65.9944C19.784 64.3369 17.1657 62.9105 14.4404 64.3243C11.5761 65.8104 11.7196 69.3411 13.5293 69.8769C14.8671 70.2728 15.6629 69.3549 16.7832 68.4682C17.9035 67.5814 19.7911 67.6575 19.7876 65.9944Z" fill="#1B1405"/>
<path d="M19.6502 66.3248C19.2762 67.7324 14.0057 67.1152 14.3404 65.3672C14.6179 63.9188 16.3056 63.7127 16.9992 63.7633C18.6219 63.8821 19.9999 65.0087 19.6502 66.3248Z" fill="url(#paint31_radial_78_13822)"/>
<path d="M54.7884 59.3407C56.3965 59.7195 57.2262 59.8962 57.5008 59.7786C57.7753 59.6609 59.9833 54.5398 64.3189 54.5168C69.1395 54.4912 73.5558 59.027 72.2083 64.1711C70.9917 68.8154 66.2406 72.2504 61.8087 71.8975C57.3769 71.5445 51.8612 68.6937 50.3317 67.2034C48.125 65.3125 49.4531 58.6718 54.7884 59.3407Z" fill="url(#paint32_linear_78_13822)"/>
<path d="M50.2462 67.2464C51.7617 68.7229 57.2277 71.5479 61.6203 71.8973C65.5994 72.2153 69.8367 69.4517 71.4956 65.5084C59.8437 49.375 59.5703 65.664 55.0926 64.8753C51.8 64.2953 50.5469 62.8906 51.3714 60.1287C49.1016 61.6406 48.7308 65.7683 50.2462 67.2464Z" fill="url(#paint33_linear_78_13822)" fill-opacity="0.6"/>
<path d="M54.7884 59.3407C56.3966 59.7195 57.2262 59.8962 57.5008 59.7786C57.7753 59.6609 59.9833 54.5398 64.3189 54.5168C69.1395 54.4912 73.5558 59.027 72.2083 64.1711C70.9917 68.8154 66.2406 72.2504 61.8087 71.8975C57.3769 71.5445 51.8612 68.6937 50.3317 67.2034C48.0078 65 49.6094 58.5156 54.7884 59.3407Z" stroke="#855321" stroke-width="1.01845" stroke-linecap="round" stroke-linejoin="round"/>
<path d="M71.672 65.6823C69.9315 69.5373 65.7442 72.2109 61.8087 71.8975C57.3769 71.5445 52.0397 68.4855 50.3317 67.2034C47.8125 65.3125 49.7266 57.8906 55.3158 59.458" stroke="#5D320B" stroke-opacity="0.7" stroke-width="1.01845" stroke-linecap="round" stroke-linejoin="round"/>
<path d="M71.672 65.6825C69.9315 69.5375 65.7442 72.2111 61.8087 71.8977C57.3769 71.5447 51.8612 68.6939 50.3317 67.2036" stroke="#542F0D" stroke-width="1.01845" stroke-linecap="round" stroke-linejoin="round"/>
<path d="M57.5008 59.7787C57.5008 59.7787 56.9364 60.4768 56.6083 62.584" stroke="#855321" stroke-opacity="0.6" stroke-width="1.01845" stroke-linecap="round" stroke-linejoin="round"/>
<path d="M59.8696 61.0512C62.6754 56.1794 66.9935 56.8553 69.5193 58.6492C72.2384 60.5805 72.6527 64.7283 70.6755 67.4417C67.524 71.767 62.9524 71.9508 60.5326 69.7637C58.262 67.7116 58.7365 63.0187 59.8696 61.0512Z" fill="#9A6E3A"/>
<path d="M59.8696 61.0512C62.6754 56.1794 66.9935 56.8553 69.5193 58.6492C72.2384 60.5805 72.6527 64.7283 70.6755 67.4417C67.524 71.767 62.9524 71.9508 60.5326 69.7637C58.262 67.7116 58.7365 63.0187 59.8696 61.0512Z" stroke="#68401B" stroke-width="1.01845" stroke-linecap="round" stroke-linejoin="round"/>
<path d="M70.2007 66.8271C68.7863 67.3318 67.274 66.1263 68.2154 64.5844C68.8291 63.5791 70.7946 62.9049 71.6135 64.2566C72.2002 65.2252 71.2943 66.4368 70.2007 66.8271Z" fill="#1B1405"/>
<path d="M70.3132 65.7927C72.9893 64.271 70.1865 62.2355 68.2624 64.5143C67.5996 65.6618 68.9952 66.5421 70.3132 65.7927Z" fill="url(#paint34_radial_78_13822)"/>
<path d="M66.6603 60.1603C67.8148 59.0148 69.8418 59.4908 69.6207 61.4281C69.4765 62.6914 67.8596 64.2566 66.4449 63.3178C65.4312 62.6452 65.7674 61.0461 66.6603 60.1603Z" fill="#1B1405"/>
<path d="M65.8354 61.8489C65.7532 63.5931 68.9437 63.1728 69.297 60.8604C69.6106 58.8079 66.0657 59.179 65.8354 61.8489Z" fill="url(#paint35_radial_78_13822)"/>
<path d="M62.0602 59.8371C62.6388 58.4513 64.5485 58.1443 65.0552 59.8783C65.3855 61.009 64.5612 62.9163 63.0102 62.6121C61.8988 62.3941 61.6127 60.9087 62.0602 59.8371Z" fill="#1B1405"/>
<path d="M61.8812 60.5129C61.7979 62.4015 64.7763 62.3723 64.6154 59.5299C64.5395 58.1892 62.1104 58.4171 61.8812 60.5129Z" fill="url(#paint36_radial_78_13822)"/>
<path d="M60.3832 66.259C60.3867 64.6498 62.9287 63.265 65.5746 64.6376C68.3556 66.0804 68.2162 69.5082 66.4592 70.0284C65.1604 70.4128 64.3877 69.5217 63.3001 68.6607C62.2124 67.7998 60.3798 67.8737 60.3832 66.259Z" fill="#1B1405"/>
<path d="M60.5163 66.5796C60.8794 67.9462 65.9964 67.347 65.6714 65.6499C65.4021 64.2437 63.7635 64.0435 63.0901 64.0927C61.5147 64.2081 60.1768 65.3018 60.5163 66.5796Z" fill="url(#paint37_radial_78_13822)"/>
</g>
</g>
<defs>
<linearGradient id="paint0_linear_78_13822" x1="63.8569" y1="49.9108" x2="53.5019" y2="51.8183" gradientUnits="userSpaceOnUse">
<stop stop-color="#C68F3F"/>
<stop offset="0.25" stop-color="#B67E36"/>
<stop offset="0.51" stop-color="#A66E2C"/>
<stop offset="0.63" stop-color="#976127"/>
<stop offset="0.75" stop-color="#885522"/>
<stop offset="0.88" stop-color="#77481C"/>
<stop offset="1" stop-color="#653B15"/>
</linearGradient>
<linearGradient id="paint1_linear_78_13822" x1="58.3883" y1="58.9735" x2="59.2183" y2="41.9581" gradientUnits="userSpaceOnUse">
<stop stop-color="#FFEDA2"/>
<stop offset="0.5" stop-color="#FFEDA2" stop-opacity="0.5"/>
<stop offset="1" stop-color="#FFEDA2" stop-opacity="0"/>
</linearGradient>
<linearGradient id="paint2_linear_78_13822" x1="60.7319" y1="49.286" x2="50.9775" y2="54.7885" gradientUnits="userSpaceOnUse">
<stop stop-color="#653B15" stop-opacity="0"/>
<stop offset="0.5" stop-color="#653B15" stop-opacity="0.5"/>
<stop offset="1" stop-color="#653B15"/>
</linearGradient>
<linearGradient id="paint3_linear_78_13822" x1="55.2635" y1="6.31733" x2="56.9422" y2="28.8967" gradientUnits="userSpaceOnUse">
<stop stop-color="#D3A055"/>
<stop offset="0.47" stop-color="#AC7939"/>
<stop offset="1" stop-color="#84521E"/>
</linearGradient>
<linearGradient id="paint4_linear_78_13822" x1="54.0133" y1="19.1295" x2="56.4808" y2="7.97611" gradientUnits="userSpaceOnUse">
<stop stop-color="#FFEDA2"/>
<stop offset="0.5" stop-color="#FFEDA2" stop-opacity="0.5"/>
<stop offset="1" stop-color="#FFEDA2" stop-opacity="0"/>
</linearGradient>
<linearGradient id="paint5_linear_78_13822" x1="55.5758" y1="16.1608" x2="56.2042" y2="9.71907" gradientUnits="userSpaceOnUse">
<stop offset="0.4" stop-color="#DEB372"/>
<stop offset="0.74" stop-color="#B08548"/>
<stop offset="1" stop-color="#82571F"/>
</linearGradient>
<linearGradient id="paint6_linear_78_13822" x1="37.6071" y1="5.22339" x2="24.8485" y2="25.0328" gradientUnits="userSpaceOnUse">
<stop stop-color="#D3A055"/>
<stop offset="0.47" stop-color="#AB7939"/>
<stop offset="1" stop-color="#84521E"/>
</linearGradient>
<linearGradient id="paint7_linear_78_13822" x1="33.232" y1="15.5359" x2="33.7218" y2="5.49165" gradientUnits="userSpaceOnUse">
<stop stop-color="#FFEDA2"/>
<stop offset="0.5" stop-color="#FFEDA2" stop-opacity="0.5"/>
<stop offset="1" stop-color="#FFEDA2" stop-opacity="0"/>
</linearGradient>
<linearGradient id="paint8_linear_78_13822" x1="33.0757" y1="13.9733" x2="33.7042" y2="7.53161" gradientUnits="userSpaceOnUse">
<stop offset="0.4" stop-color="#DEB372"/>
<stop offset="0.74" stop-color="#B08548"/>
<stop offset="1" stop-color="#82571F"/>
</linearGradient>
<radialGradient id="paint9_radial_78_13822" cx="0" cy="0" r="1" gradientUnits="userSpaceOnUse" gradientTransform="translate(39.8128 49.442) scale(17.215 18.9083)">
<stop offset="0.3" stop-color="#BA8028"/>
<stop offset="0.82" stop-color="#92601F"/>
<stop offset="1" stop-color="#6A3F16"/>
</radialGradient>
<linearGradient id="paint10_linear_78_13822" x1="39.7944" y1="52.7234" x2="39.7944" y2="68.5378" gradientUnits="userSpaceOnUse">
<stop stop-color="#5C3511" stop-opacity="0"/>
<stop offset="0.5" stop-color="#5C3511" stop-opacity="0.5"/>
<stop offset="1" stop-color="#5C3511"/>
</linearGradient>
<radialGradient id="paint11_radial_78_13822" cx="0" cy="0" r="1" gradientUnits="userSpaceOnUse" gradientTransform="translate(40.6769 51.6297) scale(10.5043 11.3598)">
<stop offset="0.36" stop-color="#E6B56D"/>
<stop offset="0.8" stop-color="#B78B4E"/>
<stop offset="1" stop-color="#87612E"/>
</radialGradient>
<radialGradient id="paint12_radial_78_13822" cx="0" cy="0" r="1" gradientUnits="userSpaceOnUse" gradientTransform="translate(44.1725 36.7477) rotate(-0.601) scale(20.4808 11.7512)">
<stop offset="0.39" stop-color="#502D0D"/>
<stop offset="0.81" stop-color="#502D0D" stop-opacity="0.5"/>
<stop offset="1" stop-color="#502D0D" stop-opacity="0"/>
</radialGradient>
<linearGradient id="paint13_linear_78_13822" x1="16.5131" y1="42.7233" x2="22.4528" y2="51.6326" gradientUnits="userSpaceOnUse">
<stop stop-color="#C68F3F"/>
<stop offset="0.25" stop-color="#B67E36"/>
<stop offset="0.51" stop-color="#A66E2C"/>
<stop offset="0.63" stop-color="#976127"/>
<stop offset="0.75" stop-color="#885522"/>
<stop offset="0.88" stop-color="#77481C"/>
<stop offset="1" stop-color="#653B15"/>
</linearGradient>
<linearGradient id="paint14_linear_78_13822" x1="15.2631" y1="45.2232" x2="33.0227" y2="52.3496" gradientUnits="userSpaceOnUse">
<stop stop-color="#653B15" stop-opacity="0"/>
<stop offset="0.5" stop-color="#653B15" stop-opacity="0.5"/>
<stop offset="1" stop-color="#653B15"/>
</linearGradient>
<linearGradient id="paint15_linear_78_13822" x1="18.5444" y1="56.942" x2="19.3745" y2="39.9265" gradientUnits="userSpaceOnUse">
<stop stop-color="#FFEDA2"/>
<stop offset="0.5" stop-color="#FFEDA2" stop-opacity="0.5"/>
<stop offset="1" stop-color="#FFEDA2" stop-opacity="0"/>
</linearGradient>
<linearGradient id="paint16_linear_78_13822" x1="42.6459" y1="24.364" x2="42.6068" y2="41.6145" gradientUnits="userSpaceOnUse">
<stop stop-color="#C68F3F"/>
<stop offset="0.25" stop-color="#B67E36"/>
<stop offset="0.51" stop-color="#A66E2C"/>
<stop offset="0.63" stop-color="#976127"/>
<stop offset="0.75" stop-color="#885522"/>
<stop offset="0.88" stop-color="#77481C"/>
<stop offset="1" stop-color="#653B15"/>
</linearGradient>
<linearGradient id="paint17_linear_78_13822" x1="43.2319" y1="17.1765" x2="42.0984" y2="36.352" gradientUnits="userSpaceOnUse">
<stop stop-color="#CF9E55"/>
<stop offset="0.5" stop-color="#CF9E55" stop-opacity="0.5"/>
<stop offset="1" stop-color="#CF9E55" stop-opacity="0"/>
</linearGradient>
<linearGradient id="paint18_linear_78_13822" x1="44.0131" y1="11.3171" x2="43.385" y2="25.1471" gradientUnits="userSpaceOnUse">
<stop stop-color="#FFEDA2"/>
<stop offset="0.5" stop-color="#FFEDA2" stop-opacity="0.5"/>
<stop offset="1" stop-color="#FFEDA2" stop-opacity="0"/>
</linearGradient>
<linearGradient id="paint19_linear_78_13822" x1="49.3257" y1="31.4732" x2="49.4234" y2="29.8454" gradientUnits="userSpaceOnUse">
<stop stop-color="#604828"/>
<stop offset="0.5" stop-color="#604828" stop-opacity="0.5"/>
<stop offset="1" stop-color="#604828" stop-opacity="0"/>
</linearGradient>
<linearGradient id="paint20_linear_78_13822" x1="49.6382" y1="28.0356" x2="49.461" y2="29.4961" gradientUnits="userSpaceOnUse">
<stop offset="0.1" stop-color="white"/>
<stop offset="0.45" stop-color="white" stop-opacity="0.5"/>
<stop offset="0.8" stop-color="white" stop-opacity="0"/>
</linearGradient>
<linearGradient id="paint21_linear_78_13822" x1="36.2006" y1="30.067" x2="36.1692" y2="28.616" gradientUnits="userSpaceOnUse">
<stop stop-color="#604828"/>
<stop offset="0.5" stop-color="#604828" stop-opacity="0.5"/>
<stop offset="1" stop-color="#604828" stop-opacity="0"/>
</linearGradient>
<linearGradient id="paint22_linear_78_13822" x1="36.5131" y1="26.4732" x2="36.336" y2="27.9337" gradientUnits="userSpaceOnUse">
<stop offset="0.1" stop-color="white"/>
<stop offset="0.45" stop-color="white" stop-opacity="0.5"/>
<stop offset="0.8" stop-color="white" stop-opacity="0"/>
</linearGradient>
<linearGradient id="paint23_linear_78_13822" x1="42.4506" y1="30.067" x2="41.812" y2="41.0523" gradientUnits="userSpaceOnUse">
<stop offset="0.05" stop-color="#E9C890"/>
<stop offset="0.7" stop-color="#CAA66B"/>
<stop offset="1" stop-color="#AC8445"/>
</linearGradient>
<linearGradient id="paint24_linear_78_13822" x1="42.4506" y1="31.1609" x2="42.2379" y2="34.1392" gradientUnits="userSpaceOnUse">
<stop stop-color="#10141C"/>
<stop offset="0.45" stop-color="#252523"/>
<stop offset="0.9" stop-color="#3B362B"/>
</linearGradient>
<linearGradient id="paint25_linear_78_13822" x1="42.6068" y1="31.1609" x2="42.486" y2="32.46" gradientUnits="userSpaceOnUse">
<stop stop-color="#C6B782"/>
<stop offset="0.5" stop-color="#C6B782" stop-opacity="0.5"/>
<stop offset="1" stop-color="#C6B782" stop-opacity="0"/>
</linearGradient>
<linearGradient id="paint26_linear_78_13822" x1="18.6234" y1="54.9499" x2="18.6234" y2="70.2617" gradientUnits="userSpaceOnUse">
<stop stop-color="#C68F3F"/>
<stop offset="0.22" stop-color="#B67E36"/>
<stop offset="0.53" stop-color="#A66E2C"/>
<stop offset="0.67" stop-color="#976127"/>
<stop offset="0.8" stop-color="#885522"/>
<stop offset="0.9" stop-color="#77481C"/>
<stop offset="1" stop-color="#653B15"/>
</linearGradient>
<linearGradient id="paint27_linear_78_13822" x1="18.78" y1="59.9498" x2="19.5683" y2="70.9858" gradientUnits="userSpaceOnUse">
<stop offset="0.28" stop-color="#653B15" stop-opacity="0"/>
<stop offset="0.64" stop-color="#653B15" stop-opacity="0.5"/>
<stop offset="1" stop-color="#653B15"/>
</linearGradient>
<radialGradient id="paint28_radial_78_13822" cx="0" cy="0" r="1" gradientUnits="userSpaceOnUse" gradientTransform="translate(10.093 64.313) rotate(-180) scale(1.53615)">
<stop stop-color="#373228"/>
<stop offset="0.64" stop-color="#373228" stop-opacity="0.5"/>
<stop offset="1" stop-color="#373228" stop-opacity="0"/>
</radialGradient>
<radialGradient id="paint29_radial_78_13822" cx="0" cy="0" r="1" gradientUnits="userSpaceOnUse" gradientTransform="translate(12.346 60.6115) rotate(-180) scale(1.73008)">
<stop stop-color="#373228"/>
<stop offset="0.64" stop-color="#373228" stop-opacity="0.5"/>
<stop offset="1" stop-color="#373228" stop-opacity="0"/>
</radialGradient>
<radialGradient id="paint30_radial_78_13822" cx="0" cy="0" r="1" gradientUnits="userSpaceOnUse" gradientTransform="translate(16.6915 59.8068) rotate(-180) scale(1.55128)">
<stop stop-color="#373228"/>
<stop offset="0.64" stop-color="#373228" stop-opacity="0.5"/>
<stop offset="1" stop-color="#373228" stop-opacity="0"/>
</radialGradient>
<radialGradient id="paint31_radial_78_13822" cx="0" cy="0" r="1" gradientUnits="userSpaceOnUse" gradientTransform="translate(17.0083 65.4398) rotate(-180) scale(2.55887 1.71002)">
<stop stop-color="#373228"/>
<stop offset="0.64" stop-color="#373228" stop-opacity="0.5"/>
<stop offset="1" stop-color="#373228" stop-opacity="0"/>
</radialGradient>
<linearGradient id="paint32_linear_78_13822" x1="60.8881" y1="55.5357" x2="60.8881" y2="70.8476" gradientUnits="userSpaceOnUse">
<stop stop-color="#C68F3F"/>
<stop offset="0.22" stop-color="#B67E36"/>
<stop offset="0.53" stop-color="#A66E2C"/>
<stop offset="0.67" stop-color="#976127"/>
<stop offset="0.8" stop-color="#885522"/>
<stop offset="0.9" stop-color="#77481C"/>
<stop offset="1" stop-color="#653B15"/>
</linearGradient>
<linearGradient id="paint33_linear_78_13822" x1="60.7319" y1="60.5358" x2="59.9436" y2="71.5717" gradientUnits="userSpaceOnUse">
<stop offset="0.28" stop-color="#653B15" stop-opacity="0"/>
<stop offset="0.64" stop-color="#653B15" stop-opacity="0.5"/>
<stop offset="1" stop-color="#653B15"/>
</linearGradient>
<radialGradient id="paint34_radial_78_13822" cx="0" cy="0" r="1" gradientUnits="userSpaceOnUse" gradientTransform="translate(69.7954 64.6268) scale(1.49141)">
<stop stop-color="#373228"/>
<stop offset="0.64" stop-color="#373228" stop-opacity="0.5"/>
<stop offset="1" stop-color="#373228" stop-opacity="0"/>
</radialGradient>
<radialGradient id="paint35_radial_78_13822" cx="0" cy="0" r="1" gradientUnits="userSpaceOnUse" gradientTransform="translate(67.6081 61.0331) scale(1.67969)">
<stop stop-color="#373228"/>
<stop offset="0.64" stop-color="#373228" stop-opacity="0.5"/>
<stop offset="1" stop-color="#373228" stop-opacity="0"/>
</radialGradient>
<radialGradient id="paint36_radial_78_13822" cx="0" cy="0" r="1" gradientUnits="userSpaceOnUse" gradientTransform="translate(63.3891 60.2518) scale(1.50609)">
<stop stop-color="#373228"/>
<stop offset="0.64" stop-color="#373228" stop-opacity="0.5"/>
<stop offset="1" stop-color="#373228" stop-opacity="0"/>
</radialGradient>
<radialGradient id="paint37_radial_78_13822" cx="0" cy="0" r="1" gradientUnits="userSpaceOnUse" gradientTransform="translate(63.0813 65.7204) scale(2.48434 1.66021)">
<stop stop-color="#373228"/>
<stop offset="0.64" stop-color="#373228" stop-opacity="0.5"/>
<stop offset="1" stop-color="#373228" stop-opacity="0"/>
</radialGradient>
<clipPath id="clip0_78_13822">
<rect width="80" height="80" fill="white"/>
</clipPath>
</defs>
</svg>
