<svg width="80" height="80" viewBox="0 0 80 80" fill="none" xmlns="http://www.w3.org/2000/svg">
<g clip-path="url(#clip0_78_12709)">
<mask id="mask0_78_12709" style="mask-type:luminance" maskUnits="userSpaceOnUse" x="0" y="0" width="80" height="80">
<path d="M80 0H0V80H80V0Z" fill="white"/>
</mask>
<g mask="url(#mask0_78_12709)">
<mask id="mask1_78_12709" style="mask-type:luminance" maskUnits="userSpaceOnUse" x="-25" y="-33" width="140" height="140">
<path d="M56.874 -32.6586L114.265 24.7329L32.6619 106.336L-24.7295 48.9449L56.874 -32.6586Z" fill="white"/>
</mask>
<g mask="url(#mask1_78_12709)">
<path d="M32.0674 39.9971C33.7072 40.196 43.5064 30.8815 43.5064 30.8815L45.0995 32.4674C45.0995 32.4674 34.9827 42.9337 34.669 44.1774C34.5042 44.1379 31.8564 46.6332 31.64 46.6799C31.4167 46.9411 29.095 49.3618 28.9438 49.6299C28.2428 49.4992 19.5454 56.5344 19.5454 56.5344L17.9797 54.91C18.4952 53.934 28.0508 44.0738 28.52 43.5584C28.6329 43.4343 29.6815 42.3805 29.7649 42.2953C29.9211 42.1355 32.0674 39.9971 32.0674 39.9971Z" fill="url(#paint0_linear_78_12709)"/>
<path d="M32.0674 39.9971C33.7072 40.196 43.5064 30.8815 43.5064 30.8815L45.0995 32.4674C45.0995 32.4674 34.9827 42.9337 34.669 44.1774C34.5042 44.1379 31.8564 46.6332 31.64 46.6799C31.4167 46.9411 29.095 49.3618 28.9438 49.6299C28.2428 49.4992 19.5454 56.5344 19.5454 56.5344L17.9797 54.91C18.4952 53.934 28.0508 44.0738 28.52 43.5584C28.6329 43.4343 29.6815 42.3805 29.7649 42.2953C29.9211 42.1355 32.0674 39.9971 32.0674 39.9971Z" stroke="#7F0012" stroke-width="1.03327" stroke-linecap="round" stroke-linejoin="round"/>
<path d="M45.1799 32.5648C45.1799 32.5648 35.187 41.9386 33.6942 41.6667C33.6942 41.6667 20.5226 54.9727 19.5902 56.6512C19.5902 56.6512 28.0262 49.7672 28.8411 49.863C28.8411 49.863 32.0271 46.4483 32.2292 46.2462L34.6794 44.39C34.6794 44.39 43.9569 34.1959 45.1799 32.5648Z" fill="url(#paint1_linear_78_12709)"/>
<path d="M45.1799 32.5648C45.1799 32.5648 35.187 41.9386 33.6942 41.6667C33.6942 41.6667 20.5226 54.9727 19.5902 56.6512C19.5902 56.6512 28.0262 49.7672 28.8411 49.863C28.8411 49.863 32.0271 46.4483 32.2292 46.2462L34.6794 44.39C34.6794 44.39 43.9569 34.1959 45.1799 32.5648Z" stroke="#7F0012" stroke-width="1.03327" stroke-linecap="round" stroke-linejoin="round"/>
<path d="M48.1362 60.1043C47.1219 51.7472 51.7923 46.7082 51.7923 46.7082L51.7364 46.6523C51.7364 46.6523 43.7312 52.6719 37.3921 54.2699C37.5941 55.1099 38.0143 56.2587 37.7761 57.3625C36.445 58.5006 34.7917 59.6495 33.4253 60.4203C34.0911 63.9931 33.3551 71.5195 33.3551 71.5195L33.4392 71.3794C38.4136 68.7524 42.6431 65.2909 45.2698 62.8997C45.9017 62.3244 46.441 61.8109 46.8755 61.3861C47.6897 60.5898 48.1362 60.1043 48.1362 60.1043Z" stroke="#7F0012" stroke-width="1.03327" stroke-linecap="round" stroke-linejoin="round"/>
<path d="M37.4573 57.2896C37.4573 57.2896 37.6086 55.8268 37.0235 53.7464C39.7664 52.8665 45.4988 50.7412 51.6045 46.7496C51.433 46.8942 49.9545 48.2651 48.9434 51.0629C48.9434 51.0629 48.9434 51.0629 48.9423 51.064C48.8807 51.1324 46.5648 53.6904 37.4573 57.2896ZM33.1328 71.5815C33.1328 71.5815 33.2269 70.9246 33.3334 69.8429L33.3345 69.8418C42.8265 64.0645 46.6298 59.3421 46.6298 59.3421C45.4663 52.8945 48.1341 48.6843 48.1734 48.6204C49.3615 47.9591 50.5867 47.2248 51.8287 46.4133C51.5238 46.6711 47.0782 50.8096 48.4939 59.9731C48.4939 59.9731 42.7682 66.4274 33.1328 71.5815ZM48.1364 59.7613C48.1364 59.7613 37.7061 65.9836 33.6977 65.9701L48.1364 59.7613ZM51.6803 46.5962C51.6803 46.5962 46.8698 53.7929 48.4445 60.2445C48.4445 60.2445 41.7694 66.8517 33.215 71.6037C33.215 71.6037 33.6988 64.1616 33.2109 60.0087C33.2109 60.0087 36.676 57.9331 37.7059 56.9032L36.9187 53.9909C36.9187 53.9909 43.3676 52.8296 51.6803 46.5962Z" fill="url(#paint2_linear_78_12709)"/>
<g opacity="0.4">
<path d="M37.4573 57.2897C37.4573 57.2897 37.6086 55.8269 37.0235 53.7464C39.7664 52.8665 45.4988 50.7412 51.6045 46.7496C51.433 46.8942 49.9545 48.2651 48.9435 51.0629C48.9435 51.0629 48.9435 51.0629 48.9423 51.0641C48.8807 51.1324 46.5648 53.6904 37.4573 57.2897Z" fill="#7F0012"/>
</g>
<g opacity="0.4">
<path d="M33.1327 71.5815C33.1327 71.5815 33.2269 70.9246 33.3334 69.8429L33.3345 69.8418C42.8272 64.0648 46.6298 59.3421 46.6298 59.3421C45.4663 52.8945 48.1341 48.6843 48.1733 48.6204C49.3615 47.9591 50.5867 47.2249 51.8287 46.4133C51.5238 46.6711 47.0782 50.8096 48.4939 59.9732C48.4939 59.9732 42.7682 66.4275 33.1327 71.5815Z" fill="#FFF89C"/>
</g>
<g opacity="0.1">
<path d="M48.1368 59.7616C48.1368 59.7616 37.706 65.9829 33.6977 65.97" stroke="#7F0012" stroke-width="0.774949" stroke-linecap="round" stroke-linejoin="round"/>
</g>
<path d="M51.6803 46.5963C51.6803 46.5963 46.8698 53.793 48.4445 60.2446C48.4445 60.2446 41.7694 66.8518 33.2151 71.6037C33.2151 71.6037 33.6988 64.1617 33.2109 60.0088C33.2109 60.0088 36.676 57.9331 37.7059 56.9032L36.9187 53.991C36.9187 53.991 43.3676 52.8297 51.6803 46.5963Z" stroke="#7F0012" stroke-width="1.03327" stroke-linecap="round" stroke-linejoin="round"/>
<path d="M33.1943 60.0702C33.1943 60.0702 33.7408 67.7626 33.2083 71.6578" stroke="#BC001B" stroke-width="1.03327" stroke-linecap="round"/>
<path d="M19.1535 32.1866C27.5106 33.2009 34.8335 28.3483 34.8335 28.3483L34.8334 28.2361C34.8334 28.2361 27.3706 37.5444 25.7726 43.8834C24.9326 43.6814 24.0359 43.7376 22.9322 43.9758C21.7941 45.3069 20.9254 46.68 20.1546 48.0464C16.5818 47.3806 6.84158 48.649 6.84158 48.649L6.9817 48.565C9.6087 43.5905 13.9668 37.6798 16.358 35.0531C16.9334 34.421 17.4469 33.8817 17.8717 33.4473C18.668 32.633 19.1535 32.1866 19.1535 32.1866Z" stroke="#7F0012" stroke-width="1.03327" stroke-linecap="round" stroke-linejoin="round"/>
<path d="M34.703 28.3979C34.703 28.3979 33.6785 29.456 30.5511 30.7742C30.5511 30.7742 25.7311 36 22.9523 43.592C23.5812 43.573 25.6056 43.7658 27.0616 44.1144C28.0985 41.367 29.2811 34.8174 34.703 28.3979ZM36.1277 27.1323C36.1277 27.1323 34.4519 28.8642 30.0657 30.8673C24.3815 33.4622 18.9585 31.9064 18.9585 31.9064C18.9585 31.9064 12.9066 36.9225 6.66414 48.9086C6.66414 48.9086 7.45328 48.727 8.81408 48.5275C14.4064 38.1645 19.2544 34.2827 19.2544 34.2827C28.3417 35.5886 32.4937 31.8896 33.5686 30.8594L33.5697 30.8583C34.3342 29.6365 35.185 28.3889 36.1277 27.1323ZM19.8485 32.6507C19.8485 32.6507 13.6262 43.0809 13.6397 47.0893L19.8485 32.6507ZM34.9612 28.196C34.9612 28.196 26.5808 33.336 18.9729 31.9502C18.9729 31.9502 11.469 40.1386 6.71705 48.6929C6.71705 48.6929 15.8685 47.4525 20.0214 47.9404C20.0214 47.9404 22.0691 44.7274 23.0989 43.6976L27.3283 43.7843C27.3283 43.7843 28.7278 36.5087 34.9612 28.196Z" fill="url(#paint3_linear_78_12709)"/>
<g opacity="0.4">
<path d="M34.7026 28.3981C34.7026 28.3981 33.6787 29.4553 30.5518 30.7742C30.5518 30.7742 25.7318 35.9996 22.953 43.592C23.5816 43.5727 25.6064 43.7659 27.0616 44.115C28.0987 41.3678 29.2814 34.8163 34.7026 28.3981Z" fill="#7F0012"/>
</g>
<g opacity="0.4">
<path d="M36.1283 27.1318C36.1283 27.1318 34.4526 28.864 30.0663 30.8666C24.3821 33.4616 18.9579 31.9068 18.9579 31.9068C18.9579 31.9068 12.907 36.9217 6.66321 48.9087C6.66321 48.9087 7.45358 48.7261 8.81494 48.5271C14.4058 38.1645 19.2549 34.282 19.2549 34.282C28.341 35.5889 32.4933 31.8902 33.5688 30.8606L33.5699 30.8595C34.3352 29.6362 35.1852 28.3879 36.1283 27.1318Z" fill="#FFF89C"/>
</g>
<g opacity="0.1">
<path d="M19.8483 32.6501C19.8483 32.6501 13.627 43.0809 13.6399 47.0892" stroke="#7F0012" stroke-width="0.774949" stroke-linecap="round" stroke-linejoin="round"/>
</g>
<path d="M34.9614 28.1959C34.9614 28.1959 26.581 33.3359 18.9731 31.9501C18.9731 31.9501 11.4692 40.1384 6.71726 48.6928C6.71726 48.6928 15.8687 47.4524 20.0217 47.9403C20.0217 47.9403 22.0694 44.7273 23.0992 43.6975L27.3285 43.7841C27.3285 43.7841 28.728 36.5085 34.9614 28.1959Z" stroke="#7F0012" stroke-width="1.03327" stroke-linecap="round" stroke-linejoin="round"/>
<path d="M18.679 32.2766C17.2478 33.8793 10.911 41.1436 6.71727 48.6929C6.71727 48.6929 15.8687 47.4525 20.0217 47.9404C20.0217 47.9404 22.0694 44.7274 23.0992 43.6976C23.0992 43.6976 24.7033 43.7305 25.9357 43.7558" stroke="#B80023" stroke-width="1.03327" stroke-linecap="round" stroke-linejoin="round"/>
<path d="M23.8601 49.3205C23.2225 49.2334 22.6302 49.2672 22.0938 49.3955C21.5573 49.5238 21.077 49.7463 20.6636 50.0365C20.336 50.2665 20.0505 50.539 19.8123 50.8406C19.5742 51.1423 19.3835 51.4731 19.2458 51.8199C19.2458 51.8199 18.3909 52.035 17.5709 52.5577C16.751 53.0802 15.966 53.9102 16.1056 55.1398C16.1056 55.1398 15.5943 55.3347 15.111 55.7627C14.6277 56.1908 14.1724 56.8521 14.2844 57.7846C14.2844 57.7846 13.4956 58.0802 12.8434 58.7469C12.1912 59.4136 11.6757 60.4513 12.2224 61.9356C12.2224 61.9356 11.5214 62.2859 10.9716 62.9794C10.4217 63.6728 10.0229 64.7093 10.627 66.0819C9.1845 67.1776 9.33308 67.9932 9.47354 68.9353C9.614 69.8774 9.74613 70.9464 8.27045 72.5495C8.62828 72.2144 9.92252 70.7393 11.3635 70.3962C11.3635 70.3962 14.9038 71.4283 16.38 68.9714C16.38 68.9714 18.4152 69.1391 19.5436 67.3226C19.5436 67.3226 22.8678 68.0992 24.5788 63.3182C24.5788 63.3182 27.0288 63.9608 28.088 61.7393C28.088 61.7393 30.1069 61.7004 31.3631 60.0965C31.8261 59.5054 32.1856 58.7015 32.3021 57.6088C32.7347 53.5512 26.8012 49.7228 23.8601 49.3205Z" fill="url(#paint4_radial_78_12709)"/>
<g opacity="0.5">
<path d="M18.4543 53.8024C17.4075 53.6193 17.1721 55.5688 17.9094 55.7722C18.6467 55.9756 19.6547 54.0123 18.4543 53.8024Z" fill="#FFF276"/>
</g>
<g opacity="0.5">
<path d="M16.2036 57.0973C15.1836 57.2201 14.4694 59.417 15.6527 59.9882C16.836 60.5593 18.0138 56.8794 16.2036 57.0973Z" fill="#FFF276"/>
</g>
<g opacity="0.5">
<path d="M16.8085 63.605C15.659 63.7854 16.4849 65.8293 18.5927 65.7076C19.6153 65.6485 18.4473 63.348 16.8085 63.605Z" fill="#FFF276"/>
</g>
<g opacity="0.5">
<path d="M15.2715 62.0574C15.1776 60.0617 12.9944 59.9217 12.7739 61.8708C12.5535 63.8199 15.4018 64.8285 15.2715 62.0574Z" fill="#FFF276"/>
</g>
<g opacity="0.5">
<path d="M13.7019 64.3727C12.8058 64.2389 13.1186 65.9951 14.0705 66.2094C15.0224 66.4237 14.9352 64.5569 13.7019 64.3727Z" fill="#FFF276"/>
</g>
<g opacity="0.5">
<path d="M17.4076 67.0965C17.4293 65.892 14.2563 65.8858 14.4673 67.1495C14.6784 68.4131 17.3859 68.301 17.4076 67.0965Z" fill="#FFF276"/>
</g>
<g opacity="0.5">
<path d="M11.5291 63.8132C10.3637 63.5958 10.2376 66.4846 11.7641 66.452C13.2907 66.4194 12.5923 64.0116 11.5291 63.8132Z" fill="#FFF276"/>
</g>
<g opacity="0.5">
<path d="M14.0199 67.481C13.981 66.607 11.9479 66.4344 11.7542 67.2522C11.6185 67.8258 14.0519 68.1996 14.0199 67.481Z" fill="#FFF276"/>
</g>
<g opacity="0.5">
<path d="M14.164 68.8624C13.6389 67.911 11.4017 68.1774 11.61 69.1627C11.8183 70.1479 14.8631 70.129 14.164 68.8624Z" fill="#FFF276"/>
</g>
<g opacity="0.5">
<path d="M10.5115 67.617C9.7293 67.5789 9.71073 68.9139 10.4864 69.0084C11.0516 69.0771 11.2 67.6505 10.5115 67.617Z" fill="#FFF276"/>
</g>
<path d="M23.6709 49.1315C23.4618 49.1019 23.2574 49.0852 23.0585 49.0806C22.8779 49.0764 22.7018 49.0821 22.5302 49.0971C22.3532 49.1124 22.1811 49.1376 22.0143 49.1719C21.7954 49.2169 21.5856 49.2774 21.3853 49.3517C21.0492 49.4766 20.7404 49.6401 20.4621 49.8348C19.806 50.2939 19.3195 50.9245 19.046 51.6201C19.046 51.6201 15.6137 52.4678 15.9068 54.9409C15.9068 54.9409 13.8554 55.7142 14.0898 57.5899C14.0898 57.5899 10.9246 58.7621 12.0383 61.7514C12.0383 61.7514 9.22747 63.1456 10.4557 65.9106C7.56704 68.0987 11.0699 69.1916 8.11988 72.399C8.47779 72.0639 9.77112 70.5879 11.2177 70.2504C11.2177 70.2504 14.7812 71.3055 16.2525 68.8437C16.2525 68.8437 18.2988 69.0225 19.4236 67.2025C19.4236 67.2025 22.7686 67.9998 24.464 63.2032C24.464 63.2032 26.9297 63.8616 27.983 61.6342C27.983 61.6342 30.0119 61.6053 31.2663 59.9995C31.4309 59.7888 31.5823 59.551 31.7139 59.2825C31.7999 59.107 31.8775 58.9185 31.9448 58.716C31.9897 58.5812 32.03 58.4404 32.0653 58.293C32.124 58.0483 32.1688 57.7858 32.1974 57.5041C32.6117 53.4282 26.629 49.5506 23.6709 49.1315Z" stroke="#F75C00" stroke-width="1.03327" stroke-linecap="round" stroke-linejoin="round"/>
<path d="M10.9374 56.74C10.5208 55.6293 7.72826 56.0765 8.16341 57.4375C8.59855 58.7985 11.4261 58.0427 10.9374 56.74Z" fill="#FFEE4D"/>
<path d="M10.9374 56.74C10.5208 55.6293 7.72826 56.0765 8.16341 57.4375C8.59855 58.7985 11.4261 58.0427 10.9374 56.74Z" stroke="#F75C00" stroke-width="1.03327" stroke-linecap="round" stroke-linejoin="round"/>
<path d="M20.0875 71.7912C19.1854 71.3957 17.3248 73.5088 18.3737 74.0432C19.4227 74.5777 21.1458 72.2551 20.0875 71.7912Z" fill="#FFEE4D"/>
<path d="M20.0875 71.7912C19.1854 71.3957 17.3248 73.5088 18.3737 74.0432C19.4227 74.5777 21.1458 72.2551 20.0875 71.7912Z" stroke="#F75C00" stroke-width="1.03327" stroke-linecap="round" stroke-linejoin="round"/>
<path d="M8.33656 60.7392C8.33656 60.8589 8.23971 60.9558 8.12 60.9558C8.00028 60.9558 7.90343 60.8589 7.90343 60.7392C7.90343 60.6195 8.00028 60.5226 8.12 60.5226C8.23971 60.5226 8.33656 60.6195 8.33656 60.7392Z" fill="#FFEE4D"/>
<path d="M8.33656 60.7392C8.33656 60.8589 8.23971 60.9558 8.12 60.9558C8.00028 60.9558 7.90343 60.8589 7.90343 60.7392C7.90343 60.6195 8.00028 60.5226 8.12 60.5226C8.23971 60.5226 8.33656 60.6195 8.33656 60.7392Z" stroke="#F75C00" stroke-width="1.03327" stroke-linecap="round" stroke-linejoin="round"/>
<mask id="mask2_78_12709" style="mask-type:luminance" maskUnits="userSpaceOnUse" x="-13" y="-21" width="116" height="116">
<path d="M44.7679 -20.5525L102.159 36.839L44.7679 94.2304L-12.6236 36.839L44.7679 -20.5525Z" fill="white"/>
</mask>
<g mask="url(#mask2_78_12709)">
<path d="M71.6404 26.011C71.3042 26.3472 70.7594 26.3472 70.4232 26.011C70.0871 25.6749 70.0871 25.1301 70.4232 24.7939C70.7594 24.4577 71.3042 24.4577 71.6404 24.7939C71.9765 25.1301 71.9765 25.6749 71.6404 26.011Z" fill="#101516"/>
<path d="M71.6405 25.576C71.4245 25.792 71.0743 25.792 70.8583 25.576C70.6423 25.36 70.6423 25.0099 70.8583 24.7939C71.0743 24.5779 71.4245 24.5779 71.6405 24.7939C71.8565 25.0099 71.8565 25.36 71.6405 25.576Z" fill="#E1EDF0"/>
<g opacity="0.3">
<path d="M56.6637 11.0204C56.3276 11.3566 55.7828 11.3566 55.4466 11.0204C55.1105 10.6843 55.1105 10.1395 55.4466 9.80331C55.7828 9.46715 56.3276 9.46715 56.6637 9.80331C56.9999 10.1395 56.9999 10.6843 56.6637 11.0204Z" fill="#101516"/>
</g>
<path d="M56.6639 10.5854C56.4479 10.8014 56.0977 10.8014 55.8817 10.5854C55.6657 10.3694 55.6657 10.0193 55.8817 9.80326C56.0977 9.58726 56.4479 9.58726 56.6639 9.80326C56.8799 10.0193 56.8799 10.3694 56.6639 10.5854Z" fill="#E1EDF0"/>
</g>
<mask id="mask3_78_12709" style="mask-type:luminance" maskUnits="userSpaceOnUse" x="-52" y="-16" width="150" height="149">
<path d="M22.8538 -15.7886L97.0592 58.4168L22.8538 132.622L-51.3517 58.4168L22.8538 -15.7886Z" fill="white"/>
</mask>
<g mask="url(#mask3_78_12709)">
<path d="M57.5992 44.4165C57.1645 44.8512 56.4601 44.8512 56.0255 44.4165C55.5908 43.9819 55.5908 43.2775 56.0255 42.8429C56.4601 42.4082 57.1645 42.4082 57.5992 42.8429C58.0338 43.2775 58.0338 43.9819 57.5992 44.4165Z" fill="#101516"/>
<path d="M57.5993 43.8539C57.32 44.1332 56.8672 44.1332 56.588 43.8539C56.3087 43.5746 56.3087 43.1219 56.588 42.8426C56.8672 42.5633 57.32 42.5633 57.5993 42.8426C57.8786 43.1219 57.8786 43.5746 57.5993 43.8539Z" fill="#E1EDF0"/>
<g opacity="0.3">
<path d="M38.2347 25.0343C37.8001 25.469 37.0957 25.469 36.661 25.0343C36.2264 24.5997 36.2264 23.8953 36.661 23.4607C37.0957 23.026 37.8001 23.026 38.2347 23.4607C38.6694 23.8953 38.6694 24.5997 38.2347 25.0343Z" fill="#101516"/>
</g>
<path d="M38.235 24.4717C37.9558 24.751 37.503 24.751 37.2237 24.4717C36.9444 24.1924 36.9444 23.7397 37.2237 23.4604C37.503 23.1811 37.9558 23.1811 38.235 23.4604C38.5143 23.7397 38.5143 24.1924 38.235 24.4717Z" fill="#E1EDF0"/>
</g>
<path d="M25.4443 45.3073L23.0267 47.8834C23.0267 47.8834 23.5858 49.9385 27.2166 53.5693C30.8286 57.1812 33.1112 57.9332 33.1112 57.9332L35.6392 55.6294L35.6588 53.9228L27.1089 45.3729L25.4443 45.3073Z" fill="#282828"/>
<path d="M27.9831 54.3356L31.3399 50.9789L34.3085 53.4149L30.9663 56.7571L27.9831 54.3356Z" fill="#1D4861"/>
<path d="M34.1029 53.6205L30.9662 56.7572L30.292 56.2693L33.4361 53.1252L34.1029 53.6205Z" fill="#60673A"/>
<path d="M27.322 46.2423L23.9566 49.6077L26.2147 52.5206L29.5661 49.1693L27.322 46.2423Z" fill="#2A5D77"/>
<path d="M29.2959 49.4391L26.2147 52.5203L25.6736 51.9792L28.7548 48.8979L29.2959 49.4391Z" fill="#8E7949"/>
<path d="M27.1896 46.375L23.9568 49.6078L23.6711 49.1317L26.8878 45.915L27.1896 46.375Z" fill="#60673A"/>
<path d="M31.0879 51.2309L27.9832 54.3356L26.2149 52.5205L29.2962 49.4392L31.0879 51.2309Z" fill="#A0A0A0"/>
<g opacity="0.5">
<path d="M25.4443 45.3073C25.4443 45.3073 26.0172 47.6212 29.7628 51.3668C33.5084 55.1123 35.6392 55.6294 35.6392 55.6294L35.6588 53.9228L27.1089 45.3729L25.4443 45.3073Z" fill="black"/>
</g>
<path d="M25.4443 45.3073L23.0267 47.8834C23.0267 47.8834 23.5858 49.9385 27.2166 53.5693C30.8286 57.1812 33.1112 57.9332 33.1112 57.9332L35.6392 55.6294L35.6588 53.9228L27.1089 45.3729L25.4443 45.3073Z" stroke="#0F0F0F" stroke-width="1.03327" stroke-linecap="round" stroke-linejoin="round"/>
<path d="M27.4231 46.3022C27.105 45.786 27.0153 45.16 27.1744 44.5749C28.1907 40.8372 32.9153 26.2978 47.1185 16.1075C50.3617 13.7805 54.4989 11.8022 57.5445 10.7499C64.6171 8.30604 69.9635 8.86291 71.5682 10.404C72.7576 11.5463 73.5375 16.4084 70.7216 24.0167C69.4418 27.475 67.108 31.5984 63.8246 35.734C54.2536 47.789 40.2822 52.675 36.4455 53.8349C35.8014 54.0298 35.1049 53.9186 34.5527 53.5341C32.9627 52.4267 29.5896 49.8194 27.4231 46.3022Z" fill="url(#paint5_linear_78_12709)"/>
<g opacity="0.3">
<path d="M36.445 53.8356C35.8005 54.0295 35.1044 53.9185 34.5518 53.5341C32.9623 52.4266 29.5894 49.8204 27.4227 46.3018C27.1043 45.7862 27.0158 45.1596 27.1749 44.5745C27.8419 42.1163 30.4503 35.3246 35.9686 27.8335C35.9686 27.8335 35.9084 27.9506 35.8001 28.1658C35.7283 28.3087 35.6349 28.4949 35.5239 28.7189C34.0997 31.5934 29.7494 40.6854 29.8674 44.2651C29.8952 45.1072 31.1946 46.6269 31.8744 46.8606C32.4677 47.0645 43.215 39.2429 44.8146 39.7306C46.4643 40.2336 34.7331 50.7147 35.6099 51.1084C37.493 51.9555 43.8884 43.2565 49.325 38.6835C49.4062 38.6151 53.0756 42.1328 53.1547 42.0647C60.0421 36.1424 65.8026 28.7314 69.0401 22.2253C69.2466 21.8106 67.8945 20.4996 68.1829 20.158C71.9667 15.6768 71.8011 11.5966 71.5681 10.4042C72.7574 11.5464 73.5376 16.409 70.7207 24.0167C69.4417 27.4748 67.108 31.5975 63.8248 35.7349C54.2543 47.7893 40.2819 52.6754 36.445 53.8356Z" fill="#000C66"/>
</g>
<path d="M55.4011 43.9972C45.2825 35.4883 37.9852 26.7809 37.0526 25.6533C39.7103 22.3522 43.0193 19.0477 47.1185 16.1075C50.3625 13.7804 54.4987 11.8031 57.5443 10.7506C57.5443 10.7506 64.4739 14.8508 70.7209 24.0166C69.4419 27.4747 67.108 31.5976 63.8248 35.7349C61.2422 38.9878 58.3379 41.7195 55.4011 43.9972Z" fill="url(#paint6_linear_78_12709)"/>
<g opacity="0.1">
<path d="M55.401 43.9973C53.2567 42.1937 51.239 40.3823 49.3827 38.6359C57.5897 39.8073 69.7884 26.3915 67.5104 19.7729C68.5753 21.0441 69.6581 22.4564 70.7207 24.0168C69.4417 27.4748 67.108 31.5976 63.8248 35.7349C61.2422 38.9879 58.3378 41.7196 55.401 43.9973Z" fill="#101516"/>
</g>
<g opacity="0.5">
<path d="M51.9012 39.3641C49.9033 37.5404 48.0634 35.7619 46.418 34.1089" stroke="#FFF88F" stroke-width="1.03327" stroke-linecap="round" stroke-linejoin="round"/>
</g>
<g opacity="0.5">
<path d="M58.4694 10.4441C58.4694 10.4441 64.7647 13.8105 71.0677 23.0424" stroke="#9FC6FF" stroke-width="1.03327" stroke-linecap="round" stroke-linejoin="round"/>
</g>
<g opacity="0.45">
<path d="M72.5077 16.9586C72.5077 16.9586 72.4741 13.188 71.0225 11.4123C69.5709 9.63649 63.3499 10.0406 59.2409 11.4531C56.8411 12.278 50.8068 13.853 41.1958 22.7648C37.8403 25.8761 32.5987 32.0804 32.5987 32.0804" stroke="white" stroke-width="1.03327" stroke-linecap="round" stroke-linejoin="round"/>
</g>
<path d="M27.4231 46.3022C27.105 45.786 27.0153 45.16 27.1744 44.5749C28.1907 40.8372 32.9153 26.2978 47.1185 16.1075C50.3617 13.7805 54.4989 11.8022 57.5445 10.7499C64.6171 8.30604 69.9635 8.86291 71.5682 10.404C72.7576 11.5463 73.5375 16.4084 70.7216 24.0167C69.4418 27.475 67.108 31.5984 63.8246 35.734C54.2536 47.789 40.2822 52.675 36.4455 53.8349C35.8014 54.0298 35.1049 53.9186 34.5527 53.5341C32.9627 52.4267 29.5896 49.8194 27.4231 46.3022Z" stroke="#00479B" stroke-width="1.03327" stroke-miterlimit="10"/>
<g opacity="0.5">
<path d="M36.4586 26.4021C37.9176 28.2023 39.9623 30.7236 45.1243 35.9123C47.8433 38.6454 52.5017 42.8675 54.5783 44.6197" stroke="#9FC6FF" stroke-width="1.03327" stroke-linecap="round" stroke-linejoin="round"/>
</g>
<path d="M72.2915 11.7924C72.926 13.9565 72.8826 18.1778 70.7217 24.0167C69.4418 27.475 67.108 31.5984 63.8246 35.734C54.2536 47.789 40.2823 52.6749 36.4455 53.8349C35.8014 54.0297 35.1049 53.9185 34.5527 53.5341C32.9627 52.4267 29.5896 49.8194 27.4231 46.3022C27.1051 45.786 27.0153 45.16 27.1745 44.5748C28.1907 40.8372 32.9153 26.2978 47.1185 16.1074" stroke="#001147" stroke-width="1.03327" stroke-linecap="round" stroke-linejoin="round"/>
<path d="M55.4011 43.9972C45.2825 35.4883 37.9852 26.7809 37.0526 25.6533C39.7103 22.3522 43.0193 19.0477 47.1185 16.1075C50.3625 13.7804 54.4987 11.8031 57.5443 10.7506C57.5443 10.7506 64.4739 14.8508 70.7209 24.0166C69.4419 27.4747 67.108 31.5976 63.8248 35.7349C61.2422 38.9878 58.3379 41.7195 55.4011 43.9972Z" stroke="#5C626D" stroke-width="1.03327" stroke-linecap="round" stroke-linejoin="round"/>
<path d="M70.0409 23.0424L70.721 24.0168C69.442 27.4748 67.1081 31.5977 63.8249 35.7351C61.2423 38.988 58.338 41.7197 55.4011 43.9974L54.8743 43.5387" stroke="#20242D" stroke-width="1.03327" stroke-linecap="round" stroke-linejoin="round"/>
<path d="M39.5836 46.1197L37.3418 49.4825L39.5836 46.1197ZM37.0055 51.7243L35.7725 52.9573L37.0055 51.7243ZM37.3473 53.0707C40.5157 46.2565 46.2717 41.1878 46.2717 41.1878L44.8146 39.7307C44.8146 39.7307 38.2947 45.8904 33.0205 50.5149C32.6408 51.2793 31.8946 52.3138 30.8837 53.199C29.7459 54.1953 28.3046 55.0044 27.8485 55.6286C23.4982 61.5834 20.1281 65.915 20.1281 65.915L21.5854 67.3722C26.3864 63.8022 31.2564 59.0721 34.1382 56.2824C34.8316 55.6112 35.4309 55.0184 35.9177 54.5304C36.8301 53.6161 37.3473 53.0707 37.3473 53.0707Z" fill="url(#paint7_linear_78_12709)"/>
<path d="M39.5836 46.1195L37.3418 49.4823L39.5836 46.1195Z" fill="#505459"/>
<path d="M39.5836 46.1195L37.3418 49.4823" stroke="#F8643E" stroke-width="1.16242"/>
<path d="M37.0055 51.7242L35.7725 52.9573" stroke="#FCB611" stroke-width="1.16242"/>
<path d="M37.3473 53.0707C40.5157 46.2565 46.2717 41.1878 46.2717 41.1878L44.8146 39.7307C44.8146 39.7307 38.2947 45.8904 33.0205 50.5149C32.6408 51.2793 31.8946 52.3138 30.8837 53.199C29.7459 54.1953 28.3046 55.0044 27.8485 55.6286C23.4982 61.5834 20.1281 65.915 20.1281 65.915L21.5854 67.3722C26.3864 63.8022 31.2564 59.0721 34.1382 56.2824C34.8316 55.6112 35.4309 55.0184 35.9177 54.5304C36.8301 53.6161 37.3473 53.0707 37.3473 53.0707Z" stroke="#BC001B" stroke-width="1.03327" stroke-linecap="round" stroke-linejoin="round"/>
<path d="M31.9648 49.6113C31.9648 49.6113 33.4332 51.4832 32.8481 49.4028C35.591 48.5229 37.89 43.917 43.9957 39.9253C43.8242 40.0699 44.0248 39.9074 44.2075 39.9377C44.2075 39.9377 41.181 42.3477 41.1799 42.3488C41.1183 42.4172 39.4974 43.843 31.9648 49.6113ZM35.4217 51.5976C35.4217 51.5976 31.2082 54.9816 24.0522 59.5416L35.4217 51.5976ZM44.8146 39.7305C44.8146 39.7305 39.0025 44.7432 35.8341 51.5573C35.8341 51.5573 28.6696 59.3437 20.5486 65.3825C20.5486 65.3825 23.6024 60.5916 27.242 55.553C27.242 55.553 29.8384 53.2812 30.8683 52.2513L32.8834 49.6192C32.8834 49.6192 36.502 45.9639 44.8146 39.7305Z" fill="url(#paint8_linear_78_12709)"/>
<g opacity="0.4">
<path d="M31.9648 49.6114C31.9648 49.6114 33.4332 51.4833 32.8481 49.4029C35.591 48.523 37.8906 43.9176 43.9963 39.926C43.8248 40.0706 44.0253 39.9075 44.2076 39.9378C44.2076 39.9378 41.1811 42.3478 41.1799 42.3489C41.1183 42.4173 39.4981 43.8433 31.9648 49.6114Z" fill="#7F0012"/>
</g>
<g opacity="0.4">
<path d="M35.4216 51.5982C35.4216 51.5982 31.2075 54.982 24.0516 59.5413" stroke="#BC001B" stroke-width="0.774949" stroke-linecap="round" stroke-linejoin="round"/>
</g>
<path d="M44.8146 39.7305C44.8146 39.7305 39.0025 44.7432 35.8341 51.5573C35.8341 51.5573 28.6696 59.3437 20.5486 65.3825C20.5486 65.3825 23.6024 60.5916 27.242 55.553C27.242 55.553 29.8384 53.2812 30.8683 52.2513L32.8834 49.6192C32.8834 49.6192 36.502 45.9639 44.8146 39.7305Z" stroke="#510013" stroke-width="1.03327" stroke-linecap="round" stroke-linejoin="round"/>
<path d="M57.3548 16.3774C55.0891 13.929 51.0896 13.5936 46.7749 17.0595C42.5708 20.4366 41.6013 24.8093 44.3858 27.5938C47.5068 30.7147 52.5581 29.6409 55.8778 26.5697C58.7628 23.9005 60.165 19.4142 57.3548 16.3774Z" fill="#FF1A1A"/>
<g opacity="0.4">
<path d="M44.6596 26.2281C43.535 27.9838 46.2683 30.0259 47.6093 28.1327C48.9504 26.2394 45.7842 24.4724 44.6596 26.2281Z" fill="#FFF89C"/>
</g>
<g opacity="0.4">
<path d="M57.76 21.2876C59.6478 21.6899 57.3503 26.0501 55.5514 24.8021C54.717 24.2232 54.9263 20.6837 57.76 21.2876Z" fill="#FFF89C"/>
</g>
<path d="M55.2499 17.3886C53.4329 15.5715 50.1258 16.4285 47.8008 18.348C45.4758 20.2675 44.121 23.3973 45.7331 25.3854C47.5588 27.637 51.2239 26.7309 53.5981 24.7134C55.9946 22.677 57.0697 19.2084 55.2499 17.3886Z" fill="url(#paint9_linear_78_12709)"/>
<g opacity="0.2">
<path d="M48.0574 18.0717C45.1042 20.1373 44.5541 22.8566 46.0154 25.6678C46.0154 25.6678 44.7269 21.9933 49.585 18.926C53.2966 16.5826 55.977 19.1888 55.9344 20.6538C56.7618 18.9043 54.0353 13.8904 48.0574 18.0717Z" fill="white"/>
</g>
<path d="M55.2598 17.3984C53.357 15.4957 49.9921 16.2948 47.6575 18.2047C45.323 20.1147 44.01 23.2863 45.7071 25.3594C47.6289 27.7072 51.3592 26.8662 53.7418 24.8571C56.1468 22.8292 57.1655 19.3041 55.2598 17.3984Z" stroke="black" stroke-width="1.03327" stroke-miterlimit="10"/>
<path d="M57.3548 16.3774C55.0891 13.929 51.0896 13.5936 46.7749 17.0595C42.5708 20.4366 41.6013 24.8093 44.3858 27.5938C47.5068 30.7147 52.5581 29.6409 55.8778 26.5697C58.7628 23.9005 60.165 19.4142 57.3548 16.3774Z" stroke="#AF0022" stroke-width="1.03327" stroke-miterlimit="10"/>
<path d="M46.775 17.0594C42.5708 20.4365 41.6013 24.8091 44.3858 27.5936C46.1007 29.3085 48.3984 29.7569 50.6714 29.3034" stroke="#7F0012" stroke-width="1.03327" stroke-linecap="round" stroke-linejoin="round"/>
<mask id="mask4_78_12709" style="mask-type:luminance" maskUnits="userSpaceOnUse" x="-13" y="-21" width="116" height="116">
<path d="M44.7679 -20.5525L102.159 36.839L44.7679 94.2304L-12.6236 36.839L44.7679 -20.5525Z" fill="white"/>
</mask>
<g mask="url(#mask4_78_12709)">
<g opacity="0.3">
<path d="M64.6065 18.907C64.2703 19.2431 63.7255 19.2431 63.3894 18.907C63.0532 18.5708 63.0532 18.026 63.3894 17.6898C63.7255 17.3537 64.2703 17.3537 64.6065 17.6898C64.9426 18.026 64.9426 18.5708 64.6065 18.907Z" fill="#101516"/>
</g>
<path d="M64.6066 18.472C64.3906 18.688 64.0404 18.688 63.8244 18.472C63.6084 18.256 63.6084 17.9058 63.8244 17.6898C64.0404 17.4738 64.3906 17.4738 64.6066 17.6898C64.8226 17.9058 64.8226 18.256 64.6066 18.472Z" fill="#E1EDF0"/>
<g opacity="0.3">
<path d="M60.0379 14.4226C59.7018 14.7587 59.157 14.7587 58.8208 14.4226C58.4847 14.0864 58.4847 13.5416 58.8208 13.2055C59.157 12.8693 59.7018 12.8693 60.0379 13.2055C60.3741 13.5416 60.3741 14.0864 60.0379 14.4226Z" fill="#101516"/>
</g>
<path d="M60.038 13.9875C59.822 14.2035 59.4718 14.2035 59.2558 13.9875C59.0398 13.7715 59.0398 13.4214 59.2558 13.2054C59.4718 12.9894 59.822 12.9894 60.038 13.2054C60.254 13.4214 60.254 13.7715 60.038 13.9875Z" fill="#E1EDF0"/>
<g opacity="0.5">
<path d="M69.1958 23.5662C68.8596 23.9024 68.3148 23.9024 67.9787 23.5662C67.6425 23.23 67.6425 22.6853 67.9787 22.3491C68.3148 22.0129 68.8596 22.0129 69.1958 22.3491C69.5319 22.6853 69.5319 23.23 69.1958 23.5662Z" fill="#101516"/>
</g>
<path d="M69.1959 23.1312C68.9799 23.3472 68.6297 23.3472 68.4137 23.1312C68.1977 22.9152 68.1977 22.565 68.4137 22.349C68.6297 22.133 68.9799 22.133 69.1959 22.349C69.4119 22.565 69.4119 22.9152 69.1959 23.1312Z" fill="#E1EDF0"/>
<g opacity="0.3">
<path d="M56.888 11.2586C56.5518 11.5947 56.007 11.5947 55.6709 11.2586C55.3347 10.9224 55.3347 10.3776 55.6709 10.0415C56.007 9.70531 56.5518 9.70531 56.888 10.0415C57.2241 10.3776 57.2241 10.9224 56.888 11.2586Z" fill="#101516"/>
</g>
<path d="M56.8883 10.8234C56.6723 11.0394 56.3221 11.0394 56.1061 10.8234C55.8901 10.6074 55.8901 10.2572 56.1061 10.0412C56.3221 9.82524 56.6723 9.82524 56.8883 10.0412C57.1043 10.2572 57.1043 10.6074 56.8883 10.8234Z" fill="#E1EDF0"/>
<path d="M71.6404 26.0108C71.3042 26.347 70.7595 26.347 70.4233 26.0108C70.0871 25.6747 70.0871 25.1299 70.4233 24.7937C70.7595 24.4576 71.3042 24.4576 71.6404 24.7937C71.9766 25.1299 71.9766 25.6747 71.6404 26.0108Z" fill="#101516"/>
<path d="M71.6405 25.576C71.4245 25.792 71.0743 25.792 70.8583 25.576C70.6423 25.36 70.6423 25.0098 70.8583 24.7938C71.0743 24.5778 71.4245 24.5778 71.6405 24.7938C71.8565 25.0098 71.8565 25.36 71.6405 25.576Z" fill="#E1EDF0"/>
</g>
<mask id="mask5_78_12709" style="mask-type:luminance" maskUnits="userSpaceOnUse" x="-52" y="-16" width="150" height="149">
<path d="M22.8538 -15.7886L97.0592 58.4168L22.8538 132.622L-51.3517 58.4168L22.8538 -15.7886Z" fill="white"/>
</mask>
<g mask="url(#mask5_78_12709)">
<g opacity="0.3">
<path d="M48.5045 35.2315C48.0698 35.6661 47.3655 35.6661 46.9308 35.2315C46.4962 34.7968 46.4962 34.0925 46.9308 33.6578C47.3655 33.2232 48.0698 33.2232 48.5045 33.6578C48.9391 34.0925 48.9391 34.7968 48.5045 35.2315Z" fill="#101516"/>
</g>
<path d="M48.5047 34.669C48.2254 34.9483 47.7726 34.9483 47.4934 34.669C47.2141 34.3897 47.2141 33.9369 47.4934 33.6576C47.7726 33.3784 48.2254 33.3784 48.5047 33.6576C48.784 33.9369 48.784 34.3897 48.5047 34.669Z" fill="#E1EDF0"/>
<g opacity="0.3">
<path d="M42.5975 29.4331C42.1629 29.8678 41.4585 29.8678 41.0238 29.4331C40.5892 28.9985 40.5892 28.2941 41.0238 27.8595C41.4585 27.4248 42.1629 27.4248 42.5975 27.8595C43.0322 28.2941 43.0322 28.9985 42.5975 29.4331Z" fill="#101516"/>
</g>
<path d="M42.5976 28.8707C42.3184 29.15 41.8656 29.15 41.5863 28.8707C41.307 28.5914 41.307 28.1387 41.5863 27.8594C41.8656 27.5801 42.3184 27.5801 42.5976 27.8594C42.8769 28.1387 42.8769 28.5914 42.5976 28.8707Z" fill="#E1EDF0"/>
<g opacity="0.5">
<path d="M54.4383 41.2558C54.0037 41.6904 53.2993 41.6904 52.8647 41.2558C52.43 40.8211 52.43 40.1168 52.8647 39.6821C53.2993 39.2474 54.0037 39.2474 54.4383 39.6821C54.873 40.1168 54.873 40.8211 54.4383 41.2558Z" fill="#101516"/>
</g>
<path d="M54.4385 40.6932C54.1592 40.9724 53.7064 40.9724 53.4271 40.6932C53.1478 40.4139 53.1478 39.9611 53.4271 39.6818C53.7064 39.4025 54.1592 39.4025 54.4385 39.6818C54.7178 39.9611 54.7178 40.4139 54.4385 40.6932Z" fill="#E1EDF0"/>
<g opacity="0.3">
<path d="M38.5249 25.3423C38.0903 25.777 37.3859 25.777 36.9513 25.3423C36.5166 24.9077 36.5166 24.2033 36.9513 23.7686C37.3859 23.334 38.0903 23.334 38.5249 23.7686C38.9596 24.2033 38.9596 24.9077 38.5249 25.3423Z" fill="#101516"/>
</g>
<path d="M38.525 24.7799C38.2457 25.0592 37.793 25.0592 37.5137 24.7799C37.2344 24.5006 37.2344 24.0478 37.5137 23.7685C37.793 23.4893 38.2457 23.4893 38.525 23.7685C38.8043 24.0478 38.8043 24.5006 38.525 24.7799Z" fill="#E1EDF0"/>
<path d="M57.5992 44.4167C57.1645 44.8513 56.4601 44.8513 56.0255 44.4167C55.5908 43.982 55.5908 43.2776 56.0255 42.843C56.4601 42.4083 57.1645 42.4083 57.5992 42.843C58.0338 43.2776 58.0338 43.982 57.5992 44.4167Z" fill="#101516"/>
<path d="M57.5993 43.854C57.32 44.1333 56.8672 44.1333 56.588 43.854C56.3087 43.5748 56.3087 43.122 56.588 42.8427C56.8672 42.5634 57.32 42.5634 57.5993 42.8427C57.8786 43.122 57.8786 43.5748 57.5993 43.854Z" fill="#E1EDF0"/>
</g>
</g>
</g>
</g>
<defs>
<linearGradient id="paint0_linear_78_12709" x1="18.62" y1="55.1005" x2="31.2864" y2="41.5934" gradientUnits="userSpaceOnUse">
<stop offset="0.41" stop-color="#FFEB16"/>
<stop offset="0.7" stop-color="#FBA30B"/>
<stop offset="1" stop-color="#F75C00"/>
</linearGradient>
<linearGradient id="paint1_linear_78_12709" x1="28.0618" y1="52.5359" x2="29.4896" y2="44.5612" gradientUnits="userSpaceOnUse">
<stop offset="0.41" stop-color="#FFF652"/>
<stop offset="0.7" stop-color="#FBA929"/>
<stop offset="1" stop-color="#F75C00"/>
</linearGradient>
<linearGradient id="paint2_linear_78_12709" x1="32.838" y1="61.0078" x2="39.2272" y2="60.111" gradientUnits="userSpaceOnUse">
<stop offset="0.41" stop-color="#FFEB16"/>
<stop offset="0.7" stop-color="#FBA30B"/>
<stop offset="1" stop-color="#F75C00"/>
</linearGradient>
<linearGradient id="paint3_linear_78_12709" x1="16.7018" y1="49.3343" x2="18.1297" y2="41.3596" gradientUnits="userSpaceOnUse">
<stop offset="0.41" stop-color="#FFF652"/>
<stop offset="0.7" stop-color="#FBA929"/>
<stop offset="1" stop-color="#F75C00"/>
</linearGradient>
<radialGradient id="paint4_radial_78_12709" cx="0" cy="0" r="1" gradientUnits="userSpaceOnUse" gradientTransform="translate(23.2612 56.7838) rotate(45) scale(7.2927 20.5898)">
<stop offset="0.41" stop-color="#FFF652"/>
<stop offset="0.7" stop-color="#FBA929"/>
<stop offset="1" stop-color="#F75C00"/>
</radialGradient>
<linearGradient id="paint5_linear_78_12709" x1="40.3404" y1="22.0989" x2="58.7171" y2="41.2071" gradientUnits="userSpaceOnUse">
<stop offset="0.25" stop-color="#3A93E8"/>
<stop offset="0.36" stop-color="#60ACE3"/>
<stop offset="0.52" stop-color="#85C5DF"/>
<stop offset="0.73" stop-color="#4387C2"/>
<stop offset="0.93" stop-color="#004AA4"/>
</linearGradient>
<linearGradient id="paint6_linear_78_12709" x1="45.7207" y1="16.4942" x2="64.0417" y2="35.4346" gradientUnits="userSpaceOnUse">
<stop offset="0.04" stop-color="#95A9B6"/>
<stop offset="0.26" stop-color="#C0CDD0"/>
<stop offset="0.53" stop-color="#EAF0EA"/>
<stop offset="0.72" stop-color="#919896"/>
<stop offset="0.93" stop-color="#374043"/>
</linearGradient>
<linearGradient id="paint7_linear_78_12709" x1="21.929" y1="65.4557" x2="35.4362" y2="52.7892" gradientUnits="userSpaceOnUse">
<stop offset="0.41" stop-color="#FFF652"/>
<stop offset="0.7" stop-color="#FBA929"/>
<stop offset="1" stop-color="#F75C00"/>
</linearGradient>
<linearGradient id="paint8_linear_78_12709" x1="25.8322" y1="57.4768" x2="30.2038" y2="54.4503" gradientUnits="userSpaceOnUse">
<stop offset="0.41" stop-color="#7F0012"/>
<stop offset="0.7" stop-color="#7F0012"/>
<stop offset="1" stop-color="#7F0012"/>
</linearGradient>
<linearGradient id="paint9_linear_78_12709" x1="50.6419" y1="16.9316" x2="51.3607" y2="23.6942" gradientUnits="userSpaceOnUse">
<stop stop-color="#525D66"/>
<stop offset="0.45" stop-color="#292E34"/>
<stop offset="0.93" stop-color="#000002"/>
</linearGradient>
<clipPath id="clip0_78_12709">
<rect width="80" height="80" fill="white"/>
</clipPath>
</defs>
</svg>
