<svg width="80" height="80" viewBox="0 0 80 80" fill="none" xmlns="http://www.w3.org/2000/svg">
<g clip-path="url(#clip0_78_13331)">
<mask id="mask0_78_13331" style="mask-type:luminance" maskUnits="userSpaceOnUse" x="0" y="0" width="80" height="80">
<path d="M80 0H0V80H80V0Z" fill="white"/>
</mask>
<g mask="url(#mask0_78_13331)">
<path d="M61.0792 70.097C61.0792 70.097 59.4839 67.9546 58.6485 67.4669C58.5412 67.4042 58.4465 67.3688 58.3692 67.3688H39.3337H20.2984C19.6198 67.3688 18.9915 67.7269 18.6457 68.3109L17.5883 70.097C17.4773 70.2842 17.4189 70.498 17.4189 70.7157L17.412 72.1551C17.608 73.2874 19.3013 73.1896 19.4892 73.1896H59.1783C59.3662 73.1896 61.208 73.2822 61.2409 72.245L61.2486 70.7157C61.2486 70.498 61.1902 70.2842 61.0792 70.097Z" fill="url(#paint0_linear_78_13331)"/>
<g opacity="0.5">
<path d="M25.4813 70.2792L19.1877 68.0557L19.0425 68.0043L23.3475 67.7003L25.4813 70.2792Z" fill="#550E00"/>
</g>
<g opacity="0.5">
<path d="M17.4412 70.3687L19.2169 71.0484C19.2169 71.0484 19.6794 71.1985 19.7944 71.199L58.9431 71.3405C59.0854 71.341 59.2259 71.3106 59.3551 71.2511L61.2485 70.3797C61.2485 70.3797 61.2482 71.541 61.226 72.2459C61.1124 73.0889 60.0926 73.1521 59.4642 73.1672C59.3456 73.1701 59.2409 73.1712 59.1589 73.1756C58.6427 73.2032 19.9776 73.2315 19.4891 73.1906C18.0331 73.0683 17.4712 72.7754 17.4396 72.2018C17.4267 71.9676 17.4188 71.2127 17.4188 71.2127L17.4237 71.0296L17.4412 70.3687Z" fill="#550E00"/>
</g>
<g opacity="0.5">
<path d="M19.4574 71.1379C19.4574 71.1379 19.482 72.9334 19.5004 73.2018C19.1899 73.2368 17.5841 73.1805 17.4405 72.21C17.3813 71.8086 17.4189 71.2127 17.4189 71.2127V70.7286V70.3798L19.2756 71.0702L19.4574 71.1379Z" fill="#550E00"/>
</g>
<path d="M59.3551 71.2511L59.36 73.1662C59.36 73.1662 61.1247 73.3266 61.2494 72.2213C61.2978 71.7923 61.2729 71.4377 61.2577 71.2886C61.2526 71.2396 61.2486 71.2127 61.2486 71.2127V70.3798L59.3551 71.2511Z" fill="#BF6121"/>
<path d="M61.0792 70.097C61.0792 70.097 59.4839 67.9546 58.6485 67.4669C58.5412 67.4042 58.4465 67.3688 58.3692 67.3688H39.3337H20.2984C19.6198 67.3688 18.9915 67.7269 18.6457 68.3109L17.5883 70.097C17.4773 70.2842 17.4189 70.498 17.4189 70.7157L17.412 72.1551C17.608 73.2874 19.3013 73.1896 19.4892 73.1896H59.1783C59.3662 73.1896 61.208 73.2822 61.2409 72.245L61.2486 70.7157C61.2486 70.498 61.1902 70.2842 61.0792 70.097Z" stroke="#550E00" stroke-width="1.09466" stroke-linecap="round" stroke-linejoin="round"/>
<path d="M55.5636 58.3269C55.5565 57.4735 54.8632 56.7864 54.0099 56.7864H24.9094C24.0561 56.7864 23.3626 57.4735 23.3556 58.3269C23.3353 60.8152 23.3589 65.7047 23.3668 67.1544C23.3682 67.42 23.4792 67.6714 23.6731 67.8526L25.4187 69.4823C25.5931 69.6453 25.823 69.7358 26.0618 69.7358H52.8575C53.0963 69.7358 53.3262 69.6453 53.5006 69.4823L55.2462 67.8526C55.4403 67.6714 55.551 67.42 55.5523 67.1544C55.5573 66.2222 55.5691 63.8683 55.5713 61.6446C55.5725 60.4098 55.5708 59.2153 55.5636 58.3269Z" fill="url(#paint1_linear_78_13331)"/>
<path d="M55.5636 58.3269C55.5565 57.4735 54.8632 56.7864 54.0099 56.7864H24.9094C24.0561 56.7864 23.3626 57.4735 23.3556 58.3269C23.3353 60.8152 23.3589 65.7047 23.3668 67.1544C23.3682 67.42 23.4792 67.6714 23.6731 67.8526L25.4187 69.4823C25.5931 69.6453 25.823 69.7358 26.0618 69.7358H52.8575C53.0963 69.7358 53.3262 69.6453 53.5006 69.4823L55.2462 67.8526C55.4403 67.6714 55.551 67.42 55.5523 67.1544C55.5573 66.2222 55.5691 63.8683 55.5713 61.6446C55.5725 60.4098 55.5708 59.2153 55.5636 58.3269Z" stroke="#550E00" stroke-width="1.09466" stroke-linecap="round" stroke-linejoin="round"/>
<path d="M55.5528 67.1544C55.5511 67.4198 55.4403 67.6717 55.2455 67.8531L53.5008 69.4823C53.3262 69.6453 53.0961 69.736 52.8577 69.736H52.6629V61.2338C52.6629 60.9835 52.4597 60.7803 52.2095 60.7803L55.5629 58.3264C55.5728 59.4632 55.573 61.1008 55.5696 62.6825C55.5656 64.5641 55.5565 66.3668 55.5528 67.1544Z" fill="#BF6121"/>
<path d="M55.5528 67.1544C55.5511 67.4198 55.4403 67.6717 55.2455 67.8531L53.5008 69.4823C53.3262 69.6453 53.0961 69.736 52.8577 69.736H52.6629V61.2338C52.6629 60.9835 52.4597 60.7803 52.2095 60.7803L55.5629 58.3264C55.5728 59.4632 55.573 61.1008 55.5696 62.6825C55.5656 64.5641 55.5565 66.3668 55.5528 67.1544Z" stroke="#BF6E2C" stroke-width="1.09466" stroke-linecap="round" stroke-linejoin="round"/>
<path d="M26.504 60.7803C26.2538 60.7803 26.0506 60.9835 26.0506 61.2338V69.736C25.8155 69.7326 25.5905 69.6419 25.4192 69.4823L24.3926 67.747C24.1995 67.5656 23.3689 67.4198 23.3672 67.1544C23.3588 65.7049 23.3353 60.8156 23.3555 58.3264L26.504 60.7803Z" fill="#672600"/>
<path d="M26.504 60.7803C26.2538 60.7803 26.0506 60.9835 26.0506 61.2338V69.736C25.8155 69.7326 25.5905 69.6419 25.4192 69.4823L24.3926 67.747C24.1995 67.5656 23.3689 67.4198 23.3672 67.1544C23.3588 65.7049 23.3353 60.8156 23.3555 58.3264L26.504 60.7803Z" stroke="#631F04" stroke-width="1.09466" stroke-linecap="round" stroke-linejoin="round"/>
<path d="M55.5636 58.3269C55.5565 57.4735 54.8632 56.7864 54.0099 56.7864H24.9094C24.0561 56.7864 23.3626 57.4735 23.3556 58.3269C23.3353 60.8152 23.3589 65.7047 23.3668 67.1544C23.3682 67.42 23.4792 67.6714 23.6731 67.8526L25.4187 69.4823C25.5931 69.6453 25.823 69.7358 26.0618 69.7358H52.8575C53.0963 69.7358 53.3262 69.6453 53.5006 69.4823L55.2462 67.8526C55.4403 67.6714 55.551 67.42 55.5523 67.1544C55.5573 66.2222 55.5691 63.8683 55.5713 61.6446C55.5725 60.4098 55.5708 59.2153 55.5636 58.3269Z" stroke="#550E00" stroke-width="1.09466" stroke-linecap="round" stroke-linejoin="round"/>
<path d="M52.6634 69.7359H26.0505V61.2337C26.0505 60.9831 26.2537 60.7799 26.5043 60.7799H52.2096C52.4602 60.7799 52.6634 60.9831 52.6634 61.2337V69.7359Z" fill="url(#paint2_linear_78_13331)"/>
<path d="M52.6634 69.7359H26.0505V61.2337C26.0505 60.9831 26.2537 60.7799 26.5043 60.7799H52.2096C52.4602 60.7799 52.6634 60.9831 52.6634 61.2337V69.7359Z" stroke="#672600" stroke-width="1.09466" stroke-linecap="round" stroke-linejoin="round"/>
<g opacity="0.2">
<path d="M52.6627 61.2332V62.9951C52.6627 62.7448 52.4595 62.5416 52.2093 62.5416H26.5038C26.2536 62.5416 26.0504 62.7448 26.0504 62.9951V61.2332C26.0504 60.9829 26.2536 60.7797 26.5038 60.7797H52.2093C52.4595 60.7797 52.6627 60.9829 52.6627 61.2332Z" fill="#672600"/>
</g>
<path d="M55.5636 58.3269C55.5565 57.4735 54.8632 56.7864 54.0099 56.7864H24.9094C24.0561 56.7864 23.3626 57.4735 23.3556 58.3269C23.3353 60.8152 23.3589 65.7047 23.3668 67.1544C23.3682 67.42 23.4792 67.6714 23.6731 67.8526L25.4187 69.4823C25.5931 69.6453 25.823 69.7358 26.0618 69.7358H52.8575C53.0963 69.7358 53.3262 69.6453 53.5006 69.4823L55.2462 67.8526C55.4403 67.6714 55.551 67.42 55.5523 67.1544C55.5573 66.2222 55.5691 63.8683 55.5713 61.6446C55.5725 60.4098 55.5708 59.2153 55.5636 58.3269Z" stroke="#6B2100" stroke-width="1.09466" stroke-linecap="round" stroke-linejoin="round"/>
<path d="M23.3556 58.327C23.3353 60.8154 23.3589 65.7049 23.3668 67.1545C23.3682 67.4201 23.4792 67.6715 23.6731 67.8527L25.4187 69.4825C25.5931 69.6454 25.823 69.7359 26.0618 69.7359H52.8575" stroke="#470A00" stroke-width="1.09466" stroke-linecap="round" stroke-linejoin="round"/>
<path d="M52.6634 69.7359H26.0505V61.2337C26.0505 60.9831 26.2537 60.7799 26.5043 60.7799" stroke="#470A00" stroke-width="1.09466" stroke-linecap="round" stroke-linejoin="round"/>
<path d="M61.0642 18.3074C61.0642 18.3074 59.7423 16.8724 60.6178 15.6073C61.5628 14.2418 64.8195 14.4511 65.9711 16.3543C67.1227 18.2574 66.3216 21.1621 62.7165 23.9166C59.1115 26.6712 56.5621 28.2696 55.1101 30.423C53.6581 32.5765 55.0063 34.5596 57.0585 34.5798C58.7041 34.5961 59.4619 33.6325 59.4619 33.6325C59.4619 33.6325 57.3485 33.8072 57.359 32.4306C57.3679 31.269 60.738 29.9896 64.469 27.5226C66.7279 26.029 71.3787 22.7562 71.3787 18.2073C71.3787 14.3487 68.1576 11.0404 63.2672 11.3919C58.3769 11.7434 57.7653 14.7296 57.9097 16.0036C58.107 17.7437 60.1629 18.8583 61.0642 18.3074Z" fill="url(#paint3_radial_78_13331)"/>
<g opacity="0.7">
<path d="M65.9422 23.694C62.0939 27.1955 57.2245 29.056 55.7862 30.782C54.3494 32.5065 55.2794 34.5385 57.0576 34.5802C55.006 34.5601 53.6573 32.576 55.1095 30.4235C56.5617 28.2695 59.1108 26.6717 62.7165 23.9165C66.3207 21.1629 67.1225 18.2579 65.9716 16.3541C64.8191 14.452 61.5625 14.2418 60.617 15.6078C59.7426 16.8718 61.0635 18.3073 61.0635 18.3073C61.0635 18.3073 58.8053 17.8753 59.5974 15.6758C60.4812 13.2216 65.4664 12.2098 67.7915 15.3544C69.9543 18.2826 68.2549 21.5909 65.9422 23.694Z" fill="url(#paint4_radial_78_13331)"/>
</g>
<path d="M63.9546 13.6054C62.1497 12.9347 59.6617 13.5613 59.1599 15.4227C58.888 16.4314 59.237 18.3112 61.0641 18.3075C61.0641 18.3075 59.4009 15.9651 61.0613 15.0838C62.7218 14.2026 65.0924 14.6691 65.971 16.3543C65.971 16.3543 66.0406 14.3806 63.9546 13.6054Z" fill="#FED759"/>
<path d="M61.0642 18.3074C61.0642 18.3074 59.7423 16.8724 60.6178 15.6073C61.5628 14.2418 64.8195 14.4511 65.9711 16.3543C67.1227 18.2574 66.3216 21.1621 62.7165 23.9166C59.1115 26.6712 56.5621 28.2696 55.1101 30.423C53.6581 32.5765 55.0063 34.5596 57.0585 34.5798C58.7041 34.5961 59.4619 33.6325 59.4619 33.6325C59.4619 33.6325 57.3485 33.8072 57.359 32.4306C57.3679 31.269 60.738 29.9896 64.469 27.5226C66.7279 26.029 71.3787 22.7562 71.3787 18.2073C71.3787 14.3487 68.1576 11.0404 63.2672 11.3919C58.3769 11.7434 57.7653 14.7296 57.9097 16.0036C58.107 17.7437 60.1629 18.8583 61.0642 18.3074Z" stroke="#A05700" stroke-width="1.00708" stroke-linecap="round" stroke-linejoin="round"/>
<g opacity="0.7">
<path d="M57.9096 16.0038C58.1069 17.7439 60.1628 18.8585 61.0641 18.3076C61.0641 18.3076 59.7422 16.8726 60.6177 15.6075C61.5627 14.242 64.8194 14.4513 65.971 16.3544C67.1225 18.2576 66.3215 21.1623 62.7164 23.9168C59.1114 26.6714 56.562 28.2698 55.11 30.4232" stroke="#7A3A00" stroke-width="1.00708" stroke-linecap="round" stroke-linejoin="round"/>
</g>
<path d="M17.794 18.3075C17.794 18.3075 19.1158 16.8724 18.2404 15.6074C17.2953 14.2418 14.0387 14.4512 12.8872 16.3543C11.7356 18.2574 12.5366 21.1622 16.1418 23.9167C19.7468 26.6712 22.2961 28.2696 23.7482 30.4231C25.2002 32.5765 23.852 34.5597 21.7998 34.5799C20.1542 34.5961 19.3964 33.6325 19.3964 33.6325C19.3964 33.6325 21.5098 33.8073 21.4993 32.4306C21.4903 31.2691 18.1203 29.9896 14.3893 27.5227C12.1303 26.029 7.47961 22.7562 7.47961 18.2074C7.47961 14.3488 10.7007 11.0404 15.591 11.392C20.4814 11.7435 21.093 14.7297 20.9485 16.0037C20.7513 17.7438 18.6953 18.8584 17.794 18.3075Z" fill="url(#paint5_radial_78_13331)"/>
<g opacity="0.7">
<path d="M21.8002 34.5802C23.5784 34.5384 24.5084 32.5064 23.0716 30.782C21.6334 29.0559 16.7639 27.1955 12.9156 23.694C10.6029 21.5909 8.90505 18.2826 11.0679 15.3543C13.3914 12.2098 18.3769 12.727 19.1059 15.5212C19.7398 17.9503 17.7943 18.3073 17.7943 18.3073C17.7943 18.3073 19.1152 16.8718 18.2408 15.6078C17.2953 14.2418 14.0387 14.4519 12.8878 16.3541C11.7353 18.2578 12.5371 21.1629 16.1413 23.9165C19.747 26.6716 22.2961 28.2694 23.7483 30.4235C25.2005 32.576 23.8518 34.5601 21.8002 34.5802Z" fill="url(#paint6_radial_78_13331)"/>
</g>
<path d="M12.6306 16.8783C13.277 14.4225 15.6388 12.8978 17.9297 13.6899C20.4329 14.5554 19.7165 17.6758 18.26 18.2729C18.26 18.2729 19.3333 15.3425 16.8418 14.8825C14.3502 14.4225 12.6306 16.8783 12.6306 16.8783Z" fill="#FED759"/>
<path d="M17.794 18.3075C17.794 18.3075 19.1158 16.8724 18.2404 15.6074C17.2953 14.2418 14.0387 14.4512 12.8872 16.3543C11.7356 18.2574 12.5366 21.1622 16.1418 23.9167C19.7468 26.6712 22.2961 28.2696 23.7482 30.4231C25.2002 32.5765 23.852 34.5597 21.7998 34.5799C20.1542 34.5961 19.3964 33.6325 19.3964 33.6325C19.3964 33.6325 21.5098 33.8073 21.4993 32.4306C21.4903 31.2691 18.1203 29.9896 14.3893 27.5227C12.1303 26.029 7.47961 22.7562 7.47961 18.2074C7.47961 14.3488 10.7007 11.0404 15.591 11.392C20.4814 11.7435 21.093 14.7297 20.9485 16.0037C20.7513 17.7438 18.6953 18.8584 17.794 18.3075Z" stroke="#A05700" stroke-width="1.00708" stroke-linecap="round" stroke-linejoin="round"/>
<g opacity="0.7">
<path d="M17.7941 18.3076C17.7941 18.3076 19.1159 16.8726 18.2404 15.6075C17.2954 14.242 14.0388 14.4513 12.8872 16.3544C11.7357 18.2576 12.5367 21.1623 16.1418 23.9168C19.7468 26.6714 22.2962 28.2698 23.7482 30.4232" stroke="#7A3A00" stroke-width="1.00708" stroke-linecap="round" stroke-linejoin="round"/>
</g>
<path d="M57.9616 9.74831C59.4495 9.04816 58.7464 8.2349 57.4435 7.79667C52.0497 5.98257 42.9888 5.68109 39.4572 5.68109C35.2897 5.68109 20.3205 6.62353 20.5333 8.53762C20.6227 9.34284 20.9525 9.74831 20.9525 9.74831C20.9525 9.74831 20.5328 21.7264 24.105 31.2526C27.0626 39.1393 33.679 42.8687 39.4572 42.8687C45.2353 42.8687 51.8518 39.1393 54.8093 31.2526C58.3815 21.7264 57.9616 9.74831 57.9616 9.74831Z" fill="url(#paint7_radial_78_13331)"/>
<g opacity="0.6">
<path d="M57.9616 9.7484C52.2616 8.02608 43.9585 7.48138 39.4571 7.48138C34.5855 7.48138 25.1473 8.19389 20.9525 9.7484" stroke="#FED759" stroke-width="0.755312" stroke-linecap="round" stroke-linejoin="round"/>
</g>
<path d="M27.7498 6.5147C27.7498 6.5147 28.9368 40.5681 39.7426 40.5681C50.5484 40.5681 50.9069 6.5147 50.9069 6.5147C50.9069 6.5147 36.5686 5.18936 27.7498 6.5147Z" fill="url(#paint8_radial_78_13331)"/>
<g opacity="0.8">
<path d="M39.1605 5.82794C38.8685 18.5343 38.8683 21.5085 38.8683 37.0946C38.8683 40.7663 34.5119 38.5506 32.5867 23.2737C31.6596 15.9169 31.6692 10.3685 31.7572 7.71452C31.7572 7.71452 30.7107 6.85769 31.8462 6.13699L39.1605 5.82794Z" fill="url(#paint9_linear_78_13331)"/>
</g>
<g opacity="0.3">
<path d="M57.9616 9.7484C52.2616 8.02608 43.9585 7.48138 39.4571 7.48138C34.5855 7.48138 25.1473 8.19389 20.9525 9.7484" stroke="#FED759" stroke-width="0.755312" stroke-linecap="round" stroke-linejoin="round"/>
</g>
<g opacity="0.4">
<path d="M54.8098 31.2534C51.8514 39.1403 45.2346 42.8689 39.4568 42.8689C33.6789 42.8689 27.0622 39.1403 24.1053 31.2534C20.5319 21.727 20.9522 9.74832 20.9522 9.74832C18.2234 7.18447 26.3157 6.39825 26.3157 6.39825C18.8404 9.47528 28.1519 7.77969 28.1519 7.77969C23.2057 8.35174 23.2516 10.3367 23.2034 11.0644C23.1341 12.1101 23.4017 22.8448 25.8386 29.8055C27.3355 34.0821 29.3004 36.4107 32.2199 38.1189C34.3596 39.3708 37.4002 39.9104 39.5433 39.9104C41.951 39.9104 44.5359 39.2687 46.8894 37.68C49.4889 35.9252 51.7144 33.695 53.0749 29.8055C55.3065 23.4314 55.781 12.6036 55.7053 10.864C55.6285 9.09871 53.3317 8.05073 49.5064 7.62563C49.5064 7.62563 57.977 8.98961 52.4675 6.66264C52.4675 6.66264 56.9529 7.30639 58.1899 8.09801C59.4505 8.90478 57.9614 9.74832 57.9614 9.74832C57.9614 9.74832 58.3816 21.727 54.8098 31.2534Z" fill="url(#paint10_linear_78_13331)"/>
</g>
<g opacity="0.8">
<path d="M35.6537 42.0647C34.6867 41.6291 32.9265 38.5909 34.3663 39.0662C35.8863 39.5679 37.8426 39.9105 39.4799 39.9102C41.0438 39.9099 42.7635 39.588 43.7244 39.2392C46.5009 38.2314 44.2905 41.9718 42.6579 42.3552C40.6016 42.8381 37.2016 42.7619 35.6537 42.0647Z" fill="url(#paint11_radial_78_13331)"/>
</g>
<g opacity="0.3">
<path d="M45.788 32.666C42.515 32.7418 40.7157 34.3518 32.8451 32.4683C29.7635 31.7309 33.0937 36.3326 38.9768 36.3376C44.2397 36.3421 48.9295 32.5932 45.788 32.666Z" fill="#FFE471"/>
</g>
<path d="M20.9526 9.74832C20.9526 9.74832 20.0935 9.25183 20.3785 8.47998C20.7979 7.34455 26.8712 5.68048 39.4572 5.68048C49.9246 5.68048 58.2399 7.52147 58.729 8.49992C59.2181 9.47836 57.9617 9.74832 57.9617 9.74832" stroke="#A05700" stroke-width="1.00708" stroke-linecap="round" stroke-linejoin="round"/>
<path d="M20.9526 9.74847C20.9526 9.74847 20.5328 21.7265 24.1051 31.2527C27.0626 39.1395 33.679 42.8689 39.4572 42.8689C45.2354 42.8689 51.8518 39.1395 54.8093 31.2527C58.3816 21.7265 57.9617 9.74847 57.9617 9.74847" stroke="#935400" stroke-width="1.00708" stroke-linecap="round" stroke-linejoin="round"/>
<path d="M20.9526 9.74847C20.9526 9.74847 20.5328 21.7265 24.1051 31.2527C27.0626 39.1395 33.679 42.8689 39.4572 42.8689C45.2354 42.8689 51.8518 39.1395 54.8093 31.2527" stroke="#7A3A00" stroke-width="1.00708" stroke-linecap="round" stroke-linejoin="round"/>
<path d="M49.1424 54.8093C48.8275 54.455 47.5871 54.1114 47.5871 54.1114C47.5871 54.1114 47.5152 53.2938 47.4517 52.998C47.3135 52.3555 46.5247 52.5236 45.4813 52.1072C43.4059 51.2789 42.8201 48.2503 42.8201 45.127L39.4572 44.8906L36.0943 45.127C36.0943 48.2503 35.5083 51.2789 33.4329 52.1072C32.3895 52.5236 31.6007 52.3555 31.4626 52.998C31.3989 53.2938 31.3271 54.1114 31.3271 54.1114C31.3271 54.1114 30.0869 54.455 29.772 54.8093C29.4572 55.1637 29.4178 56.5052 29.5358 56.6627C29.6538 56.8202 31.4715 58.0801 39.4572 58.0801C47.4429 58.0801 49.2606 56.8202 49.3786 56.6627C49.4966 56.5052 49.4572 55.1637 49.1424 54.8093Z" fill="url(#paint12_linear_78_13331)"/>
<path d="M41.6749 47.9797C41.6749 55.3352 39.7932 55.3083 39.4023 55.3083C39.0792 55.3083 37.1188 53.857 37.1188 47.9851C37.1188 44.6467 39.1863 45.2431 39.4023 45.2431C39.6182 45.2431 41.6749 44.7768 41.6749 47.9797Z" fill="url(#paint13_radial_78_13331)"/>
<g opacity="0.8">
<path d="M39.4567 46.0297C39.3819 49.2835 39.3819 49.4501 39.3819 53.4413C39.3819 54.3815 38.2243 54.6827 37.7314 50.7705C37.4939 48.8865 37.5384 46.6725 37.561 45.9929" fill="url(#paint14_linear_78_13331)"/>
</g>
<path d="M49.378 56.6631C49.2606 56.8207 47.4423 58.0801 39.4568 58.0801C31.4713 58.0801 29.6545 56.8207 29.5355 56.6631C29.4181 56.5055 29.4568 55.1642 29.7719 54.8088C30.0871 54.455 31.3276 54.1119 31.3276 54.1119C31.3276 54.1119 31.3987 53.293 31.462 52.9978C31.5161 52.7506 31.6659 52.1588 31.89 52.0722C31.89 52.0722 33.9029 52.8588 39.4568 52.8588C45.0107 52.8588 46.8352 52.012 46.8352 52.012C47.1658 52.1016 47.3851 52.6857 47.4516 52.9978C47.5149 53.293 47.5875 54.1119 47.5875 54.1119C47.5875 54.1119 48.8281 54.455 49.1417 54.8088C49.4568 55.1642 49.497 56.5055 49.378 56.6631Z" fill="url(#paint15_radial_78_13331)"/>
<path d="M45.1643 56.3894C45.1643 57.0398 42.7019 57.6667 39.6642 57.6667C36.6265 57.6667 34.1639 57.0398 34.1639 56.3894C34.1639 55.739 36.6265 56.2429 39.6642 56.2429C42.7019 56.2429 45.1643 55.739 45.1643 56.3894Z" fill="url(#paint16_radial_78_13331)"/>
<g opacity="0.5">
<path d="M35.7008 50.6406C35.7008 50.6406 34.8868 52.8268 39.2103 52.8639C43.314 52.8991 43.4556 51.2794 42.874 49.798C42.874 49.798 44.2818 51.8635 47.1099 52.7727C47.1099 52.7727 45.694 53.7834 39.4571 53.7731C36.5353 53.7683 34.7417 53.5918 33.3482 53.3605C32.4381 53.2094 32.1976 55.2446 34.7641 56.0158C34.9271 56.0648 30.8724 55.2947 31.6383 57.5132C31.6383 57.5132 30.1991 57.5048 29.5357 56.6627C29.2725 56.3284 30.0857 54.1634 31.327 54.1113L31.776 52.8991C31.776 52.8991 33.9754 51.8198 35.7008 50.6406Z" fill="#894700"/>
</g>
<path d="M44.4026 54.3458C44.4026 54.9962 42.2811 55.3142 39.6643 55.3142C37.0474 55.3142 34.9258 54.9962 34.9258 54.3458C34.9258 53.6955 37.0474 53.7863 39.6643 53.7863C42.2811 53.7863 44.4026 53.6955 44.4026 54.3458Z" fill="url(#paint17_radial_78_13331)"/>
<g opacity="0.7">
<path d="M39.0378 53.7849C39.0378 53.7849 39.2248 54.9545 39.2323 55.9408C39.2414 57.1513 39.1247 58.3951 38.8349 58.0775C38.8349 58.0775 35.4434 58.0888 35.6409 56.8619C35.6918 56.545 36.0021 56.3175 36.5286 56.1207C36.829 56.0083 37.0917 55.7289 36.4817 55.38C36.0524 55.1343 35.7135 54.7445 35.9586 54.2911C36.3795 53.5131 39.0378 53.7849 39.0378 53.7849Z" fill="url(#paint18_linear_78_13331)"/>
</g>
<g opacity="0.5">
<path d="M42.874 46.667C41.9641 46.8679 40.7297 46.9637 39.4568 46.9637C38.1838 46.9637 36.951 46.8679 36.041 46.667C36.0765 46.1633 36.0935 45.6456 36.0935 45.1264L39.4568 44.89L42.82 45.1264C42.82 45.6456 42.837 46.1633 42.874 46.667Z" fill="#7C3200"/>
</g>
<g opacity="0.7">
<path d="M29.772 54.8093C29.772 54.8093 33.4579 55.7802 39.4572 55.7802C45.4564 55.7802 49.1424 54.8093 49.1424 54.8093" stroke="#914500" stroke-width="0.755312" stroke-linecap="round" stroke-linejoin="round"/>
</g>
<g opacity="0.7">
<path d="M31.8905 52.5365C31.8905 52.5365 33.903 53.3227 39.4572 53.3227C45.0114 53.3227 46.8349 52.4756 46.8349 52.4756" stroke="#914500" stroke-width="0.755312" stroke-linecap="round" stroke-linejoin="round"/>
</g>
<path d="M49.1424 54.8093C48.8275 54.455 47.5871 54.1114 47.5871 54.1114C47.5871 54.1114 47.5152 53.2938 47.4517 52.998C47.3135 52.3555 46.5247 52.5236 45.4813 52.1072C43.4059 51.2789 42.8201 48.2503 42.8201 45.127L39.4572 44.8906L36.0943 45.127C36.0943 48.2503 35.5083 51.2789 33.4329 52.1072C32.3895 52.5236 31.6007 52.3555 31.4626 52.998C31.3989 53.2938 31.3271 54.1114 31.3271 54.1114C31.3271 54.1114 30.0869 54.455 29.772 54.8093C29.4572 55.1637 29.4178 56.5052 29.5358 56.6627C29.6538 56.8202 31.4715 58.0801 39.4572 58.0801C47.4429 58.0801 49.2606 56.8202 49.3786 56.6627C49.4966 56.5052 49.4572 55.1637 49.1424 54.8093Z" stroke="#A05700" stroke-width="1.00708" stroke-linecap="round" stroke-linejoin="round"/>
<path d="M36.0943 45.1271C36.0943 48.2503 35.5083 51.279 33.4329 52.1072C32.3895 52.5237 31.6007 52.3555 31.4626 52.998C31.3989 53.2938 31.3271 54.1114 31.3271 54.1114C31.3271 54.1114 30.0869 54.455 29.772 54.8094C29.4572 55.1637 29.4178 56.5053 29.5358 56.6627C29.5366 56.6636 29.5372 56.6647 29.5381 56.6658C29.6762 56.8356 31.5204 58.0802 39.4572 58.0802C47.4429 58.0802 49.2606 56.8202 49.3786 56.6627" stroke="#7A3A00" stroke-width="1.00708" stroke-linecap="round" stroke-linejoin="round"/>
<path d="M43.7244 43.2413C43.7244 43.2413 43.7677 42.5824 43.0776 42.2357C42.3875 41.8889 41.9546 42.1114 39.4572 42.1114C37.3949 42.1114 36.5268 41.8889 35.8367 42.2357C35.1466 42.5824 35.1897 43.2413 35.1897 43.2413C35.1897 43.2413 34.0918 43.8999 34.6903 44.5937C35.2148 45.2017 37.2781 45.4808 39.4572 45.4808C41.6362 45.4808 43.6996 45.2017 44.2241 44.5937C44.8225 43.8999 43.7244 43.2413 43.7244 43.2413Z" fill="url(#paint19_radial_78_13331)"/>
<path d="M42.7423 43.2279C42.7423 44.2797 41.9728 45.9444 39.4567 45.9444C37.3776 45.9444 36.171 44.2797 36.171 43.2279C36.171 42.176 38.0671 42.1354 39.4567 42.1354C40.8463 42.1354 42.7423 42.176 42.7423 43.2279Z" fill="url(#paint20_radial_78_13331)"/>
<g opacity="0.8">
<path d="M39.4568 42.5968C39.39 43.8671 39.3902 43.8455 39.3902 45.4037C39.3902 45.7436 36.6811 45.209 37.3733 43.887C37.4812 43.6811 37.4927 43.442 37.4215 43.2206C37.3597 43.0282 37.3608 42.7853 37.6123 42.5824" fill="url(#paint21_linear_78_13331)"/>
</g>
<g opacity="0.6">
<path d="M35.1898 43.2412C35.1898 43.2412 39.2122 44.0772 43.7245 43.2412" stroke="#914500" stroke-width="0.755312" stroke-linecap="round" stroke-linejoin="round"/>
</g>
<path d="M43.7244 43.2413C43.7244 43.2413 43.7677 42.5824 43.0776 42.2357C42.3875 41.8889 41.9546 42.1114 39.4572 42.1114C37.3949 42.1114 36.5268 41.8889 35.8367 42.2357C35.1466 42.5824 35.1897 43.2413 35.1897 43.2413C35.1897 43.2413 34.0918 43.8999 34.6903 44.5937C35.2148 45.2017 37.2781 45.4808 39.4572 45.4808C41.6362 45.4808 43.6996 45.2017 44.2241 44.5937C44.8225 43.8999 43.7244 43.2413 43.7244 43.2413Z" stroke="#9E6100" stroke-width="1.00708" stroke-linecap="round" stroke-linejoin="round"/>
<path d="M34.6903 44.5938C35.2148 45.2018 37.2781 45.4809 39.4572 45.4809C41.6363 45.4809 43.6996 45.2018 44.2241 44.5938" stroke="#7A3A00" stroke-width="1.00708" stroke-linecap="round" stroke-linejoin="round"/>
</g>
</g>
<defs>
<linearGradient id="paint0_linear_78_13331" x1="17.5112" y1="70.4" x2="61.3411" y2="70.4" gradientUnits="userSpaceOnUse">
<stop offset="0.14" stop-color="#853301"/>
<stop offset="0.57" stop-color="#933C01"/>
<stop offset="0.92" stop-color="#A24500"/>
</linearGradient>
<linearGradient id="paint1_linear_78_13331" x1="23.3885" y1="63.3456" x2="55.6126" y2="63.3456" gradientUnits="userSpaceOnUse">
<stop stop-color="#843D1C"/>
<stop offset="0.51" stop-color="#9A4B21"/>
<stop offset="0.92" stop-color="#B05926"/>
</linearGradient>
<linearGradient id="paint2_linear_78_13331" x1="29.9374" y1="60.1544" x2="49.7349" y2="71.268" gradientUnits="userSpaceOnUse">
<stop offset="0.02" stop-color="#E6AE45"/>
<stop offset="0.14" stop-color="#F3D06B"/>
<stop offset="0.34" stop-color="#FFF291"/>
<stop offset="0.47" stop-color="#EAC56C"/>
<stop offset="0.62" stop-color="#D59746"/>
<stop offset="0.79" stop-color="#EAB14F"/>
<stop offset="0.88" stop-color="#FECC57"/>
</linearGradient>
<radialGradient id="paint3_radial_78_13331" cx="0" cy="0" r="1" gradientUnits="userSpaceOnUse" gradientTransform="translate(62.367 23.5938) scale(13.3313 13.3343)">
<stop offset="0.14" stop-color="#FFE978"/>
<stop offset="0.57" stop-color="#E8B63C"/>
<stop offset="0.92" stop-color="#D08201"/>
</radialGradient>
<radialGradient id="paint4_radial_78_13331" cx="0" cy="0" r="1" gradientUnits="userSpaceOnUse" gradientTransform="translate(64.2208 19.1129) scale(11.9162 11.9189)">
<stop offset="0.14" stop-color="#7C3200"/>
<stop offset="0.57" stop-color="#A65A01"/>
<stop offset="0.92" stop-color="#D08201"/>
</radialGradient>
<radialGradient id="paint5_radial_78_13331" cx="0" cy="0" r="1" gradientUnits="userSpaceOnUse" gradientTransform="translate(16.1748 24.212) scale(12.6486 12.6515)">
<stop offset="0.14" stop-color="#FFE978"/>
<stop offset="0.57" stop-color="#E8B63C"/>
<stop offset="0.92" stop-color="#D08201"/>
</radialGradient>
<radialGradient id="paint6_radial_78_13331" cx="0" cy="0" r="1" gradientUnits="userSpaceOnUse" gradientTransform="translate(17.2562 23.903) scale(9.08871 9.09078)">
<stop offset="0.14" stop-color="#7C3200"/>
<stop offset="0.57" stop-color="#A65A01"/>
<stop offset="0.92" stop-color="#D08201"/>
</radialGradient>
<radialGradient id="paint7_radial_78_13331" cx="0" cy="0" r="1" gradientUnits="userSpaceOnUse" gradientTransform="translate(40.275 25.4964) scale(26.3185 26.3245)">
<stop offset="0.44" stop-color="#FEDA59"/>
<stop offset="0.7" stop-color="#E7AE2D"/>
<stop offset="0.92" stop-color="#D08201"/>
</radialGradient>
<radialGradient id="paint8_radial_78_13331" cx="0" cy="0" r="1" gradientUnits="userSpaceOnUse" gradientTransform="translate(39.432 4.57763) scale(10.5082 35.865)">
<stop stop-color="#F5BF52"/>
<stop offset="0.53" stop-color="#DB9F2A"/>
<stop offset="0.82" stop-color="#C07F01"/>
<stop offset="0.91" stop-color="#C38301" stop-opacity="0.5"/>
<stop offset="1" stop-color="#C68701" stop-opacity="0"/>
</radialGradient>
<linearGradient id="paint9_linear_78_13331" x1="32.5507" y1="22.3578" x2="38.4082" y2="22.3578" gradientUnits="userSpaceOnUse">
<stop offset="0.09" stop-color="#592A00"/>
<stop offset="0.75" stop-color="#6C3600" stop-opacity="0.5"/>
<stop offset="1" stop-color="#7F4200" stop-opacity="0"/>
</linearGradient>
<linearGradient id="paint10_linear_78_13331" x1="39.6571" y1="8.45079" x2="39.6571" y2="40.0833" gradientUnits="userSpaceOnUse">
<stop offset="0.36" stop-color="#A75602"/>
<stop offset="0.61" stop-color="#984F01"/>
<stop offset="0.69" stop-color="#894700"/>
<stop offset="0.87" stop-color="#793900"/>
<stop offset="1" stop-color="#682C00"/>
</linearGradient>
<radialGradient id="paint11_radial_78_13331" cx="0" cy="0" r="1" gradientUnits="userSpaceOnUse" gradientTransform="translate(39.5143 38.9079) scale(5.08545 5.08661)">
<stop offset="0.04" stop-color="#FFC952"/>
<stop offset="0.12" stop-color="#C28B29"/>
<stop offset="0.29" stop-color="#854E00"/>
<stop offset="0.5" stop-color="#C28A29"/>
<stop offset="0.69" stop-color="#FFC752"/>
<stop offset="0.84" stop-color="#FFC752" stop-opacity="0.5"/>
<stop offset="1" stop-color="#FFC852" stop-opacity="0"/>
</radialGradient>
<linearGradient id="paint12_linear_78_13331" x1="39.1936" y1="47.2361" x2="39.4007" y2="51.946" gradientUnits="userSpaceOnUse">
<stop offset="0.14" stop-color="#FED059"/>
<stop offset="0.57" stop-color="#E7A92D"/>
<stop offset="0.92" stop-color="#D08201"/>
</linearGradient>
<radialGradient id="paint13_radial_78_13331" cx="0" cy="0" r="1" gradientUnits="userSpaceOnUse" gradientTransform="translate(39.3984 49.7232) scale(2.11322 9.19)">
<stop stop-color="#F5BF52"/>
<stop offset="0.33" stop-color="#DB9F2A"/>
<stop offset="0.63" stop-color="#C07F01"/>
<stop offset="0.83" stop-color="#C38301" stop-opacity="0.5"/>
<stop offset="1" stop-color="#C68701" stop-opacity="0"/>
</radialGradient>
<linearGradient id="paint14_linear_78_13331" x1="37.9577" y1="50.0176" x2="39.3876" y2="50.0176" gradientUnits="userSpaceOnUse">
<stop offset="0.09" stop-color="#592A00"/>
<stop offset="0.75" stop-color="#6C3600" stop-opacity="0.5"/>
<stop offset="1" stop-color="#7F4200" stop-opacity="0"/>
</linearGradient>
<radialGradient id="paint15_radial_78_13331" cx="0" cy="0" r="1" gradientUnits="userSpaceOnUse" gradientTransform="translate(39.5027 55.1168) scale(9.6821 9.6843)">
<stop offset="0.14" stop-color="#FFE978"/>
<stop offset="0.57" stop-color="#E8B63C"/>
<stop offset="0.92" stop-color="#D08201"/>
</radialGradient>
<radialGradient id="paint16_radial_78_13331" cx="0" cy="0" r="1" gradientUnits="userSpaceOnUse" gradientTransform="translate(60.6375 56.8987) scale(27.9353 27.9417)">
<stop stop-color="#DAA32A"/>
<stop offset="0.18" stop-color="#CD9115"/>
<stop offset="0.56" stop-color="#C07F01"/>
<stop offset="0.8" stop-color="#C38301" stop-opacity="0.5"/>
<stop offset="1" stop-color="#C68701" stop-opacity="0"/>
</radialGradient>
<radialGradient id="paint17_radial_78_13331" cx="0" cy="0" r="1" gradientUnits="userSpaceOnUse" gradientTransform="translate(39.8116 54.5837) scale(4.46305 4.46407)">
<stop stop-color="#DAA32A"/>
<stop offset="0.18" stop-color="#CD9115"/>
<stop offset="0.56" stop-color="#C07F01"/>
<stop offset="0.8" stop-color="#C38301" stop-opacity="0.5"/>
<stop offset="1" stop-color="#C68701" stop-opacity="0"/>
</radialGradient>
<linearGradient id="paint18_linear_78_13331" x1="36.2584" y1="56.044" x2="38.9472" y2="56.044" gradientUnits="userSpaceOnUse">
<stop offset="0.09" stop-color="#592A00"/>
<stop offset="0.75" stop-color="#6C3600" stop-opacity="0.5"/>
<stop offset="1" stop-color="#7F4200" stop-opacity="0"/>
</linearGradient>
<radialGradient id="paint19_radial_78_13331" cx="0" cy="0" r="1" gradientUnits="userSpaceOnUse" gradientTransform="translate(39.5026 44.2922) scale(4.92756 4.92868)">
<stop offset="0.44" stop-color="#FCDA5F"/>
<stop offset="0.7" stop-color="#E6AE30"/>
<stop offset="0.92" stop-color="#D08201"/>
</radialGradient>
<radialGradient id="paint20_radial_78_13331" cx="0" cy="0" r="1" gradientUnits="userSpaceOnUse" gradientTransform="translate(39.4607 43.7009) scale(3.3278 3.32856)">
<stop stop-color="#F5BF52" stop-opacity="0"/>
<stop offset="0.33" stop-color="#DB9F2A" stop-opacity="0.5"/>
<stop offset="0.63" stop-color="#C07F01"/>
<stop offset="0.83" stop-color="#C38301" stop-opacity="0.5"/>
<stop offset="1" stop-color="#C68701" stop-opacity="0"/>
</radialGradient>
<linearGradient id="paint21_linear_78_13331" x1="37.6488" y1="44.1456" x2="39.2895" y2="44.1456" gradientUnits="userSpaceOnUse">
<stop offset="0.09" stop-color="#592A00"/>
<stop offset="0.75" stop-color="#6C3600" stop-opacity="0.5"/>
<stop offset="1" stop-color="#7F4200" stop-opacity="0"/>
</linearGradient>
<clipPath id="clip0_78_13331">
<rect width="80" height="80" fill="white"/>
</clipPath>
</defs>
</svg>
