<svg width="80" height="78" viewBox="0 0 80 78" fill="none" xmlns="http://www.w3.org/2000/svg">
<g clip-path="url(#clip0_78_13165)">
<mask id="mask0_78_13165" style="mask-type:luminance" maskUnits="userSpaceOnUse" x="0" y="0" width="80" height="80">
<path d="M80 0H0V80H80V0Z" fill="white"/>
</mask>
<g mask="url(#mask0_78_13165)">
<path d="M29.3063 6.85473C28.8897 6.28286 26.712 7.38854 26.6612 8.29079C26.6103 9.19304 30.6225 8.66216 29.3063 6.85473Z" fill="#F7F0E2"/>
<path d="M29.3063 6.85473C28.8897 6.28286 26.712 7.38854 26.6612 8.29079C26.6103 9.19304 30.6225 8.66216 29.3063 6.85473Z" stroke="#CDC2B3" stroke-width="0.674723" stroke-linecap="round" stroke-linejoin="round"/>
<g opacity="0.4">
<path d="M26.6611 8.29069C26.6312 8.82086 28.0039 8.85611 28.8744 8.42853" stroke="#8F9584" stroke-width="0.674723" stroke-linecap="round" stroke-linejoin="round"/>
</g>
<path d="M27.3554 11.7929C27.1301 10.3423 25.8831 10.6154 25.1955 11.9579C24.5079 13.3004 24.2611 16.04 25.1783 18.7352C26.0954 21.4304 29.4716 25.2862 28.2019 23.349C25.1783 18.7352 27.6206 13.5002 27.3554 11.7929Z" fill="#E5DDCE"/>
<path d="M27.3554 11.7929C27.1301 10.3423 25.8831 10.6154 25.1955 11.9579C24.5079 13.3004 24.2611 16.04 25.1783 18.7352C26.0954 21.4304 29.4716 25.2862 28.2019 23.349C25.1783 18.7352 27.6206 13.5002 27.3554 11.7929Z" stroke="#C5B9AF" stroke-width="0.674723" stroke-linecap="round" stroke-linejoin="round"/>
<g opacity="0.6">
<path d="M26.4489 10.8279C26.023 10.8827 25.5394 11.2865 25.1955 11.9578C24.5079 13.3003 24.2612 16.04 25.1783 18.7351C25.6368 20.0828 26.7103 21.7205 27.5102 22.7792" stroke="#89A093" stroke-width="0.674723" stroke-linecap="round" stroke-linejoin="round"/>
</g>
<path d="M27.8374 24.3599C27.8374 24.3599 23.7571 24.4583 20.9486 19.7445C18.0608 14.8976 13.9258 21.1866 17.6131 23.08C19.563 24.0812 22.6534 27.2409 22.8771 29.8959C23.1644 33.3057 31.7953 26.3573 27.8374 24.3599Z" fill="#A2B7A6"/>
<path d="M27.8374 24.3599C27.8374 24.3599 23.7571 24.4583 20.9486 19.7445C18.0608 14.8976 13.9258 21.1866 17.6131 23.08C19.563 24.0812 22.6534 27.2409 22.8771 29.8959C23.1644 33.3057 31.7953 26.3573 27.8374 24.3599Z" stroke="#89A093" stroke-width="0.674723" stroke-linecap="round" stroke-linejoin="round"/>
<path d="M16.6888 28.0009C15.3004 27.6023 12.0914 27.5533 11.5908 29.8555C11.3537 30.9462 13.0977 31.6498 14.2088 30.1748C15.7713 28.1004 16.9188 28.6403 19.1588 28.9563L16.6888 28.0009Z" fill="#A2B7A6"/>
<path d="M16.6888 28.0009C15.3004 27.6023 12.0914 27.5533 11.5908 29.8555C11.3537 30.9462 13.0977 31.6498 14.2088 30.1748C15.7713 28.1004 16.9188 28.6403 19.1588 28.9563L16.6888 28.0009Z" stroke="#8F9584" stroke-width="0.674723" stroke-linecap="round" stroke-linejoin="round"/>
<path d="M23.6349 21.3105C23.0051 22.2768 19.6279 26.3158 18.1524 25.1712C16.6769 24.0266 13.6509 21.711 13.6732 20.692C13.6956 19.673 18.1236 15.4568 18.9215 15.444C19.7194 15.4312 24.2646 20.3442 23.6349 21.3105Z" fill="#C5945C"/>
<g opacity="0.3">
<path d="M20.7292 17.8233C16.9251 18.6769 21.0323 23.5666 22.4789 21.564C22.6934 21.2671 19.2481 25.3736 19.2481 25.3736C17.7197 26.4087 13.6731 20.6915 13.6731 20.6915C12.3263 19.183 17.7598 15.7936 17.7598 15.7936C19.1138 14.4549 20.7292 17.8233 20.7292 17.8233Z" fill="#613D21"/>
</g>
<path d="M23.6349 21.3105L19.5398 25.4055C19.092 25.8534 18.366 25.8532 17.9182 25.4054L13.6732 20.692C13.2255 20.2443 18.4736 14.9961 18.9215 15.444L23.6349 19.6889C24.0826 20.1367 24.0827 20.8626 23.6349 21.3105Z" stroke="#66451F" stroke-width="1.07956" stroke-linecap="round" stroke-linejoin="round"/>
<g opacity="0.6">
<path d="M17.3375 19.566C16.5469 19.8823 17.2818 20.2368 17.8621 20.05C18.4424 19.8632 18.4556 19.1185 17.3375 19.566Z" fill="#6F3C12"/>
<path d="M21.5886 20.8457C21.1767 20.8655 20.4829 21.1829 20.8214 21.613C21.1598 22.043 22.4407 20.8047 21.5886 20.8457Z" fill="#6F3C12"/>
<path d="M19.6455 18.9144C19.4916 19.0954 19.8591 19.6655 20.2396 19.2731C20.6202 18.8808 20.2169 18.2423 19.6455 18.9144Z" fill="#6F3C12"/>
<path d="M17.9479 22.8463C17.4779 22.9525 17.9883 23.5763 18.3875 23.5666C18.7866 23.557 19.0798 22.5901 17.9479 22.8463Z" fill="#6F3C12"/>
</g>
<path d="M16.946 10.9958C14.7452 10.8213 8.63806 15.28 9.2255 18.7164C9.32903 19.3221 11.3503 22.2597 13.2448 21.4891C14.2347 21.0863 19.3116 15.99 19.7194 15.0153C20.3999 13.3893 17.5587 11.0445 16.946 10.9958Z" fill="#C5945C"/>
<g opacity="0.5">
<path d="M20.0944 14.6051C19.5315 15.7617 17.7462 16.5386 17.9348 16.2517C19.113 14.4622 16.7081 12.6291 15.4475 12.8268C14.029 13.0493 10.0471 16.7785 9.69343 18.4827C9.69343 18.4827 8.14166 17.5376 11.9537 13.7255C15.0069 10.6723 16.1008 10.6372 16.9463 10.9956C17.5108 11.2368 20.3375 14.1057 20.0944 14.6051Z" fill="#FFF4C6"/>
</g>
<g opacity="0.6">
<path d="M13.1343 15.9498C12.745 16.3021 11.9798 15.9974 12.396 16.6912C12.8122 17.3849 13.8036 16.7904 14.0594 16.128C14.3152 15.4656 13.6211 15.5091 13.1343 15.9498Z" fill="#6F3C12"/>
<path d="M15.6958 14.1882C15.1726 14.5806 15.7883 14.6969 16.1813 14.4426C16.5744 14.1882 16.4358 13.6332 15.6958 14.1882Z" fill="#6F3C12"/>
<path d="M10.7919 17.8106C10.4142 18.0651 10.8391 18.764 11.1007 18.5881C11.3623 18.4122 11.1696 17.5561 10.7919 17.8106Z" fill="#6F3C12"/>
<path d="M14.7235 17.6231C14.4471 17.9957 15.7003 18.5716 15.8777 18.0279C16.055 17.4843 15.306 16.8377 14.7235 17.6231Z" fill="#6F3C12"/>
<path d="M12.5699 19.5418C12.2139 19.6174 11.5737 19.9884 11.8027 20.309C12.0316 20.6295 13.3066 19.3853 12.5699 19.5418Z" fill="#6F3C12"/>
<path d="M13.5162 13.6073C12.8836 13.9534 13.1409 14.7288 13.6086 14.6594C14.0762 14.5899 14.1754 13.2467 13.5162 13.6073Z" fill="#6F3C12"/>
<path d="M17.8657 14.2454C17.5604 14.4303 17.6418 15.0307 18.3609 14.6309C19.08 14.2311 18.9989 13.5589 17.8657 14.2454Z" fill="#6F3C12"/>
<path d="M16.0925 11.4439C15.6225 11.5503 16.1329 12.1738 16.532 12.1642C16.9311 12.1546 17.2244 11.1877 16.0925 11.4439Z" fill="#6F3C12"/>
</g>
<g opacity="0.4">
<path d="M15.4098 18.69C15.4891 18.63 13.8053 20.9761 13.2444 21.4903C12.8345 21.865 10.3357 21.6172 9.22499 18.717C8.89648 17.8594 9.39738 15.5692 12.5393 14.0769C10.3643 15.5872 13.3506 20.252 15.4098 18.69Z" fill="#613D21"/>
</g>
<path d="M16.9459 10.996C16.1007 10.6361 15.0072 10.6732 11.9549 13.7254C8.90268 16.7777 8.86544 17.8713 9.22533 18.7165C9.466 19.2818 10.7719 20.7044 11.781 21.5305C12.2113 21.8828 12.8345 21.8649 13.2446 21.4892C14.0326 20.7672 18.6837 16.3124 19.7193 15.0155C20.0662 14.581 20.1126 13.9824 19.7605 13.5522C18.9345 12.5431 17.5113 11.2368 16.9459 10.996Z" stroke="#8E581F" stroke-width="1.07956" stroke-linecap="round" stroke-linejoin="round"/>
<path d="M11.9549 13.7254C8.90268 16.7777 8.86544 17.8713 9.22533 18.7165C9.466 19.2818 10.7719 20.7044 11.781 21.5305C12.2113 21.8828 12.8345 21.8649 13.2446 21.4892C14.0326 20.7672 18.114 16.8564 19.7193 15.0155" stroke="#66451E" stroke-width="1.07956" stroke-linecap="round" stroke-linejoin="round"/>
<path d="M29.7963 32.2574C26.5327 35.3929 23.2154 32.9877 21.7418 30.617C20.2681 28.2462 16.4877 29.2073 14.5655 26.9007C13.6192 25.7652 13.55 24.7422 14.1817 24.2515C15.7685 23.0186 18.4609 28.2021 21.6776 27.6055C23.8303 27.2063 21.4352 25.1128 19.9429 24.1986C17.6652 22.8032 13.6292 23.341 13.6965 21.1059C13.7266 20.1065 15.1331 20.1154 15.6606 20.1075C17.9736 20.0726 24.124 26.9285 26.2379 25.3519C27.3491 24.5232 25.9859 22.0886 24.0924 20.0117C21.9786 17.6929 22.0109 15.7338 22.831 15.4315C25.1455 14.5778 23.6946 19.497 29.1632 24.0924C29.8457 24.6659 33.4017 28.7935 29.7963 32.2574Z" fill="#F7F0E2"/>
<g opacity="0.5">
<path d="M26.3532 33.7883C24.9023 33.7854 23.2145 32.9868 21.7422 30.6167C20.2681 28.2466 16.487 29.2071 14.5656 26.8999C13.6183 25.7654 13.5006 24.2269 14.395 24.2216C13.8539 25.8411 18.4781 28.693 21.6776 27.6055C23.751 26.9007 21.4357 25.1129 19.9434 24.1987C17.7174 22.8356 14.1482 23.3174 14.029 21.2587L14.0308 21.2588C14.0308 21.2588 14.2166 20.7172 16.0563 21.1545C18.2512 21.6764 21.7563 24.0267 23.9319 27.3542C26.4916 31.2692 31.1181 29.5036 30.3811 25.7406C33.3606 31.3144 28.2186 33.7921 26.3532 33.7883Z" fill="#A2B7A6"/>
</g>
<path d="M29.7962 32.2571C28.2814 33.8269 27.2879 33.898 26.3535 33.7876C24.9128 33.6172 23.2153 32.9874 21.7416 30.6167C20.2679 28.2459 16.4875 29.207 14.5653 26.9004C13.619 25.7649 13.5549 24.7484 14.1815 24.2511C15.4124 23.2744 17.147 25.8829 18.8819 26.9266C19.7168 27.4289 20.8568 27.7744 21.6774 27.6052C23.8217 27.1631 21.435 25.1125 19.9427 24.1983C17.665 22.8029 13.5383 23.336 13.6963 21.1056C13.8548 18.8693 17.7596 20.7101 19.246 21.8726C20.5498 22.8923 24.8968 26.8052 26.2377 25.3516C27.1776 24.3328 25.9857 22.0883 24.0922 20.0114C21.9784 17.6926 22.1122 15.9286 22.8308 15.4311C23.6275 14.8796 24.1488 15.867 24.8328 17.93C25.7687 20.7521 27.2483 21.9308 29.163 24.0921C29.7541 24.7593 33.2678 28.6592 29.7962 32.2571Z" stroke="#C5B9AF" stroke-width="0.674723" stroke-linecap="round" stroke-linejoin="round"/>
<g opacity="0.6">
<path d="M21.6774 27.6053C23.8217 27.1632 21.435 25.1126 19.9427 24.1984C17.665 22.803 13.629 23.3408 13.6963 21.1057" stroke="#89A093" stroke-width="0.674723" stroke-linecap="round" stroke-linejoin="round"/>
</g>
<g opacity="0.6">
<path d="M23.9702 25.1977C25.0468 25.7077 25.9103 25.8428 26.2377 25.3516C27.0067 24.1982 25.9857 22.0883 24.0922 20.0114C21.9784 17.6926 22.1121 15.9287 22.8308 15.4312" stroke="#89A093" stroke-width="0.674723" stroke-linecap="round" stroke-linejoin="round"/>
</g>
<path d="M29.7962 32.257C27.4985 35.2199 23.4304 33.6466 21.7416 30.6166C20.3826 28.1782 16.4875 29.2069 14.5653 26.9003C13.7585 25.9321 13.5608 25.0519 14.0569 24.3855" stroke="#8F9584" stroke-width="0.674723" stroke-linecap="round" stroke-linejoin="round"/>
<g opacity="0.3">
<path d="M26.8443 26.9338C25.7585 26.8383 25.5706 27.9722 26.9979 28.5797C28.425 29.1872 29.4826 27.1661 26.8443 26.9338Z" fill="#CBBBAA"/>
</g>
<g opacity="0.3">
<path d="M27.8512 25.6982C27.5067 25.9863 27.815 26.649 28.4465 26.475C29.078 26.301 28.5493 25.1144 27.8512 25.6982Z" fill="#CBBBAA"/>
</g>
<path d="M8.14893 27.0038C8.66154 26.0492 5.21825 26.2213 5.21825 27.6784C5.21825 28.8203 7.32749 28.5336 8.14893 27.0038Z" fill="#E0D8CC"/>
<path d="M8.14893 27.0038C8.66154 26.0492 5.21825 26.2213 5.21825 27.6784C5.21825 28.8203 7.32749 28.5336 8.14893 27.0038Z" stroke="#C1BBB2" stroke-width="0.674723" stroke-linecap="round" stroke-linejoin="round"/>
<path d="M19.2728 37.2395C19.1239 36.6293 16.5886 39.076 17.342 40.3944C18.0955 41.7129 20.2146 41.1008 19.2728 37.2395Z" fill="#E0D8CC"/>
<path d="M19.2728 37.2395C19.1239 36.6293 16.5886 39.076 17.342 40.3944C18.0955 41.7129 20.2146 41.1008 19.2728 37.2395Z" stroke="#C1BBB2" stroke-width="0.674723" stroke-linecap="round" stroke-linejoin="round"/>
<g opacity="0.4">
<path d="M17.37 39.084C17.1802 39.5479 17.1265 40.0173 17.342 40.3944C17.86 41.3007 19.0233 41.2948 19.3939 39.9479" stroke="#8F9584" stroke-width="0.674723" stroke-linecap="round" stroke-linejoin="round"/>
</g>
<path d="M54.5086 41.2703C49.5522 39.0638 36.6178 52.0227 38.8244 56.9791C41.0309 61.9355 44.1548 64.7767 46.9498 67.3578C50.106 70.2726 53.983 73.96 56.0936 74.3306C58.3413 74.7253 72.2548 60.7871 71.8602 58.5394C71.4895 56.4289 67.8022 52.5518 64.8874 49.3956C62.3063 46.6007 59.465 43.4769 54.5086 41.2703Z" fill="#4A8100"/>
<path d="M33.7896 43.996C35.6166 46.6053 36.9407 51.8905 38.8244 56.9782C41.5972 64.4672 53.9837 73.9598 56.0929 74.331C58.3415 74.7245 61.7671 73.2828 66.2948 68.7552C70.8212 64.2287 72.2547 60.7879 71.8612 58.5393C71.4888 56.4289 62.6316 44.4743 54.5083 41.2708C49.4614 39.2805 44.1343 38.0618 41.525 36.2348L33.7896 43.996Z" fill="url(#paint0_linear_78_13165)"/>
<path d="M69.5071 54.5808C70.7509 56.122 71.7841 57.5194 71.8611 58.5393C72.4035 65.7157 60.5198 74.8664 56.0928 74.331C55.2239 74.2258 53.4894 72.5244 52.2058 71.543C54.0305 72.2597 70.1536 56.6982 69.5071 54.5808Z" fill="#20331F"/>
<g opacity="0.5">
<path d="M67.2632 61.0057C68.5339 61.8585 70.0113 63.4134 69.3163 64.8506C67.131 68.5728 62.3058 71.7041 62.3058 71.7041C62.3058 71.7041 62.3129 70.589 60.1837 68.8676C61.1557 68.0595 66.3708 62.3759 67.2632 61.0057Z" fill="#566570"/>
</g>
<g opacity="0.3">
<path d="M36.9306 45.6074C38.4683 51.5697 40.6478 58.1949 44.2128 62.1393C47.088 65.3213 56.6176 74.3988 58.3239 73.9081C58.8568 73.7547 57.2687 74.537 56.0929 74.3309C53.9837 73.9597 41.6524 63.6866 38.8244 56.9781C36.7169 51.9788 35.6166 46.6052 33.7896 43.9959C31.9931 41.4288 36.516 44.0006 36.9306 45.6074Z" fill="white"/>
</g>
<g opacity="0.4">
<path d="M43.1495 39.3886C49.1118 40.9263 55.737 43.1058 59.6814 46.6708C62.8634 49.5459 71.9409 59.0756 71.4502 60.7819C73.4524 56.7305 67.601 52.748 64.8988 49.4077C57.3317 40.0542 44.1473 38.0746 41.538 36.2476C38.9708 34.451 41.5427 38.974 43.1495 39.3886Z" fill="#1D3105"/>
</g>
<path d="M33.7896 43.9954C35.6169 46.6051 36.6178 52.0228 38.8243 56.9792C41.0309 61.9356 44.1548 64.7768 46.9497 67.3579C50.106 70.2726 53.9829 73.9601 56.0936 74.3307C58.3412 74.7253 61.7677 73.2826 66.2946 68.7557C70.8216 64.2287 72.2548 60.7872 71.8601 58.5395C71.4895 56.429 67.8021 52.5519 64.8874 49.3957C62.3063 46.6007 59.465 43.4769 54.5086 41.2704C49.5521 39.0638 44.1345 38.0629 41.5249 36.2355" stroke="#1D3B1D" stroke-width="1.07956" stroke-linecap="round" stroke-linejoin="round"/>
<path d="M28.4467 38.1585C28.5624 38.2651 31.9933 41.4299 33.7896 43.9954C35.6169 46.605 36.6178 52.0227 38.8243 56.9791C41.0309 61.9356 44.1548 64.7768 46.9498 67.3578C50.106 70.2726 53.9829 73.9601 56.0936 74.3306C58.3412 74.7253 61.7677 73.2825 66.2946 68.7556C70.8216 64.2287 72.2548 60.7871 71.8601 58.5395" stroke="#003100" stroke-width="1.07956" stroke-linecap="round" stroke-linejoin="round"/>
<path d="M52.3229 72.1285C53.7909 73.2962 55.1274 74.1609 56.0936 74.3305C58.3412 74.7252 61.7676 73.2825 66.2946 68.7555C70.8215 64.2286 72.2548 60.7871 71.8601 58.5394C71.7129 57.7007 71.0419 56.5833 70.1039 55.3429" stroke="#121D05" stroke-width="1.07956" stroke-linecap="round" stroke-linejoin="round"/>
<g opacity="0.4">
<path d="M62.3522 48.3198C62.9507 48.9349 68.9904 55.3372 70.2636 57.1567C69.8776 62.6929 61.845 71.1397 55.1033 72.3171C53.2869 71.0427 46.8866 65.0053 46.2673 64.4026C50.7163 61.4923 57.9941 54.8258 62.3522 48.3198Z" fill="#003100"/>
</g>
<path d="M62.5864 48.5541C63.1848 49.1692 68.9903 55.3372 70.2636 57.1567C70.2636 57.1567 69.5734 61.0275 64.2737 66.3273C59.0437 71.5573 55.1032 72.3171 55.1032 72.3171C53.2869 71.0428 47.1208 65.2395 46.5015 64.6368C46.5015 64.6368 50.5447 62.8793 55.7081 57.6367C61.126 52.1357 62.5577 48.6734 62.5864 48.5541Z" fill="url(#paint1_linear_78_13165)"/>
<g opacity="0.2">
<path d="M51.2451 42.4162C48.4378 41.1535 44.7446 40.8576 46.1315 42.7136C47.5184 44.5696 53.9497 47.6396 55.2814 46.2062C56.6131 44.7728 53.515 43.4373 51.2451 42.4162Z" fill="white"/>
</g>
<g opacity="0.66">
<path d="M50.291 43.3322C50.7503 43.5523 51.2846 43.8278 51.8903 44.1702" stroke="white" stroke-width="0.809668" stroke-linecap="round" stroke-linejoin="round"/>
</g>
<g opacity="0.4">
<path d="M43.9561 46.8885C42.4438 47.3388 37.5719 48.2728 35.8094 48.0964L45.901 38.1812C45.901 38.1812 45.0759 44.0122 44.5744 46.2273C44.5029 46.5436 44.2669 46.796 43.9561 46.8885Z" fill="#003100"/>
</g>
<path d="M43.3705 46.303C41.8582 46.7533 37.3377 48.0386 35.5751 47.8623C35.5751 47.8623 33.6556 43.4028 31.3731 41.0848C29.0905 38.7669 27.9358 38.6692 29.6842 36.9211C31.4326 35.1729 35.3667 30.5808 36.1795 31.4145C36.9922 32.2481 39.8816 35.3269 41.5249 36.2355C43.1683 37.144 45.6668 37.947 45.6668 37.947C45.6668 37.947 44.4904 43.4267 43.9889 45.6418C43.9173 45.9581 43.6813 46.2105 43.3705 46.303Z" fill="url(#paint2_linear_78_13165)"/>
<g opacity="0.05">
<path d="M37.4994 47.7289L37.4994 47.7305C36.7325 47.8514 36.0518 47.9111 35.5748 47.863C35.5748 47.863 33.6552 43.4027 31.373 41.0839C29.1818 38.8597 28.0307 38.6806 29.4881 37.1238C36.1042 41.3952 37.4994 47.7289 37.4994 47.7289Z" fill="white"/>
</g>
<g opacity="0.1">
<path d="M45.6662 37.947C45.6662 37.947 45.4857 38.7901 45.234 39.9478C45.1346 39.9114 41.4064 38.5184 38.8359 36.2874C37.4712 35.1033 35.6891 33.3773 34.4584 32.001C35.1789 31.433 35.9612 31.1156 36.1793 31.4147C39.8859 36.4967 45.6662 37.947 45.6662 37.947Z" fill="#A48050"/>
</g>
<g opacity="0.3">
<path d="M28.0605 37.8711C28.0727 38.0814 29.2828 39.2916 29.7709 39.0885C32.3596 38.0115 36.2778 33.4879 36.6259 32.2336C36.7673 31.724 35.6188 30.5353 35.4085 30.5231C35.2245 30.5103 28.0477 37.6871 28.0605 37.8711Z" fill="#59442F"/>
</g>
<path d="M35.7 30.9057C35.9417 31.1675 39.0193 34.481 41.5249 36.2354C42.4812 36.9051 43.8151 37.4638 45.3648 38.0116" stroke="#A48050" stroke-width="1.07956" stroke-miterlimit="10"/>
<path d="M35.5751 47.8623C35.0242 46.3009 34.4632 44.9573 33.7896 43.9954C31.9933 41.4299 28.5624 38.2651 28.4467 38.1585" stroke="#59442F" stroke-width="1.07956" stroke-miterlimit="10"/>
<path d="M31.6478 27.177L24.7144 34.1104C23.8201 34.9785 26.5325 39.0838 28.4469 38.1591C29.1491 37.8199 35.3225 31.5937 35.6965 30.9094C36.8217 28.8503 32.8744 26.228 31.6478 27.177Z" fill="url(#paint3_linear_78_13165)"/>
<g opacity="0.7">
<path d="M32.7543 34.2684C32.6056 34.4195 29.1071 37.7441 28.4468 38.1589C27.457 38.7808 23.1507 35.5098 24.7144 34.1103L28.318 30.673C28.318 30.673 27.2956 32.377 27.9198 32.8255C28.6244 33.3317 29.9693 32.6803 32.6993 29.7841L29.803 34.2801C29.803 34.2801 29.4725 35.7157 31.6909 34.519C32.1916 34.2488 32.4768 34.115 32.7543 34.2684Z" fill="#004600"/>
</g>
<path d="M33.3647 27.0271C32.8937 26.7219 32.1362 26.6886 31.6478 27.177C31.6478 27.177 30.5938 28.3973 28.2667 30.7244L28.2618 30.7293C25.9347 33.0564 24.7144 34.1104 24.7144 34.1104C24.226 34.5988 24.2786 35.3442 24.5645 35.8273C24.9934 36.552 25.8094 36.7466 25.9582 36.7619C26.1526 36.7806 26.3189 36.9282 26.3201 37.1237C26.3189 37.3474 26.5133 37.7925 26.9138 38.0806C27.3214 38.3734 27.9015 38.3957 28.4469 38.159C29.796 37.5732 34.8066 32.6352 35.6965 30.9094C35.9689 30.381 35.9108 29.7839 35.618 29.3764C35.3299 28.9758 34.8849 28.7814 34.6612 28.7826C34.4656 28.7814 34.318 28.6151 34.2993 28.4207C34.2841 28.272 34.006 27.4426 33.3647 27.0271Z" stroke="#003100" stroke-width="1.07956" stroke-linecap="round" stroke-linejoin="round"/>
<path d="M34.0704 29.0402C34.0704 29.0402 31.1195 32.7321 26.4393 36.6713" stroke="#003100" stroke-width="1.07956" stroke-linecap="round" stroke-linejoin="round"/>
<path d="M36.2779 47.8689L34.9521 48.0784L36.1549 47.516L36.2779 47.8689Z" fill="#59442F"/>
<path d="M45.4925 38.7575L45.1413 38.6351L45.5837 37.3855L45.4925 38.7575Z" fill="#A48050"/>
<g opacity="0.66">
<path d="M30.2441 30.6245C30.2441 30.6245 30.6978 30.2164 31.2218 29.5871" stroke="white" stroke-width="0.809668" stroke-linecap="round" stroke-linejoin="round"/>
<path d="M33.2192 31.7444L33.3159 31.6396" stroke="white" stroke-width="0.809668" stroke-linecap="round" stroke-linejoin="round"/>
</g>
<path d="M35.618 29.3763C35.3299 28.9758 34.8849 28.7814 34.6612 28.7826C34.4656 28.7814 34.318 28.6151 34.2993 28.4207C34.2841 28.272 34.0702 27.4564 33.3647 27.027C32.8851 26.7353 32.1362 26.6886 31.6478 27.1769C31.6478 27.1769 30.5938 28.3973 28.2667 30.7243L28.2618 30.7293C25.9347 33.0563 24.7144 34.1104 24.7144 34.1104" stroke="#38551E" stroke-width="1.07956" stroke-linecap="round" stroke-linejoin="round"/>
</g>
</g>
<defs>
<linearGradient id="paint0_linear_78_13165" x1="44.7991" y1="61.5496" x2="59.2726" y2="47.5036" gradientUnits="userSpaceOnUse">
<stop stop-color="#355600"/>
<stop offset="0.11" stop-color="#2A4501"/>
<stop offset="0.28" stop-color="#1E3401"/>
<stop offset="0.55" stop-color="#476116"/>
<stop offset="0.72" stop-color="#718F2C"/>
<stop offset="0.94" stop-color="#648616"/>
<stop offset="1" stop-color="#577E00"/>
</linearGradient>
<linearGradient id="paint1_linear_78_13165" x1="51.8743" y1="69.2987" x2="67.3908" y2="54.0553" gradientUnits="userSpaceOnUse">
<stop offset="0.21" stop-color="#79643F"/>
<stop offset="0.41" stop-color="#947848"/>
<stop offset="0.5" stop-color="#AF8B51"/>
<stop offset="0.75" stop-color="#C9AB74"/>
<stop offset="0.79" stop-color="#E4CB96"/>
<stop offset="0.89" stop-color="#ECD39D"/>
<stop offset="1" stop-color="#F4DCA4"/>
</linearGradient>
<linearGradient id="paint2_linear_78_13165" x1="33.1194" y1="42.9396" x2="40.6929" y2="35.5199" gradientUnits="userSpaceOnUse">
<stop offset="0.13" stop-color="#79643F"/>
<stop offset="0.23" stop-color="#947848"/>
<stop offset="0.32" stop-color="#AF8B51"/>
<stop offset="0.42" stop-color="#C7A971"/>
<stop offset="0.56" stop-color="#DFC692"/>
<stop offset="0.76" stop-color="#E7CE9A"/>
<stop offset="0.9" stop-color="#EED6A1"/>
</linearGradient>
<linearGradient id="paint3_linear_78_13165" x1="27.1156" y1="35.9134" x2="33.8113" y2="29.3398" gradientUnits="userSpaceOnUse">
<stop stop-color="#356B00"/>
<stop offset="0.12" stop-color="#316600"/>
<stop offset="0.31" stop-color="#2E6100"/>
<stop offset="0.52" stop-color="#558504"/>
<stop offset="0.72" stop-color="#7CA807"/>
<stop offset="0.94" stop-color="#6A9304"/>
<stop offset="1" stop-color="#577E00"/>
</linearGradient>
<clipPath id="clip0_78_13165">
<rect width="80" height="80" fill="white"/>
</clipPath>
</defs>
</svg>
